<svg id="Calque_1" data-name="Calque 1" xmlns="http://www.w3.org/2000/svg" viewBox="0 0 259 255">
  <defs>
    <style>
      .cls-1 {
        fill: none;
      }
    </style>
  </defs>
  <title>audience-01</title>
  <path class="cls-1" d="M129.5,130A28.5,28.5,0,1,0,101,101.5,28.5,28.5,0,0,0,129.5,130Zm0-46.14a17.64,17.64,0,1,1-17.64,17.64A17.64,17.64,0,0,1,129.5,83.86ZM91.44,183a5.47,5.47,0,0,0,5.44-5.5V172a21.87,21.87,0,0,1,21.75-22h21.75a21.88,21.88,0,0,1,21.75,22v5.5a5.44,5.44,0,1,0,10.87,0V172a32.81,32.81,0,0,0-32.62-33H118.63A32.81,32.81,0,0,0,86,172v5.5A5.47,5.47,0,0,0,91.44,183ZM14.24,66.83A24.36,24.36,0,1,0,7,49.5,24.45,24.45,0,0,0,14.24,66.83Zm7.69-26.95A13.6,13.6,0,1,1,22.1,59,13.57,13.57,0,0,1,21.93,39.88ZM208.24,57.83A24.36,24.36,0,1,0,201,40.5a24.45,24.45,0,0,0,7.24,17.33Zm7.69-26.95a13.61,13.61,0,1,1,0,19.24A13.58,13.58,0,0,1,215.93,30.88ZM6.47,132.55h35.7A87.41,87.41,0,0,0,124,214.62v34.92a5.47,5.47,0,0,0,10.94,0V214.62a87.4,87.4,0,0,0,81.86-82.07h35.7a5.46,5.46,0,1,0,0-10.92H216.77A87.4,87.4,0,0,0,135,40.38V5.46a5.47,5.47,0,0,0-10.94,0V40.38a87.4,87.4,0,0,0-81.8,81.25H6.47a5.46,5.46,0,1,0,0,10.92Zm123-81.45A76.4,76.4,0,1,1,53,127.5,76.48,76.48,0,0,1,129.5,51.1ZM31.61,240a24.5,24.5,0,1,0-17.42-7.16A24.49,24.49,0,0,0,31.61,240ZM22,205.89A13.61,13.61,0,1,1,22.17,225,13.6,13.6,0,0,1,22,205.89ZM225.48,231a24.5,24.5,0,1,0-17.32-7.19A24.49,24.49,0,0,0,225.48,231Zm-9.64-34.11a13.61,13.61,0,1,1,0,19.25A13.61,13.61,0,0,1,215.84,196.89Z"/>
</svg>
