<?xml version="1.0" encoding="utf-8"?>
<!-- Generator: Adobe Illustrator 23.0.6, SVG Export Plug-In . SVG Version: 6.00 Build 0)  -->
<svg version="1.1" id="Calque_1" xmlns="http://www.w3.org/2000/svg" xmlns:xlink="http://www.w3.org/1999/xlink" x="0px" y="0px"
	 viewBox="0 0 550 400" style="enable-background:new 0 0 550 400;" xml:space="preserve">
<style type="text/css">
	.st0{fill:#FFFFFF;stroke:#27D6BC;stroke-miterlimit:10;}
</style>
<title>cta</title>
<path class="st0" d="M274.5,1.5v11 M274.5,15v11 M274.6,27.3v11 M274.6,40.8v11 M274.5,53.4v11 M274.5,66.9v11 M274.6,79.2v11
	 M274.6,92.7v11"/>
<path class="st0" d="M274.4,105.1v11 M274.4,118.6v11 M274.5,130.9v11 M274.5,144.4v11 M274.5,157v11 M274.5,170.5v11 M274.6,182.8
	v11 M274.6,196.3v11"/>
<path class="st0" d="M274.4,208.8v11 M274.4,222.3v11 M274.5,234.6v11 M274.5,248.1v11 M274.4,260.7v11 M274.4,274.2v11
	 M274.5,286.5v11 M274.5,300v11"/>
</svg>
