<svg id="Calque_1" data-name="Calque 1" xmlns="http://www.w3.org/2000/svg" viewBox="0 0 550 400">
  <defs>
    <style>
      .cls-1 {
        fill: #fff;
      }
    </style>
  </defs>
  <title>mothionPath_Plan de travail 1</title>
  <g>
    <path class="cls-1" d="M213.3,400.52a54.3,54.3,0,0,1-7.73-.52c-47.84-6.81-99.41-32.24-138-68-21-19.46-37.36-41.08-48.72-64.28C6.44,242.29.42,215.64,1,188.51c.86-39.88,16.27-80.75,43.4-115.08C70.55,40.33,104.73,16.38,140.64,6a99.35,99.35,0,0,1,28-3.81c51.17,0,121,34.17,236.61,90.78,17.36,8.5,19.41,10.06,27.06,15.87,9.5,7.21,27.16,20.63,91.9,61.1l1.7,1.07c22.79,14.24,36.55,22.84,38.06,36.56,3.16,28.7-50.33,56.87-85.73,75.51C334.42,358.81,255.19,400.52,213.3,400.52Z"/>
    <path d="M168.67,2.67c24.08,0,52.85,7.34,93.27,23.8C300,42,346.38,64.67,405.06,93.4c17.31,8.47,19.36,10,27,15.82,9.5,7.21,27.18,20.65,91.93,61.13l1.7,1.06c22.67,14.17,36.35,22.72,37.84,36.2,3.11,28.36-50.2,56.43-85.48,75C334.26,358.32,255.07,400,213.3,400a54.72,54.72,0,0,1-7.66-.51c-47.74-6.8-99.22-32.18-137.69-67.89-20.92-19.41-37.28-41-48.61-64.13C6.92,242.14.92,215.57,1.5,188.52,2.35,148.75,17.73,108,44.79,73.74A210.75,210.75,0,0,1,88.88,31.86a175,175,0,0,1,51.9-25.4,99,99,0,0,1,27.89-3.79h0m0-1A100.38,100.38,0,0,0,140.5,5.5C68,26.48,2.32,103.83.5,188.5c-2.46,114.17,112.16,198.77,205,212a55.31,55.31,0,0,0,7.8.52c42,0,119.4-40.74,265.2-117.52,40.93-21.56,89.07-48.1,86-76-1.57-14.3-16-23-40-38-117.41-73.41-80.23-58-119-77C288.16,35.05,220,1.66,168.67,1.67Z"/>
  </g>
</svg>
