<svg id="Calque_1" data-name="Calque 1" xmlns="http://www.w3.org/2000/svg" viewBox="0 0 434 400.08">
  <defs>
    <style>
      .cls-1 {
        fill: #fff;
      }
    </style>
  </defs>
  <title>mothionPath_Plan de travail 1</title>
  <g>
    <ellipse class="cls-1" cx="217" cy="200.04" rx="216.5" ry="199.54"/>
    <path d="M290,0V1a230.61,230.61,0,0,1,84.1,15.65,217,217,0,0,1,68.66,42.68A198.26,198.26,0,0,1,489,122.59a185.3,185.3,0,0,1,0,154.89,198.3,198.3,0,0,1-46.28,63.27,216.93,216.93,0,0,1-68.66,42.67,233.65,233.65,0,0,1-168.2,0,216.93,216.93,0,0,1-68.66-42.67A198.3,198.3,0,0,1,91,277.48a185.3,185.3,0,0,1,0-154.89,198.41,198.41,0,0,1,46.28-63.27A217.11,217.11,0,0,1,205.9,16.65,230.61,230.61,0,0,1,290,1V0m0,0C170.15,0,73,89.56,73,200s97.15,200,217,200,217-89.56,217-200S409.85,0,290,0Z" transform="translate(-73 0)"/>
  </g>
</svg>
