<svg xmlns="http://www.w3.org/2000/svg" width="258" height="255" viewBox="0 0 258 255">
    <g fill="none" fill-rule="evenodd">
        <g fill="#FFF" fill-rule="nonzero">
            <g>
                <path d="M128.839 130c15.74 0 28.5-12.76 28.5-28.5s-12.76-28.5-28.5-28.5-28.5 12.76-28.5 28.5c.015 15.734 12.766 28.485 28.5 28.5zm0-46.143c9.744 0 17.643 7.9 17.643 17.643 0 9.744-7.9 17.643-17.643 17.643-9.744 0-17.643-7.9-17.643-17.643.015-9.738 7.905-17.628 17.643-17.643zM90.776 183c3.003 0 5.438-2.462 5.438-5.5V172c0-12.15 9.738-22 21.75-22h21.75c12.012 0 21.75 9.85 21.75 22v5.5c0 3.038 2.434 5.5 5.437 5.5s5.438-2.462 5.438-5.5V172c0-18.225-14.607-33-32.625-33h-21.75c-18.018 0-32.625 14.775-32.625 33v5.5c0 3.038 2.434 5.5 5.437 5.5zM13.576 66.827c9.555 9.565 25.045 9.564 34.598-.004 9.553-9.567 9.553-25.079 0-34.646-9.553-9.568-25.043-9.57-34.598-.004-4.63 4.573-7.237 10.814-7.237 17.327 0 6.513 2.607 12.754 7.237 17.327zm7.693-26.95c3.413-3.538 8.466-4.957 13.218-3.712 4.753 1.246 8.464 4.962 9.708 9.721 1.244 4.759-.173 9.82-3.707 13.237-5.333 5.158-13.81 5.085-19.053-.166-5.243-5.25-5.317-13.74-.166-19.08zM207.576 57.827c9.555 9.565 25.045 9.564 34.598-.004 9.553-9.567 9.553-25.079 0-34.646-9.553-9.568-25.043-9.57-34.598-.004-4.63 4.573-7.237 10.814-7.237 17.327 0 6.513 2.607 12.754 7.237 17.327zm7.693-26.95c3.887-3.894 9.734-5.059 14.813-2.952 5.08 2.106 8.392 7.07 8.392 12.575 0 5.506-3.312 10.469-8.392 12.575-5.08 2.107-10.926.942-14.813-2.952-5.306-5.315-5.306-13.93 0-19.246z" transform="translate(-212 -238) translate(212 238)"/>
                <path d="M5.807 132.548h35.706c2.568 44.076 37.703 79.303 81.858 82.071v34.924c0 3.014 2.448 5.457 5.468 5.457s5.468-2.443 5.468-5.457V214.62c44.154-2.768 79.29-37.995 81.857-82.071h35.707c3.02 0 5.468-2.444 5.468-5.457 0-3.014-2.448-5.457-5.468-5.457h-35.762c-2.96-43.738-37.961-78.503-81.802-81.253V5.457c0-3.014-2.448-5.457-5.468-5.457s-5.468 2.443-5.468 5.457V40.38c-43.841 2.75-78.842 37.515-81.803 81.253H5.807c-3.02 0-5.468 2.443-5.468 5.457 0 3.013 2.448 5.457 5.468 5.457zm123.032-81.444c42.279 0 76.553 34.203 76.553 76.396s-34.274 76.396-76.553 76.396c-42.28 0-76.553-34.203-76.553-76.396s34.274-76.396 76.553-76.396zM30.952 240c11.68-.055 21.696-8.346 23.931-19.81 2.236-11.462-3.93-22.91-14.733-27.349s-23.237-.635-29.707 9.087c-6.47 9.723-5.178 22.662 3.088 30.912 4.61 4.628 10.889 7.208 17.421 7.16zm-9.609-34.108c3.417-3.538 8.478-4.957 13.236-3.712 4.759 1.246 8.475 4.962 9.72 9.72 1.246 4.76-.173 9.82-3.71 13.237-5.341 5.158-13.83 5.084-19.08-.166-5.25-5.25-5.324-13.739-.166-19.08zM224.816 231c11.688.01 21.756-8.238 24.046-19.7 2.29-11.462-3.837-22.945-14.632-27.426-10.795-4.48-23.252-.712-29.753 9.002-6.5 9.714-5.233 22.668 3.027 30.938 4.58 4.61 10.813 7.198 17.312 7.186zm-9.636-34.108c3.892-3.893 9.747-5.058 14.833-2.952s8.403 7.07 8.403 12.575c0 5.505-3.317 10.468-8.403 12.575-5.086 2.106-10.94.94-14.833-2.953-5.313-5.314-5.313-13.93 0-19.245z" transform="translate(-212 -238) translate(212 238)"/>
            </g>
        </g>
    </g>
</svg>
