<svg id="Calque_1" data-name="Calque 1" xmlns="http://www.w3.org/2000/svg" viewBox="0 0 336 334">
  <defs>
    <style>
      .cls-1 {
        fill: none;
      }
    </style>
  </defs>
  <title>noun-target-audience02</title>
  <path class="cls-1" d="M167.84,167a28.5,28.5,0,1,0-28.5-28.5A28.5,28.5,0,0,0,167.84,167Zm0-46.14A17.64,17.64,0,1,1,150.2,138.5,17.64,17.64,0,0,1,167.84,120.86ZM129.78,220a5.46,5.46,0,0,0,5.43-5.5V209A21.88,21.88,0,0,1,157,187h21.75a21.87,21.87,0,0,1,21.75,22v5.5a5.44,5.44,0,1,0,10.88,0V209a32.81,32.81,0,0,0-32.63-33H157a32.81,32.81,0,0,0-32.62,33v5.5A5.47,5.47,0,0,0,129.78,220ZM52.58,103.83A24.36,24.36,0,1,0,45.34,86.5,24.43,24.43,0,0,0,52.58,103.83Zm7.69-26.95A13.6,13.6,0,1,1,60.43,96,13.57,13.57,0,0,1,60.27,76.88Zm186.31,18a24.36,24.36,0,1,0-7.24-17.33,24.43,24.43,0,0,0,7.24,17.33Zm7.69-26.95a13.6,13.6,0,1,1,0,19.24,13.58,13.58,0,0,1,0-19.24ZM7.15,173.61H53.83a114.38,114.38,0,0,0,107,107.5v45.74a7.15,7.15,0,0,0,14.3,0V281.11a114.38,114.38,0,0,0,107-107.5h46.68a7.15,7.15,0,1,0,0-14.29H282.1a114.37,114.37,0,0,0-107-106.43V7.15a7.15,7.15,0,1,0-14.3,0V52.89A114.37,114.37,0,0,0,53.9,159.32H7.15a7.15,7.15,0,1,0,0,14.29ZM167.5,67C223,67,268,111.77,268,167S223,267,167.5,267,67,222.23,67,167,112,67,167.5,67ZM70,277a24.5,24.5,0,1,0-17.42-7.16A24.49,24.49,0,0,0,70,277Zm-9.61-34.11A13.61,13.61,0,1,1,60.51,262a13.6,13.6,0,0,1-.17-19.08ZM263.82,268a24.5,24.5,0,1,0-17.32-7.19A24.5,24.5,0,0,0,263.82,268Zm-9.64-34.11a13.61,13.61,0,1,1,0,19.25,13.61,13.61,0,0,1,0-19.25Z"/>
</svg>
