<svg id="Calque_1" data-name="Calque 1" xmlns="http://www.w3.org/2000/svg" viewBox="0 0 427 423">
  <defs>
    <style>
      .cls-1 {
        fill: none;
      }
    </style>
  </defs>
  <title>noun-target-audience01</title>
  <path class="cls-1" d="M213.84,212a28.5,28.5,0,1,0-28.5-28.5A28.5,28.5,0,0,0,213.84,212Zm0-46.14A17.64,17.64,0,1,1,196.2,183.5,17.64,17.64,0,0,1,213.84,165.86ZM175.78,265a5.46,5.46,0,0,0,5.43-5.5V254A21.88,21.88,0,0,1,203,232h21.75a21.87,21.87,0,0,1,21.75,22v5.5a5.44,5.44,0,1,0,10.88,0V254a32.81,32.81,0,0,0-32.63-33H203a32.81,32.81,0,0,0-32.62,33v5.5a5.47,5.47,0,0,0,5.44,5.5ZM98.58,148.83a24.36,24.36,0,1,0-7.24-17.33A24.43,24.43,0,0,0,98.58,148.83Zm7.69-27a13.6,13.6,0,1,1,.17,19.08A13.57,13.57,0,0,1,106.27,121.88Zm186.31,18a24.36,24.36,0,1,0-7.24-17.33A24.43,24.43,0,0,0,292.58,139.83Zm7.69-27a13.6,13.6,0,1,1,0,19.24A13.58,13.58,0,0,1,300.27,112.88ZM9.09,219.87H68.41C72.68,293,131.05,351.42,204.42,356V414a9.09,9.09,0,0,0,18.17,0V356c73.36-4.6,131.73-63,136-136.15h59.33a9.05,9.05,0,1,0,0-18.1H358.5C353.58,129.22,295.43,71.55,222.59,67V9.05a9.09,9.09,0,0,0-18.17,0V67c-72.84,4.56-131,62.23-135.92,134.78H9.09a9.05,9.05,0,1,0,0,18.1ZM212,86c70.14,0,127,56.64,127,126.5S282.14,339,212,339,85,282.36,85,212.5,141.86,86,212,86ZM116,322a24.5,24.5,0,1,0-17.42-7.16A24.49,24.49,0,0,0,116,322Zm-9.61-34.11a13.61,13.61,0,1,1,.17,19.08,13.6,13.6,0,0,1-.17-19.08ZM309.82,313a24.5,24.5,0,1,0-17.32-7.19A24.5,24.5,0,0,0,309.82,313Zm-9.64-34.11a13.61,13.61,0,1,1,0,19.25,13.61,13.61,0,0,1,0-19.25Z"/>
</svg>
