<svg id="Calque_1" data-name="Calque 1" xmlns="http://www.w3.org/2000/svg" viewBox="0 0 258 255">
  <defs>
    <style>
      .cls-1 {
        fill: none;
      }
    </style>
  </defs>
  <title>noun-target-audience03</title>
  <path class="cls-1" d="M128.84,130a28.5,28.5,0,1,0-28.5-28.5A28.5,28.5,0,0,0,128.84,130Zm0-46.14A17.64,17.64,0,1,1,111.2,101.5,17.64,17.64,0,0,1,128.84,83.86ZM90.78,183a5.46,5.46,0,0,0,5.43-5.5V172A21.88,21.88,0,0,1,118,150h21.75a21.87,21.87,0,0,1,21.75,22v5.5a5.44,5.44,0,1,0,10.88,0V172a32.81,32.81,0,0,0-32.63-33H118a32.81,32.81,0,0,0-32.62,33v5.5A5.47,5.47,0,0,0,90.78,183ZM13.58,66.83A24.36,24.36,0,1,0,6.34,49.5,24.43,24.43,0,0,0,13.58,66.83Zm7.69-26.95A13.6,13.6,0,1,1,21.43,59,13.57,13.57,0,0,1,21.27,39.88ZM207.58,57.83a24.36,24.36,0,1,0-7.24-17.33,24.43,24.43,0,0,0,7.24,17.33Zm7.69-26.95a13.61,13.61,0,1,1,0,19.24A13.58,13.58,0,0,1,215.27,30.88ZM5.81,132.55h35.7a87.41,87.41,0,0,0,81.86,82.07v34.92a5.47,5.47,0,0,0,10.94,0V214.62a87.39,87.39,0,0,0,81.85-82.07h35.71a5.46,5.46,0,1,0,0-10.92H216.11a87.4,87.4,0,0,0-81.8-81.25V5.46a5.47,5.47,0,0,0-10.94,0V40.38a87.4,87.4,0,0,0-81.8,81.25H5.81a5.46,5.46,0,1,0,0,10.92Zm123-81.45a76.4,76.4,0,1,1-76.55,76.4,76.48,76.48,0,0,1,76.55-76.4ZM31,240a24.5,24.5,0,1,0-17.42-7.16A24.49,24.49,0,0,0,31,240Zm-9.61-34.11A13.61,13.61,0,1,1,21.51,225a13.6,13.6,0,0,1-.17-19.08ZM224.82,231a24.5,24.5,0,1,0-17.32-7.19A24.5,24.5,0,0,0,224.82,231Zm-9.64-34.11a13.61,13.61,0,1,1,0,19.25A13.61,13.61,0,0,1,215.18,196.89Z"/>
</svg>
