<svg xmlns="http://www.w3.org/2000/svg" width="321" height="266" viewBox="0 0 321 266">
    <g fill="none" fill-rule="evenodd">
        <g fill="#FFF" fill-rule="nonzero">
            <g>
                <g>
                    <path d="M73.199 51.513c-4.344 4.42-4.28 11.61.144 15.951 4.423 4.342 11.616 4.277 15.96-.144 4.344-4.42 4.279-11.61-.144-15.952-4.423-4.341-11.617-4.276-15.96.145zm217.728 144.96c-4.109 4.181-10.913 4.243-15.097.136-4.184-4.106-4.245-10.907-.137-15.089 4.11-4.181 10.914-4.243 15.098-.136 4.183 4.106 4.245 10.907.136 15.089zm-4.346-4.267c1.763-1.794 1.737-4.716-.059-6.478-1.796-1.763-4.718-1.736-6.482.058-1.764 1.795-1.737 4.716.059 6.479 1.795 1.763 4.718 1.736 6.482-.059zM278.549 23.19c-5.256 5.348-13.96 5.427-19.312.174-5.351-5.252-5.43-13.952-.174-19.3 5.255-5.35 13.96-5.428 19.311-.175 5.352 5.253 5.43 13.952.175 19.3zm-4.347-4.267c2.91-2.962 2.867-7.781-.096-10.69-2.964-2.909-7.786-2.865-10.697.097-2.91 2.962-2.867 7.781.097 10.69 2.964 2.91 7.786 2.865 10.696-.097zm43.756 131.661c-4.109 4.182-10.913 4.243-15.097.137-4.184-4.107-4.245-10.908-.137-15.09 4.109-4.181 10.914-4.243 15.098-.136 4.183 4.107 4.245 10.908.136 15.09zm-4.346-4.266c1.763-1.795 1.737-4.716-.06-6.479-1.795-1.763-4.718-1.736-6.481.059-1.764 1.795-1.737 4.716.058 6.478 1.796 1.763 4.719 1.737 6.483-.058zm-283.54-74.6c4.11-4.181 10.914-4.243 15.098-.136 4.184 4.106 4.245 10.907.137 15.089-4.11 4.181-10.914 4.243-15.098.136-4.183-4.106-4.245-10.907-.136-15.089zm4.347 4.267c-1.763 1.794-1.737 4.716.059 6.478 1.796 1.763 4.718 1.736 6.482-.058 1.764-1.795 1.737-4.716-.059-6.479-1.795-1.763-4.718-1.736-6.482.059zm7.89 166.825c5.256-5.349 13.96-5.427 19.312-.174 5.351 5.252 5.43 13.952.175 19.3-5.256 5.35-13.96 5.428-19.312.175-5.351-5.252-5.43-13.952-.175-19.3zm4.347 4.267c-2.91 2.961-2.867 7.781.097 10.69 2.963 2.909 7.786 2.865 10.696-.097s2.867-7.781-.097-10.69c-2.963-2.909-7.786-2.866-10.696.097zM3.042 117.607c4.109-4.182 10.913-4.243 15.097-.137 4.184 4.107 4.245 10.908.137 15.09-4.109 4.181-10.914 4.243-15.098.136-4.183-4.107-4.245-10.908-.136-15.09zm4.346 4.266c-1.763 1.795-1.737 4.716.06 6.479 1.795 1.762 4.718 1.736 6.481-.059 1.764-1.795 1.737-4.716-.058-6.478-1.796-1.763-4.719-1.737-6.483.058zm115.965-24.728l-30.15-25.12c-5.387 5.106-13.492 6.214-20.042 2.768L55.4 119.665c9.273 2.892 14.45 12.954 11.257 22.233l17.525 8.974c1.619-2.927 4.22-5.234 7.326-6.483l-5.19-27.08c-3.133.15-6.159-1-8.398-3.198-4.395-4.313-4.46-11.454-.143-15.846 4.316-4.393 11.46-4.457 15.855-.143 1.851 1.817 2.938 4.12 3.257 6.505l23.823.318c.237-2.726 1.117-5.407 2.64-7.8zm-27.778-27.89l30.05 25.037.001-.001c1.92-1.953 4.187-3.357 6.607-4.21l-4.987-13.628c-4.443 1.103-9.145-.165-12.426-3.385-5.166-5.07-5.242-13.466-.168-18.63 5.073-5.163 13.473-5.238 18.64-.168 5.165 5.071 5.241 13.466.168 18.63-.86.875-1.813 1.605-2.828 2.19l5.176 14.143c5.292-.677 10.576 1.089 14.394 4.836 6.811 6.685 6.911 17.754.222 24.562-1.168 1.188-2.464 2.173-3.846 2.954l6.485 17.722c5.82-1.394 11.955.288 16.243 4.497 3.836 3.764 5.698 9.05 5.09 14.373l20.776 5.092c.823-2.276 2.137-4.416 3.944-6.255 7.378-7.508 19.75-6.717 26.157 1.556l24.8-19.709c-.763-2.8-.809-5.79-.135-8.612l-22.625-6.383c-.624 1.411-1.508 2.737-2.654 3.903-5.074 5.164-13.473 5.24-18.64.169-4.96-4.869-5.26-12.865-.676-18.083l-13.429-17.16c-6.788 4.324-15.747 3.386-21.506-2.267-6.811-6.686-6.911-17.754-.222-24.562 1.179-1.2 2.489-2.191 3.885-2.976l-12.137-19.06c-8.763 2.274-17.895-2.57-20.838-11.214l-44.473 18.69c2.995 5.667 2.596 12.664-1.048 17.95zm-12.743 85.013l-17.716-9.07c-2.17 3.601-5.587 6.317-9.601 7.599l18.894 44.407c3.642-1.957 7.9-2.543 11.934-1.667l4.924-24.181c-1.64-.695-3.18-1.703-4.53-3.027-3.728-3.66-5.204-9.026-3.905-14.06zm11.958 18.079l-4.958 24.347c1.799.817 3.488 1.958 4.98 3.422 5.298 5.2 6.697 13.238 3.497 19.905l45.642 15.757c.819-1.639 1.889-3.13 3.16-4.425 6.69-6.807 17.765-6.907 24.576-.222 2.719 2.668 4.565 6.225 5.065 10.206l45.853-18.922c-5.83-6.798-5.473-17.069.808-23.46 5.815-5.92 15.152-6.886 22.04-2.284l16.523-45.701c-4.513-1.314-8.311-4.423-10.505-8.57l-24.273 19.29c3.138 6.56 1.834 14.456-3.284 19.664-6.69 6.807-17.764 6.907-24.575.222-3.934-3.861-5.786-9.32-5.04-14.761l-20.697-5.073c-1.266 3.764-3.81 6.994-7.157 9.121l12.746 25.682c4.488-1.686 9.592-.619 13.027 2.753 4.849 4.76 4.92 12.639.158 17.485-4.762 4.847-12.646 4.918-17.495.158-5.352-5.253-4.783-14.066 1.12-18.62l-12.823-25.838c-4.114 1.523-8.726 1.43-12.773-.266l-9.1 16.877c.773.543 1.513 1.156 2.21 1.84 6.81 6.685 6.91 17.753.221 24.561-6.69 6.808-17.763 6.908-24.575.222-6.811-6.686-6.912-17.754-.222-24.562 4.996-5.084 12.633-6.594 19.174-3.83l9.095-16.866c-8.758-6.102-10.017-18.76-2.477-26.433 1.458-1.484 3.118-2.65 4.893-3.5l-6.4-17.489c-5.362 1.675-11.256.659-15.735-2.762l-20.867 26.712c.193.17.382.346.567.528 10.077 9.891 1.465 26.908-12.4 24.832zm25.987-63.76l-23.995-.32c-.73 3.752-3.346 6.886-6.902 8.28l5.159 26.916c2.93-.388 5.926.118 8.563 1.465l21.224-27.169c-2.293-2.67-3.644-5.873-4.049-9.173zm44.642-66.078l12.05 18.925c6.084-1.867 12.731-.267 17.293 4.21 1.667 1.637 2.934 3.527 3.8 5.549l19.454-7.435c-1.559-4.472-1.215-9.475.96-13.687l-44.999-17.368c-1.471 4.246-4.555 7.771-8.558 9.806zm29.348 47.914l13.34 17.045c2.67-1.726 5.89-2.42 9.032-1.968l8.568-32.44c-2.503-1.452-4.626-3.531-6.132-6.001l-19.938 7.62c1.103 5.622-.621 11.424-4.653 15.527l-.217.217zm34.31-15.862l-8.44 31.95c1.393.622 2.7 1.498 3.853 2.629 2.99 2.935 4.395 7.089 3.819 11.224l22.847 6.445c2.071-4.33 5.866-7.639 10.454-9.085l-18.916-44.41c-4.154 2.247-9.128 2.695-13.618 1.247zm-50.008 129.161c-2.416 2.46-2.38 6.46.08 8.875 2.461 2.415 6.464 2.38 8.88-.08 2.417-2.46 2.38-6.46-.08-8.875s-6.463-2.38-8.88.08zm31.129-90.147c-2.729 2.776-2.688 7.292.09 10.018 2.778 2.727 7.296 2.686 10.024-.09 2.728-2.776 2.687-7.292-.09-10.019-2.778-2.726-7.296-2.686-10.024.09zM82.124 102.53c-1.97 2.005-1.94 5.267.066 7.236 2.006 1.97 5.27 1.94 7.24-.065 1.97-2.005 1.94-5.267-.066-7.236-2.006-1.97-5.27-1.94-7.24.065zm36.874-43.826c-2.728 2.776-2.687 7.292.091 10.019 2.778 2.726 7.296 2.685 10.024-.09 2.728-2.777 2.687-7.293-.09-10.02-2.778-2.726-7.297-2.685-10.025.091zm84.465 102.575c-4.344 4.42-4.279 11.61.144 15.952 4.423 4.341 11.617 4.276 15.96-.145 4.344-4.42 4.28-11.61-.144-15.951-4.423-4.342-11.616-4.277-15.96.144zm-80.178 34.142c-4.343 4.42-4.278 11.61.145 15.951 4.423 4.342 11.616 4.277 15.96-.144 4.344-4.42 4.279-11.61-.144-15.952-4.423-4.341-11.617-4.276-15.96.145zm-32.279-31.437c7.903 7.757 19.972-4.217 11.915-12.126-7.97-7.821-19.883 4.304-11.915 12.126zm58.072-15.693c-4.344 4.421-4.28 11.61.144 15.952 3.825 3.755 9.724 4.213 14.058 1.408 5.999-3.883 6.904-12.452 1.758-17.504-4.423-4.341-11.617-4.276-15.96.144zm25.455-78.16c-4.344 4.421-4.279 11.61.144 15.952 4.423 4.342 11.617 4.277 15.96-.144 4.344-4.42 4.279-11.61-.144-15.952-4.423-4.341-11.616-4.276-15.96.145zm-44.56 28.425c-4.344 4.42-4.279 11.61.144 15.952 4.423 4.34 11.617 4.276 15.96-.145 4.344-4.42 4.28-11.61-.144-15.951-4.423-4.342-11.616-4.277-15.96.144zm97.786 104.664c-4.344 4.42-4.279 11.61.144 15.951 4.423 4.342 11.617 4.277 15.96-.144 4.344-4.42 4.28-11.61-.144-15.951-4.423-4.342-11.616-4.277-15.96.144zm22.444-1.837c4.613 6.793 3.774 16.042-1.993 21.91-5.25 5.344-13.388 6.714-20.084 3.413l-51.848 21.397c-.792 2.9-2.318 5.502-4.369 7.589-6.688 6.806-17.765 6.906-24.575.222-3.819-3.748-5.678-8.994-5.099-14.298L94.55 225.154c-6.752 6.363-17.467 6.247-24.09-.253-6.503-6.384-6.938-16.858-.977-23.744L49.244 153.59c-21.716-1.199-21.504-33.381-.09-34.678l19.02-48.056c-5.958-6.788-5.656-17.165.678-23.61 6.425-6.54 16.98-6.933 23.864-.884l47.468-19.948c.315-9.285 7.91-16.682 17.21-16.766 9.483-.085 17.287 7.446 17.53 16.918l47.936 18.502c6.784-6.058 17.25-5.802 23.743.571 6.49 6.37 6.939 16.817 1.01 23.705l20.279 47.609c4.32.257 8.222 2.094 11.127 4.945 6.81 6.685 6.91 17.756.222 24.563-2.854 2.904-6.724 4.812-11.042 5.146l-17.996 49.776zM226.518 66.08c4.424 4.341 11.617 4.276 15.96-.144 4.344-4.42 4.28-11.61-.144-15.952-4.423-4.341-11.616-4.276-15.96.144-4.344 4.421-4.279 11.61.144 15.952zM74.728 220.556c4.423 4.342 11.616 4.277 15.96-.144 4.344-4.42 4.279-11.61-.144-15.951-4.423-4.342-11.617-4.277-15.96.144-4.344 4.42-4.28 11.61.144 15.951zm94.109-193.64c-.056-6.23-5.154-11.234-11.387-11.177-6.233.056-11.24 5.15-11.184 11.38.136 15.02 22.704 14.475 22.571-.203zM151.602 251.57c4.423 4.34 11.617 4.275 15.96-.144 4.33-4.407 4.318-11.573-.144-15.952-4.422-4.34-11.617-4.276-15.96.144-4.344 4.42-4.279 11.61.144 15.952zm115.343-106c3.116-.028 5.926-1.316 7.95-3.376 4.343-4.42 4.278-11.61-.144-15.951-2.06-2.023-4.894-3.26-8.01-3.232-14.742.134-14.76 22.694.204 22.559zm-216.623 1.957c14.741-.133 14.759-22.693-.205-22.558-14.74.133-14.759 22.693.205 22.558z" transform="translate(-800 -3546) translate(300 3546) translate(500)"/>
                </g>
            </g>
        </g>
    </g>
</svg>
