<?xml version="1.0" encoding="utf-8"?>
<!-- Generator: Adobe Illustrator 23.0.6, SVG Export Plug-In . SVG Version: 6.00 Build 0)  -->
<svg version="1.1" id="Calque_1" xmlns="http://www.w3.org/2000/svg" xmlns:xlink="http://www.w3.org/1999/xlink" x="0px" y="0px"
	 viewBox="0 0 51.4 50.4" style="enable-background:new 0 0 51.4 50.4;" xml:space="preserve">
<style type="text/css">
	.st0{fill:#FFFFFF;}
</style>
<title>cinema</title>
<g>
	<g id="Layer_1">
		<g>
			<path class="st0" d="M10.2,18.5L50,7.9L47.9,0L0,12.8l1,3.7c-0.1-1.4,1-2.7,2.4-2.8c0,0,0.1,0,0.1,0c0.2,0,0.4,0,0.6,0.1l4-1.1
				l-1.7,2.9l5.1,5.8c1.1,1,1.2,2.8,0.2,4c-0.6,0.7-1.5,1-2.4,0.9H5.1c-1.3,0-2.5-0.6-3.3-1.6v2.1h1v23.7h47.6V26.7h1v-8.2H10.2z
				 M33.7,5.8l8.6-2.3l-3,5.2l-8.6,2.3L33.7,5.8z M16.5,10.4l8.6-2.3l-3,5.2l-8.6,2.3L16.5,10.4z M23.1,20.5l4.3,4.3h-8.9l-4.3-4.3
				H23.1z M43.7,39.2h-9.3v8.3h-1v-8.3H19.9v8.3h-1v-8.3H9.6v-1h34.1V39.2z M43.7,32.5H9.6v-1h34.1V32.5z M36.1,24.8l-4.3-4.3h8.9
				l4.3,4.3L36.1,24.8z"/>
			<path class="st0" d="M9.2,24.3c1.2,0,1.5-0.7,0.8-1.6l-5.6-6.5c-0.8-0.9-1.4-0.7-1.4,0.5v5.4c0,1.2,1,2.2,2.2,2.2H9.2z M8.2,22.2
				c0.4,0,0.7,0.3,0.7,0.7s-0.3,0.7-0.7,0.7c-0.4,0-0.7-0.3-0.7-0.7C7.5,22.5,7.8,22.2,8.2,22.2C8.2,22.2,8.2,22.2,8.2,22.2
				L8.2,22.2z M4.3,23.5c-0.4,0-0.7-0.3-0.7-0.7c0-0.4,0.3-0.7,0.7-0.7c0.4,0,0.7,0.3,0.7,0.7C5,23.2,4.7,23.5,4.3,23.5
				C4.3,23.5,4.3,23.5,4.3,23.5z M4.3,18.6c-0.4,0-0.6-0.4-0.6-0.8c0-0.3,0.3-0.6,0.6-0.6c0.4,0,0.7,0.2,0.8,0.6
				c0,0.4-0.2,0.7-0.6,0.8C4.4,18.6,4.4,18.6,4.3,18.6z"/>
		</g>
	</g>
</g>
</svg>
