<?xml version="1.0" encoding="utf-8"?>
<!-- Generator: Adobe Illustrator 23.0.6, SVG Export Plug-In . SVG Version: 6.00 Build 0)  -->
<svg version="1.1" id="Calque_1" xmlns="http://www.w3.org/2000/svg" xmlns:xlink="http://www.w3.org/1999/xlink" x="0px" y="0px"
	 viewBox="0 0 21.7 21.8" style="enable-background:new 0 0 21.7 21.8;" xml:space="preserve">
<style type="text/css">
	.st0{fill-rule:evenodd;clip-rule:evenodd;fill:#FFFFFF;}
</style>
<title>club</title>
<g>
	<g id="_7">
		<g>
			<path class="st0" d="M0.6,0.3c-0.1,0-0.2,0.1-0.3,0.3C0.1,1.7,0,2.9,0,4.1C0,5,0.1,5.9,0.2,6.8c0,0.1,0.1,0.3,0.2,0.3
				c0.1,0.1,0.3,0,0.4-0.1l6.3-6.3c0.1-0.1,0.1-0.1,0.1-0.2c0,0,0-0.1,0-0.1c0-0.1-0.2-0.2-0.3-0.2C4.8-0.1,2.7-0.1,0.6,0.3z"/>
			<path class="st0" d="M1,9.3C0.9,9.4,0.9,9.5,0.9,9.7c0.8,2.7,2.3,5.1,4.3,7.1c1.9,2,4.4,3.5,7,4.3c0.1,0,0.3,0,0.4-0.1l8.3-8.3
				c0.1-0.1,0.1-0.2,0.1-0.3v-0.1c-0.8-2.7-2.3-5.1-4.3-7.1c-2-2-4.4-3.4-7-4.3C9.6,0.9,9.4,0.9,9.3,1L1,9.3z M9.1,6.6L8.2,7.4
				L7.6,6.7C7.3,6.5,7,6.5,6.7,6.7c0,0,0,0,0,0C6.5,7,6.5,7.3,6.7,7.6l0.7,0.7L6.5,9.1c-0.2,0.2-0.2,0.6,0,0.8
				c0.2,0.2,0.6,0.3,0.8,0c0,0,0,0,0,0l0.9-0.8l0.9,1l-0.8,0.8c-0.2,0.2-0.2,0.6,0,0.8s0.6,0.2,0.8,0l0.8-0.8l1,1l-0.8,0.8
				c-0.2,0.2-0.2,0.6,0,0.8s0.6,0.2,0.8,0l0,0l0.8-0.8l1,1L12,14.6c-0.2,0.2-0.2,0.6,0,0.9c0.2,0.2,0.6,0.2,0.8,0l0.9-0.9l0.6,0.7
				c0.2,0.2,0.6,0.2,0.8,0c0.1-0.1,0.2-0.3,0.2-0.4c0-0.1-0.1-0.3-0.2-0.4l-0.6-0.7l0.8-0.8c0.2-0.2,0.2-0.6,0-0.8c0,0,0,0,0,0
				c-0.2-0.2-0.6-0.2-0.8,0c0,0,0,0,0,0l-0.8,0.8l-1-1l0.8-0.8c0.1-0.1,0.2-0.3,0.2-0.4c0-0.2-0.1-0.3-0.2-0.4
				c-0.2-0.2-0.6-0.2-0.8,0c0,0,0,0,0,0l-0.8,0.8l-1-1l0.9-0.8c0.1-0.1,0.2-0.3,0.2-0.4c0-0.2-0.1-0.3-0.2-0.4
				c-0.2-0.2-0.6-0.2-0.8,0L10,9.2l-0.9-1l0.8-0.9C10,7.3,10.1,7.1,10.1,7c0-0.2-0.1-0.3-0.2-0.4C9.6,6.3,9.3,6.3,9.1,6.6L9.1,6.6z"
				/>
			<path class="st0" d="M14.6,20.9c-0.1,0.2-0.1,0.4,0,0.6c0.1,0,0.1,0.1,0.2,0.1c2.1,0.3,4.2,0.3,6.3-0.1c0.1,0,0.2-0.1,0.3-0.3
				c0.2-1.1,0.3-2.3,0.4-3.5l0,0c0-0.9-0.1-1.9-0.2-2.8c0-0.1-0.1-0.3-0.3-0.3c-0.1,0-0.3,0-0.4,0.1L14.6,20.9z"/>
		</g>
	</g>
</g>
</svg>
