<svg id="Calque_1" data-name="Calque 1" xmlns="http://www.w3.org/2000/svg" viewBox="0 0 290 281">
  <defs>
    <style>
      .cls-1 {
        fill: none;
      }
    </style>
  </defs>
  <title>data</title>
  <path class="cls-1" d="M259.55,50.62c-17.47,0-31.65,14.47-31.65,32.29a34.29,34.29,0,0,0,.82,7.33l-49.73,21a46.31,46.31,0,0,0-20-19.39l17.16-49.58a11.48,11.48,0,0,0,1.85.1,21,21,0,0,0,20.76-21.17,20.76,20.76,0,1,0-41.52,0,21.29,21.29,0,0,0,9.25,17.61L149.19,88.36a47.22,47.22,0,0,0-10.28-1.16A45.9,45.9,0,0,0,118.56,92l-15.72-25a29.79,29.79,0,0,0,9.25-21.59c0-16.25-13-29.56-29-29.56s-29,13.31-29,29.56S67.08,75,83.11,75a28,28,0,0,0,11.1-2.3l15.72,24.94a46.21,46.21,0,0,0-15.52,25l-60.63-8A16.72,16.72,0,0,0,17.54,101a16.88,16.88,0,0,0,0,33.75,16.56,16.56,0,0,0,14.9-9.64l60.64,8v.74a47.07,47.07,0,0,0,10.68,30l-43.88,47a33.5,33.5,0,0,0-19.83-6.4c-19,0-34.53,15.83-34.53,35.22S21,274.82,40.05,274.82,74.58,259,74.58,239.6A35,35,0,0,0,67.28,218l43.88-47a45.64,45.64,0,0,0,22.3,9.23l-1.54,28a16.66,16.66,0,1,0,10.28.21l1.54-28.09a44.56,44.56,0,0,0,15.62-4.71l44.39,69.8a21.46,21.46,0,0,0-5.55,14.36A20.76,20.76,0,1,0,219,238.66a20.47,20.47,0,0,0-6.68,1.15L167.89,170a45.57,45.57,0,0,0,10.58-12.9l37.92,16.77c0,.53-.1,1.05-.1,1.58a16.55,16.55,0,1,0,16.55-16.88,16.24,16.24,0,0,0-12.34,5.66l-37.92-16.77a45.83,45.83,0,0,0,2-13.62,48.24,48.24,0,0,0-1.75-12.9l49.74-21.06a31.41,31.41,0,0,0,26.82,15.19c17.47,0,31.65-14.46,31.65-32.28s-14.08-32.17-31.45-32.17ZM177.86,10.48a10.69,10.69,0,1,1-10.48,10.69,10.63,10.63,0,0,1,10.48-10.69ZM64.4,45.49A18.71,18.71,0,1,1,83.11,64.56,19,19,0,0,1,64.4,45.49ZM17.54,124.31a6.4,6.4,0,1,1,6.27-6.4A6.29,6.29,0,0,1,17.54,124.31Zm212,135.41A10.49,10.49,0,1,1,219.07,249,10.5,10.5,0,0,1,229.55,259.72ZM233,169a6.39,6.39,0,1,1-6.27,6.39A6.29,6.29,0,0,1,233,169Zm-193,95.27c-13.36,0-24.25-11.11-24.25-24.73s10.89-24.74,24.25-24.74S64.3,225.87,64.3,239.49s-10.89,24.74-24.25,24.74Zm96.8-33.54a6.4,6.4,0,1,1,6.27-6.39A6.29,6.29,0,0,1,136.85,230.69Zm2.06-60.58c-19.63,0-35.56-16.25-35.56-36.27s15.93-36.26,35.56-36.26,35.55,16.24,35.55,36.26-15.92,36.27-35.55,36.27ZM259.55,104.6a21.8,21.8,0,1,1,21.38-21.8A21.58,21.58,0,0,1,259.55,104.6Z" transform="translate(-1)"/>
</svg>
