<?xml version="1.0" encoding="utf-8"?>
<!-- Generator: Adobe Illustrator 23.0.6, SVG Export Plug-In . SVG Version: 6.00 Build 0)  -->
<svg version="1.1" id="Calque_1" xmlns="http://www.w3.org/2000/svg" xmlns:xlink="http://www.w3.org/1999/xlink" x="0px" y="0px"
	 viewBox="0 0 255 255" style="enable-background:new 0 0 255 255;" xml:space="preserve">
<polygon points="253.4,13.3 244.8,4.8 230.8,18.7 216.8,4.8 208.3,13.3 222.2,27.3 208.3,41.3 216.8,49.9 230.8,36 244.8,49.9 
	253.4,41.3 239.5,27.3 "/>
<path d="M215.3,62l-29.1,9.6l3.5,10.8l8.6-2.8C184.8,101,155.2,142,124.5,142c-45.7,0-84.3,28.8-102.8,75.4
	c-8.3,0.4-15.2,6.8-16.2,15.1s4,16.1,12,18.6s16.6-1.1,20.4-8.5c3.8-7.4,1.8-16.5-4.8-21.6c16.8-41.7,51.4-67.6,91.4-67.6
	c36.7,0,69.3-44.9,83.7-68.4l1.4,8.3l11.4-2.2L215.3,62z M22.2,240.1c-3.2,0-5.7-2.6-5.7-5.7c0-3.1,2.6-5.7,5.7-5.7s5.7,2.6,5.7,5.7
	C27.9,237.6,25.4,240.1,22.2,240.1z"/>
<path d="M106.9,125.3l7.9-7.8l7.9,7.8l8.5-8.5l-7.8-7.9l7.8-7.9l-8.5-8.5l-7.9,7.8l-7.9-7.8l-8.5,8.5l7.8,7.9l-7.8,7.9L106.9,125.3z
	"/>
<path d="M30.9,92.3l7.9-7.8l7.9,7.8l8.5-8.5l-7.8-7.9l7.8-7.9l-8.5-8.5l-7.9,7.8l-7.9-7.8L22.4,68l7.8,7.9l-7.8,7.9L30.9,92.3z"/>
<path d="M200.8,175.6c-10.1,0-18.3,8.2-18.3,18.3s8.2,18.3,18.3,18.3s18.3-8.2,18.3-18.3S210.9,175.6,200.8,175.6z M200.8,200
	c-3.4,0-6.1-2.7-6.1-6.1c0-3.4,2.7-6.1,6.1-6.1c3.4,0,6.1,2.7,6.1,6.1C206.9,197.2,204.2,200,200.8,200z"/>
<path d="M132.6,235.8l7.9-7.8l7.9,7.8l8.5-8.5l-7.8-7.9l7.8-7.9l-8.5-8.5l-7.9,7.8l-7.9-7.8l-8.5,8.5l7.8,7.9l-7.8,7.9L132.6,235.8z
	"/>
<path d="M-86.1,169.5c-10.1,0-18.3,8.2-18.3,18.3s8.2,18.3,18.3,18.3s18.3-8.2,18.3-18.3S-76,169.5-86.1,169.5z M-86.1,193.9
	c-3.4,0-6.1-2.7-6.1-6.1c0-3.4,2.7-6.1,6.1-6.1c3.4,0,6.1,2.7,6.1,6.1C-80,191.1-82.7,193.9-86.1,193.9z"/>
<path d="M280,115.6c-10.1,0-18.3,8.2-18.3,18.3s8.2,18.3,18.3,18.3s18.3-8.2,18.3-18.3S290.1,115.6,280,115.6z M280,140
	c-3.4,0-6.1-2.7-6.1-6.1c0-3.4,2.7-6.1,6.1-6.1c3.4,0,6.1,2.7,6.1,6.1C286.1,137.2,283.4,140,280,140z"/>
<path d="M-7.9,181.7l7.9-7.8l7.9,7.8l8.5-8.5l-7.8-7.9l7.8-7.9l-8.5-8.5L0,156.7l-7.9-7.8l-8.5,8.5l7.8,7.9l-7.8,7.9L-7.9,181.7z"/>
</svg>
