<svg xmlns="http://www.w3.org/2000/svg" width="254" height="255" viewBox="0 0 254 255">
    <g fill="none" fill-rule="evenodd">
        <g fill="#FFF" fill-rule="nonzero">
            <g>
                <g>
                    <path d="M217.912 148.096c-10.091 0-18.271 8.178-18.271 18.265s8.18 18.264 18.27 18.264c10.091 0 18.271-8.177 18.271-18.264s-8.18-18.265-18.27-18.265zm0 24.353c-3.364 0-6.09-2.726-6.09-6.088 0-3.363 2.726-6.088 6.09-6.088 3.363 0 6.09 2.725 6.09 6.088 0 3.362-2.727 6.088-6.09 6.088zM218.033 84.901l12.181-2.313-6.09-31.172-31.061 10.229 3.776 11.567 9.136-3.044c-14.374 22.891-45.921 66.726-78.687 66.726-48.723 0-89.893 30.806-109.626 80.607-8.896.476-16.172 7.256-17.27 16.094-1.099 8.837 4.297 17.191 12.806 19.828 8.509 2.637 17.685-1.201 21.78-9.11 4.095-7.91 1.932-17.615-5.135-23.037 17.905-44.565 54.812-72.206 97.445-72.206 39.1 0 73.936-47.974 89.284-73.057l1.461 8.888zM18.271 241.732c-3.364 0-6.09-2.726-6.09-6.088 0-3.363 2.726-6.088 6.09-6.088s6.09 2.725 6.09 6.088c0 3.362-2.726 6.088-6.09 6.088zM253.966 8.556L245.44.032 231.432 13.913 217.424.032 208.898 8.556 222.784 22.559 208.898 36.561 217.424 45.085 231.432 31.204 245.44 45.085 253.966 36.561 240.08 22.559zM43.119 96.956L51.037 89.163 58.832 96.956 67.481 88.432 59.563 80.518 67.481 72.603 58.832 64.08 51.037 71.873 43.119 64.08 34.471 72.603 42.389 80.518 34.471 88.432zM155.547 179.389L147.751 187.304 139.834 179.389 131.185 188.035 139.103 195.827 131.185 203.742 139.834 212.387 147.751 204.473 155.547 212.387 164.195 203.742 156.278 195.827 164.195 188.035z" transform="translate(-847 -2220) translate(289 2219) translate(558 1)"/>
                    <path d="M119.979 109.132L127.897 101.339 135.814 109.132 144.341 100.609 136.545 92.694 144.341 84.779 135.814 76.256 127.897 84.049 119.979 76.256 111.453 84.779 119.248 92.694 111.453 100.609z" transform="translate(-847 -2220) translate(289 2219) translate(558 1)"/>
                </g>
            </g>
        </g>
    </g>
</svg>
