<svg xmlns="http://www.w3.org/2000/svg" width="1414" height="150" viewBox="0 0 1414 150">
    <g fill="none" fill-rule="evenodd">
        <g fill="#FFF" fill-rule="nonzero" stroke="#DADADA" stroke-width=".25">
            <g>
                <g>
                    <path d="M85.1 203.6c21.6 0 41.133-4.667 58.6-14h0v-72.4H89.5V140h29v33.4c-4.4 2.533-9.433 4.4-15.1 5.6-5.667 1.2-11.7 1.8-18.1 1.8-7.333 0-13.967-1.333-19.9-4-5.933-2.667-11.033-6.333-15.3-11-4.267-4.667-7.567-10.2-9.9-16.6-2.333-6.4-3.5-13.4-3.5-21 0-7.067 1.167-13.667 3.5-19.8 2.333-6.133 5.633-11.5 9.9-16.1 4.267-4.6 9.367-8.2 15.3-10.8 5.933-2.6 12.567-3.9 19.9-3.9 7.2 0 14.033 1.2 20.5 3.6 6.467 2.4 11.967 5.8 16.5 10.2h0l18.6-18.8c-7.467-6.667-15.933-11.3-25.4-13.9-9.467-2.6-19.6-3.9-30.4-3.9-10.933 0-20.967 1.767-30.1 5.3-9.133 3.533-17 8.567-23.6 15.1-6.6 6.533-11.767 14.433-15.5 23.7-3.733 9.267-5.6 19.567-5.6 30.9 0 11.067 1.867 21.133 5.6 30.2 3.733 9.067 8.9 16.833 15.5 23.3 6.6 6.467 14.467 11.467 23.6 15 9.133 3.533 19.167 5.3 30.1 5.3zm185.8-3.6v-22.8h-72.2v-38.4h65V116h-65V81.2h68.6V58.4h-93.8V200h97.4zm79 0V81.2h43.4V58.4h-112v22.8h43.4V200h25.2zm144.4 0V58.4h-25.2V200h25.2zm56.2 0V91.4h.4l70 108.6h32V58.4h-25.2v105.2h-.4L558.7 58.4h-33.4V200h25.2zm247.4 0V81.2h43.4V58.4h-112v22.8h43.4V200h25.2zm127.8 3.6c11.067-.133 21.2-2.033 30.4-5.7 9.2-3.667 17.133-8.767 23.8-15.3 6.667-6.533 11.867-14.333 15.6-23.4 3.733-9.067 5.6-19.133 5.6-30.2 0-11.333-1.867-21.6-5.6-30.8-3.733-9.2-8.933-17.067-15.6-23.6-6.667-6.533-14.6-11.5-23.8-14.9-9.2-3.4-19.333-5.033-30.4-4.9-10.933 0-20.967 1.767-30.1 5.3-9.133 3.533-17 8.567-23.6 15.1-6.6 6.533-11.767 14.433-15.5 23.7-3.733 9.267-5.6 19.567-5.6 30.9 0 11.067 1.867 21.133 5.6 30.2 3.733 9.067 8.9 16.833 15.5 23.3 6.6 6.467 14.467 11.467 23.6 15 9.133 3.533 19.167 5.3 30.1 5.3zm.2-22.8c-7.333 0-13.967-1.333-19.9-4-5.933-2.667-11.033-6.333-15.3-11-4.267-4.667-7.567-10.2-9.9-16.6-2.333-6.4-3.5-13.4-3.5-21 0-7.067 1.167-13.667 3.5-19.8 2.333-6.133 5.633-11.5 9.9-16.1 4.267-4.6 9.367-8.2 15.3-10.8 5.933-2.6 12.567-3.9 19.9-3.9 7.333 0 14 1.3 20 3.9 6 2.6 11.133 6.2 15.4 10.8 4.267 4.6 7.567 9.967 9.9 16.1 2.333 6.133 3.5 12.733 3.5 19.8 0 7.6-1.167 14.6-3.5 21s-5.633 11.933-9.9 16.6c-4.267 4.667-9.4 8.333-15.4 11s-12.667 4-20 4zm155.6 22.8c8.133 0 15.667-1.3 22.6-3.9 6.933-2.6 12.933-6.3 18-11.1s9.067-10.633 12-17.5c2.933-6.867 4.4-14.567 4.4-23.1h0V58.4h-25.2v88.8c0 3.467-.533 7.1-1.6 10.9-1.067 3.8-2.833 7.3-5.3 10.5-2.467 3.2-5.733 5.833-9.8 7.9-4.067 2.067-9.1 3.1-15.1 3.1s-11.033-1.033-15.1-3.1-7.333-4.7-9.8-7.9c-2.467-3.2-4.233-6.7-5.3-10.5-1.067-3.8-1.6-7.433-1.6-10.9h0V58.4h-25.2V148c0 8.533 1.433 16.233 4.3 23.1 2.867 6.867 6.867 12.7 12 17.5 5.133 4.8 11.167 8.5 18.1 11.1 6.933 2.6 14.467 3.9 22.6 3.9zm155.2 0c10.4 0 20.2-2 29.4-6s17-10.4 23.4-19.2h0l-20.8-14.8c-4.667 6-9.7 10.367-15.1 13.1-5.4 2.733-10.967 4.1-16.7 4.1-7.333 0-13.967-1.333-19.9-4-5.933-2.667-11.033-6.333-15.3-11-4.267-4.667-7.567-10.2-9.9-16.6-2.333-6.4-3.5-13.4-3.5-21 0-7.067 1.167-13.667 3.5-19.8 2.333-6.133 5.633-11.5 9.9-16.1 4.267-4.6 9.367-8.2 15.3-10.8 5.933-2.6 12.567-3.9 19.9-3.9 4.933 0 9.833.933 14.7 2.8 4.867 1.867 9.9 5.6 15.1 11.2h0l19.6-14.4c-7.067-8.133-14.7-13.9-22.9-17.3-8.2-3.4-17.1-5.1-26.7-5.1-10.933 0-20.967 1.767-30.1 5.3-9.133 3.533-17 8.567-23.6 15.1-6.6 6.533-11.767 14.433-15.5 23.7-3.733 9.267-5.6 19.567-5.6 30.9 0 11.067 1.867 21.133 5.6 30.2 3.733 9.067 8.9 16.833 15.5 23.3 6.6 6.467 14.467 11.467 23.6 15 9.133 3.533 19.167 5.3 30.1 5.3zm95-3.6v-62.4h66.2V200h25.2V58.4h-25.2v56.4h-66.2V58.4h-25.2V200h25.2z" transform="translate(-9 -5029) translate(-1 4354) translate(0 621)"/>
                </g>
            </g>
        </g>
    </g>
</svg>
