<svg xmlns="http://www.w3.org/2000/svg" width="40" height="33" viewBox="0 0 40 33">
    <defs>
        <linearGradient id="h9bsw6jpwa" x1="0%" x2="100%" y1="50%" y2="50%">
            <stop offset="0%" stop-color="#714FF8"/>
            <stop offset="100%" stop-color="#2B00A2"/>
        </linearGradient>
        <linearGradient id="zuuoaobweb" x1="0%" x2="100%" y1="50%" y2="50%">
            <stop offset="0%" stop-color="#714FF8"/>
            <stop offset="100%" stop-color="#2B00A2"/>
        </linearGradient>
    </defs>
    <g fill="none" fill-rule="evenodd">
        <g>
            <g>
                <g>
                    <path fill="url(#h9bsw6jpwa)" fill-rule="nonzero" d="M12.914 28.192c1.328 1.282 2.564 2.473 3.572 3.48.87.87 2.014 1.328 3.205 1.328 1.19 0 2.381-.458 3.206-1.328 1.007-1.007 2.243-2.198 3.571-3.48 6.503-6.319 11.174-10.99 12.136-13.37.55-1.328.824-2.748.778-4.213-.046-4.991-3.755-9.387-8.792-10.395-3.938-.778-7.602.733-10.899 4.58C16.394.946 12.731-.61 8.792.213 3.755 1.222.092 5.618 0 10.61c0 1.465.229 2.885.778 4.212.962 2.381 5.633 7.052 12.136 13.371zM9.525 4.133c.412-.089.824-.133 1.236-.133 2.198 0 4.26 1.201 6.366 3.692.64.756 1.557 1.157 2.564 1.157 1.008 0 1.923-.445 2.565-1.157C24.774 4.756 27.2 3.6 29.857 4.133c3.343.668 5.816 3.47 5.862 6.673 0 .934-.183 1.824-.504 2.714-.733 1.779-7.373 8.051-11.31 11.788-1.329 1.245-2.565 2.446-3.573 3.425-.229.223-.504.267-.64.267-.138 0-.413-.044-.642-.267-1.007-.979-2.29-2.18-3.572-3.425C11.54 21.57 4.946 15.298 4.168 13.52c-.367-.846-.55-1.78-.505-2.714.046-3.203 2.52-6.005 5.862-6.673z" transform="translate(-1011 -4054) translate(895 4014) translate(116 40)"/>
                    <path stroke="url(#zuuoaobweb)" stroke-linecap="round" stroke-linejoin="bevel" stroke-width="3" d="M9.25 13L17.331 21" transform="translate(-1011 -4054) translate(895 4014) translate(116 40)"/>
                </g>
            </g>
        </g>
    </g>
</svg>
