<svg xmlns="http://www.w3.org/2000/svg" width="132" height="82" viewBox="0 0 132 82">
    <g fill="none" fill-rule="evenodd">
        <g fill="#27D6BC" fill-rule="nonzero">
            <g>
                <g>
                    <g>
                        <g>
                            <path d="M32.99 45.092c-1.065 1.154-2.917 1.154-3.98 0-.409-.443-1.074-.443-1.483 0-.41.444-.41 1.166 0 1.61.927 1.005 2.162 1.563 3.474 1.563 1.312 0 2.545-.556 3.472-1.564.41-.443.41-1.167 0-1.609-.409-.446-1.072-.446-1.484 0zM28.425 35.425c.41-.422.41-1.107 0-1.529-.727-.748-1.693-1.16-2.718-1.16-1.027 0-1.99.412-2.717 1.16-.41.422-.41 1.107.002 1.529.204.212.472.316.741.316s.538-.106.744-.316c.657-.679 1.803-.679 2.465 0 .407.421 1.073.421 1.483 0zM36.295 32.735c-1.027 0-1.993.413-2.72 1.161-.41.422-.41 1.107 0 1.529.41.421 1.076.421 1.485 0 .33-.34.769-.528 1.233-.528.464 0 .903.188 1.23.528.206.212.475.316.744.316s.537-.106.741-.316c.412-.422.412-1.107.002-1.529-.724-.748-1.688-1.16-2.715-1.16zM58.406 60.035c-2.895-2.155-15.77-6.523-16.316-6.709-.233-.076-.476-.065-.694.01l-.002-.006-7.997 2.86c-.349.127-.607.423-.679.784l-1.717 8.424-1.717-8.424c-.074-.361-.332-.659-.68-.784l-7.996-2.86-.002.007c-.218-.076-.459-.087-.693-.011-.546.186-13.422 4.554-16.317 6.709C.618 62.249.09 75.297 0 79.245c-.006.285.102.56.303.763.199.203.472.317.755.317h59.884c.286 0 .558-.116.755-.317.199-.205.309-.48.303-.763-.09-3.948-.616-16.996-3.594-19.21zM34.67 57.98l4.463-1.597-6 9.134 1.537-7.537zm-5.8 7.539l-6-9.134 4.462 1.597 1.537 7.537zm1.247 5.754c.391.594 1.377.594 1.768 0L42.183 55.59c.83.286 1.859.649 2.982 1.052L31 77.392 16.837 56.646c1.123-.404 2.151-.767 2.982-1.052l10.298 15.68zM4.858 61.729c1.388-1.029 5.895-2.839 9.932-4.337L29 78.212H2.145c.25-7.334 1.311-15.441 2.713-16.483zm28.144 16.485l14.21-20.82c4.037 1.498 8.544 3.306 9.932 4.337 1.4 1.042 2.464 9.15 2.711 16.486H33.002v-.003z" transform="translate(-659 -1211) translate(165 1191) translate(240) translate(254 20) translate(.302 .033)"/>
                            <path d="M4.624 14.902l4.907 2.39v7.337c-1.077.515-2.385 2.08-2.566 6.644-.012.31.117.61.352.82.132.116 1.339 1.136 3.275 1.136s3.145-1.02 3.276-1.137c.236-.209.363-.508.352-.82-.178-4.506-1.459-6.09-2.566-6.622v-6.326l3.862 1.878v7.753c0 .075.002 1.449.195 2.768-.227.094-.46.232-.68.433-.787.715-1.08 1.904-.87 3.539.348 2.722 1.077 4.471 2.235 5.351.399.306.846.498 1.325.577.959 2.76 4.844 12.15 13.28 12.15s12.321-9.388 13.28-12.15c.479-.08.926-.274 1.325-.577 1.158-.88 1.89-2.63 2.235-5.351.21-1.635-.082-2.826-.87-3.54-.22-.2-.45-.338-.68-.432.193-1.32.195-2.693.195-2.768v-7.753l10.89-5.3c.365-.175.594-.543.591-.942-.002-.4-.235-.763-.602-.935L31.46.777c-.29-.136-.628-.136-.918 0L4.635 13.025c-.365.172-.6.535-.602.935-.003.399.226.767.591.942zm5.968 16.235c-.65 0-1.156-.192-1.478-.36.222-3.353 1.134-4.25 1.503-4.296.318.044 1.228.941 1.45 4.294-.32.167-.833.362-1.475.362zm35.146 3.299c-.355 2.767-1.046 3.666-1.428 3.957-.201.154-.409.2-.672.171-.505-.058-1.014.253-1.158.75-.034.116-3.382 11.369-11.479 11.369-8.078 0-11.447-11.258-11.48-11.37-.145-.498-.65-.82-1.157-.749-.267.032-.47-.017-.672-.171-.382-.29-1.073-1.188-1.427-3.957-.13-1.012.014-1.56.195-1.733.084-.082.216-.088.267-.088h.021c.36.077.738-.044.99-.308.253-.267.348-.643.249-.995-.191-.673-.276-1.599-.316-2.31h26.656c-.044.749-.131 1.662-.314 2.31-.095.34.009.7.246.966.238.266.615.393.967.341.003.004.206-.025.316.084.18.173.325.719.196 1.733zM17.635 26.91v-7.047c.701-.97 4.088-4.852 13.366-4.852 9.29 0 12.675 3.893 13.367 4.852v7.047H17.635zM31 2.878l23.484 11.103-8.733 4.25c-1.401-1.667-5.518-5.31-14.753-5.31-9.236 0-13.352 3.643-14.754 5.31l-8.728-4.25L31 2.878z" transform="translate(-659 -1211) translate(165 1191) translate(240) translate(254 20) translate(.302 .033)"/>
                        </g>
                        <g>
                            <path d="M32.99 45.092c-1.065 1.154-2.917 1.154-3.98 0-.409-.443-1.074-.443-1.483 0-.41.444-.41 1.166 0 1.61.927 1.005 2.162 1.563 3.474 1.563 1.312 0 2.545-.556 3.472-1.564.41-.443.41-1.167 0-1.609-.409-.446-1.072-.446-1.484 0zM28.425 35.425c.41-.422.41-1.107 0-1.529-.727-.748-1.693-1.16-2.718-1.16-1.027 0-1.99.412-2.717 1.16-.41.422-.41 1.107.002 1.529.204.212.472.316.741.316s.538-.106.744-.316c.657-.679 1.803-.679 2.465 0 .407.421 1.073.421 1.483 0zM36.295 32.735c-1.027 0-1.993.413-2.72 1.161-.41.422-.41 1.107 0 1.529.41.421 1.076.421 1.485 0 .33-.34.769-.528 1.233-.528.464 0 .903.188 1.23.528.206.212.475.316.744.316s.537-.106.741-.316c.412-.422.412-1.107.002-1.529-.724-.748-1.688-1.16-2.715-1.16zM58.406 60.035c-2.895-2.155-15.77-6.523-16.316-6.709-.233-.076-.476-.065-.694.01l-.002-.006-7.997 2.86c-.349.127-.607.423-.679.784l-1.717 8.424-1.717-8.424c-.074-.361-.332-.659-.68-.784l-7.996-2.86-.002.007c-.218-.076-.459-.087-.693-.011-.546.186-13.422 4.554-16.317 6.709C.618 62.249.09 75.297 0 79.245c-.006.285.102.56.303.763.199.203.472.317.755.317h59.884c.286 0 .558-.116.755-.317.199-.205.309-.48.303-.763-.09-3.948-.616-16.996-3.594-19.21zM34.67 57.98l4.463-1.597-6 9.134 1.537-7.537zm-5.8 7.539l-6-9.134 4.462 1.597 1.537 7.537zm1.247 5.754c.391.594 1.377.594 1.768 0L42.183 55.59c.83.286 1.859.649 2.982 1.052L31 77.392 16.837 56.646c1.123-.404 2.151-.767 2.982-1.052l10.298 15.68zM4.858 61.729c1.388-1.029 5.895-2.839 9.932-4.337L29 78.212H2.145c.25-7.334 1.311-15.441 2.713-16.483zm28.144 16.485l14.21-20.82c4.037 1.498 8.544 3.306 9.932 4.337 1.4 1.042 2.464 9.15 2.711 16.486H33.002v-.003z" transform="translate(-659 -1211) translate(165 1191) translate(240) translate(254 20) translate(69.302 .033)"/>
                            <path d="M4.624 14.902l4.907 2.39v7.337c-1.077.515-2.385 2.08-2.566 6.644-.012.31.117.61.352.82.132.116 1.339 1.136 3.275 1.136s3.145-1.02 3.276-1.137c.236-.209.363-.508.352-.82-.178-4.506-1.459-6.09-2.566-6.622v-6.326l3.862 1.878v7.753c0 .075.002 1.449.195 2.768-.227.094-.46.232-.68.433-.787.715-1.08 1.904-.87 3.539.348 2.722 1.077 4.471 2.235 5.351.399.306.846.498 1.325.577.959 2.76 4.844 12.15 13.28 12.15s12.321-9.388 13.28-12.15c.479-.08.926-.274 1.325-.577 1.158-.88 1.89-2.63 2.235-5.351.21-1.635-.082-2.826-.87-3.54-.22-.2-.45-.338-.68-.432.193-1.32.195-2.693.195-2.768v-7.753l10.89-5.3c.365-.175.594-.543.591-.942-.002-.4-.235-.763-.602-.935L31.46.777c-.29-.136-.628-.136-.918 0L4.635 13.025c-.365.172-.6.535-.602.935-.003.399.226.767.591.942zm5.968 16.235c-.65 0-1.156-.192-1.478-.36.222-3.353 1.134-4.25 1.503-4.296.318.044 1.228.941 1.45 4.294-.32.167-.833.362-1.475.362zm35.146 3.299c-.355 2.767-1.046 3.666-1.428 3.957-.201.154-.409.2-.672.171-.505-.058-1.014.253-1.158.75-.034.116-3.382 11.369-11.479 11.369-8.078 0-11.447-11.258-11.48-11.37-.145-.498-.65-.82-1.157-.749-.267.032-.47-.017-.672-.171-.382-.29-1.073-1.188-1.427-3.957-.13-1.012.014-1.56.195-1.733.084-.082.216-.088.267-.088h.021c.36.077.738-.044.99-.308.253-.267.348-.643.249-.995-.191-.673-.276-1.599-.316-2.31h26.656c-.044.749-.131 1.662-.314 2.31-.095.34.009.7.246.966.238.266.615.393.967.341.003.004.206-.025.316.084.18.173.325.719.196 1.733zM17.635 26.91v-7.047c.701-.97 4.088-4.852 13.366-4.852 9.29 0 12.675 3.893 13.367 4.852v7.047H17.635zM31 2.878l23.484 11.103-8.733 4.25c-1.401-1.667-5.518-5.31-14.753-5.31-9.236 0-13.352 3.643-14.754 5.31l-8.728-4.25L31 2.878z" transform="translate(-659 -1211) translate(165 1191) translate(240) translate(254 20) translate(69.302 .033)"/>
                        </g>
                    </g>
                </g>
            </g>
        </g>
    </g>
</svg>
