<svg xmlns="http://www.w3.org/2000/svg" width="41" height="36" viewBox="0 0 41 36">
    <defs>
        <linearGradient id="yqhb8jd1ha" x1="0%" x2="100%" y1="50%" y2="50%">
            <stop offset="0%" stop-color="#714FF8"/>
            <stop offset="100%" stop-color="#2B00A2"/>
        </linearGradient>
        <linearGradient id="xzt1ceyn5b" x1="0%" x2="100%" y1="50%" y2="50%">
            <stop offset="0%" stop-color="#714FF8"/>
            <stop offset="100%" stop-color="#2B00A2"/>
        </linearGradient>
        <linearGradient id="7xs2zcka8c" x1="0%" x2="100%" y1="50%" y2="50%">
            <stop offset="0%" stop-color="#714FF8"/>
            <stop offset="100%" stop-color="#2B00A2"/>
        </linearGradient>
    </defs>
    <g fill="none" fill-rule="evenodd">
        <g fill-rule="nonzero">
            <g>
                <g>
                    <path fill="url(#yqhb8jd1ha)" d="M9.094 23c.898 0 1.674-.659 1.674-1.5 0-.805-.735-1.5-1.674-1.5H2.441c-.898 0-1.673.659-1.673 1.5 0 .805.735 1.5 1.673 1.5h6.653zM11.101 13H4.435c-.895 0-1.667.659-1.667 1.5S3.5 16 4.435 16H11.1c.894 0 1.667-.659 1.667-1.5S11.995 13 11.1 13zM11.101 26H4.435c-.895 0-1.667.659-1.667 1.5S3.5 29 4.435 29H11.1c.894 0 1.667-.659 1.667-1.5S11.995 26 11.1 26z" transform="translate(-1009 -3726) translate(895 3684) translate(114 42)"/>
                    <path fill="url(#xzt1ceyn5b)" d="M27.343 6.144V3.381h1.948c.911 0 1.699-.742 1.699-1.69C30.99.742 30.244 0 29.29 0h-7.25c-.912 0-1.699.742-1.699 1.69 0 .95.746 1.691 1.699 1.691h1.947v2.763c-3.273.371-6.339 1.774-8.7 4.042-.664.66-.705 1.69-.042 2.35.663.66 1.699.701 2.362.041 2.154-2.062 5.054-3.216 8.08-3.216 6.463 0 11.725 5.237 11.725 11.629 0 6.433-5.262 11.67-11.726 11.67-3.025 0-5.883-1.155-8.08-3.217-.662-.618-1.74-.618-2.361.042-.622.66-.622 1.731.041 2.35 2.818 2.68 6.505 4.165 10.4 4.165 8.328 0 15.082-6.722 15.082-15.01-.042-7.67-5.925-14.02-13.425-14.846z" transform="translate(-1009 -3726) translate(895 3684) translate(114 42)"/>
                    <path fill="url(#7xs2zcka8c)" d="M24.468 13c-.912 0-1.7.675-1.7 1.537v5.925c0 .826.746 1.538 1.7 1.538h5.6c.912 0 1.7-.675 1.7-1.538 0-.825-.747-1.537-1.7-1.537h-3.9v-4.388c0-.862-.787-1.537-1.7-1.537z" transform="translate(-1009 -3726) translate(895 3684) translate(114 42)"/>
                </g>
            </g>
        </g>
    </g>
</svg>
