<svg xmlns="http://www.w3.org/2000/svg" width="132" height="116" viewBox="0 0 132 116">
    <g fill="none" fill-rule="evenodd">
        <g fill-rule="nonzero">
            <g>
                <g>
                    <path fill="#FFD4BD" d="M44.622 25.915L22.252 3.268c-4.07 1.81-7.883 4.402-11.215 7.776-3.433 3.475-6.046 7.465-7.84 11.724l22.986 23.27c-.667 4.074.543 8.409 3.63 11.534l2.744 2.785 2.246-2.273c1.933-1.956 5.096-1.956 7.03 0 1.933 1.957 1.933 5.16 0 7.117l-.454.459c1.934-1.957 5.096-1.957 7.03 0 1.933 1.957 1.933 5.16 0 7.117l-.13.13c1.933-1.956 5.097-1.956 7.03 0 1.933 1.958 1.933 5.16 0 7.117l-1.36 1.377c1.933-1.956 5.096-1.956 7.03 0 1.932 1.957 1.932 5.16 0 7.117l-.345.347 3.69 3.737c1.561 1.58 4.42 1.272 6.353-.685 1.934-1.957 2.239-4.85.677-6.431 1.562 1.58 4.42 1.272 6.353-.686 1.934-1.956 2.238-4.851.677-6.43 1.561 1.579 4.42 1.27 6.353-.686 1.933-1.957 2.237-4.851.676-6.431 1.561 1.58 4.42 1.271 6.354-.685 1.932-1.957 2.237-4.852.675-6.431l-3.7-3.746L60.66 31.96l-9.781.442c-2.731.124-5.37-.946-6.048-3.627-.258-1.019-.185-2.049.152-2.972-.12.035-.24.072-.36.112z" transform="translate(-1133 -1026) translate(1133 1026) translate(3 2.633)"/>
                    <path fill="#3AE5CB" d="M22.252 3.268l22.371 22.647c.12-.04.24-.077.36-.112.546-1.505 1.79-2.726 3.431-3.15 11.99-3.107 22.112-5.343 33.211-1.707l18.811-19.044C87.716-2.224 73.22.824 63.124 11.044 52.073-.144 35.748-2.736 22.252 3.268z" transform="translate(-1133 -1026) translate(1133 1026) translate(3 2.633)"/>
                    <path fill="#FFD4BD" d="M81.625 20.946c-11.1-3.636-21.222-1.4-33.21 1.707-1.642.424-2.886 1.645-3.432 3.15-.337.923-.41 1.953-.152 2.973.678 2.68 3.317 3.75 6.048 3.626l9.78-.442 28.084 28.43 7.69-7.786c3.089-3.126 4.299-7.46 3.633-11.534l21.378-21.643c-1.637-3.007-3.714-5.833-6.232-8.383-4.29-4.342-9.373-7.388-14.776-9.14l-18.81 19.042zM48.41 65.66c-1.935-1.957-5.097-1.957-7.03 0l-4.57 4.627c-.063.062-.123.126-.18.19-1.748 1.97-1.688 5.029.182 6.922 1.912 1.936 5.026 1.957 6.966.066.018-.02.037-.039.056-.057l.003-.003 4.442-4.498.13-.13c1.933-1.958 1.933-5.16 0-7.117z" transform="translate(-1133 -1026) translate(1133 1026) translate(3 2.633)"/>
                    <path fill="#FFD4BD" d="M43.837 77.405l-.06.06.057-.057.003-.003zm4.442-4.498l-4.501 4.558c-.002 0-.003.003-.004.004-.076.077-.149.155-.219.236-1.707 1.971-1.633 4.997.223 6.876 1.927 1.952 5.077 1.957 7.012.016l.017-.016.648-.656 2.493-2.525 1.36-1.376c1.934-1.957 1.934-5.16 0-7.117-1.932-1.956-5.096-1.956-7.029 0z" transform="translate(-1133 -1026) translate(1133 1026) translate(3 2.633)"/>
                    <path fill="#FFD4BD" d="M53.949 81.401l-2.494 2.524c-1.933 1.958-1.933 5.16 0 7.117 1.933 1.957 5.097 1.957 7.03 0l2.149-2.177.344-.347c1.933-1.957 1.933-5.16 0-7.117-1.933-1.957-5.096-1.957-7.03 0zM36.812 70.283l4.567-4.623.454-.46c1.933-1.957 1.933-5.159 0-7.117-1.934-1.956-5.097-1.956-7.03 0l-2.246 2.274-2.773 2.808c-1.934 1.958-1.934 5.16 0 7.118 1.932 1.954 5.091 1.956 7.025.003l.003-.003z" transform="translate(-1133 -1026) translate(1133 1026) translate(3 2.633)"/>
                    <path fill="#3AE5CB" d="M29.784 70.283c-1.934-1.958-1.934-5.16 0-7.117l2.773-2.809-2.743-2.785c-3.088-3.125-4.298-7.46-3.631-11.534L3.197 22.768c-5.725 13.59-3.112 29.921 7.84 41.009l42.416 42.94c5.319 5.386 14.024 5.386 19.342 0l42.417-42.94c11.865-12.013 13.942-30.182 6.232-44.35l-21.378 21.642c.666 4.074-.544 8.41-3.632 11.535l-7.691 7.786 3.7 3.745c1.56 1.581 1.256 4.475-.676 6.433-1.934 1.956-4.793 2.265-6.354.684 1.561 1.58 1.257 4.475-.676 6.432-1.934 1.957-4.792 2.265-6.353.684 1.561 1.581 1.257 4.475-.677 6.432-1.933 1.957-4.791 2.265-6.353.685 1.562 1.58 1.257 4.475-.677 6.432-1.932 1.957-4.792 2.265-6.352.684l-3.691-3.736-2.15 2.177c-1.932 1.956-5.096 1.956-7.029 0-1.933-1.958-1.933-5.16 0-7.117l-.648.656-.016.016-.01.01-.002.002c-.842.84-1.913 1.311-3.012 1.417l-.009.001c-1.424.134-2.896-.348-3.98-1.446-1.856-1.879-1.93-4.905-.223-6.876.071-.082.146-.161.223-.24-.002 0-.003.002-.005.003-1.938 1.888-5.05 1.866-6.96-.069-.17-.17-.323-.35-.462-.54-.038-.05-.074-.102-.11-.153-1.106-1.62-1.167-3.763-.184-5.441.163-.277.354-.54.574-.787.056-.065.116-.129.178-.191-1.934 1.952-5.093 1.951-7.025-.004z" transform="translate(-1133 -1026) translate(1133 1026) translate(3 2.633)"/>
                </g>
                <path fill="#000" d="M120.363 12.225c-4.556-4.54-9.952-7.743-15.694-9.613-.162-.07-.328-.124-.498-.16-12.913-4.018-27.49-1.331-38.174 8.065C60.094 5.313 52.894 2.03 45.03.98c-7.17-.957-14.553.083-21.154 2.93-.107.04-.213.084-.314.137-1.034.457-2.048.957-3.038 1.502-1.246.685-1.698 2.249-1.01 3.491.689 1.242 2.258 1.692 3.504 1.007.4-.22.802-.43 1.208-.633L44.823 29.94c-.048.779.023 1.568.223 2.344.913 3.556 4.338 5.726 8.714 5.532l8.73-.39 27.521 27.427.005.005.005.005 3.728 3.714c.27.27.266.72.24.964-.066.62-.402 1.27-.923 1.79-.97.966-2.281 1.159-2.762.679-1.007-1.003-2.64-1.003-3.646 0-.504.502-.756 1.159-.756 1.817 0 .658.252 1.315.756 1.817.27.269.266.718.24.963-.066.619-.402 1.271-.923 1.79-.52.518-1.174.853-1.795.92-.245.025-.698.028-.966-.24-1.008-1.004-2.64-1.004-3.647 0-.504.501-.755 1.158-.755 1.816 0 .657.251 1.315.755 1.816.48.48.287 1.787-.683 2.753-.52.52-1.174.854-1.795.92-.245.026-.697.03-.966-.24-1.007-1.002-2.64-1.003-3.647 0-.504.503-.755 1.16-.755 1.817 0 .658.251 1.315.755 1.817.48.48.287 1.786-.683 2.753-.52.519-1.174.853-1.794.92-.246.025-.698.03-.968-.24l-2.108-2.1c1.601-2.878 1.18-6.582-1.268-9.022-1-.995-2.23-1.679-3.576-2 .328-2.281-.386-4.684-2.142-6.434-1.324-1.32-3.018-2.048-4.75-2.188-.084-1.896-.862-3.664-2.211-5.01-1.237-1.232-2.799-1.95-4.413-2.152.005-1.944-.736-3.89-2.221-5.37-2.96-2.95-7.777-2.95-10.738 0l-.439.438-.946-.946c-2.403-2.395-3.504-5.84-2.943-9.217.136-.818-.133-1.65-.721-2.237L8.639 25.132c.255-.523.52-1.044.805-1.557.69-1.243.236-2.805-1.01-3.492-1.247-.686-2.815-.236-3.504 1.007-.62 1.118-1.182 2.267-1.687 3.44-.049.096-.09.193-.124.291C.389 31.3-.593 38.506.349 45.511c1.164 8.661 5.065 16.515 11.282 22.71l42.787 42.64c3.193 3.182 7.386 4.772 11.58 4.772 4.192 0 8.386-1.591 11.579-4.772l14.101-14.053c1.007-1.003 1.007-2.63 0-3.634-1.007-1.003-2.64-1.003-3.647 0l-14.1 14.053c-4.376 4.36-11.493 4.359-15.866 0l-42.789-42.64C6.214 55.557 3.06 42.28 6.598 30.367l19.425 19.357c-.356 4.564 1.294 9.093 4.546 12.334l.95.95-.978.973c-2.96 2.95-2.96 7.75 0 10.7 1.356 1.352 3.104 2.085 4.882 2.197.114 1.778.853 3.52 2.209 4.87 1.34 1.336 3.062 2.066 4.82 2.192.097 1.804.837 3.576 2.206 4.94 1.54 1.534 3.583 2.272 5.612 2.207.238 1.59.974 3.055 2.133 4.209 1.43 1.425 3.336 2.21 5.368 2.21 2.032 0 3.938-.785 5.37-2.21l.344-.344 1.9 1.892C66.523 97.98 68.1 98.6 69.796 98.6c.248 0 .498-.013.748-.04 1.798-.191 3.537-1.042 4.895-2.395 1.355-1.35 2.155-3.026 2.375-4.693 1.734-.227 3.402-1.065 4.716-2.374 1.356-1.35 2.155-3.025 2.374-4.692 1.735-.227 3.403-1.065 4.718-2.374 1.31-1.308 2.152-2.968 2.38-4.694 1.733-.228 3.398-1.066 4.71-2.374 1.36-1.353 2.212-3.086 2.403-4.877.211-1.968-.416-3.843-1.72-5.143l-1.91-1.902 5.936-5.915c3.255-3.244 4.904-7.773 4.549-12.336l18.128-18.066c1.799 4.212 2.746 8.783 2.746 13.498 0 9.204-3.597 17.856-10.128 24.365l-14.1 14.052c-1.007 1.003-1.007 2.63 0 3.634.504.5 1.163.753 1.823.753.66 0 1.32-.252 1.823-.753l14.101-14.052C127.867 60.743 132 50.8 132 40.223s-4.132-20.52-11.637-27.998zM34.187 71.048c-.95-.947-.95-2.487 0-3.433l2.79-2.781.006-.004.004-.006 2.263-2.255c.475-.473 1.1-.71 1.723-.71.625 0 1.248.237 1.723.71.457.454.707 1.065.707 1.717 0 .651-.251 1.261-.707 1.716l-5.064 5.046c-.95.946-2.495.946-3.445 0zm10.53 7.073c-.951.94-2.491.937-3.439-.006-.9-.897-.94-2.395-.092-3.336.027-.03.054-.06.083-.088l4.616-4.6c.95-.946 2.494-.947 3.444 0 .95.947.95 2.487.002 3.431l-.125.126-.008.007-4.481 4.466zm3.587 7.126c-.905-.903-.953-2.359-.109-3.317.035-.04.07-.079.109-.117l.057-.056.03-.031 4.458-4.442c.95-.943 2.492-.94 3.441.004.95.946.95 2.487 0 3.433l-1.373 1.367-2.514 2.507-.643.64-.019.019c-.95.938-2.492.935-3.437-.007zm9.467 7.12c-.654 0-1.266-.25-1.723-.705-.456-.455-.707-1.064-.707-1.717 0-.652.251-1.261.706-1.715l.001-.002 2.516-2.506c.95-.946 2.495-.946 3.444 0 .456.455.708 1.064.708 1.716 0 .653-.252 1.262-.708 1.718l-2.514 2.506c-.457.454-1.068.704-1.723.704zm6.403-76.509c1.007 1.004 2.638 1.004 3.646 0 8.351-8.322 19.947-11.487 30.768-9.497l-14.66 14.608c-11.057-3.102-21.294-.98-33.409 2.11-1.295.33-2.454.984-3.39 1.89L29.428 7.33c12.059-3.72 25.58-.604 34.746 8.529zm37.265 26.182c-.588.586-.857 1.418-.721 2.236.56 3.376-.54 6.822-2.943 9.217l-5.936 5.915-26.505-26.414c-.512-.51-1.215-.784-1.939-.75l-9.866.44c-.711.032-3.057.004-3.488-1.672-.16-.624-.064-1.276.27-1.837.333-.561.861-.957 1.486-1.117 12.248-3.124 21.716-5.078 32.07-1.74.92.298 1.93.055 2.616-.628l17.825-17.764c4.529 1.67 8.776 4.313 12.408 7.933 1.874 1.867 3.504 3.91 4.879 6.093L101.439 42.04z" transform="translate(-1133 -1026) translate(1133 1026)"/>
                <path fill="#000" d="M95.585 86.22c-.78.78-.78 2.046 0 2.827.39.391.902.586 1.415.586.512 0 1.023-.195 1.414-.586.782-.782.78-2.047 0-2.828-.78-.781-2.048-.78-2.829 0zM12.72 16.17c.373.312.827.463 1.278.463.573 0 1.142-.244 1.537-.72h.002c.707-.848.591-2.11-.257-2.816-.848-.707-2.11-.592-2.817.256-.707.85-.592 2.11.257 2.817z" transform="translate(-1133 -1026) translate(1133 1026)"/>
            </g>
        </g>
    </g>
</svg>
