<?xml version="1.0" encoding="utf-8"?>
<!-- Generator: Adobe Illustrator 23.0.6, SVG Export Plug-In . SVG Version: 6.00 Build 0)  -->
<svg version="1.1" id="Calque_1" xmlns="http://www.w3.org/2000/svg" xmlns:xlink="http://www.w3.org/1999/xlink" x="0px" y="0px"
	 viewBox="0 0 200 241.1" style="enable-background:new 0 0 200 241.1;" xml:space="preserve">
<style type="text/css">
	.st0{fill:#FFFFFF;}
</style>
<title>label</title>
<g>
	<g id="_4">
		<g>
			<rect x="87" y="64.8" class="st0" width="13.3" height="13.3"/>
			<rect x="87" y="48.6" class="st0" width="13.3" height="13.3"/>
			<rect x="103.2" y="64.8" class="st0" width="13.3" height="13.3"/>
			<rect x="103.2" y="48.6" class="st0" width="13.3" height="13.3"/>
			<rect x="103.2" y="32.4" class="st0" width="13.3" height="13.3"/>
			<rect x="103.2" y="16.2" class="st0" width="13.3" height="13.3"/>
			<rect x="119.4" y="48.6" class="st0" width="13.3" height="13.3"/>
			<rect x="135.6" y="48.6" class="st0" width="13.3" height="13.3"/>
			<rect x="135.6" y="32.4" class="st0" width="13.3" height="13.3"/>
			<rect x="135.6" y="16.2" class="st0" width="13.3" height="13.3"/>
			<rect x="135.6" class="st0" width="13.3" height="13.3"/>
			<rect x="151.9" y="64.8" class="st0" width="13.3" height="13.3"/>
			<rect x="168.1" y="64.8" class="st0" width="13.3" height="13.3"/>
			<rect x="168.1" y="48.6" class="st0" width="13.3" height="13.3"/>
			<rect x="168.1" y="32.4" class="st0" width="13.3" height="13.3"/>
			<path class="st0" d="M181.3,94.3V81.1h-13.3v4.7c4.5,2.4,8.8,5.3,12.7,8.6H181.3z"/>
			<path class="st0" d="M78.7,162.6c1.3-3.7,1.8-7.6,1.3-11.4v-0.1c-0.7-5.6-5.1-11-11.3-14.2c-0.6,3.4-0.9,6.9-1,10.4l4.7,23.2
				l0.7-0.4c1.4-1,2.6-2.1,3.6-3.4C77.5,165.4,78.2,164.1,78.7,162.6z"/>
			<path class="st0" d="M81.6,189.3L81.6,189.3c1.1-0.7,2.1-1.4,3.1-2.2c2.8-2.2,5.3-4.7,7.3-7.6c2.2-3.1,3.9-6.5,5-10.2
				c2.1-6.9,2.6-14.1,1.4-21.2c-0.2-1-0.4-1.9-0.6-2.9l0,0c-0.6-2.4-1.5-4.7-2.6-6.9l0,0c-1.7-3.5-4-6.7-6.7-9.5l0,0
				c-0.1-0.1-0.1-0.1-0.2-0.2c-0.9-1-1.9-1.8-2.9-2.7l-0.5-0.4c-1-0.8-2-1.6-3.1-2.3l-0.3-0.2c-2.2-1.5-4.6-2.7-7-3.8l0,0
				c-1.1-0.4-2.1-0.9-3.2-1.2c-3.2-1.1-6.5-1.8-9.8-2c-1.3-0.1-2.6,0-3.9,0.1l-3.4-17.1c-0.1-0.4-0.2-0.9-0.2-1.3
				c0.4-0.4,0.9-0.8,1.3-1.2c4.3-4.2,8.3-8.6,12-13.4c3.8-4.9,7.4-10.4,9.6-17.6c2.4-7.8,1.8-16.1-1.6-23.5
				c-3.5-7.8-12.2-14.2-21.3-12.8c-4.5,0.7-8.5,3-11.4,6.6c-1.3,1.6-2.5,3.5-3.3,5.4c-0.6,1.4-1.1,2.4-1.7,4.2
				c-2.3,6.6-3.3,13.5-2.8,20.5c0.4,6.2,1.3,12.4,2.7,18.5l0.7,3.3c-6.7,5.7-13.2,11.7-19.3,18c-4.3,4.5-8.2,9.5-11.4,14.8
				c-3.7,6-6.2,12.7-7.2,19.7c-1,7.5-0.1,15,2.5,22.1c2.3,6.6,5.9,12.7,10.5,18c9,10.2,21.6,16.4,35.2,17.3c4.2,0.2,8.4,0,12.5-0.7
				l2.5,15c0.1,0.3,0.1,0.6,0.2,0.8c0.3,0.9,0.5,1.8,0.7,2.8c0.2,1,0.3,2,0.4,3c0.2,1.7,0.1,3.5-0.3,5.2c-0.2,1.1-0.7,2-1.5,2.8
				c-0.4,0.3-0.9,0.6-1.3,0.8c-0.3,0.1-0.7,0.2-1,0.3c0,0-0.4,0.1-0.4,0.1l-0.8,0.1l-0.8,0.1h-0.4c-0.3,0-0.7,0-1-0.1
				c-0.8-0.1-1.5-0.2-2.2-0.5c-1.3-0.4-2.4-1.1-3.4-2.1c-0.7-0.8-1.2-1.7-1.3-2.8c-0.1-0.6-0.1-1.2,0-1.9c0.1-0.8,0.3-1.5,0.5-2.3
				l0.3-1.1c0.8-3.5-1.1-7-4.5-8.2c-3.2-1-6.7,0.8-7.7,4.1c0,0.1-0.1,0.3-0.1,0.4c-0.5,1.6-0.8,3.3-1,5c-0.2,1.9-0.2,3.7,0.1,5.6
				c0.6,3.9,2.4,7.6,5.1,10.4c2.4,2.5,5.5,4.4,8.8,5.4c1.5,0.5,3.1,0.8,4.7,0.9c1.6,0.2,3.2,0.1,4.7-0.1l0.9-0.1
				c0.5-0.1,1-0.2,1.5-0.3c0.8-0.2,1.6-0.4,2.4-0.7c1.7-0.6,3.3-1.6,4.7-2.7c2.9-2.5,4.9-5.9,5.7-9.6c0.7-3.2,0.9-6.4,0.6-9.7
				c-0.1-1.5-0.3-3-0.6-4.4c-0.2-1.4-0.6-2.7-0.9-4.1l-2.6-15.6C76.1,192.5,78.9,191,81.6,189.3L81.6,189.3z M50.8,51.9
				c0.3-0.9,1.1-2.5,1.7-3.7c0.3-0.7,0.7-1.3,1.2-1.8c0.7-0.8,1.6-1.3,2.6-1.4c1.8-0.2,4.2,1.2,5.3,4.1c1.3,3.5,1.3,7.2,0.1,10.7
				c-1.9,5.6-6.5,11.5-11.7,17c-0.6-3.7-1-7.4-1.2-11.2C48.6,61,49.2,56.3,50.8,51.9z M49.5,179.3c-9.1-0.8-17.6-4.8-23.3-11.6
				c-3-3.5-5.3-7.6-6.7-12c-1.4-4-1.9-8.2-1.4-12.4c0.9-8.3,6.6-16.7,13.6-24.2c3.5-3.8,7.2-7.3,11.1-11l2.4,11.8
				c-3.9,2-7.4,4.7-10.5,7.8c-2.5,2.7-4.5,5.8-5.9,9.2c-0.8,2-1.3,4-1.5,6.1c-0.1,0.6-0.1,1.3-0.1,1.7v1.1l0,1.6l0.2,1.5
				c0.6,4.3,2.6,8.4,5.6,11.6c2.8,2.9,6.3,5,10.2,6.1c0.2,0.1,0.5,0.2,0.8,0.2c3.4,0.5,6.6-1.9,7.1-5.3c0-0.1,0-0.3,0-0.4
				c0.5-3.7-1.9-7.1-5.5-7.8h-0.1c-7.3-1.2-8.3-9.5-1.8-15.7c1.4-1.3,2.8-2.5,4.5-3.4l0.3,1.7l9,43.4
				C54.8,179.6,52.1,179.6,49.5,179.3z M69.6,176.2L61,133.5l-0.6-3l0.5,0.1c2.1,0.2,4.2,0.7,6.2,1.5c0.8,0.3,1.5,0.6,2.3,1
				c2.5,1.2,4.9,2.8,7,4.6l0.1,0.1c2,1.8,3.7,3.8,5,6.2c0,0.1,0.1,0.1,0.1,0.2c0.4,0.7,0.7,1.5,1.1,2.3l0,0c0.3,0.8,0.6,1.6,0.8,2.4
				l0,0c0.1,0.6,0.2,1.2,0.3,1.7c0.1,0.9,0.2,1.7,0.2,2.6c0.1,1.8-0.1,3.5-0.4,5.2l0,0c-0.1,0.8-0.3,1.7-0.5,2.5
				c0,0.1-0.1,0.3-0.1,0.4c-0.2,0.8-0.4,1.6-0.7,2.4c-0.6,1.8-1.5,3.5-2.7,4.9c-1.3,1.6-2.7,3-4.4,4.2
				C73.4,174.3,71.6,175.3,69.6,176.2z"/>
			<path class="st0" d="M133.8,82.4c-23.8,0-45.8,12.8-57.6,33.6c5.2,2.2,9.9,5.4,13.9,9.3c2.1-4,4.7-7.8,7.6-11.3l1.9,1.9
				c-3,3.5-5.5,7.3-7.5,11.4c1.8,1.9,3.3,4,4.7,6.3c1.9-4.6,4.5-9,7.7-12.8l2,2c-3.4,4.2-6.1,8.9-8,14c1.7,3.4,2.9,7,3.6,10.7
				c1.3,7.6,0.8,15.5-1.4,22.9c-1.2,4.1-3.1,7.9-5.6,11.4c-2.3,3.1-5,5.9-8.1,8.3c-1,0.7-2,1.4-3,2.1c24.1,27.5,65.9,30.3,93.4,6.2
				s30.3-65.9,6.2-93.4C171,90.6,152.9,82.4,133.8,82.4L133.8,82.4z M133.8,174.8c-14.5,0-26.3-11.8-26.3-26.3
				c0-14.5,11.8-26.3,26.3-26.3c14.5,0,26.3,11.8,26.3,26.3c0,0,0,0,0,0C160,163.1,148.3,174.8,133.8,174.8z M162.1,176.8
				c7.1-8.6,10.9-19.4,10.9-30.5h2.8c0,11.9-4.2,23.3-11.8,32.5L162.1,176.8z M170.8,185.6l-1.9-1.9c8.9-10.4,13.7-23.7,13.7-37.3
				h2.7C185.3,160.7,180.2,174.7,170.8,185.6L170.8,185.6z"/>
			<path class="st0" d="M133.8,139.7c-4.9,0-8.9,4-8.9,8.9c0,4.9,4,8.9,8.9,8.9c4.9,0,8.9-4,8.9-8.9c0,0,0,0,0,0
				C142.7,143.7,138.7,139.7,133.8,139.7C133.8,139.7,133.8,139.7,133.8,139.7z"/>
			<path class="st0" d="M165.1,81.1h-8c2.7,0.9,5.4,2,8,3.2V81.1z"/>
			<path class="st0" d="M103.2,81.1v2.9c2.4-1.1,4.8-2,7.2-2.9H103.2z"/>
			<path class="st0" d="M100.3,81.1H87v13.1c4.1-3.4,8.5-6.3,13.3-8.8L100.3,81.1z"/>
			<path class="st0" d="M132.7,77.3V64.8h-13.3v13.3h3.1C125.9,77.6,129.3,77.3,132.7,77.3z"/>
			<path class="st0" d="M148.9,78.1V64.8h-13.3v12.4c3.2,0.1,6.3,0.3,9.4,0.8H148.9z"/>
		</g>
	</g>
</g>
</svg>
