<svg xmlns="http://www.w3.org/2000/svg" width="268" height="311" viewBox="0 0 268 311">
    <g fill="none" fill-rule="evenodd">
        <g fill="#FFF" fill-rule="nonzero">
            <g>
                <g>
                    <g>
                        <path d="M220.139 160.956L209.241 167.187 209.241 177.68 220.139 171.449zM209.241 194.733L220.139 188.502 220.139 178.009 209.241 184.24zM209.241 211.786L220.139 205.555 220.139 195.061 209.241 201.292zM220.139 246.219L209.241 252.45 209.241 262.943 220.139 256.714zM209.241 279.997L220.139 273.766 220.139 263.272 209.241 269.503zM57.759 160.956L46.861 167.187 46.861 177.68 57.759 171.449zM46.861 194.733L57.759 188.502 57.759 178.009 46.861 184.24zM46.861 211.786L57.759 205.555 57.759 195.061 46.861 201.292zM57.759 246.219L46.861 252.45 46.861 262.943 57.759 256.714zM46.861 279.997L57.759 273.766 57.759 263.272 46.861 269.503z" transform="translate(-839 -2164) translate(289 2164) translate(550) translate(.175)"/>
                        <path d="M266.944 140.227c.036-.178.056-.362.056-.55v-10.366c0-1.507-1.22-2.729-2.724-2.729h-1.635v-6.001c0-1.086-.643-2.068-1.636-2.501L145.25 67.557l1.92-1.058c.965-.531 1.515-1.593 1.394-2.688l-1.607-14.578 8.147-6.582c3.813.25 8.111.701 9.657 1.106.15.635.097 2.039-.138 3.118-.209.943.095 1.926.798 2.585.704.659 1.707.898 2.63.624l7.376-2.171c.877-.26 1.567-.94 1.836-1.815 1.295-4.211 1.309-9.746-2.91-11.484l-12.807-5.274-3.395-4.575 5.688-2.31c1.094-.445 1.777-1.545 1.692-2.723l-.465-6.5c-.098-1.371-1.199-2.455-2.569-2.53l-11.857-.646-2.78-7.423c-.413-1.098-1.485-1.803-2.65-1.769-1.17.044-2.184.83-2.515 1.956l-3.772 12.793c-.034.116-.061.234-.08.354l-2.086 13.423c-2.468 1.88-9.332 7.159-11.631 9.46-3.488 3.493-4.927 7.57-3.961 11.108.113 1.13-1.702 5.378-3.806 8.91-.488.82-.513 1.835-.068 2.678.447.843 1.3 1.39 2.25 1.445 6.353.37 10.665-3.39 13.323-7.054l2.747 10.803-117.628 51.34c-.994.433-1.636 1.415-1.636 2.5v6.002h-1.635c-1.505 0-2.724 1.222-2.724 2.729v10.366c0 .189.02.372.055.55.568 8.816 7.892 15.819 16.837 15.819 7.23 0 13.396-4.582 15.802-10.991 2.405 6.409 8.57 10.99 15.802 10.99 7.23 0 13.397-4.581 15.802-10.99 2.405 6.41 8.571 10.99 15.802 10.99 4.974 0 9.438-2.176 12.532-5.614v131.106H9.263c-1.505 0-2.724 1.22-2.724 2.728v24.007c0 1.507 1.22 2.728 2.724 2.728h255.013c1.505 0 2.724-1.221 2.724-2.728v-24.007c0-1.507-1.22-2.728-2.724-2.728h-95.358v-27.28c0-1.508-1.22-2.729-2.724-2.729-1.505 0-2.725 1.221-2.725 2.728v27.28h-53.4V149.092c3.076 4.206 8.029 6.955 13.623 6.955 7.23 0 13.397-4.582 15.802-10.991 2.404 6.41 8.571 10.99 15.802 10.99 2.964 0 5.749-.773 8.173-2.122v73.052c0 1.507 1.22 2.729 2.725 2.729 1.505 0 2.724-1.222 2.724-2.729V150.59c0-.41-.098-.798-.26-1.149 1.02-1.321 1.844-2.796 2.44-4.386 2.404 6.41 8.571 10.99 15.802 10.99 7.23 0 13.398-4.582 15.802-10.99 2.404 6.41 8.571 10.99 15.802 10.99 7.23 0 13.398-4.582 15.802-10.99 2.404 6.41 8.571 10.99 15.802 10.99 8.945.002 16.269-7 16.836-15.817zm-9.752-17.86v4.215h-53.406l-53.942-51.069 107.348 46.854zm-61.337 4.215h-53.637l.006-50.773 53.63 50.773zm-61.989-80.868l-.1-.002c-1.167 0-2.212.75-2.585 1.866-.025.076-2.018 5.894-6.277 8.61 1.21-2.75 2.065-5.632 1.536-7.58-.455-1.679.47-3.83 2.54-5.9 2.07-2.074 9.322-7.656 11.94-9.632.567-.426.944-1.058 1.054-1.759l2.227-14.333 1.416-4.803.548 1.46c.38 1.014 1.323 1.707 2.403 1.766l11.236.613.153 2.125-7.114 2.892c-.782.317-1.371.979-1.599 1.791-.228.813-.066 1.685.436 2.364l5.945 8.012c.295.397.693.707 1.15.896l13.502 5.555c.326.336.386 1.852.103 3.47l-2.115.623c-.214-2.229-1.135-4.179-3.197-4.973-2.561-.987-10.363-1.5-12.692-1.635-.676-.037-1.34.176-1.868.6l-10.13 8.185c-.723.585-1.099 1.499-.998 2.423l1.57 14.25-2.426 1.337-4.114-16.17c-.3-1.175-1.336-2.008-2.544-2.051zm2.909 28.722l-.006 52.146H82.681l54.094-52.146zm-114.98 47.931l104.896-45.784-51.867 50H21.796v-4.216zm239.756 164.626v18.55H11.988v-18.55H261.55zm0-147.861c0 6.318-5.133 11.457-11.443 11.457s-11.443-5.14-11.443-11.457c0-1.507-1.22-2.728-2.724-2.728-.616 0-1.178.212-1.635.557-.457-.345-1.019-.557-1.635-.557-1.505 0-2.724 1.22-2.724 2.728 0 6.318-5.133 11.457-11.443 11.457s-11.443-5.14-11.443-11.457c0-1.507-1.22-2.728-2.724-2.728-.616 0-1.178.212-1.635.557-.457-.345-1.019-.557-1.635-.557-1.505 0-2.724 1.22-2.724 2.728 0 6.318-5.133 11.457-11.443 11.457s-11.443-5.14-11.443-11.457c0-1.507-1.22-2.728-2.724-2.728-.616 0-1.178.212-1.635.557-.457-.345-1.019-.557-1.635-.557-1.505 0-2.724 1.22-2.724 2.728 0 6.318-5.133 11.457-11.443 11.457s-11.443-5.14-11.443-11.457c0-1.507-1.22-2.728-2.724-2.728-.616 0-1.178.212-1.635.557-.457-.345-1.02-.557-1.635-.557-1.505 0-2.724 1.22-2.724 2.728 0 6.318-5.133 11.457-11.443 11.457s-11.443-5.14-11.443-11.457c0-1.507-1.22-2.728-2.725-2.728-.615 0-1.178.212-1.634.557-.457-.345-1.02-.557-1.635-.557-1.505 0-2.724 1.22-2.724 2.728 0 6.318-5.133 11.457-11.443 11.457s-11.443-5.14-11.443-11.457c0-1.507-1.22-2.728-2.725-2.728-.615 0-1.178.212-1.634.557-.457-.345-1.02-.557-1.635-.557-1.505 0-2.724 1.22-2.724 2.728 0 6.318-5.133 11.457-11.443 11.457s-11.443-5.14-11.443-11.457c0-1.507-1.22-2.728-2.725-2.728-.615 0-1.178.212-1.634.557-.457-.345-1.02-.557-1.635-.557-1.505 0-2.725 1.22-2.725 2.728 0 6.318-5.132 11.457-11.442 11.457-6.31 0-11.443-5.14-11.443-11.457v-7.093H261.55v7.093z" transform="translate(-839 -2164) translate(289 2164) translate(550) translate(.175)"/>
                        <path d="M256.158 225.822l5.06-8.481c.705-1.18.422-2.7-.658-3.547l-14.893-11.682 3.212-12.529c.29-1.136-.176-2.332-1.16-2.968-.982-.637-2.263-.573-3.179.159l-15.782 12.614c-.094.075-.183.157-.267.245l-14.626 15.27c-4.078.16-18.05.759-23.033 1.641-6.853 1.215-11.784 4.701-13.529 9.564-.79 2.203-7.41 9.511-13.354 15.305-.552.537-.85 1.285-.822 2.055.027.77.38 1.493.97 1.988 1.513 1.272 3.426 1.917 5.69 1.917 5.885 0 13.632-4.594 19.457-8.772l-9.558 23.629c-.32.793-.251 1.691.188 2.426.438.734 1.197 1.22 2.046 1.31l12.22 1.315c.099.011.197.016.294.016.987 0 1.908-.538 2.389-1.42l11.026-20.201 20.412-1.661 9.321 18.937c.533 1.085 1.711 1.688 2.907 1.482l12.686-2.189c.866-.15 1.608-.71 1.99-1.503.383-.794.36-1.723-.064-2.495l-12.41-22.697-.316-10.945 10.838 2.48c1.149.26 2.339-.248 2.945-1.263zm-16.004-7.323c-.822-.188-1.684.016-2.337.552-.651.535-1.019 1.342-.993 2.187l.437 15.123c.013.432.126.852.334 1.231l10.892 19.923-6.92 1.193-9.241-18.77c-.494-1.004-1.562-1.59-2.663-1.513l-23.724 1.93c-.916.074-1.73.606-2.17 1.41L192.91 261.66l-6.823-.734 12.084-29.868c.475-1.174.08-2.522-.954-3.252s-2.435-.653-3.382.189c-4.055 3.605-15.44 12.567-22.55 13.783 4.063-4.172 9.99-10.617 11.142-13.826 1.067-2.972 4.475-5.171 9.35-6.035 5.365-.95 23.206-1.598 23.385-1.605.708-.024 1.38-.325 1.87-.838l15.263-15.936 9.28-7.417-1.63 6.36c-.268 1.05.108 2.16.959 2.826l14.404 11.298-2.814 4.716-12.34-2.822zM26.862 238.6l-9.558 23.628c-.32.793-.252 1.691.187 2.425.44.735 1.197 1.22 2.047 1.31l12.22 1.316c.099.01.196.016.293.016.987 0 1.908-.538 2.39-1.42l11.026-20.201 20.412-1.661L75.2 262.95c.534 1.085 1.719 1.685 2.907 1.482l12.686-2.19c.868-.15 1.609-.708 1.991-1.502.383-.794.359-1.723-.064-2.495l-12.41-22.697-.317-10.945 10.84 2.48c1.145.26 2.34-.247 2.945-1.261l5.061-8.481c.704-1.18.422-2.7-.658-3.547l-14.893-11.682 3.21-12.529c.292-1.136-.175-2.332-1.158-2.968-.983-.638-2.264-.573-3.18.159l-15.782 12.614c-.093.075-.183.157-.267.245l-14.626 15.27c-4.078.16-18.05.759-23.033 1.641-6.852 1.215-11.782 4.701-13.528 9.564-.79 2.203-7.41 9.511-13.354 15.305-.551.537-.85 1.285-.821 2.055.028.77.38 1.493.97 1.988 1.511 1.272 3.426 1.917 5.688 1.917 5.883-.003 13.63-4.597 19.455-8.774zm-6.813-10.648c1.067-2.972 4.475-5.171 9.35-6.035 5.364-.95 23.204-1.598 23.385-1.605.709-.024 1.379-.325 1.87-.838l15.263-15.936 9.28-7.417-1.63 6.36c-.27 1.05.107 2.16.958 2.826l14.403 11.298-2.814 4.716-12.34-2.823c-.824-.19-1.686.016-2.337.552-.652.535-1.02 1.342-.994 2.187l.437 15.123c.013.432.126.852.333 1.23l10.893 19.923-6.921 1.194-9.24-18.77c-.494-1.004-1.544-1.591-2.664-1.513l-23.724 1.93c-.914.074-1.73.606-2.17 1.41L30.528 261.66l-6.822-.734 12.083-29.868c.475-1.175.08-2.522-.954-3.252-1.033-.731-2.433-.653-3.38.189-4.055 3.605-15.442 12.567-22.551 13.783 4.067-4.172 9.993-10.616 11.145-13.825z" transform="translate(-839 -2164) translate(289 2164) translate(550) translate(.175)"/>
                    </g>
                </g>
            </g>
        </g>
    </g>
</svg>
