<svg id="Calque_1" data-name="Calque 1" xmlns="http://www.w3.org/2000/svg" viewBox="0 0 268 311">
  <defs>
    <style>
      .cls-1 {
        fill: none;
      }
    </style>
  </defs>
  <title>manege</title>
  <path class="cls-1" d="M220.31,161l-10.89,6.23v10.49l10.89-6.23Zm-10.89,33.77,10.89-6.23V178l-10.89,6.23Zm0,17.06,10.89-6.24V195.06l-10.89,6.23Zm10.89,34.43-10.89,6.23v10.49l10.89-6.23ZM209.42,280l10.89-6.23v-10.5l-10.89,6.23ZM57.93,161,47,167.19v10.49l10.89-6.23ZM47,194.73l10.89-6.23V178L47,184.24Zm0,17.06,10.89-6.24V195.06L47,201.29Zm10.89,34.43L47,252.45v10.49l10.89-6.23ZM47,280l10.89-6.23v-10.5L47,269.5ZM267.12,140.23a2.5,2.5,0,0,0,.05-.55V129.31a2.72,2.72,0,0,0-2.72-2.73h-1.63v-6a2.74,2.74,0,0,0-1.64-2.5L145.42,67.56l1.92-1.06a2.72,2.72,0,0,0,1.4-2.69l-1.61-14.58,8.15-6.58a73.44,73.44,0,0,1,9.66,1.11,9,9,0,0,1-.14,3.12,2.72,2.72,0,0,0,3.43,3.2l7.37-2.17a2.74,2.74,0,0,0,1.84-1.81c1.29-4.21,1.31-9.75-2.91-11.49l-12.81-5.27-3.39-4.58L164,22.45a2.72,2.72,0,0,0,1.7-2.72l-.47-6.5a2.73,2.73,0,0,0-2.57-2.53l-11.85-.64L148,2.63A2.77,2.77,0,0,0,145.39.86a2.74,2.74,0,0,0-2.52,2L139.1,15.61A2.33,2.33,0,0,0,139,16l-2.09,13.42c-2.47,1.88-9.33,7.16-11.63,9.46-3.49,3.49-4.93,7.57-4,11.11.11,1.13-1.7,5.38-3.81,8.91a2.75,2.75,0,0,0-.06,2.68A2.71,2.71,0,0,0,119.72,63c6.35.37,10.66-3.39,13.32-7.05l2.75,10.8L18.16,118.08a2.72,2.72,0,0,0-1.64,2.5v6H14.89a2.73,2.73,0,0,0-2.73,2.73v10.37a2.51,2.51,0,0,0,.06.55,16.86,16.86,0,0,0,32.64,4.83,16.85,16.85,0,0,0,31.6,0,16.83,16.83,0,0,0,28.34,5.37V281.54H9.44a2.73,2.73,0,0,0-2.73,2.73v24A2.73,2.73,0,0,0,9.44,311h255a2.72,2.72,0,0,0,2.72-2.73v-24a2.72,2.72,0,0,0-2.72-2.73H169.09V254.26a2.73,2.73,0,1,0-5.45,0v27.28h-53.4V149.09a16.84,16.84,0,0,0,29.43-4,16.82,16.82,0,0,0,24,8.86V227a2.73,2.73,0,1,0,5.45,0V150.59a2.77,2.77,0,0,0-.26-1.15,16.68,16.68,0,0,0,2.44-4.39,16.86,16.86,0,0,0,31.61,0,16.85,16.85,0,0,0,31.6,0,16.86,16.86,0,0,0,32.64-4.82Zm-9.75-17.86v4.21H204L150,75.51ZM196,126.58H142.39V75.81L196,126.58ZM134,45.71h-.1a2.72,2.72,0,0,0-2.58,1.87c0,.07-2,5.89-6.28,8.61,1.21-2.75,2.06-5.63,1.53-7.58-.45-1.68.47-3.83,2.54-5.9s9.33-7.66,11.94-9.63a2.74,2.74,0,0,0,1.06-1.76L144.38,17l1.41-4.8.55,1.46a2.72,2.72,0,0,0,2.4,1.77L160,16l.15,2.13L153,21a2.73,2.73,0,0,0-1.17,4.15l6,8a2.68,2.68,0,0,0,1.15.9l13.5,5.56c.33.33.39,1.85.1,3.47l-2.11.62c-.21-2.23-1.14-4.18-3.2-5-2.56-1-10.36-1.5-12.69-1.64a2.75,2.75,0,0,0-1.87.6l-10.13,8.19a2.73,2.73,0,0,0-1,2.42l1.57,14.25-2.42,1.34-4.12-16.17A2.73,2.73,0,0,0,134,45.71ZM137,74.44v52.14H82.86L137,74.44ZM22,122.37l104.9-45.79L75,126.58H22v-4.21ZM261.73,287v18.55H12.16V287H261.73Zm0-147.86a11.45,11.45,0,1,1-22.89,0,2.71,2.71,0,0,0-4.36-2.17,2.71,2.71,0,0,0-4.36,2.17,11.44,11.44,0,1,1-22.88,0,2.71,2.71,0,0,0-4.36-2.17,2.71,2.71,0,0,0-4.36,2.17,11.45,11.45,0,1,1-22.89,0,2.71,2.71,0,0,0-4.36-2.17,2.71,2.71,0,0,0-4.36,2.17,11.44,11.44,0,1,1-22.88,0,2.71,2.71,0,0,0-4.36-2.17,2.71,2.71,0,0,0-4.36,2.17,11.45,11.45,0,1,1-22.89,0,2.73,2.73,0,0,0-2.72-2.73,2.7,2.7,0,0,0-1.63.56,2.71,2.71,0,0,0-4.36,2.17,11.45,11.45,0,1,1-22.89,0A2.71,2.71,0,0,0,76.46,137a2.71,2.71,0,0,0-4.36,2.17,11.44,11.44,0,1,1-22.88,0A2.71,2.71,0,0,0,44.86,137a2.71,2.71,0,0,0-4.36,2.17,11.45,11.45,0,1,1-22.89,0V132H261.72v7.09Zm-5.4,86.69,5.06-8.48a2.73,2.73,0,0,0-.66-3.55l-14.89-11.68,3.21-12.53a2.73,2.73,0,0,0-4.34-2.81l-15.78,12.62a2,2,0,0,0-.26.24L214,214.9c-4.08.16-18,.76-23,1.64-6.86,1.22-11.79,4.7-13.53,9.57-.79,2.2-7.41,9.51-13.36,15.3a2.74,2.74,0,0,0,.15,4.05,8.58,8.58,0,0,0,5.69,1.91c5.89,0,13.63-4.59,19.46-8.77l-9.56,23.63a2.73,2.73,0,0,0,2.23,3.74l12.22,1.31.3,0a2.72,2.72,0,0,0,2.39-1.42l11-20.2L228.44,244,237.76,263a2.7,2.7,0,0,0,2.9,1.48l12.69-2.19a2.67,2.67,0,0,0,2-1.5,2.73,2.73,0,0,0-.06-2.49l-12.41-22.7-.32-10.94,10.84,2.48a2.72,2.72,0,0,0,2.94-1.27Zm-16-7.32a2.72,2.72,0,0,0-3.33,2.74l.44,15.12a2.66,2.66,0,0,0,.33,1.23l10.89,19.93-6.92,1.19-9.24-18.77a2.73,2.73,0,0,0-2.66-1.51l-23.73,1.92a2.76,2.76,0,0,0-2.17,1.41l-10.85,19.9-6.83-.73,12.09-29.87A2.73,2.73,0,0,0,194,228c-4,3.61-15.44,12.57-22.55,13.79,4.06-4.17,10-10.62,11.14-13.83,1.07-3,4.48-5.17,9.35-6,5.37-.95,23.21-1.6,23.39-1.61a2.69,2.69,0,0,0,1.87-.84l15.26-15.93,9.28-7.42-1.63,6.36a2.74,2.74,0,0,0,1,2.83l14.4,11.3-2.81,4.71-12.34-2.82ZM27,238.6l-9.56,23.63A2.73,2.73,0,0,0,19.71,266l12.22,1.32h.3a2.73,2.73,0,0,0,2.39-1.42l11-20.2L66.05,244,75.37,263a2.72,2.72,0,0,0,2.91,1.48L91,262.24a2.72,2.72,0,0,0,1.92-4L80.48,235.55l-.31-11L91,227.08A2.72,2.72,0,0,0,94,225.82L99,217.34a2.73,2.73,0,0,0-.65-3.55l-14.9-11.68,3.21-12.53a2.73,2.73,0,0,0-4.34-2.81L66.55,199.39a2,2,0,0,0-.26.24L51.66,214.9c-4.08.16-18,.76-23,1.64-6.86,1.22-11.79,4.7-13.53,9.57-.79,2.2-7.41,9.51-13.36,15.3a2.74,2.74,0,0,0,.15,4.05,8.58,8.58,0,0,0,5.69,1.91c5.88,0,13.63-4.59,19.46-8.77ZM20.22,228c1.07-3,4.48-5.17,9.35-6,5.37-.95,23.21-1.6,23.39-1.61a2.67,2.67,0,0,0,1.87-.84l15.26-15.93,9.28-7.42-1.63,6.36a2.74,2.74,0,0,0,1,2.83l14.4,11.3-2.81,4.71L78,218.5a2.72,2.72,0,0,0-3.33,2.74l.43,15.12a2.8,2.8,0,0,0,.34,1.23l10.89,19.92-6.92,1.2-9.24-18.77a2.74,2.74,0,0,0-2.66-1.52l-23.73,1.93a2.76,2.76,0,0,0-2.17,1.41L30.7,261.66l-6.82-.73L36,231.06A2.73,2.73,0,0,0,31.63,228c-4.05,3.61-15.44,12.57-22.55,13.79,4.07-4.17,10-10.62,11.14-13.83Z"/>
</svg>
