<?xml version="1.0" encoding="UTF-8"?>
<svg width="360px" height="232px" viewBox="0 0 360 232" version="1.1" xmlns="http://www.w3.org/2000/svg" xmlns:xlink="http://www.w3.org/1999/xlink">
    <title>undraw_Newsletter_re_wrob (1)</title>
    <g id="MAIN" stroke="none" stroke-width="1" fill="none" fill-rule="evenodd">
        <g id="RESSOURCES" transform="translate(-850.000000, -2630.000000)" fill-rule="nonzero">
            <g id="Bloc-Yield-Management" transform="translate(117.000000, 2588.000000)">
                <g id="undraw_Newsletter_re_wrob-(1)" transform="translate(733.112068, 42.000000)">
                    <path d="M358.887932,108.023728 C358.889016,126.84413 344.121943,142.493032 324.99561,143.939963 C324.684855,143.963054 324.369506,143.986145 324.054157,144 L324.054157,109.810995 C324.05482,109.118922 323.736477,108.463666 323.18809,108.028346 C323.156881,107.996849 323.122102,107.968958 323.084432,107.945217 C323.050286,107.917952 323.014095,107.893252 322.976165,107.871325 C322.304198,107.447005 321.458697,107.386139 320.730798,107.709686 L320.340057,106.869162 C320.767275,106.6783 321.231098,106.579107 321.700523,106.578211 L294.887932,83.9163922 C295.095023,83.685479 295.311538,83.4591841 295.528054,83.2328892 C305.870466,72.5367265 321.812066,69.1027342 335.770461,74.5642413 C349.728856,80.0257484 358.886588,93.2803665 358.887932,108.023728 L358.887932,108.023728 Z" id="Path" fill="#F2F2F2"></path>
                    <path d="M9.97605761,134.083656 C9.70715184,132.694351 10.0605912,131.255955 10.9412717,130.155513 C11.8219522,129.055071 13.1394073,128.405625 14.5391343,128.381928 L35.6239992,103 L40.8879315,109.805952 L19.3995,133.428097 C19.2803895,135.862062 17.3798888,137.821271 14.9757297,137.988521 C12.5715706,138.155771 10.4236662,136.478198 9.97608105,134.083656 L9.97605761,134.083656 Z" id="Path" fill="#FFB8B8"></path>
                    <path d="M110.19489,103.114349 C110.051567,103.329712 109.924811,103.556482 109.8158,103.79255 L87.4576826,107.113116 L84.0626187,102.634743 L76.8879315,107.074917 L83.6321355,118 L110.900087,109.648436 C112.373426,111.034135 114.518285,111.328094 116.287063,110.386736 C118.055841,109.445378 119.079487,107.465116 118.858028,105.413157 C118.636568,103.361198 117.21621,101.66568 115.290691,101.154733 C113.365171,100.643787 111.336246,101.42402 110.19489,103.114349 Z" id="Path" fill="#FFB8B8"></path>
                    <polygon id="Path" fill="#FFB8B8" points="71.8879315 187.101663 76.0261492 191 93.8879315 177.753766 87.7806309 172"></polygon>
                    <path d="M66.4214398,190.252473 L84.5251722,190.24417 L84.5219644,197.238769 L73.4128817,197.243864 C71.5577877,197.244714 69.7790116,196.5086 68.4678637,195.197457 C67.1567157,193.886314 66.4205985,192.107545 66.4214398,190.252458 L66.4214398,190.252458 L66.4214398,190.252473 Z" id="Path" fill="#2F2E41" transform="translate(75.473306, 193.744017) rotate(-135.123160) translate(-75.473306, -193.744017) "></path>
                    <polygon id="Path" fill="#FFB8B8" points="47.8890369 226 54.6647636 226 57.8879315 204 47.8879315 204"></polygon>
                    <path d="M48.2975122,224.240041 L66.4095164,224.240041 L66.4095164,231.231451 L55.2953373,231.231451 C53.4393987,231.231451 51.6594746,230.494858 50.3471278,229.183714 C49.034781,227.87257 48.2975122,226.094278 48.2975122,224.240041 L48.2975122,224.240041 L48.2975122,224.240041 Z" id="Path" fill="#2F2E41" transform="translate(57.353514, 227.735746) rotate(179.997380) translate(-57.353514, -227.735746) "></path>
                    <path d="M48.9631221,208.091943 L42.4703959,159.710421 C41.4542792,152.398715 41.7696157,144.960914 43.4008554,137.763794 C44.7332096,131.979906 46.5331602,127.973431 48.7508695,125.856322 C49.1008492,125.524473 49.5488793,125.317749 50.0262818,125.267838 L71.4632784,123.011505 C72.3061992,122.924429 73.1231048,123.336899 73.5602413,124.070298 L74.2649508,125.256836 C74.3504973,125.400895 74.4194849,125.554353 74.4705732,125.714227 L79.0029471,139.911044 C79.1396108,140.344325 79.4424841,140.704162 79.8437929,140.910034 C86.979786,144.591165 110.159796,157.017748 108.833244,162.37915 C107.586831,167.416669 95.9173942,175.584634 92.3705294,177.967758 C91.6315143,178.467112 90.6656082,178.459714 89.9341699,177.949098 L84.0464781,173.879028 C83.4632389,173.475711 83.1094307,172.811967 83.0970857,172.09797 C83.0847407,171.383972 83.4153879,170.708147 83.9843287,170.284492 L88.0444893,167.261692 C88.5508581,166.884578 88.8092989,166.255437 88.7160522,165.626858 C88.6228055,164.99828 88.1931632,164.473348 87.5996196,164.262814 L65.7943484,156.532147 C65.2981495,156.356191 64.7492521,156.422609 64.3082046,156.711974 C63.867157,157.001339 63.5837972,157.480953 63.5410056,158.010533 L59.5205049,207.660879 C59.4287539,208.761735 58.5466806,209.6251 57.4547958,209.682776 L51.2341003,209.997113 C51.1962211,209.999025 51.1586953,210 51.1211695,210 C50.0287803,210.004194 49.1039425,209.186497 48.9631221,208.091943 L48.9631221,208.091943 Z" id="Path" fill="#2F2E41"></path>
                    <circle id="Oval" fill="#FFB8B8" cx="58.3879315" cy="72.5" r="11.5"></circle>
                    <path d="M46.2854036,123.638446 L37.8879315,92.4091603 L38.0317355,92.3103237 C38.2120849,92.1864098 56.3121613,80.004428 77.5037019,89.8214654 L77.8879315,90.0461475 L72.9119854,122.460072 C72.6880392,123.986044 71.4313274,125.134205 69.9186849,125.194821 L49.4429591,125.997582 C49.4016851,125.999002 49.360532,126 49.3196156,126 C47.9004523,126.003295 46.6560086,125.034737 46.2854036,123.638446 Z" id="Path" fill="#CCCCCC"></path>
                    <path d="M38.6998966,112.273417 L31.4439149,104.474698 C30.7224432,103.701151 30.7008009,102.554702 31.3926271,101.75785 L38.9779199,93 L44.8008389,94.4843337 L47.8879315,104.58295 L42.2591142,112.09866 C41.86122,112.633162 41.220673,112.96505 40.5248395,112.997244 C40.4842304,112.999077 40.4438815,113 40.4034988,113 C39.749526,113.0012 39.1274796,112.7359 38.6998966,112.273417 Z" id="Path" fill="#CCCCCC"></path>
                    <path d="M79.2510238,109.997304 C78.555189,109.965767 77.9146402,109.64061 77.5167491,109.116947 L71.8879315,101.753683 L74.5953842,91.3389385 L79.9566692,90 L80.9570789,90.4371362 L88.3832365,98.9858912 C89.0750619,99.7665791 89.0534196,100.889772 88.3319486,101.647627 L81.0759667,109.288164 C80.6483812,109.741262 80.0263355,110.001177 79.3723644,110 C79.3321216,110 79.2915124,109.999069 79.2510238,109.997304 Z" id="Path" fill="#CCCCCC"></path>
                    <path d="M323.887932,107.519789 C323.89196,107.635862 323.851604,107.749223 323.774749,107.836831 C323.606141,108.032468 323.309638,108.055427 323.112489,107.888113 L321.538623,106.540802 L294.778918,83.6644971 L219.724073,19.4924286 C218.839275,18.7408577 217.534071,18.7428382 216.651593,19.4970906 L115.579146,106.634042 L114.667766,107.417253 C114.632721,107.447972 114.593104,107.473132 114.550316,107.491845 C114.475081,107.524892 114.392419,107.537753 114.310602,107.529141 C114.193269,107.516719 114.084617,107.461972 114.00528,107.375296 C113.922845,107.282659 113.880961,107.161268 113.887932,107.037932 C113.8968,106.914597 113.95387,106.799463 114.047487,106.717957 L114.174332,106.60607 L216.03612,18.7931326 C217.272595,17.7391648 219.098215,17.7352091 220.339316,18.7838086 L295.417792,82.974525 L323.723133,107.179493 C323.823112,107.265405 323.882676,107.388639 323.887932,107.519789 L323.887932,107.519789 Z" id="Path" fill="#3F3D56"></path>
                    <path d="M267.649058,122.312478 L266.4076,118.911358 L262.131514,107.167157 L252.918641,81.8795435 L242.620319,53.613601 L224.048214,2.62967648 C223.288948,0.559719216 220.990892,-0.509367803 218.908384,0.238557199 L111.530382,38.9897222 C109.450029,39.7446567 108.375612,42.0326976 109.128121,44.1054961 L135.459381,116.384006 L135.907617,117.619495 L163.546265,130.087139 L171.314907,133.591609 L172.575032,134.160028 L205.466892,149 L206.741077,148.539627 L228.31487,140.755571 L260.857358,129.01137 L265.241968,127.428252 C267.323154,126.674096 268.399489,124.386567 267.649058,122.312478 L267.649058,122.312478 Z" id="Path" fill="#E6E6E6"></path>
                    <path d="M220.543216,61.9278343 C219.454994,58.8358513 216.155009,57.2386139 213.165316,58.3568315 L171.707231,73.9232485 L151.687549,81.4370841 C149.752282,82.1611982 148.33763,83.8997457 147.977094,85.9970781 C147.616557,88.0944105 148.364985,90.2314548 149.940127,91.6022796 C151.515269,92.9731043 153.677495,93.3691623 155.611375,92.6410902 L171.707221,86.6004622 L217.093873,69.5656053 C220.080596,68.4390149 221.623418,65.0227938 220.543216,61.9278343 Z" id="Path" fill="#FFFFFF"></path>
                    <path d="M228.542859,81.9280749 C227.4545,78.8359091 224.154257,77.2385833 221.164309,78.3568385 L214.140408,80.9935457 L172.402261,96.6612129 L159.68111,101.433987 C156.693919,102.557906 155.151139,105.974653 156.234059,109.068064 C157.316978,112.161474 160.616082,113.761746 163.605283,112.643568 L172.402252,109.33934 L225.093203,89.5616522 C225.212848,89.5187402 225.327994,89.4662921 225.44314,89.413844 C228.219335,88.1528686 229.574981,84.8790066 228.542859,81.9280749 Z" id="Path" fill="#FFFFFF"></path>
                    <path d="M235.541861,104.863021 C234.455782,101.822468 231.156912,100.251153 228.168336,101.35087 L208.470011,108.623696 L193.220574,114.25533 L172.025416,122.076783 L166.683053,124.050903 C164.139396,124.994316 162.582059,127.611451 162.938497,130.343703 C162.9913,130.738416 163.083917,131.126537 163.214881,131.501916 L170.795765,135 L172.025435,134.545155 L172.034646,134.545155 L210.496466,120.346498 L232.092153,112.374993 C235.08102,111.269173 236.624945,107.907199 235.541889,104.863021 L235.541861,104.863021 Z" id="Path" fill="#FFFFFF"></path>
                    <path d="M192.536745,41.76647 C191.427693,38.8015231 188.064743,37.2699146 185.017977,38.342152 L160.753194,46.9098049 C157.709236,47.9874871 156.137137,51.2636713 157.240636,54.229821 C158.344135,57.1959706 161.705933,58.7304079 164.751939,57.6582318 L172.430446,54.9471228 L177.513166,53.1503845 L189.021533,49.086007 C192.064778,48.0077756 193.637436,44.7331153 192.536745,41.76647 Z" id="Path" fill="#FFFFFF"></path>
                    <path d="M289.884089,53 L175.891798,53 C174.52544,53.0013412 173.254056,53.6968318 172.519289,54.8448773 C172.105919,55.4844656 171.886685,56.2294158 171.887932,56.9901927 L171.887932,133.489229 L204.715093,148.318663 L209.340646,150.407646 L216.646407,153.70777 C217.511885,154.09741 218.503682,154.09741 219.36916,153.70777 L226.674921,150.407646 L249.539325,140.080088 L270.849397,130.451988 L293.887932,120.049321 L293.887932,56.9901927 C293.886531,54.7870559 292.094773,53.0014061 289.884089,53 L289.884089,53 Z" id="Path" fill="#896AF4"></path>
                    <path d="M265.049637,107 L198.726615,107 C195.592814,107.00186 193.019711,109.546644 192.897662,112.7648 C192.889883,112.842931 192.886763,112.921478 192.887932,113 C192.892851,116.311778 195.504092,118.995344 198.726615,119 L265.049637,119 C268.274038,119 270.887932,116.313708 270.887932,113 C270.887932,109.686292 268.274038,107 265.049637,107 L265.049637,107 Z" id="Path" fill="#FFFFFF"></path>
                    <path d="M269.184051,131.430409 C268.126347,130.504864 266.779552,129.997424 265.387633,130 L198.753603,130 C195.514082,130 192.887932,132.686299 192.887932,136 C192.887932,139.313711 195.514082,142 198.753603,142 L248.658785,142 L269.887932,132.155208 C269.673737,131.893708 269.438268,131.651241 269.184051,131.430409 Z" id="Path" fill="#FFFFFF"></path>
                    <path d="M209.887932,151 L217.052808,154.674609 C217.901596,155.108464 218.874267,155.108464 219.723055,154.674609 L226.887932,151 L209.887932,151 Z" id="Path" fill="#FFFFFF"></path>
                    <path d="M250.53651,80.9408 C249.702656,78.574838 247.534075,77.0009558 245.106659,77 L219.669183,77 C217.401025,77.0021514 215.343286,78.3796102 214.405993,80.5232 C214.063393,81.3004237 213.886674,82.1453066 213.887932,83 C213.892424,86.3117781 216.47815,88.9953442 219.669183,89 L245.106659,89 C246.994215,89.0001918 248.762975,88.0439489 249.844627,86.4385178 C250.92628,84.8330866 251.184571,82.7806993 250.53651,80.9408 L250.53651,80.9408 Z" id="Path" fill="#FFFFFF"></path>
                    <path d="M247.154926,140.422299 L224.274839,150.794565 L218.858966,153.250906 C218.241478,153.529085 217.534375,153.529085 216.916887,153.250906 L211.501014,150.794565 L209.214844,150.794565 L216.525616,154.108975 C217.391688,154.500302 218.384165,154.500302 219.250237,154.108975 L226.561009,150.794565 L249.441097,140.422299 L247.154926,140.422299 Z M247.154926,140.422299 L224.274839,150.794565 L218.858966,153.250906 C218.241478,153.529085 217.534375,153.529085 216.916887,153.250906 L211.501014,150.794565 L209.214844,150.794565 L216.525616,154.108975 C217.391688,154.500302 218.384165,154.500302 219.250237,154.108975 L226.561009,150.794565 L249.441097,140.422299 L247.154926,140.422299 Z M247.154926,140.422299 L224.274839,150.794565 L218.858966,153.250906 C218.241478,153.529085 217.534375,153.529085 216.916887,153.250906 L211.501014,150.794565 L209.214844,150.794565 L216.525616,154.108975 C217.391688,154.500302 218.384165,154.500302 219.250237,154.108975 L226.561009,150.794565 L249.441097,140.422299 L247.154926,140.422299 Z M323.945176,107.99011 C323.77129,107.817067 323.58018,107.66225 323.374824,107.528072 C322.433692,106.91781 321.246103,106.83068 320.226016,107.297054 L270.058719,130.040604 L247.154907,140.422299 L224.27482,150.794565 L218.858947,153.250906 C218.241459,153.529085 217.534356,153.529085 216.916868,153.250906 L211.500995,150.794565 L205.85865,148.234501 L171.745863,132.77511 L171.736435,132.770419 L162.436392,128.550793 L134.668398,115.962634 L115.54978,107.297077 C115.355269,107.207072 115.151318,107.139074 114.941718,107.094347 C114.480002,106.978949 113.998199,106.96928 113.532227,107.066059 C111.995589,107.380658 110.891165,108.731489 110.887932,110.30032 L110.887932,228.699734 C110.887932,230.521582 112.366032,231.997979 114.187491,232 L321.588367,232 C323.409825,231.997979 324.887932,230.521582 324.887932,228.699734 L324.887932,110.30032 C324.887932,109.436235 324.550807,108.606288 323.945176,107.990091 L323.945176,107.99011 Z M323.945176,228.69971 C323.945176,230.001414 322.889773,231.057043 321.588348,231.057043 L114.187472,231.057043 C112.886047,231.057043 111.830644,230.001414 111.830644,228.69971 L111.830644,110.300296 C111.830644,109.499754 112.237498,108.754094 112.910071,108.320136 C113.142986,108.17096 113.399598,108.062544 113.668904,107.999539 C113.748289,107.982382 113.828592,107.969789 113.909418,107.961822 C114.001486,107.948504 114.094431,107.942901 114.187453,107.942901 C114.52257,107.942901 114.853693,108.01575 115.158466,108.155123 L135.116016,117.202568 L162.719216,129.715292 L170.477894,133.232433 L171.736402,133.802907 L204.586076,148.696538 L209.214801,150.794565 L216.525574,154.108975 C217.391645,154.500302 218.384123,154.500302 219.250194,154.108975 L226.560967,150.794565 L249.441054,140.422299 L270.765744,130.752518 L320.617264,108.155123 C321.346151,107.824822 322.192799,107.886959 322.865678,108.320136 C322.90366,108.342521 322.9399,108.367737 322.974092,108.395571 C323.011814,108.419808 323.04664,108.448281 323.077892,108.480435 C323.627022,108.924842 323.945176,109.593776 323.945176,110.300296 L323.945176,228.69971 Z M247.154926,140.422299 L224.274839,150.794565 L218.858966,153.250906 C218.241478,153.529085 217.534375,153.529085 216.916887,153.250906 L211.501014,150.794565 L209.214844,150.794565 L216.525616,154.108975 C217.391688,154.500302 218.384165,154.500302 219.250237,154.108975 L226.561009,150.794565 L249.441097,140.422299 L247.154926,140.422299 Z M247.154926,140.422299 L224.274839,150.794565 L218.858966,153.250906 C218.241478,153.529085 217.534375,153.529085 216.916887,153.250906 L211.501014,150.794565 L209.214844,150.794565 L216.525616,154.108975 C217.391688,154.500302 218.384165,154.500302 219.250237,154.108975 L226.561009,150.794565 L249.441097,140.422299 L247.154926,140.422299 Z M170.477918,133.232433 L171.736426,133.802907 L171.736426,132.77511 L170.477918,133.232433 Z M247.154926,140.422299 L224.274839,150.794565 L218.858966,153.250906 C218.241478,153.529085 217.534375,153.529085 216.916887,153.250906 L211.501014,150.794565 L209.214844,150.794565 L216.525616,154.108975 C217.391688,154.500302 218.384165,154.500302 219.250237,154.108975 L226.561009,150.794565 L249.441097,140.422299 L247.154926,140.422299 Z" id="Shape" fill="#3F3D56"></path>
                    <path d="M83.4183663,232 L30.3574967,232 C30.098163,232 29.8879315,231.776142 29.8879315,231.5 C29.8879315,231.223858 30.098163,231 30.3574967,231 L83.4183663,231 C83.6777,231 83.8879315,231.223858 83.8879315,231.5 C83.8879315,231.776142 83.6777,232 83.4183663,232 Z" id="Path" fill="#3F3D56"></path>
                    <path d="M53.1483357,80.6738146 C51.3594464,79.7506077 50.2723635,77.8430974 50.3739082,75.8055113 C50.4754529,73.7679253 51.7466021,71.9819786 53.6181055,71.2474598 C57.1358609,69.8668306 61.0794966,72.684471 64.7669103,71.8833933 C68.4421685,71.0849706 70.5682142,66.6162221 69.690961,62.8996031 C68.8137078,59.1829841 65.6208019,56.3835713 62.100023,55.0466526 C57.4422757,53.282399 52.2485946,53.7665748 47.9838255,56.3626212 C43.7532957,59.0408786 41.09805,63.6728947 40.8905991,68.7365942 C40.7931628,73.817415 43.3708946,78.5644124 47.6511161,81.1863595 C48.5883061,81.7357844 49.6791924,82.1769057 50.7332328,81.9295153 C51.5985665,81.6436536 52.4137586,81.2198053 53.1483357,80.6738146 Z" id="Path" fill="#2F2E41"></path>
                    <path d="M49.5024865,57.0443398 C46.4600421,53.0300301 42.3530141,49.7322139 37.5739421,48.0971871 C32.79487,46.4621604 27.3335869,46.5934297 22.8451732,48.9040262 C18.3567596,51.2146226 15.0094628,55.8035517 14.6600731,60.8189138 C14.0785748,69.1660973 21.2484746,76.2615218 21.9843056,84.5966463 C22.4581021,89.9636156 20.1829401,95.2070703 15.9319153,98.5452948 C11.6808904,101.883519 6.02568675,102.867584 0.887931516,101.163106 C4.52964931,104.145115 9.25725715,105.479793 13.9307317,104.845292 C18.604532,104.147447 22.7151418,101.395897 25.1254377,97.3518085 C26.7391002,94.5628056 27.4016893,91.3231173 27.6590762,88.1153502 C28.0633132,83.0433209 27.5158987,77.9407374 26.044748,73.0678051 C25.2405307,70.4091175 24.1498494,67.6730929 24.6598517,64.9433941 C25.2540884,62.0410228 27.5321686,59.7715299 30.4489193,59.1761487 C32.7548391,58.7463396 35.112484,59.4464256 37.314288,60.2521254 C39.516092,61.0578252 41.7360004,61.9902143 44.0814344,62.0435584 C46.4268685,62.0969025 48.9815117,61.0289141 49.8879315,58.8763493 L49.5024865,57.0443398 Z" id="Path" fill="#2F2E41"></path>
                </g>
            </g>
        </g>
    </g>
</svg>