<svg xmlns="http://www.w3.org/2000/svg" width="102" height="85" viewBox="0 0 102 85">
    <g fill="none" fill-rule="evenodd">
        <g fill="#FFF" fill-rule="nonzero">
            <g>
                <g>
                    <g>
                        <g>
                            <path d="M28.834 66.252l-2.054-1.52c-.067.79-.3 1.558-.685 2.252-.09.15-.18.285-.27.405l1.842 1.374.337.247c.134-.191.258-.382.381-.574.364-.598.636-1.247.809-1.925l-.36-.26zm13.74 10.235l-1.616-1.238c-.573.72-1.25 1.35-2.01 1.869l2.179 1.621.078.068c.698-.591 1.33-1.255 1.886-1.982l-.516-.338zm38.943-8.783v-.371-.777c.029-.664-.063-1.328-.27-1.96l-.37-.765c-1.147-2.023-2.699-3.787-4.558-5.18l-1.392-1.036 3.84 8.006c0 .405.09 1.441.1 1.802.012.36 0 .371 0 .495.069.656-.134 1.311-.56 1.813-.2.242-.418.468-.652.676l-.135.09c-.89.625-2.074.625-2.963 0l-17.883-14.3c-.585-.433-1.405-.328-1.862.24-.457.566-.388 1.393.156 1.876l13.38 10.81c1.34 1.077 2.35 2.509 2.92 4.133l.157.45c.133.39.042.822-.236 1.126l-.101.101c-.693.639-1.621.958-2.56.879-.781-.122-1.517-.448-2.132-.946L51.06 61.116c-.558-.503-1.417-.457-1.92.102-.501.56-.456 1.422.102 1.926l12.651 11.508c.172.151.293.352.348.574v.135l.651 1.858c.051.542.02 1.089-.09 1.622l-.19.405c-.14.298-.402.52-.719.608-1.468.404-3.04-.028-4.097-1.126l-8.914-9.008c-.53-.51-1.367-.51-1.897 0-.536.503-.57 1.345-.078 1.892l7.353 8.287c.233.24.348.57.313.904-.035.333-.215.633-.493.819l-.146.101c-1.762-.05-3.498-.432-5.119-1.126-.846-.352-1.655-.79-2.413-1.306-.05.154-.118.301-.202.44-.408.665-.985 1.21-1.673 1.576 2.87 2.034 6.296 3.131 9.811 3.141.272-.004.537-.086.764-.236l.449-.338c.757-.524 1.308-1.297 1.56-2.185 1.647 1.024 3.65 1.302 5.512.766 1.056-.306 1.933-1.047 2.413-2.038l.191-.405c.292-.746.436-1.541.427-2.342.738.42 1.543.71 2.38.855 1.838.225 3.678-.405 4.995-1.711l.101-.113c.824-.88 1.182-2.1.966-3.288 1.651.606 3.494.357 4.928-.664l.1-.135c.418-.33.795-.708 1.123-1.126.918-1.036 1.376-2.402 1.269-3.784zm-28.76-33.96v.067h2.84c.156-.022.315-.022.471 0l-1.482-2.185c-.229-.337-.595-.555-.999-.597l-8.98-.8c-.582-.078-1.17-.078-1.752 0l-17.321 2.512-1.123.158-4.018.146 2.638 1.396c-.068.417-.146.822-.225 1.239h1.92l.875-.124 17.602-2.567c.35-.056.706-.056 1.055 0l2.19.191 6.308.563zm-31.68 28.735l-2.245-.754c-.965-.33-1.969-.53-2.986-.597-.243-.017-.487-.017-.73 0h-1.852l.584-1.88c-.516.863-1.055 1.719-1.617 2.567l-1.863-.574-.236.743c-.125.41-.055.854.191 1.205.256.365.678.576 1.123.563h3.67c.99.012 1.97.18 2.908.495l1.572.53 2.593.867c.146-.282.314-.586.516-.901.393-.49.872-.902 1.414-1.216l-3.042-1.048zm14.066 8.457l-1.19-.89c-.52.749-1.13 1.43-1.818 2.027l2.245 1.633c.65-.634 1.243-1.323 1.773-2.06l-1.01-.71z" transform="translate(-674 -2227) translate(166 1271) translate(242 937) translate(266 19) translate(.183)"/>
                            <path d="M88.915 61.759c-.337-.507-.674-1.025-.988-1.543l-1.381.563c-.437.185-.75.58-.83 1.047v.214c0 .985-.793 1.784-1.775 1.79h-3.143c-1.147-2.022-2.699-3.786-4.557-5.18l-1.392-1.035-16.772-12.51c-1.92-1.434-4.212-2.283-6.6-2.444l-3.177-.225c-.377-.033-.749.099-1.022.36-.277.255-.436.614-.438.991.002 4.28-3.402 7.779-7.667 7.883h-.46c-1.448-.8-1.583-1.352-1.594-1.42-.017-.054-.017-.113 0-.168.093-.08.173-.176.236-.282l1.122-1.711c.862-1.8 1.43-3.728 1.684-5.71.322-1.466 1.215-2.743 2.481-3.546l7.431-4.74c.337-.21.727-.315 1.123-.305h4.49c.157-.021.315-.021.472 0 .131.028.259.07.381.124l7.432 2.669c2.13.73 4.362 1.11 6.612 1.126 1.764.023 3.526-.147 5.254-.507.89-.156 1.77-.363 2.638-.62-.146-.697-.27-1.407-.393-2.105l3.177-1.678c-.202-.024-.407.003-.595.08l-1.662.64c-1.181.48-2.402.857-3.648 1.127-1.561.328-3.154.483-4.749.462-1.961-.033-3.905-.38-5.758-1.025l-7.398-2.545c-.573-.238-1.187-.36-1.808-.36h-4.49c-.894-.001-1.77.252-2.526.732l-2.144 1.295-5.287 3.378c-1.886 1.19-3.22 3.088-3.705 5.27-.005.033-.005.067 0 .1-.199 1.63-.637 3.22-1.302 4.719l-.999 1.599c-.563.646-.825 1.502-.718 2.353.18 1.363 1.29 2.59 3.289 3.626.153.081.321.13.494.147h.976c5.195-.112 9.54-3.992 10.25-9.155l1.83.135c1.872.125 3.669.79 5.174 1.914l18.152 13.546c1.702 1.276 3.092 2.925 4.064 4.82.03.046.057.095.079.146.227.463.697.756 1.212.755h3.963c1.512-.003 2.921-.77 3.75-2.038.31-.46.527-.977.639-1.52l3.132-1.307c.387-.153.68-.478.797-.878l-3.356.946zM25.534 32.741c-.1-.098-.213-.182-.337-.248L15.14 27.201c-.338-.185-.74-.214-1.1-.08-.362.134-.648.417-.786.778L.646 59.79c-.163.357-.163.768 0 1.125.174.346.483.603.854.71l10.9 3.051c.558.145 1.147-.07 1.482-.54l.202-.304c.595-.867 1.122-1.757 1.717-2.658 4.866-7.874 8.202-16.6 9.834-25.718.101-.53.19-1.047.27-1.577.052-.415-.084-.833-.371-1.137zm-11.686 26.45c-.516.864-1.055 1.72-1.617 2.568l-1.863-.518-6.646-1.858 11.54-29.074 5.164 2.736 2.638 1.396c-.067.417-.146.822-.224 1.239-1.572 8.313-4.617 16.277-8.992 23.511z" transform="translate(-674 -2227) translate(166 1271) translate(242 937) translate(266 19) translate(.183)"/>
                            <path d="M100.455 59.788L87.848 27.9c-.138-.36-.424-.644-.785-.778-.361-.134-.763-.105-1.1.08l-10.014 5.292c-.514.273-.799.843-.707 1.419 0 .214.067.428.112.642.135.9.303 1.79.483 2.68 1.784 8.729 5.131 17.06 9.878 24.592.483.777.988 1.532 1.504 2.252.117.173.275.312.46.406.2.12.43.183.663.18.12.016.24.016.36 0l10.9-3.052c.37-.106.68-.363.853-.709.16-.354.16-.76 0-1.115zm-8.206 1.025l-3.368.946c-.337-.507-.674-1.025-.988-1.543-4.553-7.242-7.756-15.255-9.452-23.647-.146-.698-.27-1.407-.393-2.105l3.177-1.678 4.636-2.477 11.563 29.074-5.175 1.43zM47.245 73.424c-.564-.358-1.209-.567-1.875-.608-.975-.055-1.949.139-2.83.563l-.538.27c-.067.124-.123.237-.19.338-.276.437-.576.858-.899 1.262-.56.716-1.222 1.346-1.964 1.869l-.113.079c-.506 1.022-.734 2.16-.662 3.299.129 1.292.857 2.448 1.965 3.119.84.527 1.814.805 2.806.8 1.077-.01 2.134-.302 3.065-.845.4-.219.776-.48 1.122-.777.545-.466 1.014-1.012 1.392-1.621.11-.182.207-.37.292-.564.373-.932.541-1.935.494-2.938.087-1.678-.694-3.282-2.065-4.246zM46.2 79.741c-.408.666-.985 1.21-1.673 1.577-.906.541-2.035.541-2.941 0-.719-.462-.898-1.25-.528-2.365l.068-.191c.24-.575.533-1.125.875-1.644.156-.23.35-.432.573-.597.352-.247.728-.459 1.122-.63l.225-.09c.354-.158.735-.242 1.122-.248.278-.01.552.064.786.214.55.488.827 1.216.741 1.948v.157c.013.484-.051.967-.19 1.43-.044.153-.104.3-.18.44z" transform="translate(-674 -2227) translate(166 1271) translate(242 937) translate(266 19) translate(.183)"/>
                            <path d="M43.203 64.89c-1.635-.986-3.64-1.133-5.4-.395-.484.19-.947.432-1.38.72-.334.23-.645.49-.932.778.1.246.171.503.213.765.09.518-.213 1.002-.808 1.88l-.449.688c-.155.256-.324.504-.505.743-.52.749-1.13 1.43-1.819 2.027-.106.097-.219.187-.336.27-.182.82-.25 1.661-.202 2.5.01.238.035.475.078.71.158 1.763 1.098 3.363 2.56 4.357.773.498 1.673.764 2.593.766.46-.008.916-.076 1.358-.203.549-.148 1.077-.363 1.572-.642.464-.26.903-.561 1.313-.9.054-.036.103-.077.146-.125.698-.59 1.33-1.255 1.886-1.981.284-.346.554-.721.808-1.126l.214-.327c.49-.838.91-1.716 1.257-2.624.213-.526.37-1.073.471-1.632.426-2.423-.607-4.87-2.638-6.25zm-4.378 12.385c-.13.095-.264.181-.404.26-.791.592-1.863.641-2.705.123-.921-.676-1.457-1.76-1.437-2.905-.022-.303-.022-.608 0-.912-.005-.03-.005-.06 0-.09.106-.965.383-1.903.82-2.77.149-.305.313-.602.493-.89.62-.964 1.377-1.832 2.245-2.578.16-.106.325-.204.494-.293.544-.288 1.148-.443 1.763-.45.56-.008 1.11.149 1.583.45 1.182.776 1.784 2.188 1.526 3.58-.118.537-.295 1.058-.527 1.555-.18.445-.39.878-.629 1.295-.067.123-.123.236-.19.337-.277.437-.576.858-.899 1.262-.573.72-1.25 1.35-2.01 1.869l-.123.157zM29.25 62.76c-.134-.354-.323-.685-.562-.979-.91-1.2-2.42-1.776-3.895-1.486-1.411.417-2.691 1.193-3.716 2.252-.271.257-.512.544-.718.856-.306.479-.576.98-.808 1.497-.41.824-.661 1.718-.741 2.635-.127 1.545.624 3.03 1.942 3.84 1.159.76 2.61.92 3.906.428l.483-.214c.865-.457 1.629-1.085 2.245-1.847.203-.23.394-.47.573-.72.134-.192.258-.383.381-.575.581-.993.963-2.09 1.123-3.231.125-.824.052-1.666-.213-2.455zm-2.448 1.611v.36c-.067.791-.3 1.559-.684 2.253-.09.15-.18.285-.27.405-.26.373-.558.72-.887 1.036-.284.287-.61.53-.965.72-.548.308-1.222.278-1.74-.078-.507-.28-.788-.845-.707-1.42.079-.679.289-1.336.617-1.936.146-.281.315-.585.517-.9.393-.516.88-.952 1.436-1.284.346-.238.724-.424 1.123-.552.082-.01.165-.01.247 0 .499.011.941.322 1.123.788.064.2.095.41.09.62l.1-.012z" transform="translate(-674 -2227) translate(166 1271) translate(242 937) translate(266 19) translate(.183)"/>
                            <path d="M38.399 66.33c-.097-.638-.294-1.258-.584-1.835-.533-1.106-1.365-2.039-2.402-2.691-1.594-1.012-3.543-1.291-5.355-.766-.503.15-.969.404-1.37.743-.627.583-1.15 1.268-1.549 2.027l-.337.552v.36c-.067.79-.3 1.558-.684 2.252-.09.15-.18.286-.27.406-.26.373-.558.72-.887 1.036-.175.61-.284 1.236-.325 1.869-.037.5-.01 1.004.078 1.497.353 2.397 2.39 4.182 4.805 4.212.737-.01 1.465-.163 2.144-.45.565-.238 1.1-.54 1.594-.901.368-.27.72-.56 1.055-.868.65-.633 1.244-1.323 1.774-2.06.202-.293.415-.597.618-.923l.404-.62c.679-.854 1.113-1.878 1.257-2.961.051-.29.062-.586.034-.879zm-6.601 6.036c-1.123.9-2.402 1.25-3.424.608-.821-.544-1.234-1.531-1.044-2.5.013-.246.047-.491.101-.732.056-.328.135-.651.236-.968.28-.88.656-1.726 1.122-2.522l.214-.36c.157-.226.28-.462.415-.676.539-.912.842-1.397 1.347-1.543.346-.103.705-.156 1.067-.158.734.007 1.453.218 2.076.608.705.446 1.245 1.11 1.538 1.892.1.246.172.503.214.766.09.518-.214 1.002-.809 1.88l-.449.687c-.155.257-.324.505-.505.743-.52.749-1.13 1.43-1.818 2.027-.09.088-.183.17-.281.248zM32.079 25.106c-.45 0-.87-.223-1.123-.596l-6.96-10.202c-.39-.621-.22-1.441.385-1.854.605-.413 1.428-.27 1.86.322l6.96 10.202c.283.418.312.957.077 1.403-.235.446-.697.725-1.2.725zM43.81 22.832c-.66-.001-1.222-.476-1.336-1.126L39.353 2.124c-.08-.489.105-.983.487-1.297.382-.314.902-.4 1.364-.225.462.174.796.583.877 1.072l3.12 19.57c.059.357-.027.723-.237 1.016-.21.294-.53.491-.885.55l-.27.022zM67.71 25.106c-.504 0-.965-.279-1.2-.725-.236-.446-.206-.985.076-1.403l6.927-10.213c.265-.42.737-.663 1.233-.632.495.03.934.33 1.145.78.21.452.16.982-.133 1.384l-6.96 10.201c-.243.368-.65.595-1.089.608zM55.967 22.832h-.213c-.356-.058-.675-.256-.885-.55-.21-.293-.296-.658-.238-1.015l3.166-19.593c.118-.743.814-1.25 1.555-1.132.74.118 1.245.817 1.128 1.56l-3.166 19.593c-.11.659-.68 1.14-1.347 1.137z" transform="translate(-674 -2227) translate(166 1271) translate(242 937) translate(266 19) translate(.183)"/>
                        </g>
                    </g>
                </g>
            </g>
        </g>
    </g>
</svg>
