<svg xmlns="http://www.w3.org/2000/svg" width="71" height="64" viewBox="0 0 71 64">
    <g fill="none" fill-rule="evenodd" opacity=".307">
        <g fill="#FFF" fill-rule="nonzero">
            <g>
                <path d="M66.41.385l-36.665 4.5h-.003c-4.872.6-4.776 4.893-4.776 4.893v30.869c-1.76-1.234-3.95-1.973-6.329-1.973-5.784 0-10.49 4.331-10.49 9.657 0 5.324 4.705 9.656 10.49 9.656 5.784 0 10.49-4.332 10.49-9.656V26.697c.283-3.39 1.646-4.38 2.559-4.661l32.201-3.952s2.692-.165 2.692 2.548V35.54c-1.761-1.234-3.95-1.974-6.329-1.974-5.783 0-10.49 4.332-10.49 9.657 0 5.324 4.706 9.657 10.49 9.657s10.49-4.332 10.49-9.657V4.511c0-4.262-3.468-4.205-4.33-4.126zm-47.772 53.77c-3.49 0-6.328-2.613-6.328-5.825 0-3.213 2.838-5.827 6.327-5.827 3.49 0 6.33 2.614 6.33 5.827 0 3.212-2.84 5.826-6.33 5.826zm41.612-5.107c-3.49 0-6.328-2.614-6.328-5.826 0-3.213 2.839-5.826 6.328-5.826 3.49 0 6.329 2.613 6.329 5.826-.001 3.212-2.839 5.826-6.329 5.826zm6.328-37.754c-.259 2.412-2.095 2.838-2.574 2.91l-31.471 3.862h-.003c-3.103.381-3.384-1.188-3.403-1.63v-4.583c0-2.383 1.564-3.116 2.572-3.342l30.898-3.794h.001l.903-.111c1.174-.052 3.077.22 3.077 2.537v4.151z" transform="translate(-1311 -1570) translate(1311 1570)"/>
                <path d="M55.138 54.54l.002-.017c-7.091-2.06-8.665-7.697-8.974-10.747h-.002s-.051-2.002-2.126-2.15c-1.633-.117-2.005 1.272-2.092 1.872.286 5.01 3.108 12.307 12.307 14.78.68.125 2.668.347 2.952-1.269.343-1.95-2.067-2.47-2.067-2.47zM13.497 59.811v-.017c-7.09-2.06-8.664-7.697-8.974-10.748h-.001s-.052-2.002-2.126-2.149C.763 46.781.39 48.169.303 48.769c.286 5.01 3.107 12.306 12.306 14.78.68.126 2.669.348 2.953-1.269.344-1.95-2.065-2.469-2.065-2.469z" transform="translate(-1311 -1570) translate(1311 1570)"/>
            </g>
        </g>
    </g>
</svg>
