<svg xmlns="http://www.w3.org/2000/svg" width="71" height="71" viewBox="0 0 71 71">
    <g fill="none" fill-rule="evenodd" opacity=".307">
        <g fill="#FFF" fill-rule="nonzero">
            <g>
                <path d="M69.722 2.401c-.194-.52-.604-.928-1.123-1.121-.54-.201-13.35-4.804-26.644 4.778-6.357 4.577-12.332 12.163-16.808 18.77-8.466-.194-16.589 3.346-22.211 9.679-.523.58-.64 1.42-.295 2.12.345.7 1.082 1.12 1.86 1.058 2.585-.202 9.975-.155 13.284 2.403l5.212 5.213-4.564 4.564c-.723.749-.712 1.938.023 2.674.736.735 1.925.746 2.674.023l4.564-4.564 5.213 5.212c2.558 3.306 2.604 10.7 2.403 13.284-.061.778.358 1.515 1.059 1.86.7.345 1.54.228 2.12-.295 6.332-5.62 9.873-13.741 9.682-22.206 6.612-4.477 14.19-10.453 18.77-16.808C74.524 15.75 69.921 2.94 69.721 2.4zm-47.104 26.29c-1.93 3.052-3.417 5.647-4.322 7.274-2.878-1.272-5.972-1.981-9.116-2.089 3.873-3.01 8.547-4.814 13.438-5.185zm14.505 33.115c-.108-3.14-.817-6.231-2.088-9.105 1.624-.9 4.212-2.384 7.256-4.308-.388 4.877-2.184 9.537-5.168 13.413zm24.725-34.991C54.335 37.24 37.402 47.03 32.71 49.62l-4.317-4.323 8.116-8.114c.674-.754.642-1.904-.074-2.62-.715-.715-1.865-.747-2.62-.073l-8.113 8.116-4.323-4.317c2.588-4.692 12.382-21.626 22.806-29.138 6.34-4.793 14.503-6.47 22.218-4.564 1.875 7.717.204 15.869-4.555 22.227zM51.52 11.975c-1.991-.006-3.902.786-5.305 2.198-2.53 2.531-2.92 6.496-.931 9.472 1.988 2.975 5.801 4.13 9.107 2.761 3.306-1.37 5.184-4.884 4.486-8.394-.698-3.51-3.778-6.037-7.357-6.037zm2.61 10.114c-1.46 1.39-3.753 1.39-5.212 0-1.44-1.44-1.44-3.773 0-5.213.932-.931 2.29-1.294 3.563-.952 1.272.341 2.266 1.336 2.606 2.61.34 1.272-.024 2.63-.957 3.561v-.006zM14.62 59.077l-8.773 8.772c-.482.482-1.184.67-1.842.494-.659-.176-1.173-.69-1.35-1.349-.176-.658.012-1.36.494-1.843l8.773-8.772c.748-.723 1.938-.713 2.674.023.735.736.745 1.925.023 2.673l.001.002zM3.385 59.7c-.667.815-1.87.936-2.685.269-.816-.667-.936-1.87-.269-2.685l8.277-10.137c.431-.527 1.112-.785 1.784-.675.673.11 1.236.57 1.477 1.208.241.638.124 1.355-.308 1.883L3.385 59.701zm20.734-.092c.665.816.544 2.017-.271 2.683L13.71 70.569c-.816.667-2.018.547-2.685-.269-.667-.816-.546-2.018.27-2.685L21.43 59.34c.392-.322.896-.474 1.4-.423.504.05.968.3 1.288.693z" transform="translate(-1215 -1492) translate(1215 1492)"/>
            </g>
        </g>
    </g>
</svg>
