<svg xmlns="http://www.w3.org/2000/svg" width="292" height="281" viewBox="0 0 292 281">
    <g fill="none" fill-rule="evenodd">
        <g fill="#FFF" fill-rule="nonzero">
            <g>
                <g>
                    <path d="M259.072 50.624c-17.47 0-31.651 14.464-31.651 32.282 0 2.515.308 5.031.822 7.337l-49.738 20.962c-4.522-8.385-11.612-15.198-20.04-19.39l17.163-49.576c.616.105 1.233.105 1.85.105 11.406 0 20.758-9.538 20.758-21.172S188.884 0 177.477 0 156.72 9.538 156.72 21.172c0 7.337 3.7 13.835 9.249 17.608l-17.265 49.576c-3.288-.733-6.782-1.153-10.276-1.153-7.296 0-14.181 1.782-20.347 4.822l-15.723-24.946c5.652-5.345 9.249-13.101 9.249-21.59 0-16.247-12.949-29.558-28.98-29.558s-28.98 13.311-28.98 29.557 12.949 29.557 28.98 29.557c3.905 0 7.707-.838 11.099-2.306l15.723 24.945c-7.605 6.29-13.154 14.989-15.518 25.05L33.3 114.77c-1.44-7.756-8.222-13.73-16.237-13.73-9.146 0-16.545 7.546-16.545 16.874s7.399 16.875 16.545 16.875c6.577 0 12.229-3.983 14.9-9.643l60.631 7.966v.733c0 11.425 4.008 21.801 10.688 29.977l-43.88 46.955c-5.653-4.087-12.435-6.393-19.834-6.393-19.011 0-34.529 15.826-34.529 35.216s15.518 35.217 34.529 35.217c19.011 0 34.529-15.826 34.529-35.217 0-8.175-2.672-15.617-7.297-21.59l43.88-46.956c6.372 4.926 13.977 8.175 22.3 9.223l-1.541 27.985c-6.782 2.096-11.612 8.594-11.612 16.14 0 9.329 7.399 16.875 16.545 16.875s16.545-7.546 16.545-16.874c0-7.337-4.625-13.626-11.202-15.932l1.542-28.09c5.55-.628 10.79-2.2 15.62-4.716l44.394 69.805c-3.391 3.773-5.55 8.804-5.55 14.359 0 11.634 9.352 21.172 20.76 21.172 11.406 0 20.757-9.538 20.757-21.172s-9.351-21.172-20.758-21.172c-2.363 0-4.521.42-6.68 1.153l-44.394-69.805c4.214-3.563 7.913-7.965 10.585-12.891l37.92 16.77c0 .524-.103 1.048-.103 1.572 0 9.328 7.4 16.874 16.545 16.874 9.146 0 16.545-7.546 16.545-16.874 0-9.329-7.399-16.875-16.545-16.875-4.932 0-9.351 2.201-12.331 5.66l-37.92-16.77c1.336-4.297 1.952-8.909 1.952-13.626 0-4.506-.616-8.804-1.747-12.891l49.738-21.068c5.55 9.12 15.517 15.198 26.821 15.198 17.47 0 31.652-14.464 31.652-32.282 0-17.818-14.079-32.177-31.446-32.177zm-81.697-40.143c5.754 0 10.481 4.821 10.481 10.691 0 5.87-4.727 10.69-10.481 10.69-5.755 0-10.482-4.82-10.482-10.69 0-5.87 4.727-10.69 10.482-10.69zM63.923 45.488c0-10.48 8.427-19.075 18.703-19.075 10.277 0 18.703 8.594 18.703 19.075s-8.426 19.076-18.703 19.076c-10.276 0-18.703-8.595-18.703-19.076zm-46.86 78.819c-3.494 0-6.269-2.83-6.269-6.394s2.775-6.393 6.269-6.393 6.268 2.83 6.268 6.393c0 3.564-2.774 6.394-6.268 6.394zm212.002 135.416c0 5.87-4.727 10.691-10.482 10.691-5.755 0-10.482-4.821-10.482-10.69 0-5.87 4.727-10.692 10.482-10.692 5.755 0 10.482 4.612 10.482 10.691zm3.494-90.767c3.494 0 6.268 2.83 6.268 6.394 0 3.563-2.774 6.393-6.268 6.393-3.494 0-6.269-2.83-6.269-6.393 0-3.564 2.775-6.394 6.269-6.394zM39.568 264.23c-13.36 0-24.252-11.11-24.252-24.735 0-13.626 10.893-24.736 24.252-24.736 13.36 0 24.252 11.11 24.252 24.736 0 13.625-10.893 24.735-24.252 24.735zm96.804-33.54c-3.494 0-6.269-2.83-6.269-6.393 0-3.564 2.775-6.394 6.269-6.394s6.268 2.83 6.268 6.394-2.774 6.393-6.268 6.393zm2.055-60.58c-19.628 0-35.556-16.247-35.556-36.266s15.928-36.264 35.556-36.264c19.628 0 35.556 16.245 35.556 36.264 0 20.02-15.928 36.265-35.556 36.265zm120.645-65.508c-11.818 0-21.375-9.747-21.375-21.8 0-12.054 9.557-21.802 21.375-21.802s21.375 9.748 21.375 21.801c0 12.054-9.66 21.801-21.375 21.801z" transform="translate(-835 -3515) translate(300 3485) translate(535.482 30)"/>
                </g>
            </g>
        </g>
    </g>
</svg>
