<svg xmlns="http://www.w3.org/2000/svg" width="78" height="79" viewBox="0 0 78 79">
    <g fill="none" fill-rule="evenodd" opacity=".307">
        <g fill="#FFF" fill-rule="nonzero">
            <g>
                <path d="M13.667 45.589c1.09.169 2.122-.508 2.305-1.512.119-.66.61-1.21 1.288-1.445.679-.234 1.441-.118 2.001.307.56.424.832 1.091.713 1.75-.183 1.004.551 1.955 1.64 2.125.113.008.225.008.337 0 .974-.002 1.805-.65 1.969-1.535.35-1.958-.46-3.94-2.125-5.199-1.664-1.258-3.931-1.603-5.946-.903-2.015.7-3.472 2.336-3.822 4.295-.179 1.001.555 1.948 1.64 2.117zM35.954 40.897c-3.271-.504-6.366 1.534-6.92 4.557-.132.657.13 1.328.684 1.756.555.428 1.315.547 1.99.31.676-.237 1.16-.791 1.27-1.452.118-.66.609-1.213 1.287-1.448.678-.235 1.44-.118 2 .307.56.426.832 1.095.713 1.756-.183 1.007.55 1.96 1.64 2.13.112.01.224.01.336 0 .974-.001 1.805-.65 1.968-1.538.529-3.03-1.694-5.883-4.968-6.378zM25.287 51.991c-4.61-.805-9.247 1.271-11.935 5.344-.617.94-.402 2.234.48 2.892.88.657 2.095.429 2.712-.51 1.81-2.78 4.96-4.198 8.09-3.643 3.131.556 5.68 2.985 6.547 6.24.19.712.723 1.263 1.398 1.443.674.181 1.388-.036 1.872-.568.484-.532.665-1.3.474-2.012-1.296-4.777-5.04-8.345-9.638-9.186zM64.286 16.767c-2.067-1.32-4.722-1.255-6.723.163-2.002 1.417-2.954 3.908-2.413 6.308.242 1.09 1.318 1.776 2.403 1.533 1.084-.244 1.767-1.325 1.525-2.415-.158-.708.072-1.447.603-1.939.53-.491 1.283-.66 1.972-.444.69.216 1.211.785 1.37 1.493.158.706.678 1.272 1.365 1.487.687.215 1.435.046 1.964-.445.529-.49.757-1.226.599-1.931-.346-1.577-1.306-2.95-2.665-3.81z" transform="translate(-1159 -1371) translate(1159 1371.18)"/>
                <path d="M74.188 3.463c-.184-.755-.79-1.334-1.551-1.483-17.066-3.35-34.751.629-48.749 10.967-.633.453-.944 1.235-.795 2l.47 2.064c.397 2.016.795 4.08 1.296 6.2-6.953-.645-13.966-.106-20.74 1.594-.758.197-1.331.82-1.463 1.594l-.39 2.009c-2.203 11.46-4.94 25.726 3.326 39.02 3.327 5.36 8.79 9.034 15.003 10.09 1.185.2 2.385.3 3.588.302 5.045-.007 9.936-1.745 13.857-4.925 5.52-4.518 9.656-10.504 11.933-17.27 9.385 1.896 18.907-2.561 23.475-10.99 7.558-13.717 4.05-27.807 1.233-39.124l-.493-2.048zM35.535 69.787c-3.994 3.268-9.2 4.651-14.286 3.795-5.085-.857-9.554-3.87-12.26-8.266C1.526 53.36 4.095 39.94 6.171 29.165l.151-.797c14.984-3.441 30.718-.79 43.753 7.372l-.119.797c-1.527 10.879-3.468 24.387-14.422 33.25zm34.43-27.097c-3.672 6.769-11.249 10.433-18.823 9.1.938-3.531 1.666-7.116 2.18-10.734.318 0 .636.04.955.04 4.909.027 9.37-2.856 11.368-7.348.353-.987-.117-2.079-1.075-2.499-.958-.42-2.078-.025-2.561.905-1.403 3.169-4.61 5.143-8.066 4.965l.294-2.025c.12-.787-.24-1.57-.915-1.992-3.69-2.427-7.629-4.45-11.75-6.033.188-.397.239-.846.144-1.275-.242-1.079.435-2.15 1.511-2.391 1.076-.242 2.145.436 2.387 1.514.239 1.074 1.302 1.75 2.374 1.51s1.747-1.305 1.508-2.379c-.689-3.04-3.592-5.042-6.673-4.6-3.08.44-5.307 3.178-5.117 6.29-2.84-.887-5.74-1.57-8.679-2.04-.62-2.567-1.121-5.069-1.59-7.5l-.16-.797c12.594-8.87 28.188-12.367 43.355-9.723l.2.797c2.64 10.64 5.934 23.885-.86 36.238l-.008-.023z" transform="translate(-1159 -1371) translate(1159 1371.18)"/>
            </g>
        </g>
    </g>
</svg>
