<svg xmlns="http://www.w3.org/2000/svg" width="38" height="38" viewBox="0 0 38 38">
    <defs>
        <linearGradient id="nouxj9x56a" x1="0%" x2="100%" y1="50%" y2="50%">
            <stop offset="0%" stop-color="#714FF8"/>
            <stop offset="100%" stop-color="#2B00A2"/>
        </linearGradient>
    </defs>
    <g fill="none" fill-rule="evenodd">
        <g fill="url(#nouxj9x56a)" fill-rule="nonzero" transform="translate(-160 -791)">
            <g>
                <g>
                    <g>
                        <g>
                            <path d="M37.013 27.878l-5.799-5.8c-1.32-1.32-3.52-1.32-4.839 0l-1.84 1.84c-.36.36-.96.36-1.32 0l-9.118-9.082c-.36-.36-.36-.96 0-1.32l1.84-1.84c1.32-1.32 1.32-3.52 0-4.84L10.138.993c-1.16-1.16-3-1.32-4.36-.4-.679.44-1.279 1-1.879 1.56C-1.3 7.355-1.3 15.837 3.9 21.037L16.937 34.08C19.457 36.6 22.816 38 26.375 38c3.56 0 6.919-1.4 9.438-3.92.56-.56 1.12-1.2 1.56-1.88.96-1.321.8-3.161-.36-4.322zm-2.08 2.64c-.36.52-.76 1.001-1.2 1.441-1.959 1.96-4.558 3.04-7.318 3.04s-5.359-1.08-7.318-3.04L6.059 18.917c-4.04-4.04-4.04-10.602 0-14.602.44-.44.92-.84 1.44-1.2.04-.04.12-.04.2-.04.12 0 .2.04.32.12l5.798 5.8c.08.08.12.2.12.28 0 .08-.04.2-.12.28l-1.84 1.84c-.759.761-1.159 1.761-1.159 2.801 0 1.04.4 2.04 1.16 2.8l9.038 9.082c.76.76 1.76 1.16 2.8 1.16 1.04 0 2.04-.4 2.8-1.16l1.839-1.84c.16-.16.44-.16.6 0l5.799 5.8c.16.12.16.32.08.48z" transform="translate(158 328) translate(0 129) translate(2 326) translate(0 8)"/>
                        </g>
                    </g>
                </g>
            </g>
        </g>
    </g>
</svg>
