<svg xmlns="http://www.w3.org/2000/svg" width="36" height="37" viewBox="0 0 36 37">
    <defs>
        <linearGradient id="mmvd4e0i5a" x1="0%" x2="100%" y1="50%" y2="50%">
            <stop offset="0%" stop-color="#714FF8"/>
            <stop offset="100%" stop-color="#2B00A2"/>
        </linearGradient>
    </defs>
    <g fill="none" fill-rule="evenodd">
        <g fill="url(#mmvd4e0i5a)" fill-rule="nonzero" transform="translate(-701 -4052)">
            <g>
                <g>
                    <path d="M35.336 18.59c.309.317.448.765.373 1.204l-.93 5.738c-.095.581-.546 1.036-1.12 1.133-.072.006-.145.006-.217 0-.38 0-.745-.15-1.016-.42l-1.068-1.079-7.149 7.241c-.336.34-.792.531-1.268.531-.475 0-.932-.191-1.268-.531l-3.627-3.666-7.656 7.728c-.7.708-1.836.708-2.536 0s-.7-1.855 0-2.563l8.915-9.008c.336-.34.793-.531 1.268-.531.476 0 .932.191 1.268.531l3.627 3.666 5.894-5.958-1.08-1.083c-.291-.285-.446-.685-.422-1.095.044-.64.517-1.167 1.143-1.272l5.677-.948c.074-.012.15-.019.224-.019.363 0 .71.143.968.4zM7.925 29.285l1.344-1.344 1.296-1.31c.597-.582.663-1.525.153-2.186-.282-.347-.695-.558-1.14-.58-.443-.022-.876.146-1.19.463l-1.36 1.348c-1.564-1.998-2.544-4.397-2.83-6.928h2.001c.87 0 1.576-.713 1.576-1.593S7.07 15.562 6.2 15.562H4.216c.28-2.529 1.255-4.928 2.812-6.928l1.345 1.36c.315.316.747.485 1.19.462.445-.022.858-.233 1.14-.58.508-.66.442-1.6-.153-2.182l-1.28-1.31c1.975-1.58 4.35-2.572 6.853-2.861v1.921c0 .88.706 1.593 1.576 1.593.87 0 1.576-.713 1.576-1.593V3.523l.523.071c2.824.471 5.427 1.837 7.433 3.9l.06.06c1.787 1.77 3.048 4.01 3.641 6.468l.019.083c.19.89 1.036 1.477 1.927 1.336.469-.09.88-.37 1.14-.775.258-.406.34-.9.227-1.37C32.623 6.199 26.742.91 19.578.107c-7.164-.804-14.05 3.053-17.172 9.62-3.123 6.566-1.803 14.41 3.293 19.563.616.619 1.611.617 2.226-.004zM25.543 9.276c-.541-.553-1.41-.6-2.006-.11l-5.304 4.293c-1.53-.21-3.03.56-3.762 1.935-.733 1.374-.545 3.064.472 4.24 1.016 1.176 2.647 1.59 4.093 1.041 1.446-.549 2.403-1.947 2.402-3.509-.001-.169-.014-.338-.037-.506l4.25-5.33c.492-.606.443-1.492-.112-2.039l.004-.015z" transform="translate(583 4014) translate(118 38)"/>
                </g>
            </g>
        </g>
    </g>
</svg>
