<svg xmlns="http://www.w3.org/2000/svg" width="41" height="33" viewBox="0 0 41 33">
    <defs>
        <linearGradient id="lkx1d8dw9a" x1="0%" x2="100%" y1="50%" y2="50%">
            <stop offset="0%" stop-color="#714FF8"/>
            <stop offset="100%" stop-color="#2B00A2"/>
        </linearGradient>
    </defs>
    <g fill="none" fill-rule="evenodd">
        <g fill="url(#lkx1d8dw9a)" fill-rule="nonzero" transform="translate(-387 -3730)">
            <g>
                <g>
                    <path d="M40.3 16.505c0-.587-.337-1.091-.884-1.3l-6.863-2.645 6.863-2.644c.547-.21.884-.714.884-1.301 0-.588-.337-1.092-.884-1.301L20.806.094c-.338-.125-.674-.125-1.011 0l-18.61 7.22c-.548.21-.885.713-.885 1.3 0 .588.337 1.092.884 1.302l6.821 2.644-6.82 2.644c-.548.21-.885.714-.885 1.301 0 .588.337 1.092.884 1.301l6.821 2.645-6.82 2.644c-.548.21-.885.713-.885 1.3 0 .588.337 1.092.884 1.302l18.61 7.22c.17.083.338.083.506.083.168 0 .337-.042.505-.084l18.61-7.219c.548-.21.885-.714.885-1.301 0-.588-.337-1.091-.884-1.301l-6.863-2.644 6.863-2.645c.547-.21.884-.713.884-1.3zm-20-13.64l14.779 5.708-14.779 5.75L5.521 8.615 20.3 2.865zm14.779 21.53L20.3 30.146l-14.779-5.75 6.358-2.433 7.916 3.063c.168.084.337.084.505.084.168 0 .337-.042.505-.084l7.916-3.063 6.358 2.434zM20.3 22.214L5.521 16.505l6.316-2.476 7.916 3.064c.168.084.336.084.505.084.168 0 .337-.042.505-.084l7.958-3.064 6.316 2.476L20.3 22.213z" transform="translate(271 3684) translate(116 46)"/>
                </g>
            </g>
        </g>
    </g>
</svg>
