<svg xmlns="http://www.w3.org/2000/svg" width="65" height="58" viewBox="0 0 65 58">
    <defs>
        <linearGradient id="78jdbelela" x1="0%" x2="100%" y1="50%" y2="50%">
            <stop offset="0%" stop-color="#714FF8"/>
            <stop offset="100%" stop-color="#2B00A2"/>
        </linearGradient>
    </defs>
    <g fill="none" fill-rule="evenodd">
        <g fill="url(#78jdbelela)" fill-rule="nonzero" transform="translate(-535 -2572)">
            <g>
                <g>
                    <path d="M1.339.273C.577.346-.003.999 0 1.779v40.958c0 .832.661 1.507 1.477 1.507h62.046c.816 0 1.477-.675 1.477-1.507V1.78c0-.832-.661-1.506-1.477-1.506H1.477C1.431.27 1.385.27 1.34.273zm1.616 3.013h59.09V41.23H2.955V3.286zM35.247 13.36c-.336 0-.661.116-.923.33l-12.58 9.486c-.432.317-.663.846-.606 1.386.057.539.395 1.005.883 1.22.489.215 1.053.146 1.477-.181l12.58-9.51c.517-.378.738-1.051.55-1.67-.189-.62-.745-1.047-1.381-1.06zm7.017 5.25c-.277.026-.541.133-.762.306l-12.58 9.486c-.432.317-.663.846-.605 1.385.057.54.394 1.006.883 1.22.488.216 1.052.147 1.476-.18l12.58-9.487c.547-.394.766-1.114.533-1.754-.232-.64-.858-1.041-1.525-.976zm-.739 29.494c-.587.072-1.076.494-1.242 1.074-.166.579.023 1.203.48 1.586l3.67 3.743h-23.89l3.694-3.743c.437-.431.57-1.092.336-1.664-.235-.573-.79-.94-1.398-.925-.394.009-.768.178-1.039.47L15.95 54.93c-.434.429-.569 1.083-.34 1.653.229.57.775.941 1.379.937H48.01c.604.004 1.15-.366 1.38-.937.228-.57.093-1.224-.34-1.653l-6.21-6.285c-.32-.397-.815-.601-1.316-.541z" transform="translate(247 2252) translate(288 320)"/>
                </g>
            </g>
        </g>
    </g>
</svg>
