<svg xmlns="http://www.w3.org/2000/svg" width="32" height="35" viewBox="0 0 32 35">
    <defs>
        <linearGradient id="xtob1yhkqa" x1="0%" x2="100%" y1="50%" y2="50%">
            <stop offset="0%" stop-color="#714FF8"/>
            <stop offset="100%" stop-color="#2B00A2"/>
        </linearGradient>
    </defs>
    <g fill="none" fill-rule="evenodd">
        <g fill="url(#xtob1yhkqa)" fill-rule="nonzero" transform="translate(-391 -4053)">
            <g>
                <g>
                    <path d="M28.318 35H4.06C2.198 35 .689 33.549.689 31.76V14.91c0-1.79 1.51-3.24 3.372-3.24h.649v-.636h.021C4.733 4.94 9.874 0 16.214 0c6.342 0 11.428 4.942 11.428 11.037 0 .223.01.43.01.632h.665c1.863 0 3.372 1.451 3.372 3.241v16.85c0 1.79-1.508 3.24-3.371 3.24zM16.238 3.89c-4.098 0-7.419 3.193-7.42 7.13h-.015v.65h14.821v-.052c.02-.188.034-.382.034-.596 0-3.938-3.323-7.131-7.42-7.131zm11.425 12.98c0-.717-.604-1.297-1.348-1.297H6.067c-.744 0-1.348.58-1.348 1.297V29.82c0 .716.604 1.297 1.348 1.297h20.248c.744 0 1.348-.581 1.348-1.297V16.87zM16.518 27.21h-.675c-.927 0-1.68-.722-1.68-1.614v-4.479c0-.892.753-1.614 1.68-1.614h.675c.927 0 1.68.722 1.68 1.614v4.479c0 .892-.753 1.614-1.68 1.614z" transform="translate(271 4014) translate(120 39)"/>
                </g>
            </g>
        </g>
    </g>
</svg>
