<svg xmlns="http://www.w3.org/2000/svg" width="71" height="71" viewBox="0 0 71 71">
    <g fill="none" fill-rule="evenodd" opacity=".307">
        <g fill="#FFF" fill-rule="nonzero">
            <g>
                <path d="M70.556 42.64c-1.479-10.873-6.36-20.864-13.756-28.064C49.552 7.376 39.494 2.526 28.548.91 18.342-.56 9.17 1.204 5.029 5.318.888 9.433-.888 18.69.592 28.682c1.479 10.873 6.36 20.865 13.756 28.065 7.248 7.2 17.306 12.049 28.252 13.665 2.367.294 4.585.441 6.804.441 7.396 0 13.608-1.763 16.715-4.996 3.993-3.967 5.769-13.077 4.437-23.216zM7.1 7.523c2.662-2.644 8.135-4.114 14.644-4.114 2.07 0 4.141.147 6.36.441 2.367.294 4.733.882 6.952 1.47-7.1 2.203-13.46 6.024-18.785 11.314-5.325 5.29-9.171 11.608-11.39 18.66-.591-2.203-1.183-4.554-1.479-6.905-1.331-9.11.148-17.486 3.698-20.866zM6.656 40.29c1.775-8.229 5.769-15.576 11.686-21.6 5.916-5.878 13.46-9.992 21.743-11.608 5.473 2.204 10.502 5.436 14.644 9.55 4.142 4.115 7.396 9.11 9.615 14.548-1.775 8.228-5.769 15.575-11.686 21.6-5.916 5.877-13.46 9.991-21.743 11.608-5.473-2.204-10.502-5.437-14.644-9.551-4.142-4.115-7.396-9.11-9.615-14.547zM63.9 63.947c-3.402 3.38-11.981 4.849-21.004 3.673-2.367-.293-4.733-.881-6.952-1.469 7.1-2.204 13.46-6.024 18.785-11.314 5.325-5.29 9.171-11.608 11.39-18.661.591 2.204 1.183 4.555 1.479 6.906 1.331 9.11-.148 17.485-3.698 20.865z" transform="translate(-1215 -1251) translate(1215 1251)"/>
                <path d="M32.394 34.706l4.141 4.114-1.922 1.91c-.592.588-.592 1.47 0 2.058.295.294.74.44 1.035.44.444 0 .74-.146 1.035-.44l1.923-1.91 4.142 4.114-1.923 1.91c-.592.588-.592 1.47 0 2.057.296.294.74.441 1.035.441.444 0 .74-.147 1.036-.44l1.923-1.911 2.218 2.204c.296.294.74.44 1.036.44.444 0 .74-.146 1.035-.44.592-.588.592-1.47 0-2.057l-2.218-2.204 1.922-1.91c.592-.588.592-1.47 0-2.058-.591-.587-1.479-.587-2.07 0l-1.923 1.91-4.142-4.114 1.923-1.91c.592-.588.592-1.47 0-2.057-.592-.588-1.48-.588-2.07 0l-1.924 1.91-4.141-4.114 1.922-1.91c.592-.588.592-1.47 0-2.057-.591-.588-1.479-.588-2.07 0l-1.923 1.91-4.142-4.114 1.923-1.91c.592-.588.592-1.47 0-2.058-.592-.588-1.48-.588-2.07 0l-1.924 1.91-2.219-2.204c-.591-.587-1.479-.587-2.07 0-.592.588-.592 1.47 0 2.057l2.218 2.205-2.07 1.91c-.592.588-.592 1.47 0 2.057.295.294.74.44 1.035.44.444 0 .74-.146 1.035-.44l1.923-1.91 4.142 4.114-1.923 1.91c-.592.588-.592 1.47 0 2.057.296.294.74.441 1.036.441.443 0 .74-.147 1.035-.44l2.07-1.91z" transform="translate(-1215 -1251) translate(1215 1251)"/>
            </g>
        </g>
    </g>
</svg>
