<svg xmlns="http://www.w3.org/2000/svg" width="67" height="51" viewBox="0 0 67 51">
    <defs>
        <linearGradient id="crg0qryn5a" x1="0%" x2="100%" y1="50%" y2="50%">
            <stop offset="0%" stop-color="#714FF8"/>
            <stop offset="100%" stop-color="#2B00A2"/>
        </linearGradient>
        <linearGradient id="mg1k0hpehb" x1="0%" x2="100%" y1="50%" y2="50%">
            <stop offset="0%" stop-color="#714FF8"/>
            <stop offset="100%" stop-color="#2B00A2"/>
        </linearGradient>
        <linearGradient id="9tfjis0t5c" x1="0%" x2="100%" y1="50%" y2="50%">
            <stop offset="0%" stop-color="#714FF8"/>
            <stop offset="100%" stop-color="#2B00A2"/>
        </linearGradient>
        <linearGradient id="8o5agdzmrd" x1="0%" x2="100%" y1="50%" y2="50%">
            <stop offset="0%" stop-color="#714FF8"/>
            <stop offset="100%" stop-color="#2B00A2"/>
        </linearGradient>
    </defs>
    <g fill="none" fill-rule="evenodd">
        <g fill-rule="nonzero">
            <g>
                <path fill="url(#crg0qryn5a)" d="M1.51.374c-.373 0-.73.15-.994.419-.264.268-.412.632-.412 1.011v47.203c0 .38.148.743.412 1.011.263.269.62.42.993.42h63.195c.372 0 .73-.151.993-.42.264-.268.411-.632.411-1.011V1.804c0-.379-.147-.743-.41-1.011-.264-.269-.622-.42-.994-.42H1.509zm1.404 2.861h60.385v44.34H2.914V3.236z" transform="translate(-1055 -2577) translate(1055 2577)"/>
                <path fill="url(#mg1k0hpehb)" d="M8.424 7.517c-.596.04-1.1.46-1.259 1.046-.159.586.063 1.21.554 1.556L32.293 28c.488.356 1.144.356 1.632 0L58.5 10.12c.409-.298.63-.794.582-1.303-.048-.509-.36-.952-.816-1.164-.457-.212-.99-.159-1.398.138l-23.76 17.285L9.346 7.79c-.267-.199-.594-.296-.923-.274z" transform="translate(-1055 -2577) translate(1055 2577)"/>
                <path fill="url(#9tfjis0t5c)" d="M9.937 32.556c-.776 0-1.405.64-1.405 1.431 0 .79.63 1.43 1.405 1.43h4.214c.776 0 1.405-.64 1.405-1.43 0-.79-.63-1.43-1.405-1.43H9.937z" transform="translate(-1055 -2577) translate(1055 2577)"/>
                <path fill="url(#8o5agdzmrd)" d="M9.937 39.71c-.502 0-.965.272-1.216.715-.251.443-.251.988 0 1.43.25.443.714.716 1.216.716h9.128c.502 0 .965-.273 1.216-.715.251-.443.251-.988 0-1.43-.25-.444-.714-.716-1.216-.716H9.937z" transform="translate(-1055 -2577) translate(1055 2577)"/>
            </g>
        </g>
    </g>
</svg>
