<svg xmlns="http://www.w3.org/2000/svg" width="309" height="309" viewBox="0 0 309 309">
    <g fill="none" fill-rule="evenodd">
        <g fill="#FFF" fill-rule="nonzero">
            <g>
                <g>
                    <path d="M95.715 309c-.883 0-1.763-.094-2.625-.282l-29.666-6.422c-3.205-.692-6.003-2.63-7.78-5.386-1.775-2.756-2.382-6.105-1.687-9.31l2.846-13.096c.175-.806-.156-1.637-.837-2.102-.717-.619-1.748-.71-2.562-.227l-11.284 7.248c-5.743 3.682-13.382 2.027-17.087-3.702L8.608 250.238c-1.777-2.756-2.385-6.105-1.69-9.309.696-3.204 2.637-6 5.396-7.77L23.6 225.91c.697-.44 1.057-1.26.91-2.072-.069-.94-.731-1.73-1.644-1.962l-13.12-2.841c-3.203-.692-6-2.629-7.775-5.384-1.775-2.756-2.382-6.104-1.687-9.307l6.41-29.501c.703-3.238 2.676-6.057 5.477-7.826 2.8-1.77 6.194-2.34 9.42-1.585l12.993 3.033c.868.208 1.771-.168 2.235-.93.59-.737.673-1.758.212-2.58l-7.396-11.472c-1.776-2.757-2.383-6.106-1.688-9.31.695-3.206 2.636-6.002 5.395-7.775l25.528-16.395c5.745-3.675 13.379-2.021 17.087 3.701l7.263 11.266c.45.7 1.277 1.06 2.097.915.938-.07 1.728-.73 1.966-1.64l2.847-13.096c1.456-6.667 8.036-10.896 14.706-9.45l29.665 6.422c3.205.693 6.003 2.631 7.778 5.387 1.776 2.756 2.384 6.105 1.69 9.31l-2.784 12.81c-.187.847.186 1.72.928 2.172l.515.297c.672.401 1.513.387 2.17-.036l11.007-7.07c5.746-3.673 13.38-2.018 17.087 3.706l16.43 25.478v.006c1.777 2.756 2.382 6.106 1.685 9.31-.697 3.204-2.64 6-5.401 7.769l-11.024 7.081c-.744.468-1.1 1.362-.88 2.213.155.821.77 1.479 1.579 1.69l13.116 3.068c6.554 1.555 10.67 8.055 9.274 14.645l-6.462 29.733c-.697 3.204-2.639 6-5.398 7.773-2.759 1.772-6.109 2.376-9.313 1.677l-13.111-2.836c-.818-.187-1.666.147-2.138.84-.608.709-.695 1.727-.216 2.53l7.262 11.26c1.776 2.756 2.383 6.105 1.687 9.31-.696 3.203-2.639 5.999-5.398 7.77l-25.529 16.4c-5.747 3.673-13.38 2.017-17.09-3.707l-7.41-11.497c-.474-.75-1.38-1.108-2.238-.885-.8.172-1.43.788-1.62 1.584l-2.902 13.353c-1.242 5.679-6.267 9.729-12.08 9.737zm-41.19-47.461c3.778.034 7.344 1.748 9.73 4.677 2.386 2.93 3.343 6.77 2.612 10.476l-2.846 13.096c-.115.53-.014 1.084.281 1.54.298.46.766.785 1.303.9l29.665 6.422c.534.12 1.095.02 1.557-.274.462-.294.787-.76.905-1.295l2.901-13.358c.984-4.56 4.459-8.174 8.978-9.335.15-.04.392-.095.546-.12 5.05-1.185 10.294.97 13.053 5.36l7.413 11.498c.297.463.766.79 1.304.906.537.116 1.1.012 1.56-.288l25.527-16.395c.459-.292.783-.755.9-1.286.117-.532.017-1.088-.277-1.546l-7.264-11.265c-2.722-4.2-2.625-9.63.243-13.73 2.832-4.241 7.958-6.334 12.948-5.286l13.112 2.837c.535.12 1.096.023 1.559-.272.462-.294.788-.762.905-1.298l6.463-29.733c.228-1.096-.46-2.173-1.55-2.429l-13.12-3.068c-4.846-1.165-8.535-5.1-9.387-10.01-.851-4.911 1.298-9.858 5.469-12.586l11.029-7.087c.459-.291.781-.755.895-1.287.118-.533.018-1.09-.277-1.55l-16.43-25.473c-.62-.955-1.895-1.234-2.857-.623l-11.007 7.07c-3.935 2.543-8.972 2.633-12.995.232-4.85-2.625-7.394-8.129-6.252-13.524l2.784-12.805c.236-1.11-.474-2.202-1.584-2.439l-29.666-6.422c-.535-.126-1.098-.03-1.561.265-.464.296-.788.766-.9 1.304l-2.847 13.096c-1.137 4.904-5.083 8.66-10.036 9.556-4.953.896-9.964-1.242-12.747-5.437l-7.262-11.265c-.298-.462-.767-.787-1.305-.902-.537-.115-1.098-.011-1.56.288L38.91 145.07c-.458.293-.78.756-.896 1.287-.116.531-.016 1.087.278 1.544l7.398 11.477c2.552 3.932 2.643 8.974.236 12.996-2.678 4.868-8.262 7.367-13.677 6.12l-12.998-3.032c-.542-.125-1.111-.03-1.582.266-.467.293-.795.763-.91 1.303l-6.41 29.497c-.116.533-.015 1.09.281 1.547.296.458.762.78 1.295.892l13.122 2.842c4.909 1.125 8.674 5.07 9.57 10.025.897 4.956-1.248 9.969-5.451 12.742l-11.283 7.248c-.458.293-.78.756-.897 1.287-.116.531-.016 1.087.278 1.544l16.428 25.484c.296.463.765.79 1.302.905.538.117 1.1.013 1.56-.287l11.286-7.247c1.992-1.287 4.314-1.971 6.686-1.971z" transform="translate(-314 -2827) translate(314 2824) translate(0 3)"/>
                    <path d="M62.49 211.15L78.162 204.702 74.876 194.917 46.35 207.02 46.35 215.28 74.871 227.383 78.167 217.624zM102.619 181.409L81.839 240.891 93.2 240.891 113.851 181.409zM120.824 194.917L117.538 204.702 133.21 211.15 117.533 217.624 120.829 227.383 149.35 215.28 149.35 207.02zM236.85 139.533c-.719 0-1.435-.075-2.138-.227l-20.479-4.435c-5.466-1.184-8.938-6.574-7.755-12.04l1.966-9.038-7.71 5.08c-4.704 3.015-10.961 1.66-13.996-3.033l-11.336-17.583c-1.456-2.258-1.954-5.003-1.383-7.63.57-2.625 2.163-4.916 4.425-6.366l7.79-5.004-9.032-1.836c-2.627-.565-4.921-2.152-6.377-4.41-1.456-2.26-1.953-5.004-1.383-7.63l4.42-20.354c.578-2.652 2.196-4.963 4.492-6.412 2.295-1.45 5.077-1.917 7.72-1.298l8.962 2.093-5.125-7.922c-1.456-2.258-1.953-5.003-1.383-7.63.571-2.625 2.164-4.916 4.426-6.366l17.618-11.316c4.708-3.008 10.962-1.649 13.996 3.043l5.01 7.765 1.86-9.008c1.217-5.446 6.59-8.9 12.05-7.745l20.475 4.431c5.463 1.187 8.932 6.576 7.75 12.04l-1.916 8.837 7.664-4.879c4.705-3.004 10.953-1.65 13.992 3.033l11.336 17.587c3.027 4.7 1.671 10.964-3.028 13.992l-7.62 4.888 9.034 1.911c5.371 1.275 8.742 6.606 7.589 12.005l-4.451 20.51c-1.203 5.457-6.586 8.92-12.05 7.75l-9.048-1.961 5.064 7.67c1.456 2.258 1.954 5.003 1.383 7.629-.57 2.626-2.163 4.917-4.425 6.367l-17.608 11.316c-4.706 3.017-10.966 1.661-14.002-3.033l-5.044-7.83c-.08.02-.156.035-.231.05l-1.6 9.017c-1.024 4.65-5.14 7.965-9.902 7.972zm-28.416-35.94c3.09.026 6.007 1.428 7.956 3.825 1.95 2.396 2.728 5.538 2.123 8.568l-1.967 9.037 20.344 4.215 1.8-9.083c.888-4.005 4.093-7.086 8.13-7.817 4.037-.73 8.118 1.033 10.353 4.472l5.115 7.931 17.38-11.37-5.059-7.515c-2.191-3.49-2.09-7.95.26-11.337 2.349-3.386 6.492-5.044 10.529-4.213l9.047 1.962 4.255-20.38-8.922-1.905c-3.967-.953-6.988-4.174-7.683-8.194-.696-4.02 1.067-8.07 4.484-10.299l7.454-4.783-11.24-17.431-7.364 4.933c-3.521 2.176-7.998 2.06-11.402-.296-3.404-2.356-5.09-6.504-4.294-10.567l1.911-8.826-20.338-4.22-1.76 8.892c-.921 4.014-4.146 7.094-8.198 7.83-4.053.735-8.154-1.016-10.426-4.45l-5.014-7.776-17.392 11.366 5.16 7.665c2.093 3.223 2.167 7.356.192 10.652-2.204 3.955-6.758 5.977-11.17 4.959l-8.968-2.093-4.22 20.218 8.913 1.745c4.018.913 7.103 4.136 7.84 8.19.736 4.055-1.02 8.157-4.46 10.424l-7.796 5.009 11.391 17.326 7.56-5.055c1.633-1.05 3.534-1.608 5.476-1.609z" transform="translate(-314 -2827) translate(314 2824) translate(0 3)"/>
                    <path d="M212.85 69.767L224.488 64.978 222.047 57.716 200.871 66.703 200.871 72.836 222.047 81.818 224.494 74.572zM242.647 47.689L227.218 91.85 235.649 91.85 250.985 47.689zM256.161 57.716L253.72 64.978 265.359 69.767 253.72 74.572 256.166 81.818 277.343 72.836 277.343 66.703z" transform="translate(-314 -2827) translate(314 2824) translate(0 3)"/>
                </g>
            </g>
        </g>
    </g>
</svg>
