<svg xmlns="http://www.w3.org/2000/svg" width="96" height="96" viewBox="0 0 96 96">
    <g fill="none" fill-rule="evenodd">
        <g fill="#FFF" fill-rule="nonzero">
            <g>
                <g>
                    <g>
                        <path d="M63.138 8.151c.183.08.365.163.546.247.622.286 1.333-.05 1.588-.752.254-.701-.044-1.503-.667-1.79-.193-.089-.388-.176-.584-.262-.626-.275-1.331.074-1.575.78-.244.707.066 1.502.692 1.777zM86.362 66.1c.251.692.48 1.413.674 2.172l.295.223c.018 0 .036.005.054.005.613 0 1.173-.261 1.447-.676.124-.188.246-.377.367-.565.379-.59.077-1.301-.684-1.612-.762-.312-1.712-.112-2.153.452zM56.306 5.304c.19.05.378.102.567.156.647.184 1.299-.284 1.455-1.046.157-.761-.24-1.528-.888-1.713-.2-.057-.402-.112-.604-.165-.42-.113-.86.047-1.153.42-.293.373-.394.901-.266 1.386.129.485.468.852.889.962zM50.481 5.438c.192.017.384.035.575.056.036.004.072.006.107.006.642 0 1.17-.62 1.198-1.407.028-.786-.453-1.46-1.093-1.529-.206-.022-.412-.042-.618-.06-.428-.038-.84.207-1.082.643-.24.436-.272.996-.084 1.469.188.473.569.786.997.822zM5.349 36.446c.132.036.27.054.408.054.613 0 1.154-.348 1.333-.856.066-.186.133-.372.202-.557.156-.41.047-.863-.286-1.185-.333-.322-.84-.465-1.328-.376-.488.09-.883.4-1.037.811-.075.2-.147.4-.218.6-.108.306-.071.637.103.92.173.284.47.496.823.59zM2.493 40.508c-.04.203-.078.407-.115.61-.117.659.428 1.271 1.217 1.37.07.008.142.012.214.012.715 0 1.322-.438 1.427-1.027.034-.193.07-.384.107-.575.129-.656-.405-1.274-1.191-1.382-.787-.108-1.529.336-1.66.992zM2.367 47.683c-.003.185-.005.37-.005.572v.044c0 .663.671 1.201 1.498 1.201s1.498-.538 1.498-1.2v-.062c0-.174.001-.347.004-.52.012-.663-.648-1.208-1.475-1.218-.827-.01-1.508.52-1.52 1.183zM91.097 34.352c-.23-.639-1.013-.996-1.75-.797-.738.198-1.15.877-.921 1.515.066.187.132.374.196.56.175.516.72.87 1.34.87.135 0 .268-.017.396-.05.741-.189 1.165-.862.947-1.504-.068-.198-.137-.396-.208-.594zM87.896 28.178c-.211-.363-.622-.617-1.099-.678l-.43 2.886c0 .01-.003.019-.005.028.559.185 1.196.065 1.606-.302.41-.367.51-.906.253-1.36-.106-.193-.215-.384-.325-.574zM90.38 41.885c.035.191.068.382.099.574.098.596.71 1.04 1.433 1.041.066 0 .132-.004.197-.011.38-.043.725-.21.958-.464.232-.254.334-.574.282-.89-.034-.206-.07-.41-.107-.614-.12-.657-.86-1.108-1.65-1.007-.791.1-1.334.715-1.213 1.371zM93.356 48.365c.004-.197.006-.395.006-.593v-.119c0-.637-.67-1.153-1.497-1.153-.826 0-1.497.516-1.497 1.153v.119c0 .185-.002.371-.005.556-.014.637.645 1.162 1.472 1.172h.025c.817 0 1.483-.505 1.496-1.135zM93.23 55.493c.04-.204.08-.407.116-.611.118-.657-.425-1.27-1.213-1.369-.789-.098-1.523.354-1.642 1.012-.035.192-.071.383-.109.574-.13.656.402 1.276 1.188 1.385.787.108 1.53-.335 1.66-.991zM89.756 62.5c.603 0 1.138-.337 1.325-.834.074-.199.147-.397.218-.597.149-.413.032-.864-.308-1.182-.34-.318-.85-.453-1.336-.356-.487.097-.876.413-1.02.828-.067.186-.135.372-.204.557-.138.368-.065.771.197 1.085.263.313.682.498 1.128.499zM45.248 90.563c-.194-.017-.388-.037-.582-.058-.661-.068-1.242.532-1.3 1.34-.056.809.434 1.52 1.094 1.591.204.02.408.042.612.06.03.003.06.004.09.004.646 0 1.176-.627 1.2-1.417.023-.79-.469-1.462-1.114-1.52zM32.59 87.851c-.183-.081-.365-.164-.547-.248-.622-.287-1.333.047-1.589.747-.255.7.04 1.501.661 1.79.194.09.389.178.584.265.626.277 1.333-.07 1.579-.775.246-.706-.062-1.502-.688-1.779zM38.418 90.696c-.189-.05-.377-.102-.564-.156-.647-.184-1.298.282-1.457 1.041-.158.76.236 1.527.882 1.715.202.058.404.114.608.168.42.113.861-.047 1.155-.42.293-.373.394-.901.265-1.386-.128-.485-.468-.851-.89-.962zM2.48 54.476c.078.425.422.784.905.941.482.157 1.029.088 1.434-.18.404-.269.605-.697.527-1.122-.035-.19-.068-.382-.1-.573-.068-.426-.406-.789-.884-.952-.48-.163-1.026-.102-1.436.16-.41.263-.62.687-.55 1.112.033.206.068.41.105.614zM51.072 90.504c-.193.017-.386.033-.58.048-.647.046-1.148.718-1.13 1.515.02.798.55 1.432 1.2 1.433.024 0 .047 0 .071-.003.206-.014.411-.032.616-.05.428-.039.807-.355.994-.83.187-.474.153-1.036-.089-1.472-.241-.436-.654-.68-1.082-.64zM56.886 90.537c-.188.05-.377.1-.566.146-.421.105-.764.467-.898.95-.134.484-.04 1.015.248 1.394s.725.547 1.146.442c.204-.05.406-.102.608-.158.42-.112.758-.482.885-.968.127-.487.024-1.017-.27-1.39-.293-.372-.733-.531-1.153-.416zM63.702 87.597c-.18.08-.362.159-.544.236-.408.17-.705.574-.778 1.06-.073.487.089.98.425 1.293.336.314.794.4 1.201.225.197-.083.393-.168.588-.255.624-.28.93-1.079.683-1.785-.246-.707-.952-1.054-1.575-.774zM7.815 67.825c.214.373.636.627 1.12.675l.412-2.826.015-.078c-.372-.134-.793-.128-1.16.017-.349.138-.619.388-.75.695-.133.307-.117.647.044.944.104.192.21.383.319.573zM4.626 61.645c.147.414.538.728 1.026.825.488.096.998-.04 1.338-.358.34-.318.458-.769.31-1.182-.067-.186-.132-.374-.195-.56-.218-.642-.995-1.009-1.736-.82-.742.187-1.167.86-.95 1.5.067.2.136.398.207.595zM31.582 8.5c.153 0 .305-.033.448-.098.18-.08.362-.16.545-.236.627-.269.945-1.06.71-1.77-.234-.71-.933-1.073-1.563-.811-.197.083-.394.169-.59.257-.543.243-.858.89-.748 1.539.11.65.612 1.119 1.198 1.119zM9.362 29.847c-.248-.695-.474-1.418-.666-2.18l-.209-.16c-.662-.057-1.3.208-1.6.666-.124.188-.246.378-.364.569-.38.6-.063 1.324.712 1.626.775.301 1.722.07 2.127-.52zM44.562 5.5c.031 0 .062-.001.093-.004.193-.018.387-.035.58-.05.428-.032.81-.342 1.001-.814.192-.471.164-1.033-.073-1.472-.237-.439-.647-.69-1.076-.657-.206.016-.41.032-.615.052-.644.06-1.133.734-1.109 1.526.025.792.554 1.418 1.2 1.419zM38.567 5.5c.092 0 .182-.012.271-.036.19-.05.38-.1.57-.148.65-.164 1.067-.92.928-1.69-.14-.768-.78-1.258-1.432-1.094-.202.05-.404.103-.605.157-.598.162-.998.828-.929 1.547.069.72.584 1.263 1.197 1.264z" transform="translate(-677 -2610) translate(165 1191) translate(0 1406) translate(512 13)"/>
                        <path d="M45.783 60.719c-.735-.636-1.635-1.043-2.59-1.173-.228-1.47-1.01-2.79-2.18-3.678-1.21-.823-2.67-1.181-4.115-1.01-.67-1.204-1.747-2.119-3.03-2.574-1.17-.374-2.422-.391-3.602-.049-.368-.936-1.037-1.718-1.898-2.216-1.377-.665-2.969-.692-4.367-.074-.168.075-.321.181-.451.314l-3.68 3.752c-1.024.935-1.672 2.222-1.822 3.614l-6.237 6.346c-.49.52-.807 1.185-.906 1.9l-.571 4.681c-.018.055-.04.107-.065.158l-9.47 9.635c-.376.38-.523.935-.387 1.456.137.52.535.928 1.046 1.067.511.14 1.056-.01 1.43-.39l9.471-9.636c.49-.522.807-1.186.907-1.9l.57-4.684c.018-.054.04-.106.065-.156l5.446-5.54c.887 1.081 2.142 1.782 3.514 1.96.182 1.136.795 2.155 1.707 2.835.02.017.042.034.065.049.809.546 1.758.836 2.728.833 1.767-.039 3.4-.967 4.36-2.479.476-.672.33-1.61-.328-2.1-.658-.489-1.58-.344-2.062.324-1.26 1.759-2.511 1.262-3 .954-.55-.442-.74-1.206-.46-1.86l1.12-1.22c.558-.607.527-1.56-.07-2.129-.595-.569-1.531-.538-2.09.07l-1.18 1.285c-.019.02-.037.041-.054.062-.311.379-.507.385-.571.377-.603-.155-1.136-.512-1.514-1.014-.055-.07-.116-.136-.183-.195-.332-.295-.335-.485-.336-.566.11-.578.408-1.102.844-1.488.063-.056 3.567-3.63 3.567-3.63.503-.18 1.055-.169 1.55.035.523.45.839 1.1.873 1.797.074.49.38.91.818 1.125.437.216.95.198 1.373-.046.892-.48 1.922-.622 2.907-.401.852.36 1.507 1.082 1.791 1.976.293.695 1.046 1.06 1.76.856.017-.005 1.728-.447 2.817.347.664.484 1.038 1.414 1.112 2.765.026.411.215.795.524 1.061.31.267.711.394 1.114.353.638-.065 1.277.11 1.796.492.395.43.597 1.008.56 1.596-.01.028-.019.048-.013.047l-3.662 3.725c-.6-1.502-1.293-2.965-2.075-4.378-1.005-1.72-3.11-2.408-4.91-1.604-1.146.526-2.523 1.795-2.57 4.852-.012.71-.015 1.718.02 2.66-3.261-.585-6.613.263-9.226 2.334-.625.535-.706 1.486-.18 2.123.525.637 1.457.72 2.083.184 2.76-2.139 6.51-2.382 9.514-.618.46.266 1.024.262 1.48-.01.456-.274.735-.774.73-1.313-.005-.54-.292-1.035-.752-1.3-.208-.12-.414-.23-.619-.335-.096-1.223-.127-2.45-.094-3.678.028-1.784.632-2.061.828-2.15.402-.161.86-.026 1.116.329 1.61 2.929 3.194 6.72 2.986 8.867-.89 1.153-5.17 6.087-14.276 7.663-.673.135-1.293.463-1.79.945l-9.825 9.996c-.375.38-.522.936-.386 1.456.137.521.535.928 1.046 1.068s1.056-.01 1.43-.391l9.813-9.985c.064-.047.133-.087.206-.118 11.622-2.01 16.231-8.912 16.422-9.205.106-.164.18-.347.218-.54.184-1.207.124-2.441-.176-3.624l4.74-4.822c.545-.574.859-1.335.88-2.133.065-1.476-.51-2.907-1.574-3.912zM49.942 35.27c.735.636 1.634 1.043 2.59 1.173.227 1.468 1.01 2.788 2.18 3.677 1.211.822 2.669 1.18 4.115 1.01.67 1.203 1.747 2.117 3.03 2.572 1.17.374 2.422.391 3.602.049.64 1.69 2.253 2.79 4.032 2.748.766-.005 1.524-.161 2.233-.458.168-.075.321-.182.451-.314l3.68-3.751c1.024-.935 1.672-2.221 1.822-3.613l6.237-6.343c.49-.521.807-1.185.906-1.9l.57-4.68c.018-.054.04-.106.066-.157l9.47-9.631c.376-.38.523-.935.386-1.456-.136-.52-.535-.927-1.045-1.066-.511-.14-1.056.01-1.43.39l-9.472 9.632c-.489.521-.806 1.186-.906 1.9l-.57 4.681c-.018.054-.04.106-.066.156l-5.445 5.538c-.887-1.081-2.142-1.78-3.514-1.959-.182-1.136-.795-2.154-1.707-2.834-.021-.017-.043-.034-.065-.049-1.583-1.106-4.776-1.58-7.087 1.645-.477.672-.331 1.61.327 2.1.657.488 1.58.343 2.062-.325 1.26-1.757 2.51-1.262 3-.953.55.441.74 1.205.46 1.86l-1.12 1.218c-.558.607-.527 1.56.069 2.13.596.568 1.532.537 2.09-.07l1.181-1.285.054-.062c.311-.379.513-.372.571-.377.602.155 1.136.512 1.513 1.014.056.07.117.135.184.195.332.294.334.484.335.565-.11.578-.407 1.101-.844 1.487-.063.057-3.566 3.629-3.566 3.629-.504.18-1.055.168-1.55-.035-.523-.45-.84-1.1-.873-1.797-.075-.488-.38-.909-.818-1.124-.437-.215-.95-.198-1.373.046-.892.481-1.922.624-2.907.401-.852-.36-1.507-1.081-1.792-1.975-.293-.694-1.045-1.06-1.759-.855-.017.003-1.728.445-2.818-.348-.663-.483-1.037-1.413-1.111-2.763-.026-.412-.215-.795-.524-1.062-.31-.266-.712-.393-1.115-.352-.637.065-1.276-.11-1.795-.492-.395-.43-.597-1.008-.56-1.596.01-.028.017-.047.013-.047l3.662-3.723c.6 1.502 1.293 2.964 2.075 4.376.7 1.212 1.981 1.95 3.361 1.937.533.002 1.061-.111 1.548-.333 1.147-.526 2.524-1.795 2.572-4.85.01-.71.014-1.717-.02-2.659.683.137 1.378.207 2.075.207 2.59-.032 5.101-.924 7.15-2.54.625-.536.706-1.486.18-2.123-.525-.636-1.458-.719-2.083-.184-2.76 2.139-6.51 2.382-9.514.619-.46-.268-1.025-.265-1.482.008-.457.273-.736.774-.731 1.314.005.54.293 1.035.755 1.299.208.12.413.226.618.33.096 1.225.128 2.454.094 3.681-.027 1.785-.631 2.061-.827 2.15-.402.161-.86.026-1.116-.329-1.61-2.927-3.194-6.718-2.987-8.864.89-1.152 5.171-6.085 14.277-7.66.672-.134 1.293-.462 1.789-.944l9.826-9.993c.376-.38.524-.935.388-1.457-.136-.521-.535-.929-1.047-1.068-.512-.14-1.058.011-1.431.394l-9.813 9.98c-.064.048-.133.088-.206.119-11.622 2.01-16.232 8.908-16.422 9.201-.106.164-.18.347-.218.54-.184 1.207-.124 2.44.176 3.623l-4.74 4.82c-.545.573-.859 1.334-.88 2.132-.065 1.475.51 2.905 1.574 3.91zM10.791 25.21c.048.063.087.131.118.204 2.01 11.62 8.913 16.23 9.207 16.42.163.106.345.18.537.217.41.078.829.115 1.247.112.8-.011 1.598-.109 2.377-.29l4.823 4.74c.568.54 1.318.854 2.107.882h.025c1.477.065 2.909-.512 3.914-1.578.634-.734 1.04-1.632 1.169-2.586 1.471-.226 2.794-1.01 3.684-2.186.819-1.208 1.175-2.664 1.006-4.107 1.205-.67 2.12-1.75 2.575-3.035.372-1.167.39-2.415.05-3.591.94-.367 1.722-1.04 2.217-1.907.661-1.378.688-2.97.071-4.367-.075-.168-.182-.322-.314-.452 0 0-3.744-3.668-3.754-3.68-.936-1.024-2.223-1.673-3.616-1.821l-6.343-6.234c-.521-.49-1.185-.807-1.9-.906l-4.682-.571c-.055-.018-.109-.04-.16-.066L15.514.939c-.38-.377-.936-.526-1.457-.389-.522.137-.929.538-1.067 1.051-.138.514.013 1.06.397 1.433l9.636 9.47c.521.49 1.185.806 1.9.905l4.684.571c.054.018.107.04.158.066l5.536 5.441c-1.079.886-1.778 2.14-1.956 3.512-1.136.18-2.155.793-2.836 1.705-.017.021-.033.043-.048.065-1.108 1.584-1.584 4.78 1.645 7.093.672.48 1.613.335 2.102-.326.489-.662.34-1.588-.331-2.069-1.758-1.259-1.262-2.505-.954-2.993.444-.552 1.21-.741 1.866-.462l1.218 1.12c.393.362.952.49 1.466.335.514-.154.906-.566 1.027-1.081.122-.516-.045-1.056-.438-1.417l-1.284-1.181c-.02-.02-.041-.037-.063-.055-.377-.31-.376-.504-.376-.568.155-.601.512-1.133 1.013-1.51.07-.055.135-.116.195-.183.296-.333.487-.335.57-.336h.007c.575.113 1.096.41 1.483.845.057.063 3.633 3.567 3.633 3.567.176.498.164 1.042-.032 1.532-.45.53-1.104.85-1.804.883-.487.077-.904.382-1.12.818-.215.435-.201.947.038 1.37.49.894.632 1.932.401 2.921-.363.847-1.083 1.496-1.972 1.78-.695.292-1.062 1.047-.856 1.763.004.016.444 1.722-.345 2.809-.483.666-1.415 1.042-2.77 1.115-.41.026-.794.216-1.06.525-.266.31-.393.713-.352 1.116.063.636-.11 1.272-.49 1.79-.432.397-1.012.6-1.602.562-.026-.01-.055-.022-.049-.014l-3.72-3.656c1.5-.6 2.961-1.292 4.374-2.074 1.72-1.003 2.408-3.111 1.605-4.913-.527-1.146-1.796-2.523-4.852-2.57-.711-.012-1.72-.015-2.66.02.583-3.262-.266-6.614-2.336-9.225-.536-.624-1.485-.703-2.12-.176-.634.526-.716 1.46-.181 2.085 2.136 2.755 2.38 6.505.618 9.505-.266.46-.262 1.025.01 1.481.272.457.77.735 1.308.732.538-.004 1.032-.29 1.298-.75.12-.207.23-.413.335-.618 1.225-.096 2.454-.128 3.681-.093 1.788.027 2.065.63 2.155.826.159.401.023.857-.33 1.111-2.929 1.61-6.724 3.196-8.873 2.987-1.152-.89-6.088-5.169-7.664-14.274-.135-.673-.463-1.294-.946-1.79l-9.997-9.823c-.38-.375-.935-.521-1.455-.384s-.925.537-1.064 1.048c-.138.512.011 1.058.393 1.431l9.985 9.812zM84.933 70.796c-.047-.063-.086-.132-.117-.204-2.011-11.624-8.914-16.234-9.207-16.425-.163-.106-.345-.18-.537-.217-1.208-.185-2.442-.125-3.627.175l-4.82-4.738c-.568-.54-1.318-.854-2.107-.882h-.025c-1.477-.065-2.909.512-3.915 1.579-.633.734-1.038 1.632-1.168 2.586-1.471.226-2.794 1.011-3.684 2.186-.82 1.21-1.176 2.665-1.006 4.109-1.205.67-2.12 1.75-2.575 3.036-.372 1.167-.39 2.415-.05 3.592-.94.366-1.722 1.04-2.217 1.907-.662 1.378-.688 2.97-.071 4.368.075.169.182.322.314.452L53.875 76c.935 1.026 2.223 1.675 3.615 1.823l6.344 6.236c.52.49 1.185.807 1.899.906l4.683.571c.055.018.108.04.16.066l9.635 9.471c.59.572 1.537.569 2.122-.007.584-.577.586-1.51.004-2.089l-9.635-9.471c-.522-.49-1.186-.807-1.9-.906l-4.684-.572c-.054-.017-.107-.04-.158-.065l-5.537-5.443c1.08-.886 1.78-2.141 1.957-3.514 1.136-.18 2.154-.792 2.836-1.704.017-.021.033-.043.048-.065 1.108-1.584 1.583-4.781-1.645-7.095-.672-.48-1.613-.335-2.102.327-.49.661-.34 1.587.331 2.069 1.757 1.259 1.261 2.506.954 2.994-.445.552-1.21.74-1.867.461l-1.218-1.12c-.392-.361-.95-.489-1.465-.335-.514.154-.906.567-1.028 1.082-.121.515.046 1.056.439 1.417 0 0 1.325 1.219 1.347 1.237.377.31.376.504.376.567-.155.602-.512 1.134-1.013 1.51-.07.056-.136.117-.195.183-.296.334-.488.336-.57.337-.58-.106-1.106-.404-1.49-.845l-3.633-3.568c-.176-.498-.165-1.042.032-1.533.449-.53 1.104-.85 1.804-.883.486-.077.904-.382 1.12-.818.215-.435.2-.947-.038-1.371-.49-.894-.632-1.932-.401-2.921.363-.847 1.083-1.497 1.972-1.78.695-.293 1.061-1.048.856-1.764-.005-.017-.444-1.723.345-2.81.483-.666 1.415-1.042 2.77-1.116.41-.026.793-.215 1.06-.525.266-.31.393-.712.351-1.116-.063-.635.112-1.272.49-1.79.433-.397 1.013-.6 1.603-.562.026.008.053.02.049.013l3.72 3.657c-1.5.6-2.962 1.294-4.374 2.075-1.72 1.003-2.408 3.112-1.605 4.914.527 1.147 1.795 2.524 4.852 2.572.71.01 1.719.013 2.661-.021-.584 3.262.265 6.616 2.335 9.228.536.623 1.484.701 2.118.175.635-.526.716-1.459.183-2.085-2.137-2.756-2.38-6.506-.618-9.508.266-.46.262-1.024-.01-1.48-.272-.457-.77-.736-1.308-.733-.538.004-1.033.29-1.298.75-.12.207-.23.413-.335.618-1.225.097-2.454.129-3.682.094-1.788-.028-2.065-.63-2.155-.827-.158-.401-.023-.857.33-1.111 2.93-1.611 6.73-3.187 8.874-2.987 1.151.888 6.088 5.17 7.664 14.277.135.673.463 1.294.945 1.79l9.998 9.826c.38.375.935.522 1.454.384.52-.137.926-.537 1.065-1.049.138-.511-.011-1.057-.393-1.43l-9.986-9.815z" transform="translate(-677 -2610) translate(165 1191) translate(0 1406) translate(512 13)"/>
                    </g>
                </g>
            </g>
        </g>
    </g>
</svg>
