<svg xmlns="http://www.w3.org/2000/svg" width="31" height="31" viewBox="0 0 31 31">
    <defs>
        <linearGradient id="77vnbx26ha" x1="0%" x2="100%" y1="50%" y2="50%">
            <stop offset="0%" stop-color="#714FF8"/>
            <stop offset="100%" stop-color="#2B00A2"/>
        </linearGradient>
        <linearGradient id="1emm1n9j1b" x1="0%" x2="100%" y1="50%" y2="50%">
            <stop offset="0%" stop-color="#6D4AF3"/>
            <stop offset="100%" stop-color="#2F04A7"/>
        </linearGradient>
    </defs>
    <g fill="none" fill-rule="evenodd">
        <g fill-rule="nonzero">
            <g>
                <g>
                    <g>
                        <path fill="url(#77vnbx26ha)" d="M27.9 1.55h-3.1V0h-3.1v1.55H9.3V0H6.2v1.55H3.1C1.395 1.55 0 2.945 0 4.65V27.9C0 29.605 1.395 31 3.1 31h24.8c1.705 0 3.1-1.395 3.1-3.1V4.65c0-1.705-1.395-3.1-3.1-3.1zM6.2 4.65V6.2h3.1V4.65h12.4V6.2h3.1V4.65h3.1V9.3H3.1V4.65h3.1zM3.1 27.9V12.4h24.8v15.5H3.1z" transform="translate(-392 -3725) translate(-1 3684) translate(272) translate(121 41)"/>
                        <path fill="url(#1emm1n9j1b)" d="M15.5 14.8c.856 0 1.55.694 1.55 1.55l-.001 2.4h2.401c.856 0 1.55.694 1.55 1.55 0 .856-.694 1.55-1.55 1.55h-2.401l.001 2.4c0 .856-.694 1.55-1.55 1.55-.856 0-1.55-.694-1.55-1.55l-.001-2.4H11.55c-.856 0-1.55-.694-1.55-1.55 0-.856.694-1.55 1.55-1.55h2.399l.001-2.4c0-.856.694-1.55 1.55-1.55z" transform="translate(-392 -3725) translate(-1 3684) translate(272) translate(121 41)"/>
                    </g>
                </g>
            </g>
        </g>
    </g>
</svg>
