<svg xmlns="http://www.w3.org/2000/svg" width="41" height="39" viewBox="0 0 41 39">
    <defs>
        <linearGradient id="dryaa43a9a" x1="0%" x2="100%" y1="50%" y2="50%">
            <stop offset="0%" stop-color="#714FF8"/>
            <stop offset="100%" stop-color="#2B00A2"/>
        </linearGradient>
    </defs>
    <g fill="none" fill-rule="evenodd">
        <g fill="url(#dryaa43a9a)" fill-rule="nonzero" transform="translate(-699 -3724)">
            <g>
                <g>
                    <path d="M38.312 16.278c1.097-.797 1.405-2.279.712-3.434l-3.813-6.315c-.669-1.199-2.199-1.64-3.42-.987L28.44 7.053c-.588-.383-1.2-.73-1.83-1.039l-.342-3.683-.026-.185C26.01.92 24.931.022 23.66 0h-7.448c-1.373-.004-2.516 1.033-2.621 2.378l-.336 3.64c-.637.304-1.251.65-1.84 1.035L8.021 5.521l-.083-.035C6.711 5 5.307 5.47 4.635 6.59L.94 12.831c-.691 1.155-.386 2.635.707 3.434l3.085 2.147c-.035.335-.057.69-.057 1.069 0 .377 0 .717.052 1.043l-3.18 2.155-.066.047C.38 23.519.068 25.003.761 26.16l3.74 6.32c.317.54.818.953 1.414 1.167.657.215 1.376.148 1.98-.185l3.368-1.51c.585.383 1.195.73 1.826 1.038l.345 3.683.026.18c.232 1.226 1.309 2.123 2.577 2.147h7.453c1.373.004 2.516-1.033 2.621-2.378l.336-3.628c.637-.306 1.251-.654 1.84-1.043l3.403 1.541.083.035c1.227.485 2.63.016 3.302-1.104l3.696-6.25c.697-1.151.395-2.635-.699-3.434l-2.844-2.13c.038-.367.057-.737.057-1.107 0-.378-.022-.734-.057-1.069l3.058-2.146.026-.009zm-6.828.558l.149 1.035c.092.54.145 1.084.157 1.631-.012.547-.065 1.092-.157 1.631l-.144 1 3.896 2.915-2.953 5.002-4.613-2.087-.843.683c-.877.67-1.844 1.216-2.874 1.622l-.957.395-.437 4.907h-5.871l-.437-4.907-.957-.403c-1.043-.437-2.027-.998-2.931-1.67l-.834-.614-4.579 2.074-2.93-4.967 3.42-2.288.9-.61-.153-1.06c-.096-.536-.151-1.079-.166-1.623.012-.547.064-1.092.157-1.631l.148-1.035-4.15-2.914 2.945-4.98 4.608 2.082.844-.678c.876-.67 1.844-1.216 2.874-1.623l.966-.382.436-4.907h5.863l.437 4.907.956.403c1.043.437 2.028.998 2.932 1.67l.834.614 4.57-2.065 3.031 4.959-4.137 2.914z" transform="translate(583 3684) translate(116.607 40)"/>
                    <path d="M19.893 12c-4.142 0-7.5 3.358-7.5 7.5 0 4.142 3.358 7.5 7.5 7.5 4.142 0 7.5-3.358 7.5-7.5.021-1.995-.762-3.915-2.173-5.326-1.412-1.411-3.332-2.195-5.327-2.174zm0 11.508c-2.213 0-4.008-1.795-4.008-4.008s1.795-4.007 4.008-4.007S23.9 17.287 23.9 19.5c.012 1.067-.406 2.093-1.16 2.847-.754.754-1.78 1.172-2.847 1.16z" transform="translate(583 3684) translate(116.607 40)"/>
                </g>
            </g>
        </g>
    </g>
</svg>
