<svg xmlns="http://www.w3.org/2000/svg" width="110" height="111" viewBox="0 0 110 111">
    <g fill="none" fill-rule="evenodd">
        <g fill="#FFF" fill-rule="nonzero">
            <g>
                <g>
                    <g>
                        <path d="M12.15 107.457c-.038.324.074.647.304.877.23.23.553.343.877.304.652 0 1.18-.528 1.18-1.18-.032-2.14.803-4.201 2.316-5.714 1.512-1.513 3.573-2.349 5.711-2.316 1.012.014 2.012.214 2.951.59l.945.354.59-.944c1.203-2.555 3.787-4.171 6.61-4.133 3.973-.005 7.248 3.115 7.437 7.085v1.535l1.534-.472c.642-.241 1.322-.362 2.007-.355 3.39 0 6.138 2.75 6.138 6.14v.237c0 .652.529 1.18 1.18 1.18.302.034.604-.062.83-.265.225-.204.353-.493.351-.797v-.354c0-4.696-3.805-8.502-8.499-8.502h-1.298c-.99-4.572-5.005-7.853-9.68-7.912-3.35-.056-6.485 1.646-8.263 4.487-.926-.233-1.878-.352-2.833-.354-1.332-.016-2.654.225-3.895.708-.95-4.022-4.292-7.035-8.39-7.56C6.155 89.57 2.16 91.642.228 95.295c-.262.62-.005 1.338.59 1.653.587.25 1.267-.011 1.535-.59 1.32-2.489 3.913-4.036 6.728-4.015 3.781-.018 6.953 2.848 7.319 6.612-2.705 1.982-4.288 5.148-4.25 8.502zM100.093 98.955c3.93-.008 7.187 3.044 7.436 6.967 0 .653.529 1.181 1.18 1.181.671-.061 1.184-.625 1.181-1.299-.312-5.18-4.609-9.22-9.797-9.21-2.986-.029-5.817 1.322-7.673 3.66-1.919-4.147-6.056-6.814-10.624-6.849-5.126.058-9.641 3.386-11.214 8.266-4.507.191-8.482 3.012-10.152 7.203-.158.277-.183.61-.068.908.114.297.356.528.658.628h.472c.463-.008.878-.285 1.063-.709 1.413-3.584 4.884-5.93 8.735-5.904h1.18l.236-.945c1.065-4.658 5.477-7.758 10.219-7.18 4.742.577 8.28 4.646 8.196 9.424.007.917-.112 1.83-.354 2.716-.114.297-.103.628.03.917.134.289.378.512.678.618.648.16 1.312-.198 1.535-.827.339-1.109.498-2.265.472-3.424.02-.672-.02-1.343-.118-2.008 1.288-2.533 3.887-4.13 6.729-4.133zM55.236 44.518c4.498 0 8.145-3.648 8.145-8.148s-3.647-8.148-8.145-8.148c-4.498 0-8.145 3.648-8.145 8.148s3.647 8.148 8.145 8.148zm0-13.934c3.195 0 5.784 2.59 5.784 5.786 0 3.196-2.59 5.786-5.784 5.786s-5.784-2.59-5.784-5.786c0-1.534.61-3.006 1.694-4.091 1.085-1.085 2.556-1.695 4.09-1.695z" transform="translate(-670 -1666) translate(165 1191) translate(115 469) translate(390 6)"/>
                        <path d="M78.018 64.829c.63.617 1.48.957 2.361.944h.472c1.03-.16 1.936-.764 2.48-1.653 4.163-6.67 2.971-15.362-2.834-20.665-2.715-2.48-5.076-3.896-7.554-4.369-.237-14.052-5.903-26.923-16.88-37.905l-.827-.827-.826.827C43.432 12.163 37.766 25.034 37.53 39.086c-2.48.473-4.84 1.89-7.555 4.37-5.805 5.302-6.997 13.994-2.833 20.664.567.844 1.47 1.403 2.479 1.535h.472c.913-.004 1.794-.34 2.479-.944l7.79-7.204c1.664 4.903 3.924 9.583 6.73 13.934 1.534 2.244 5.547 3.07 8.616 3.07h.118c1.653 0 5.666-.235 7.083-2.48 3.12-4.45 5.547-9.346 7.2-14.524l7.91 7.322zm3.306-2.008c-.186.28-.492.454-.827.473-.334.102-.697.01-.944-.237l-8.735-7.911c.007-.091.05-.176.118-.236l.236-.237h-.118c.236-1.299.59-2.597.826-3.896.587-3.04.942-6.118 1.063-9.211 2.232.787 4.252 2.08 5.902 3.779 4.923 4.469 5.965 11.813 2.479 17.476zM55.236 3.661c3.084 3.128 5.78 6.617 8.027 10.391-5.009 2.709-11.045 2.709-16.054 0 2.286-3.748 4.978-7.233 8.027-10.391zM46.03 16.06c5.734 3.15 12.68 3.15 18.414 0 5.69 10.41 7.49 22.509 5.076 34.126-.123 1.085-.36 2.154-.708 3.188-8.236 5.43-18.914 5.43-27.15 0l-.708-2.952c-2.472-11.693-.671-23.884 5.076-34.362zm-15.11 46.997c-.247.248-.61.339-.944.237-.335-.019-.64-.194-.826-.473-3.554-5.689-2.508-13.11 2.478-17.594 1.65-1.698 3.67-2.992 5.903-3.78.127 3.171.482 6.328 1.062 9.448.236 1.18.59 2.48.944 3.66H39.3l.236.236c.118 0 .118.119.118.237l-8.735 8.03zm30.101 7.794c-.472.709-2.36 1.417-5.312 1.417-2.95 0-5.902-.945-6.61-2.007-2.775-4.209-4.96-8.778-6.493-13.58 7.887 4.24 17.375 4.24 25.262 0-1.604 5.022-3.909 9.793-6.847 14.17zM54.056 84.549v7.675c0 .653.528 1.181 1.18 1.181.323.039.647-.073.877-.304.23-.23.342-.553.304-.877V84.55c.038-.324-.074-.647-.304-.877-.23-.23-.554-.342-.877-.304-.313 0-.613.124-.835.346-.221.221-.345.522-.345.835zM65.152 81.243v5.431c-.039.324.073.647.303.877.23.23.554.343.877.304.652 0 1.18-.528 1.18-1.18v-5.432c0-.653-.528-1.181-1.18-1.181-.323-.039-.646.073-.877.304-.23.23-.342.553-.303.877zM43.078 81.243v5.431c-.039.324.073.647.303.877.23.23.554.343.877.304.652 0 1.18-.528 1.18-1.18v-5.432c0-.653-.528-1.181-1.18-1.181-.323-.039-.646.073-.877.304-.23.23-.342.553-.303.877z" transform="translate(-670 -1666) translate(165 1191) translate(115 469) translate(390 6)"/>
                    </g>
                </g>
            </g>
        </g>
    </g>
</svg>
