<svg xmlns="http://www.w3.org/2000/svg" width="70" height="70" viewBox="0 0 70 70">
    <g fill="none" fill-rule="evenodd" opacity=".307">
        <g fill="#FFF" fill-rule="nonzero">
            <g>
                <path d="M42.035.724C22.988-3.183 4.583 9.126.72 27.964-2.893 45.541 7.629 61.667 20.6 66.894v.002c2.34 1.058 4.816 1.86 7.357 2.382 18.944 3.89 37.44-8.355 41.318-27.239C73.182 23.04 60.892 4.596 42.036.724zm20.668 39.334l-12.245-2.513-3.909-11.77 8.358-9.42 8.147 1.673c3 4.951 4.632 10.565 4.737 16.298l-5.088 5.732zM17.49 55.096L7.63 53.072c-2.72-4.114-4.49-8.824-5.146-13.683l7.125-8 5.45 1.12 6.752 1.386 3.954 11.888-8.274 9.313zm9.665-46.671l-8.65-1.777c4.326-2.526 9.123-4.011 14.102-4.367l-5.452 6.144zm.73 36.678L23.92 33.21l8.275-9.318 12.242 2.512 3.936 11.835-8.31 9.364-12.176-2.5zM61.31 15.437l-5.964-1.224-2.164-6.512c3.122 2.087 5.875 4.705 8.128 7.736zm-11-9.443l2.93 8.819-8.357 9.42-12.151-2.496-3.94-11.86 6.808-7.67c2.014.04 4.03.256 5.996.659 3.049.626 5.98 1.689 8.714 3.128zm-34.413 2.35l10.66 2.19 3.94 11.86-8.294 9.348-12.246-2.514-3.478-10.46c2.338-4.089 5.58-7.674 9.418-10.423zM2.861 28.405c.489-2.383 1.238-4.689 2.228-6.886l2.823 8.489-5.69 6.388c-.113-2.67.096-5.349.639-7.992zm6.748 27.348l7.327 1.505 2.137 6.416c-3.624-2.007-6.828-4.69-9.464-7.92zm12.225 9.29l-2.795-8.395 8.36-9.411 12.265 2.518 4.008 12.064-5.142 5.793c-5.68.622-11.412-.248-16.696-2.568zM45.46 63.1l4.714.968c-2.583 1.345-5.35 2.35-8.218 2.98l3.504-3.948zm7.564-.707l-7.358-1.51-3.934-11.84 8.304-9.352 12.227 2.51 2.311 6.95c-2.545 5.372-6.524 9.935-11.55 13.242zm12.835-16.31l-1.52-4.571 3.343-3.767c-.11 1.294-.287 2.584-.549 3.856-.314 1.529-.749 3.024-1.274 4.483z" transform="translate(-1322 -1181) translate(1322 1181)"/>
            </g>
        </g>
    </g>
</svg>
