<svg xmlns="http://www.w3.org/2000/svg" width="103" height="99" viewBox="0 0 103 99">
    <g fill="none" fill-rule="evenodd">
        <g fill="#FFF" fill-rule="nonzero">
            <g>
                <g>
                    <g>
                        <g transform="translate(-674 -3159) translate(166 1271) translate(221 1876) translate(287 12) translate(.808)">
                            <path d="M66.431 41.249l3.314-5.214c.274-.431.211-.994-.151-1.354l-3.171-3.16c-.362-.36-.927-.423-1.36-.15l-5.232 3.31c-1.4-.817-2.909-1.441-4.498-1.864l-1.349-6.014c-.112-.498-.555-.853-1.068-.853h-4.489c-.512 0-.956.355-1.068.853l-1.348 6.014c-1.59.423-3.098 1.047-4.499 1.863l-5.231-3.308c-.433-.274-.998-.212-1.36.15L31.75 34.68c-.362.36-.425.923-.151 1.354l3.313 5.214c-.826 1.415-1.45 2.917-1.864 4.48l-6.035 1.343c-.5.112-.856.554-.856 1.064v4.472c0 .511.356.953.856 1.065l6.034 1.342c.416 1.574 1.04 3.077 1.864 4.483L31.6 64.71c-.274.432-.211.994.15 1.355l3.172 3.158c.362.361.926.424 1.359.15l5.233-3.3c1.42.822 2.928 1.445 4.498 1.857l1.348 6.012c.112.498.556.852 1.068.852h4.49c.512 0 .955-.354 1.067-.852l1.348-6.012c1.58-.414 3.088-1.036 4.5-1.857l5.232 3.3c.432.273.997.21 1.359-.15l3.17-3.159c.363-.36.426-.923.152-1.354l-3.314-5.214c.826-1.415 1.451-2.917 1.865-4.48l6.034-1.344c.5-.111.856-.553.856-1.064v-4.472c0-.51-.356-.952-.856-1.064l-6.034-1.343c-.414-1.563-1.039-3.065-1.865-4.48zm6.566 10.486l-5.842 1.3c-.415.092-.738.415-.83.828-.399 1.786-1.107 3.49-2.106 5.063-.226.356-.226.81 0 1.166l3.208 5.048-1.932 1.925-5.067-3.196c-.359-.226-.815-.225-1.173.001-1.563.992-3.272 1.697-5.08 2.097-.414.092-.738.414-.83.827l-1.306 5.82h-2.735L48 66.794c-.092-.413-.416-.735-.83-.827-1.793-.397-3.503-1.103-5.083-2.098-.357-.225-.813-.225-1.17 0l-5.067 3.196-1.932-1.925 3.207-5.048c.227-.357.227-.812-.001-1.168-.995-1.557-1.703-3.26-2.104-5.061-.092-.413-.416-.735-.83-.828l-5.843-1.3V49.01l5.843-1.3c.414-.092.738-.414.83-.827.398-1.787 1.107-3.49 2.105-5.064.227-.356.227-.81 0-1.166l-3.207-5.047 1.931-1.924 5.066 3.204c.36.226.818.226 1.176-.002 1.547-.985 3.258-1.693 5.084-2.107.412-.093.733-.414.825-.825l1.305-5.82h2.735l1.305 5.82c.093.41.414.732.826.825 1.826.414 3.536 1.122 5.083 2.107.359.228.817.228 1.176.001l5.067-3.204 1.931 1.925-3.208 5.047c-.226.356-.226.81 0 1.166 1 1.574 1.708 3.277 2.106 5.064.092.412.415.735.83.827l5.842 1.3v2.725z"/>
                            <path d="M50.676 44.805c-3.084 0-5.593 2.5-5.593 5.572 0 3.067 2.51 5.563 5.593 5.563 3.08 0 5.584-2.495 5.584-5.563 0-3.072-2.505-5.572-5.584-5.572zm0 8.954c-1.877 0-3.404-1.517-3.404-3.382 0-1.87 1.527-3.391 3.404-3.391 1.872 0 3.395 1.521 3.395 3.391 0 1.865-1.523 3.382-3.395 3.382z"/>
                            <path d="M50.676 38.576c-6.531 0-11.845 5.294-11.845 11.802 0 6.501 5.314 11.79 11.845 11.79 6.527 0 11.836-5.289 11.836-11.79 0-6.508-5.309-11.802-11.836-11.802zm0 21.412c-5.324 0-9.656-4.311-9.656-9.61 0-5.305 4.332-9.621 9.656-9.621 5.32 0 9.647 4.316 9.647 9.62 0 5.3-4.327 9.611-9.647 9.611zM26.889 88.287c.513.32 1.188.164 1.508-.346.321-.51.166-1.183-.346-1.503C15.489 78.602 7.989 65.12 7.989 50.373c0-17.556 10.584-33.079 26.964-39.546.561-.222.836-.856.614-1.416-.223-.56-.859-.833-1.421-.612C17.31 15.447 5.8 31.73 5.8 50.373c0 15.8 8.275 29.92 21.089 37.914z"/>
                            <path d="M95.543 50.373c0-24.045-19.153-43.716-43.059-44.667L54.7 1.608c.286-.53.087-1.192-.445-1.477-.532-.286-1.196-.088-1.482.443l-3.065 5.67c-.17.315-.179.714.012 1.052.068.12 2.283 3.901 3.07 5.247.306.522.977.695 1.498.393.522-.304.698-.971.394-1.491l-2.078-3.549c22.642 1.01 40.75 19.675 40.75 42.477 0 23.446-19.147 42.522-42.682 42.522H1.204c-.604 0-1.095.488-1.095 1.09 0 .602.49 1.09 1.095 1.09h49.468c24.742 0 44.87-20.053 44.87-44.702zM100.698 93.105c-.13-.294-.004-.097-4.6-4.688-.427-.426-1.12-.426-1.548 0-.427.425-.427 1.116 0 1.542l2.51 2.5H77.813c-.604 0-1.094.488-1.094 1.09 0 .602.49 1.09 1.094 1.09H97.06l-2.51 2.5c-.427.426-.427 1.116 0 1.542.427.426 1.12.426 1.548 0 .953-.95 4.3-4.281 4.398-4.386.166-.175.23-.362.218-.331l.01-.033c.097-.257.098-.55-.026-.826z"/>
                            <path d="M50.672 18.754c-17.5 0-31.739 14.184-31.739 31.619 0 17.435 14.238 31.619 31.739 31.619 17.5 0 31.738-14.184 31.738-31.62 0-17.434-14.238-31.618-31.738-31.618zm0 61.057c-16.294 0-29.55-13.206-29.55-29.438 0-16.233 13.256-29.439 29.55-29.439 16.293 0 29.549 13.206 29.549 29.439 0 16.232-13.256 29.438-29.55 29.438z"/>
                            <path d="M25.134 24.93c.428-.425.428-1.115 0-1.541-.427-.426-1.12-.426-1.548 0-14.969 14.913-14.971 39.052 0 53.967.214.213.494.32.774.32.966 0 1.465-1.173.774-1.862-14.114-14.06-14.116-36.82 0-50.883zM76.21 75.814c-.428.426-.428 1.117 0 1.542.427.426 1.12.426 1.547 0 14.97-14.913 14.972-39.052 0-53.967-.427-.426-1.12-.426-1.547 0-.428.426-.428 1.116 0 1.542 6.82 6.796 10.578 15.831 10.578 25.442 0 9.61-3.757 18.646-10.578 25.441zM8.865 13.956c2.414 0 4.377-1.956 4.377-4.36 0-2.406-1.963-4.362-4.377-4.362-2.414 0-4.378 1.956-4.378 4.361s1.964 4.361 4.378 4.361zm0-6.541c1.207 0 2.189.978 2.189 2.18 0 1.203-.982 2.18-2.19 2.18-1.206 0-2.188-.977-2.188-2.18 0-1.202.982-2.18 2.189-2.18zM94.23 17.227c4.224 0 7.66-3.423 7.66-7.632 0-4.208-3.436-7.632-7.66-7.632-4.225 0-7.661 3.424-7.661 7.632s3.436 7.632 7.66 7.632zm0-13.084c3.017 0 5.472 2.446 5.472 5.452s-2.455 5.451-5.472 5.451c-3.018 0-5.472-2.445-5.472-5.451s2.454-5.452 5.472-5.452zM2.298 83.736c0 2.405 1.964 4.361 4.378 4.361s4.378-1.956 4.378-4.36c0-2.406-1.964-4.362-4.378-4.362s-4.378 1.956-4.378 4.361zm6.567 0c0 1.203-.982 2.18-2.189 2.18s-2.189-.977-2.189-2.18c0-1.202.982-2.18 2.189-2.18s2.189.978 2.189 2.18z"/>
                            <ellipse cx="75.077" cy="4.688" rx="1.642" ry="1.635"/>
                            <ellipse cx="98.06" cy="27.585" rx="1.642" ry="1.635"/>
                            <ellipse cx="94.777" cy="74.468" rx="1.642" ry="1.635"/>
                            <ellipse cx="2.845" cy="71.197" rx="1.642" ry="1.635"/>
                            <ellipse cx="24.734" cy="4.688" rx="1.642" ry="1.635"/>
                            <ellipse cx="3.94" cy="25.404" rx="1.642" ry="1.635"/>
                        </g>
                    </g>
                </g>
            </g>
        </g>
    </g>
</svg>
