<svg xmlns="http://www.w3.org/2000/svg" width="427" height="423" viewBox="0 0 427 423">
    <g fill="none" fill-rule="evenodd">
        <g fill="#FFF" fill-rule="nonzero">
            <g>
                <path d="M213.839 212c15.74 0 28.5-12.76 28.5-28.5s-12.76-28.5-28.5-28.5-28.5 12.76-28.5 28.5c.015 15.734 12.766 28.485 28.5 28.5zm0-46.143c9.744 0 17.643 7.9 17.643 17.643 0 9.744-7.9 17.643-17.643 17.643-9.744 0-17.643-7.9-17.643-17.643.015-9.738 7.905-17.628 17.643-17.643zM175.776 265c3.003 0 5.438-2.462 5.438-5.5V254c0-12.15 9.738-22 21.75-22h21.75c12.012 0 21.75 9.85 21.75 22v5.5c0 3.038 2.434 5.5 5.437 5.5s5.438-2.462 5.438-5.5V254c0-18.225-14.607-33-32.625-33h-21.75c-18.018 0-32.625 14.775-32.625 33v5.5c0 3.038 2.434 5.5 5.437 5.5zM98.576 148.827c9.555 9.565 25.045 9.564 34.598-.004 9.553-9.567 9.553-25.079 0-34.646-9.553-9.568-25.043-9.57-34.598-.004-4.63 4.573-7.237 10.814-7.237 17.327 0 6.513 2.607 12.754 7.237 17.327zm7.693-26.95c3.413-3.538 8.466-4.957 13.218-3.712 4.753 1.246 8.464 4.962 9.708 9.721 1.244 4.759-.173 9.82-3.707 13.237-5.333 5.158-13.81 5.085-19.053-.166-5.243-5.25-5.317-13.74-.166-19.08zM292.576 139.827c9.555 9.565 25.045 9.564 34.598-.004 9.553-9.567 9.553-25.079 0-34.646-9.553-9.568-25.043-9.57-34.598-.004-4.63 4.573-7.237 10.814-7.237 17.327 0 6.513 2.607 12.754 7.237 17.327zm7.693-26.95c3.887-3.894 9.734-5.059 14.813-2.952 5.08 2.106 8.392 7.07 8.392 12.575 0 5.506-3.312 10.469-8.392 12.575-5.08 2.107-10.926.942-14.813-2.952-5.306-5.315-5.306-13.93 0-19.246z" transform="translate(-1085 -156) translate(1085 156)"/>
                <path d="M9.085 219.873h59.326c4.266 73.115 62.642 131.55 136.004 136.142v57.933c0 5 4.067 9.052 9.085 9.052 5.018 0 9.085-4.053 9.085-9.052v-57.933c73.362-4.591 131.738-63.027 136.004-136.142h59.326c5.017 0 9.085-4.053 9.085-9.052 0-5-4.068-9.052-9.085-9.052h-59.417c-4.92-72.553-63.072-130.223-135.913-134.784V9.052c0-5-4.067-9.052-9.085-9.052-5.018 0-9.085 4.053-9.085 9.052v57.933c-72.84 4.561-130.994 62.231-135.913 134.784H9.085c-5.017 0-9.085 4.053-9.085 9.052 0 5 4.068 9.052 9.085 9.052zM212 86c70.14 0 127 56.636 127 126.5S282.14 339 212 339 85 282.364 85 212.5 141.86 86 212 86z" transform="translate(-1085 -156) translate(1085 156)"/>
                <path d="M115.952 322c11.68-.055 21.696-8.346 23.931-19.81 2.236-11.462-3.93-22.91-14.733-27.349s-23.237-.635-29.707 9.087c-6.47 9.723-5.178 22.662 3.088 30.912 4.61 4.628 10.889 7.208 17.421 7.16zm-9.609-34.108c3.417-3.538 8.478-4.957 13.236-3.712 4.759 1.246 8.475 4.962 9.72 9.72 1.246 4.76-.173 9.82-3.71 13.237-5.341 5.158-13.83 5.084-19.08-.166-5.25-5.25-5.324-13.739-.166-19.08zM309.816 313c11.688.01 21.756-8.238 24.046-19.7 2.29-11.462-3.837-22.945-14.632-27.426-10.795-4.48-23.252-.712-29.753 9.002-6.5 9.714-5.233 22.668 3.027 30.938 4.58 4.61 10.813 7.198 17.312 7.186zm-9.636-34.108c3.892-3.893 9.747-5.058 14.833-2.952s8.403 7.07 8.403 12.575c0 5.505-3.317 10.468-8.403 12.575-5.086 2.106-10.94.94-14.833-2.953-5.313-5.314-5.313-13.93 0-19.245z" transform="translate(-1085 -156) translate(1085 156)"/>
            </g>
        </g>
    </g>
</svg>
