<?xml version="1.0" encoding="utf-8"?>
<!-- Generator: Adobe Illustrator 23.0.6, SVG Export Plug-In . SVG Version: 6.00 Build 0)  -->
<svg version="1.1" id="Calque_1" xmlns="http://www.w3.org/2000/svg" xmlns:xlink="http://www.w3.org/1999/xlink" x="0px" y="0px"
	 viewBox="0 0 31.4 27.5" style="enable-background:new 0 0 31.4 27.5;" xml:space="preserve">
<style type="text/css">
	.st0{fill-rule:evenodd;clip-rule:evenodd;fill:#FFFFFF;}
</style>
<title>ski</title>
<g>
	<g id="_7">
		<path class="st0" d="M22.5,2.2c0,0.6,0.2,1.2,0.6,1.6c0.4,0.4,1,0.7,1.6,0.7c0.6,0,1.2-0.2,1.6-0.7c0.4-0.4,0.7-1,0.6-1.6
			c0-0.6-0.2-1.2-0.6-1.6C26,0.2,25.4,0,24.8,0c-0.6,0-1.2,0.2-1.6,0.7C22.7,1.1,22.5,1.7,22.5,2.2z M30.4,25.8
			c0,0.3-0.1,0.6-0.3,0.8c-0.2,0.2-0.5,0.3-0.7,0.3H11.6v0.6h17.7c0.5,0,0.9-0.2,1.3-0.5c0.3-0.3,0.5-0.8,0.5-1.3L30.4,25.8z
			 M17,6.2l-3.5,4.1c-0.2,0.3-0.5,0.4-0.8,0.4c-0.6,0-1.1-0.5-1.1-1.1c0,0,0,0,0-0.1c0-0.3,0.1-0.6,0.4-0.8l3.8-4.3
			c0.2-0.3,0.6-0.4,0.9-0.4H22c0.4,0,0.7,0.1,1,0.4l3.5,3.5l2.9-2.9c0.2-0.2,0.5-0.2,0.7-0.2c0.3,0,0.7,0.1,0.9,0.3
			c0.2,0.2,0.4,0.5,0.4,0.8c0,0.3-0.1,0.6-0.3,0.8l-3.5,3.5c-0.3,0.3-0.6,0.5-1,0.5c-0.2,0-0.5,0-0.7-0.2l-0.2-0.2l-2.1-2.2L20.2,12
			l3.1,3l0.1,0.2c0.1,0.2,0.2,0.4,0.2,0.6c0.1,0.3,0,0.7-0.1,1l-1.7,7.6c-0.1,0.3-0.3,0.6-0.5,0.9c-0.6,0.5-1.4,0.4-2-0.1
			c-0.3-0.3-0.4-0.6-0.4-1c0-0.1,0-0.2,0-0.4l1.4-6.3l-3.5-3.4l-3,3.4c0,0-0.1,0.1-0.2,0.1c-0.2,0.1-0.4,0.2-0.6,0.3
			c-0.3,0.1-0.7,0.2-1,0.1H6.1c-0.3,0-0.7-0.1-0.9-0.3c-0.3-0.2-0.4-0.5-0.5-0.9c-0.1-0.4-0.1-0.8,0.1-1.1c0.2-0.3,0.5-0.6,0.9-0.6
			h5.6l7.7-8.9L17,6.2z M7.5,22.4L0,14.9v1.3l7,7.1c0.2,0.3,0.6,0.4,0.9,0.3c0.3,0,0.6-0.1,0.9-0.3c0.3-0.1,0.4-0.2,0.4-0.2
			l-0.6-0.7c-0.1,0-0.1,0.1-0.2,0.1c-0.1,0.1-0.2,0.1-0.4,0.1C7.8,22.6,7.6,22.6,7.5,22.4L7.5,22.4z"/>
	</g>
</g>
</svg>
