<?xml version="1.0" encoding="utf-8"?>
<!-- Generator: Adobe Illustrator 23.0.6, SVG Export Plug-In . SVG Version: 6.00 Build 0)  -->
<svg version="1.1" id="Calque_1" xmlns="http://www.w3.org/2000/svg" xmlns:xlink="http://www.w3.org/1999/xlink" x="0px"
	y="0px" viewBox="0 0 321 266" style="enable-background:new 0 0 321 266;" xml:space="preserve">
	<style type="text/css">
		.st0 {
			fill: white;
		}
	</style>
	<g id="crt">
		<title>crt</title>
		<g>
			<g id="Calque_1-2_1_">
				<path className="crt" d="M303.6,29.2c-5.3,5.4-13.9,5.5-19.3,0.2s-5.5-13.9-0.2-19.3s13.9-5.5,19.3-0.2S308.9,23.8,303.6,29.2z
				 M299.3,24.9c2.9-3,2.9-7.8-0.1-10.7s-7.8-2.9-10.7,0.1c-2.9,3-2.9,7.8,0.1,10.7C291.6,27.9,296.3,27.9,299.3,24.9z" />
			</g>
		</g>
	</g>
	<g id="crm">
		<title>crm</title>
		<g>
			<g id="Calque_1-2_2_">
				<path className="crm" d="M317.8,139c-4.1,4.2-10.9,4.3-15.1,0.2s-4.3-10.9-0.2-15.1c4.1-4.2,10.9-4.3,15.1-0.1
				C321.9,128,321.9,134.8,317.8,139L317.8,139z M313.5,134.7c1.8-1.8,1.7-4.7-0.1-6.5c-1.8-1.8-4.7-1.7-6.5,0.1
				c-1.8,1.8-1.7,4.7,0.1,6.5C308.8,136.5,311.7,136.5,313.5,134.7z" />
			</g>
		</g>
	</g>
	<g id="crd">
		<title>crd</title>
		<g>
			<g id="Calque_1-2_3_">
				<path className="crd" d="M300.1,188.8c-4.1,4.2-10.9,4.3-15.1,0.2c-4.2-4.1-4.3-10.9-0.2-15.1c4.1-4.2,10.9-4.3,15.1-0.1
				S304.2,184.7,300.1,188.8L300.1,188.8z M295.7,184.5c1.8-1.8,1.7-4.7-0.1-6.5c-1.8-1.8-4.7-1.7-6.5,0.1c-1.8,1.8-1.7,4.7,0.1,6.5
				C291.1,186.4,294,186.3,295.7,184.5z" />
			</g>
		</g>
	</g>
	<g id="clt">
		<title>clt</title>
		<g>
			<g id="Calque_1-2_4_">
				<path className="clt" d="M26.8,89.5c4.1-4.2,10.9-4.3,15.1-0.1s4.3,10.9,0.1,15.1s-10.9,4.3-15.1,0.1S22.6,93.8,26.8,89.5z
				 M31.2,93.8c-1.8,1.8-1.7,4.7,0.1,6.5c1.8,1.8,4.7,1.7,6.5-0.1c1.8-1.8,1.7-4.7-0.1-6.5C35.8,92,32.9,92,31.2,93.8z" />
			</g>
		</g>
	</g>
	<g id="clm">
		<title>clm</title>
		<g>
			<g id="Calque_1-2_5_">
				<path className="clm" d="M4,121.7c4.1-4.2,10.9-4.3,15.1-0.1s4.3,10.9,0.1,15.1c-4.1,4.2-10.9,4.3-15.1,0.1S-0.2,125.9,4,121.7z
				 M8.4,126c-1.8,1.8-1.7,4.7,0.1,6.5s4.7,1.7,6.5-0.1c1.8-1.8,1.7-4.7-0.1-6.5C13,124.1,10.1,124.2,8.4,126z" />
			</g>
		</g>
	</g>
	<g id="cld">
		<title>cld</title>
		<g>
			<g id="Calque_1-2_6_">
				<path className="cld" d="M42.8,240.6c5.3-5.4,13.9-5.5,19.3-0.2s5.5,13.9,0.2,19.3c-5.3,5.4-13.9,5.5-19.3,0.2
				C37.6,254.6,37.5,246,42.8,240.6z M47.1,244.9c-2.9,3-2.9,7.8,0.1,10.7c3,2.9,7.8,2.9,10.7-0.1c2.9-3,2.9-7.8-0.1-10.7
				c0,0,0,0,0,0C54.8,241.9,50,241.9,47.1,244.9z" />
			</g>
		</g>
	</g>
	<g id="maillage">
		<path className="maille" d="M145.3,121.1l6.2,16.8l3.4-1l-6.2-17.3L145.3,121.1z M129.2,118.7l0.2-0.2l-2.9-2.6l-21.1,26.9l3.1,1.9
		L129.2,118.7z M122.2,103.1l-23.3-0.5l-0.2,3.6h23.8L122.2,103.1z M127.3,92.1l-29.8-25L95.1,70l30,25.2L127.3,92.1z M137.6,87.1
		l-5-13.7l-3.4,1.2L134,88L137.6,87.1z M142.9,30.7l-0.7-6L94.6,44.3l4.1,5L142.9,30.7z M179.1,59.2l-11.8-18.7l-3.6,1.4l12,18.5
		L179.1,59.2z M224.7,43.1l-47.8-18.5l-0.7,6l44.6,17.3L224.7,43.1z M219.9,61.9h-0.2l-19,7.2l1,3.4l19.4-7.4L219.9,61.9z
		 M222.8,104.3l8.2-31.9l-3.1-1.2h-0.2l-8.4,32.2L222.8,104.3z M209.8,105.1l-13-16.6l-3.6,2.4l13.9,16.8L209.8,105.1z M230.5,118.3
		l-1.2,3.6l22.1,6.2l1.4-3.4L230.5,118.3z M229.3,159.8l24-19.4l-1.4-3.8l-24.5,19.9L229.3,159.8z M263.8,149l-16.3,45.6l4.8,4.3
		l17.8-49.4L263.8,149z M269.6,114.4l-19.9-47l-5.5,3.8l19,43.9L269.6,114.4z M75.4,72.9l-5.5-3.8l-18.7,47.3l6.2,1.2L75.4,72.9z
		 M88.4,115.4l5.3,26.4l3.4-0.5l-5-26.2L88.4,115.4z M67.3,143.2l17.3,8.6l1.2-3.1l-16.8-9.1L67.3,143.2z M88.6,192.9l3.1,1.4
		l4.8-24l-3.4-0.2L88.6,192.9z M51.2,151.9l20.4,47l4.6-4.1l-19-43.9L51.2,151.9z M140.2,185.2l3.4,1.4l8.6-16.8l-3.4-1.2
		L140.2,185.2z M97.3,223.4l46.6,16.1l1.9-6l-45.1-15.4L97.3,223.4z M168.3,168.9l-3.1,1.9l12.7,25.2l3.4-1.9L168.3,168.9z
		 M175.7,159.3l20.4,5.5l0.7-3.6l-20.2-5.3L175.7,159.3z M178.9,239.2l-0.5,6.5l51.6-21.4l-5.8-4.3L178.9,239.2z" />
	</g>
	<g id="ccb_1_">
		<title>crt</title>
		<g>
			<g id="Calque_1-2_7_">
				<path className="ccb" d="M171.8,166.4c-7,7.1-18.4,7.2-25.5,0.2c-7.1-7-7.2-18.4-0.2-25.5c7-7.1,18.4-7.2,25.5-0.2
				C178.7,147.9,178.8,159.3,171.8,166.4z M166.1,160.8c3.9-3.9,3.8-10.2-0.1-14.1c-3.9-3.9-10.2-3.8-14.1,0.1
				c-3.9,3.9-3.8,10.2,0.1,14.1C155.9,164.8,162.2,164.7,166.1,160.8z" />
			</g>
		</g>
	</g>
	<g id="ccb_2_">
		<title>crt</title>
		<g>
			<g id="Calque_1-2_8_">
				<path className="ccb" d="M153.5,116.8c-7,7.1-18.4,7.2-25.5,0.2c-7.1-7-7.2-18.4-0.2-25.5c7-7.1,18.4-7.2,25.5-0.2
				C160.3,98.3,160.5,109.7,153.5,116.8z M147.7,111.2c3.9-3.9,3.8-10.2-0.1-14.1s-10.2-3.8-14.1,0.1c-3.9,3.9-3.8,10.2,0.1,14.1
				C137.5,115.2,143.8,115.1,147.7,111.2z" />
			</g>
		</g>
	</g>
	<g id="ccb_3_">
		<title>crt</title>
		<g>
			<g id="Calque_1-2_9_">
				<path className="ccb" d="M197.5,87.8c-7,7.1-18.4,7.2-25.5,0.2c-7.1-7-7.2-18.4-0.2-25.5s18.4-7.2,25.5-0.2
				C204.3,69.3,204.5,80.7,197.5,87.8z M191.7,82.2c3.9-3.9,3.8-10.2-0.1-14.1s-10.2-3.8-14.1,0.1c-3.9,3.9-3.8,10.2,0.1,14.1
				C181.5,86.2,187.8,86.1,191.7,82.2z" />
			</g>
		</g>
	</g>
	<g id="ccb_4_">
		<title>crt</title>
		<g>
			<g id="Calque_1-2_10_">
				<path className="ccb" d="M145.5,212.8c-7,7.1-18.4,7.2-25.5,0.2c-7.1-7-7.2-18.4-0.2-25.5c7-7.1,18.4-7.2,25.5-0.2
				C152.3,194.3,152.5,205.7,145.5,212.8z M139.7,207.2c3.9-3.9,3.8-10.2-0.1-14.1c-3.9-3.9-10.2-3.8-14.1,0.1
				c-3.9,3.9-3.8,10.2,0.1,14.1C129.5,211.2,135.8,211.1,139.7,207.2z" />
			</g>
		</g>
	</g>
	<g id="cb_8_">
		<title>crt</title>
		<g>
			<g id="Calque_1-2_11_">
				<path className="cb" d="M97.5,222.8c-7,7.1-18.4,7.2-25.5,0.2c-7.1-7-7.2-18.4-0.2-25.5c7-7.1,18.4-7.2,25.5-0.2
				C104.3,204.3,104.5,215.7,97.5,222.8z M91.7,217.2c3.9-3.9,3.8-10.2-0.1-14.1c-3.9-3.9-10.2-3.8-14.1,0.1
				c-3.9,3.9-3.8,10.2,0.1,14.1C81.5,221.2,87.8,221.1,91.7,217.2z" />
			</g>
		</g>
	</g>
	<g id="cb_7_">
		<title>crt</title>
		<g>
			<g id="Calque_1-2_12_">
				<path className="cb" d="M64.5,146.8c-7,7.1-18.4,7.2-25.5,0.2s-7.2-18.4-0.2-25.5c7-7.1,18.4-7.2,25.5-0.2
				C71.3,128.3,71.5,139.7,64.5,146.8z M58.7,141.2c3.9-3.9,3.8-10.2-0.1-14.1c-3.9-3.9-10.2-3.8-14.1,0.1
				c-3.9,3.9-3.8,10.2,0.1,14.1C48.5,145.2,54.8,145.1,58.7,141.2z" />
			</g>
		</g>
	</g>
	<g id="cb_6_">
		<title>crt</title>
		<g>
			<g id="Calque_1-2_13_">
				<path className="cb" d="M95.5,69.8C88.5,76.9,77.1,77,70,70c-7.1-7-7.2-18.4-0.2-25.5c7-7.1,18.4-7.2,25.5-0.2
				C102.3,51.3,102.5,62.7,95.5,69.8z M89.7,64.2c3.9-3.9,3.8-10.2-0.1-14.1c-3.9-3.9-10.2-3.8-14.1,0.1c-3.9,3.9-3.8,10.2,0.1,14.1
				C79.5,68.2,85.8,68.1,89.7,64.2z" />
			</g>
		</g>
	</g>
	<g id="cb_5_">
		<title>crt</title>
		<g>
			<g id="Calque_1-2_14_">
				<path className="cb" d="M172.5,36.8c-7,7.1-18.4,7.2-25.5,0.2c-7.1-7-7.2-18.4-0.2-25.5s18.4-7.2,25.5-0.2
				C179.3,18.3,179.5,29.7,172.5,36.8z M166.7,31.2c3.9-3.9,3.8-10.2-0.1-14.1s-10.2-3.8-14.1,0.1c-3.9,3.9-3.8,10.2,0.1,14.1
				C156.5,35.2,162.8,35.1,166.7,31.2z" />
			</g>
		</g>
	</g>
	<g id="cb_4_">
		<title>crt</title>
		<g>
			<g id="Calque_1-2_15_">
				<path className="cb"
					d="M249.5,67.8c-7,7.1-18.4,7.2-25.5,0.2c-7.1-7-7.2-18.4-0.2-25.5s18.4-7.2,25.5-0.2S256.5,60.7,249.5,67.8z
				 M243.7,62.2c3.9-3.9,3.8-10.2-0.1-14.1s-10.2-3.8-14.1,0.1c-3.9,3.9-3.8,10.2,0.1,14.1C233.5,66.2,239.8,66.1,243.7,62.2z" />
			</g>
		</g>
	</g>
	<g id="cb_3_">
		<title>crt</title>
		<g>
			<g id="Calque_1-2_16_">
				<path className="cb" d="M282.5,144.8c-7,7.1-18.4,7.2-25.5,0.2c-7.1-7-7.2-18.4-0.2-25.5c7-7.1,18.4-7.2,25.5-0.2
				C289.3,126.3,289.5,137.7,282.5,144.8z M276.7,139.2c3.9-3.9,3.8-10.2-0.1-14.1c-3.9-3.9-10.2-3.8-14.1,0.1
				c-3.9,3.9-3.8,10.2,0.1,14.1C266.5,143.2,272.8,143.1,276.7,139.2z" />
			</g>
		</g>
	</g>
	<g id="cb_2_">
		<title>crt</title>
		<g>
			<g id="Calque_1-2_17_">
				<path className="cb" d="M251.5,222.8c-7,7.1-18.4,7.2-25.5,0.2c-7.1-7-7.2-18.4-0.2-25.5c7-7.1,18.4-7.2,25.5-0.2
				S258.5,215.7,251.5,222.8z M245.7,217.2c3.9-3.9,3.8-10.2-0.1-14.1c-3.9-3.9-10.2-3.8-14.1,0.1c-3.9,3.9-3.8,10.2,0.1,14.1
				C235.5,221.2,241.8,221.1,245.7,217.2z" />
			</g>
		</g>
	</g>
	<g id="cb_1_">
		<title>crt</title>
		<g>
			<g id="Calque_1-2_18_">
				<path className="cb" d="M174.5,251.8c-7,7.1-18.4,7.2-25.5,0.2c-7.1-7-7.2-18.4-0.2-25.5c7-7.1,18.4-7.2,25.5-0.2
				C181.3,233.3,181.5,244.7,174.5,251.8z M168.7,246.2c3.9-3.9,3.8-10.2-0.1-14.1c-3.9-3.9-10.2-3.8-14.1,0.1
				c-3.9,3.9-3.8,10.2,0.1,14.1C158.5,250.2,164.8,250.1,168.7,246.2z" />
			</g>
		</g>
	</g>
	<g id="cb">
		<title>crt</title>
		<g>
			<g id="Calque_1-2_19_">
				<path className="ccb" d="M226.5,180.8c-7,7.1-18.4,7.2-25.5,0.2c-7.1-7-7.2-18.4-0.2-25.5c7-7.1,18.4-7.2,25.5-0.2
				C233.3,162.3,233.5,173.7,226.5,180.8z M220.7,175.2c3.9-3.9,3.8-10.2-0.1-14.1c-3.9-3.9-10.2-3.8-14.1,0.1
				c-3.9,3.9-3.8,10.2,0.1,14.1C210.5,179.2,216.8,179.1,220.7,175.2z" />
			</g>
		</g>
	</g>
	<g id="ccl">
		<title>crd</title>
		<g>
			<g id="Calque_1-2_20_">
				<path className="ccl" d="M191.3,211.6c-4.1,4.2-10.9,4.3-15.1,0.2c-4.2-4.1-4.3-10.9-0.2-15.1c4.1-4.2,10.9-4.3,15.1-0.1
				C195.3,200.7,195.4,207.5,191.3,211.6L191.3,211.6z M186.9,207.4c1.8-1.8,1.7-4.7-0.1-6.5c-1.8-1.8-4.7-1.7-6.5,0.1
				c-1.8,1.8-1.7,4.7,0.1,6.5C182.3,209.2,185.2,209.2,186.9,207.4z" />
			</g>
		</g>
	</g>
	<g id="ccl_1_">
		<title>crd</title>
		<g>
			<g id="Calque_1-2_21_">
				<path className="ccl" d="M96.3,112.6c-4.1,4.2-10.9,4.3-15.1,0.2c-4.2-4.1-4.3-10.9-0.2-15.1c4.1-4.2,10.9-4.3,15.1-0.1
				S100.4,108.5,96.3,112.6L96.3,112.6z M91.9,108.4c1.8-1.8,1.7-4.7-0.1-6.5c-1.8-1.8-4.7-1.7-6.5,0.1c-1.8,1.8-1.7,4.7,0.1,6.5
				C87.3,110.2,90.2,110.2,91.9,108.4z" />
			</g>
		</g>
	</g>
	<g id="ccm">
		<title>cld</title>
		<g>
			<g id="Calque_1-2_22_">
				<path className="ccm" d="M206.9,107.6c5.3-5.4,13.9-5.5,19.3-0.2c5.4,5.3,5.5,13.9,0.2,19.3c-5.3,5.4-13.9,5.5-19.3,0.2
				C201.7,121.6,201.6,113,206.9,107.6z M211.2,111.9c-2.9,3-2.9,7.8,0.1,10.7c3,2.9,7.8,2.9,10.7-0.1s2.9-7.8-0.1-10.7c0,0,0,0,0,0
				C218.9,108.9,214.2,108.9,211.2,111.9z" />
			</g>
		</g>
	</g>
	<g id="ccm_1_">
		<title>cld</title>
		<g>
			<g id="Calque_1-2_23_">
				<path className="ccm" d="M88.2,145.5c5.8-5.9,15.2-6,21.1-0.2c5.9,5.8,6,15.2,0.2,21.1s-15.2,6-21.1,0.2
				C82.6,160.8,82.5,151.4,88.2,145.5z M93,150.1c-3.2,3.3-3.1,8.5,0.1,11.7c3.3,3.2,8.5,3.1,11.7-0.1s3.1-8.5-0.1-11.7c0,0,0,0,0,0
				C101.4,146.8,96.2,146.9,93,150.1z" />
			</g>
		</g>
	</g>
	<g id="ccm_2_">
		<title>cld</title>
		<g>
			<g id="Calque_1-2_24_">
				<path className="ccm" d="M116,49.7c5.8-5.9,15.2-6,21.1-0.2c5.9,5.8,6,15.2,0.2,21.1s-15.2,6-21.1,0.2
				C110.3,65.1,110.2,55.6,116,49.7z M120.7,54.4c-3.2,3.3-3.1,8.5,0.1,11.7s8.5,3.1,11.7-0.1c3.2-3.3,3.1-8.5-0.1-11.7c0,0,0,0,0,0
				C129.1,51.1,123.9,51.2,120.7,54.4z" />
			</g>
		</g>
	</g>
</svg>