<?xml version="1.0" encoding="utf-8"?>
<!-- Generator: Adobe Illustrator 23.0.6, SVG Export Plug-In . SVG Version: 6.00 Build 0)  -->
<svg version="1.1" id="Calque_1" xmlns="http://www.w3.org/2000/svg" xmlns:xlink="http://www.w3.org/1999/xlink" x="0px" y="0px"
	 viewBox="0 0 100 85.7" style="enable-background:new 0 0 100 85.7;" xml:space="preserve">
<style type="text/css">
	.st0{fill:#FFFFFF;}
</style>
<title>theatre</title>
<g>
	<g id="Layer_1">
		<g>
			<g>
				<path class="st0" d="M26.7,54.8c3.3,12.4,11.7,21,18.6,19.1c2.5-0.8,4.6-2.6,5.7-5c-0.8-0.6-1.5-1.3-2.1-2.1L48.8,67
					c-0.4,0.4-0.8,0.8-1.2,1.2c-0.2,0.2-0.5,0.4-0.7,0.5c-0.1,0.1-0.2,0.2-0.4,0.3l-0.4,0.2l-0.4,0.2l-0.2,0.1l-0.2,0.1l-0.8,0.3
					h-0.1h-0.1h-0.1h-0.2L43.4,70c-0.3,0.1-0.6,0.1-0.9,0.1H42c-0.2,0-0.3,0-0.5,0c-0.3,0-0.6,0-0.9-0.1c-0.5-0.1-1.1-0.2-1.6-0.4
					l-0.7-0.3l-0.6-0.3c-0.4-0.2-0.7-0.4-1-0.7c-0.1-0.1-0.3-0.2-0.4-0.3L36,67.6c-0.3-0.4-0.5-0.6-0.5-0.6s0.3,0.1,0.8,0.3l0.4,0.2
					c0.2,0,0.3,0.1,0.5,0.1c0.4,0.1,0.7,0.2,1.1,0.3l0.6,0.1l0.7,0.1c0.5,0.1,0.9,0.1,1.4,0.1c0.5,0,1,0,1.5-0.1
					c0.2,0,0.4-0.1,0.7-0.1l0.4-0.1h0.2h0.1h0.1l0.8-0.3l0.2-0.1l0.2-0.1l0.3-0.1c0.4-0.2,0.9-0.4,1.3-0.7c0.4-0.3,0.8-0.5,1.2-0.8
					l0.4-0.3c-1-1.6-1.7-3.4-2.2-5.3c-0.4-1.5-0.6-2.9-0.7-4.4c-0.2-0.1-0.4-0.1-0.6-0.2c-0.3-0.1-0.6-0.3-0.9-0.5
					c-0.1-0.1-0.2-0.1-0.3-0.2l-0.1-0.1v-0.1c0-0.1,0.1-0.2,0.1-0.3c0.1-0.3,0.3-0.6,0.5-0.9c0.3-0.3,0.5-0.6,0.9-0.8l0.2-0.1
					c0-1.9,0.2-3.9,0.5-5.8c-1.9,1.5-4.1,2.6-6.4,3.2c-5,1.4-10,0.5-13.3-1.8C25.8,50.4,26.1,52.6,26.7,54.8z M31.4,57.9
					c0-0.1,0.1-0.2,0.1-0.3c0.2-0.3,0.3-0.6,0.5-0.9c0.3-0.3,0.5-0.6,0.9-0.8c0.3-0.2,0.7-0.4,1.1-0.5c0.4-0.1,0.8-0.2,1.2-0.1
					c0.4,0,0.8,0.1,1.2,0.3c0.2,0.1,0.3,0.2,0.5,0.3c0.2,0.1,0.3,0.2,0.4,0.2c0.1,0.1,0.2,0.1,0.3,0.2l0.1,0.1v0.1
					c0,0.1-0.1,0.2-0.1,0.3c-0.1,0.1-0.1,0.3-0.2,0.4c-0.1,0.2-0.2,0.3-0.3,0.5c-0.2,0.3-0.5,0.6-0.9,0.8c-0.3,0.2-0.7,0.4-1.1,0.5
					c-0.4,0.1-0.8,0.1-1.2,0.1c-0.4,0-0.8-0.1-1.2-0.3c-0.3-0.1-0.6-0.3-0.9-0.5c-0.1-0.1-0.2-0.1-0.3-0.2L31.3,58L31.4,57.9z"/>
				<path class="st0" d="M54.6,68.8c7,1.9,15.3-6.7,18.7-19.1c0.6-2.2,1-4.4,1.1-6.7c-3.3,2.4-8.3,3.2-13.3,1.8s-9-4.6-10.6-8.3
					c-1,2-1.9,4.1-2.4,6.3C44.7,55.3,47.7,66.9,54.6,68.8z M62.4,51.1c0.1,0,0.2-0.1,0.3-0.2c0.3-0.2,0.6-0.4,0.9-0.5
					c0.4-0.1,0.8-0.2,1.2-0.3c0.4,0,0.8,0,1.2,0.1c0.4,0.1,0.8,0.3,1.1,0.5c0.3,0.2,0.6,0.5,0.9,0.8c0.1,0.1,0.2,0.3,0.3,0.5
					c0.1,0.1,0.2,0.3,0.2,0.4c0,0.1,0.1,0.2,0.1,0.3v0.1L68.5,53c-0.1,0.1-0.2,0.1-0.3,0.2c-0.1,0.1-0.3,0.2-0.4,0.3
					c-0.2,0.1-0.3,0.2-0.5,0.2c-0.4,0.2-0.8,0.2-1.2,0.3c-0.4,0-0.8,0-1.2-0.1c-0.4-0.1-0.8-0.3-1.1-0.5c-0.3-0.2-0.6-0.5-0.9-0.8
					c-0.2-0.3-0.4-0.6-0.5-0.9c0-0.1-0.1-0.2-0.1-0.3L62.4,51.1L62.4,51.1z M50.5,47.9c0.1,0,0.2-0.1,0.3-0.2
					c0.3-0.2,0.6-0.3,0.9-0.5c0.4-0.1,0.8-0.2,1.2-0.2c0.4,0,0.8,0,1.2,0.1c0.4,0.1,0.8,0.3,1.1,0.5c0.3,0.2,0.6,0.5,0.9,0.8
					c0.1,0.1,0.2,0.3,0.3,0.5c0.1,0.1,0.2,0.3,0.2,0.4c0.1,0.1,0.1,0.2,0.1,0.3v0.1l-0.1,0.1c-0.1,0.1-0.2,0.1-0.3,0.2
					c-0.1,0.1-0.3,0.2-0.4,0.2c-0.2,0.1-0.3,0.2-0.5,0.3c-0.4,0.1-0.8,0.2-1.2,0.3c-0.4,0-0.8,0-1.2-0.1c-0.4-0.1-0.7-0.3-1.1-0.6
					c-0.3-0.2-0.6-0.5-0.9-0.8c-0.2-0.3-0.4-0.6-0.5-0.9c-0.1-0.1-0.1-0.2-0.1-0.3C50.4,48.1,50.4,48,50.5,47.9L50.5,47.9z M50,61.2
					c-0.2,0.1-0.3,0.1-0.5,0.1l-0.4,0.2c-0.5,0.2-0.8,0.3-0.8,0.3s0.2-0.2,0.5-0.6l0.3-0.3c0.1-0.1,0.3-0.2,0.4-0.3
					c0.3-0.3,0.6-0.5,1-0.7l0.6-0.4l0.7-0.3c0.5-0.2,1.1-0.4,1.6-0.5c0.3,0,0.6-0.1,0.9-0.1s0.3,0,0.5,0h0.5c0.6,0,1.3,0.1,1.9,0.3
					l0.9,0.3l0.2,0.1l0.2,0.1l0.4,0.2l0.4,0.2c0.1,0.1,0.3,0.2,0.4,0.3c0.3,0.2,0.5,0.3,0.7,0.5c0.4,0.4,0.8,0.8,1.2,1.2
					c0.2,0.2,0.3,0.4,0.5,0.6l0.4,0.6c0.2,0.4,0.4,0.7,0.5,1.1c0.1,0.2,0.1,0.3,0.2,0.5s0.1,0.3,0.1,0.4c0.1,0.5,0.2,0.8,0.2,0.8
					s-0.2-0.2-0.5-0.6l-0.3-0.3l-0.3-0.3c-0.3-0.3-0.5-0.5-0.8-0.8l-0.5-0.4l-0.5-0.4c-0.3-0.3-0.8-0.5-1.2-0.8s-0.9-0.5-1.3-0.7
					l-0.3-0.1l-0.2-0.1l-0.2-0.1l-0.8-0.3c-1-0.2-2-0.3-3-0.3c-0.5,0-1,0-1.4,0.1l-0.7,0.1L51,60.9C50.7,61,50.3,61.1,50,61.2z"/>
			</g>
			<path class="st0" d="M95.2,45.3c1.2-0.2,2.3-0.9,3-1.9c0.5-0.7,0.9-1.4,1.1-2.2c0.2-0.8,0.4-1.6,0.5-2.4c0.1-0.9,0.1-1.8,0.1-2.6
				c-0.5,0-1.1,0.2-1.5,0.4c-1.1,0.5-2.1,1.3-2.7,2.4c-0.4,0.6-0.8,1.3-1,2.1c-0.1,0.4-0.3,0.8-0.4,1.1c0.1-1.3,0.1-2.7,0.1-4
				l-0.1-1.6c0.4-0.1,0.8-0.2,1.2-0.3c1.2-0.5,2.1-1.4,2.6-2.5c0.6-1.5,0.9-3.2,0.7-4.8c0-0.7-0.1-1.3-0.3-2
				c-0.1-0.5-0.2-0.7-0.2-0.7c-0.5,0.2-1,0.4-1.4,0.7c-1,0.7-1.8,1.7-2.2,2.8c-0.3,0.7-0.4,1.4-0.5,2.2c0,0.4-0.1,0.8-0.1,1.2l0,0
				c-0.3-1.9-0.6-3.7-1.1-5.5c0.9-0.3,1.7-0.9,2.3-1.6c0.4-0.6,0.7-1.2,0.8-1.9c0.2-0.8,0.2-1.6,0.2-2.5c-0.1-0.8-0.2-1.6-0.4-2.4
				c-0.2-0.6-0.4-1.2-0.6-1.8c-0.2-0.4-0.3-0.7-0.3-0.7c-0.5,0.3-0.9,0.6-1.3,1c-0.4,0.4-0.7,0.8-0.9,1.3c-0.3,0.6-0.5,1.2-0.6,1.9
				c-0.1,0.8-0.2,1.5-0.1,2.3c0,0.4,0.1,0.8,0.1,1.2c0-0.1-0.1-0.2-0.1-0.3c-0.1-0.5-0.3-0.9-0.5-1.4c-0.1-0.2-0.2-0.5-0.3-0.7
				c-0.3-0.7-0.5-1.3-0.8-2l-0.4-0.9c0.3-0.2,0.7-0.5,0.9-0.8c0.4-0.4,0.7-0.8,0.9-1.3c0.3-0.6,0.5-1.3,0.5-2c0-0.8-0.1-1.7-0.3-2.4
				c-0.2-0.8-0.5-1.5-0.9-2.2c-0.3-0.6-0.6-1.1-1-1.6l-0.4-0.6c-0.4,0.3-0.7,0.8-1,1.2c-0.6,1-1,2.2-0.9,3.5c0,0.8,0.1,1.5,0.3,2.3
				c0.1,0.4,0.2,0.8,0.3,1.2c-1-1.6-2-3.2-3.2-4.7c0.3-0.3,0.5-0.6,0.8-0.9c0.3-0.5,0.5-1,0.7-1.5c0.1-0.7,0.1-1.3,0-2
				c-0.1-0.8-0.4-1.6-0.8-2.3c-0.4-0.7-0.8-1.4-1.3-2c-0.4-0.5-0.8-1-1.3-1.4c-0.3-0.3-0.6-0.5-0.6-0.5c-0.3,0.4-0.6,0.9-0.8,1.4
				c-0.4,1.1-0.5,2.4-0.1,3.5c0.2,0.7,0.4,1.5,0.8,2.1l0.5,1c-0.7-0.8-1.5-1.6-2.3-2.3l-0.1-0.1c-0.1-0.4-0.3-0.9-0.5-1.3
				c-0.3-0.7-0.7-1.3-1.1-1.9c-0.5-0.7-1.2-1.3-1.8-1.8c-0.7-0.5-1.5-0.9-2.3-1.2c-0.7-0.3-1.4-0.4-2.1-0.5C72.1,0,71.4,0,70.7,0
				c0.3,0.6,0.7,1.2,1.1,1.7c0.4,0.5,0.8,1,1.3,1.6c0.5,0.6,1.1,1.1,1.8,1.6c0.6,0.5,1.3,0.9,2,1.2c0.6,0.3,1.2,0.6,1.9,0.8
				C79.3,7,79.7,7.1,80,7.2l0.2,0.2c0.8,0.7,1.5,1.5,2.3,2.3c-0.3-0.2-0.6-0.5-1-0.6c-0.7-0.3-1.4-0.6-2.1-0.7
				c-1.2-0.2-2.3,0.1-3.3,0.7c-0.4,0.3-0.8,0.6-1.2,1c0,0,0.2,0.1,0.4,0.4s0.7,0.5,1.2,0.8c0.5,0.4,1.1,0.7,1.6,1
				c0.6,0.3,1.3,0.6,1.9,0.7c0.6,0.1,1.3,0.2,1.9,0.1c0.5,0,1-0.2,1.5-0.3c0.4-0.1,0.7-0.3,1.1-0.5c1.1,1.5,2.2,3,3.1,4.6
				c-0.2-0.3-0.5-0.5-0.8-0.8c-0.6-0.5-1.2-0.8-1.9-1.1c-1.1-0.4-2.3-0.4-3.4,0c-0.5,0.2-1,0.4-1.4,0.7c0,0,0.1,0.2,0.4,0.4
				c0.2,0.3,0.6,0.6,1,1c0.4,0.5,0.9,0.9,1.4,1.3c0.5,0.4,1.1,0.8,1.7,1.1c0.6,0.3,1.2,0.4,1.8,0.5c0.5,0.1,1,0.1,1.6,0
				c0.4-0.1,0.8-0.2,1.2-0.3l0.4,0.9c0.3,0.6,0.6,1.2,0.8,1.9c0.1,0.2,0.2,0.5,0.3,0.7c0.2,0.4,0.3,0.9,0.5,1.3
				c0,0.1,0.1,0.2,0.1,0.3c-0.2-0.3-0.4-0.6-0.7-0.9c-0.5-0.6-1-1.1-1.6-1.5c-0.5-0.3-1.2-0.6-1.8-0.7c-0.5-0.1-1-0.1-1.6,0
				c-0.5,0.1-1,0.2-1.5,0.5c0,0,0.1,0.2,0.3,0.5s0.5,0.7,0.8,1.2c0.3,0.5,0.7,1.1,1.1,1.5c0.4,0.5,0.9,1,1.5,1.4
				c0.5,0.4,1.1,0.6,1.7,0.8c0.5,0.2,1,0.3,1.5,0.3c0.4,0,0.8,0,1.2,0c0.5,1.8,0.8,3.6,1.1,5.4c-0.1-0.3-0.3-0.7-0.4-1
				c-0.3-0.7-0.8-1.3-1.3-1.8c-0.9-0.8-2-1.3-3.2-1.3c-0.5,0-1,0-1.6,0.1c0,0,0,0.2,0.2,0.6s0.3,0.8,0.5,1.4c0.5,1.2,1.1,2.4,2,3.4
				c0.8,0.9,1.9,1.5,3,1.8c0.4,0.1,0.8,0.2,1.2,0.2l0.1,1.6c0,1.3,0,2.7-0.1,4c-0.1-0.4-0.2-0.7-0.3-1.1c-0.2-0.7-0.5-1.4-0.9-2
				c-0.7-1-1.7-1.7-2.8-2c-0.5-0.1-1-0.2-1.6-0.2c0,0.7,0.1,1.3,0.3,2c0.1,0.6,0.2,1.3,0.4,1.9c0.2,0.7,0.5,1.3,0.8,1.9
				c0.6,1,1.5,1.8,2.5,2.3c0.4,0.2,0.7,0.3,1.1,0.4c-0.3,1.8-0.7,3.6-1.2,5.4c0-0.4,0-0.8,0-1.1c0-0.7-0.2-1.5-0.5-2.2
				c-0.5-1.1-1.3-1.9-2.4-2.4c-0.5-0.2-1-0.4-1.5-0.5c0,0,0,0.2-0.1,0.6c-0.1,0.5-0.1,1-0.1,1.4c-0.1,0.6-0.1,1.3,0,1.9
				c0,0.7,0.2,1.4,0.4,2c0.4,1.1,1.1,2.1,2,2.8c0.3,0.2,0.6,0.5,1,0.7c-0.6,1.7-1.4,3.4-2.3,5c0.1-0.4,0.2-0.7,0.2-1.1
				c0.1-0.7,0.1-1.5,0-2.2c-0.2-1.1-0.9-2.1-1.8-2.8c-0.4-0.3-0.9-0.6-1.4-0.8c-0.2,0.6-0.4,1.3-0.6,1.9c-0.2,0.6-0.3,1.2-0.3,1.9
				c-0.1,0.7-0.1,1.4,0,2c0.2,1.2,0.6,2.2,1.4,3.1c0.3,0.3,0.5,0.6,0.9,0.8c-1,1.6-2,3.1-3.2,4.5c0.5-1,0.8-2.1,0.8-3.2
				c0-1.2-0.4-2.3-1.2-3.2c-0.3-0.4-0.7-0.7-1.2-1c0,0-0.1,0.2-0.3,0.5s-0.4,0.8-0.7,1.3c-0.6,1.2-1,2.5-1.1,3.8
				c-0.1,1.6,0.4,3.1,1.4,4.3l-0.9,0.9c-1,1-2.1,2-3.1,2.8l0,0c0.2-0.3,0.4-0.6,0.6-0.9c0.2-0.3,0.4-0.7,0.5-1
				c0.1-0.3,0.2-0.7,0.3-1c0.2-1.2,0-2.4-0.6-3.4c-0.3-0.5-0.6-0.9-1-1.3c0,0-0.2,0.2-0.4,0.4s-0.6,0.7-0.9,1.1
				c-0.2,0.2-0.3,0.5-0.5,0.8s-0.4,0.5-0.5,0.8c-0.2,0.3-0.3,0.6-0.5,0.9c-0.1,0.3-0.3,0.7-0.3,1c-0.3,1.1-0.3,2.3,0.1,3.4
				c0.1,0.4,0.3,0.8,0.5,1.1c-1.5,1.1-3.1,2-4.7,2.9c0.9-0.7,1.6-1.6,2.1-2.6c0.5-1.1,0.5-2.3,0.1-3.4c-0.2-0.5-0.4-1-0.7-1.4
				l-0.5,0.3c-0.3,0.2-0.7,0.5-1.1,0.9c-1,0.8-1.9,1.9-2.5,3c-0.3,0.6-0.5,1.2-0.6,1.8c-0.1,0.5-0.1,1,0,1.6c0,0.4,0.1,0.8,0.2,1.2
				l-1,0.4c-1.4,0.6-2.8,1.1-4.2,1.5c0.3-0.2,0.6-0.4,0.9-0.6c0.6-0.4,1.1-1,1.6-1.6c0.7-1,1-2.2,0.8-3.3c-0.1-0.5-0.2-1-0.4-1.5
				l-0.5,0.3c-0.4,0.2-0.9,0.4-1.3,0.7c-1.2,0.6-2.2,1.5-3.1,2.5c-0.7,0.9-1.2,2-1.3,3.2c0,0.4,0,0.8,0,1.2
				c-1.6,0.3-3.1,0.6-4.4,0.7c-1.7,0.2-2.7,0.2-3.4,0.2h-1.2h-1.2c-0.7,0-1.8-0.1-3.4-0.2c-1.4-0.2-2.8-0.4-4.5-0.7
				c0-0.4,0-0.8,0-1.2c-0.1-1.2-0.6-2.3-1.3-3.2c-0.9-1-1.9-1.8-3.1-2.5c-0.5-0.3-1-0.5-1.3-0.7l-0.5-0.3c-0.2,0.5-0.3,1-0.4,1.5
				c-0.1,1.2,0.1,2.3,0.8,3.3c0.5,0.6,1,1.1,1.6,1.5c0.3,0.2,0.6,0.4,0.9,0.6c-1.4-0.4-2.9-0.9-4.2-1.5l-1-0.4
				c0.1-0.4,0.2-0.8,0.2-1.2c0.1-1.2-0.1-2.3-0.6-3.4c-0.7-1.1-1.5-2.2-2.5-3c-0.4-0.4-0.8-0.7-1.1-0.9l-0.5-0.3
				c-0.3,0.4-0.5,0.9-0.7,1.4c-0.4,1.1-0.3,2.3,0.1,3.4c0.5,1,1.2,1.9,2.1,2.6c-1.6-0.9-3.2-1.8-4.7-2.9c0.2-0.4,0.3-0.7,0.5-1.1
				c0.3-1.1,0.4-2.3,0.1-3.4c-0.1-0.3-0.2-0.7-0.4-1c-0.1-0.3-0.3-0.6-0.4-0.9c-0.2-0.3-0.4-0.6-0.5-0.8s-0.4-0.5-0.5-0.8
				c-0.4-0.5-0.7-0.8-0.9-1.1s-0.4-0.4-0.4-0.4c-0.4,0.4-0.7,0.8-1,1.3c-0.6,1-0.8,2.2-0.5,3.4c0.1,0.3,0.2,0.7,0.3,1
				c0.1,0.3,0.3,0.7,0.5,1c0.2,0.3,0.4,0.6,0.6,0.9l0,0c-1-0.8-2.1-1.8-3.1-2.8l-0.9-0.9c1-1.2,1.5-2.8,1.4-4.3
				c-0.2-1.3-0.5-2.6-1.1-3.8c-0.3-0.5-0.5-1-0.6-1.3s-0.3-0.5-0.3-0.5c-0.4,0.3-0.8,0.6-1.2,1c-0.8,0.9-1.2,2.1-1.2,3.3
				c0,1.1,0.3,2.2,0.8,3.2c-1.2-1.4-2.2-2.9-3.2-4.5c0.3-0.2,0.6-0.5,0.9-0.8c0.8-0.9,1.2-2,1.4-3.1c0.1-0.7,0.1-1.4,0-2
				c-0.1-0.6-0.2-1.3-0.3-1.9c-0.1-0.7-0.3-1.3-0.6-1.9c-0.5,0.2-0.9,0.4-1.4,0.8c-0.9,0.7-1.6,1.7-1.8,2.9c-0.1,0.7-0.1,1.5,0,2.2
				c0.1,0.4,0.1,0.7,0.2,1.1c-0.9-1.6-1.6-3.3-2.3-5c0.4-0.2,0.7-0.4,1-0.7c0.9-0.7,1.6-1.7,2-2.8c0.2-0.6,0.4-1.3,0.4-2
				c0.1-0.6,0.1-1.3,0.1-1.9c0-0.6-0.1-1.1-0.1-1.4s-0.1-0.6-0.1-0.6c-0.5,0.1-1,0.3-1.5,0.5c-1.1,0.5-1.9,1.4-2.4,2.5
				c-0.3,0.7-0.4,1.4-0.5,2.2c0,0.4,0,0.7,0,1.1C7.4,49,7,47.2,6.8,45.4c0.4-0.1,0.8-0.2,1.1-0.4c1-0.5,1.9-1.3,2.5-2.3
				c0.4-0.6,0.6-1.2,0.8-1.9c0.2-0.6,0.3-1.2,0.4-1.8c0.1-0.7,0.2-1.3,0.3-2c-0.5,0-1.1,0-1.6,0.2C9.2,37.4,8.2,38,7.5,39
				c-0.4,0.6-0.7,1.3-0.9,2c-0.1,0.4-0.2,0.7-0.2,1.1c-0.1-1.3-0.1-2.7-0.1-4l0.1-1.6c0.4,0,0.8-0.1,1.2-0.2c1.1-0.3,2.2-0.9,3-1.7
				c0.9-1,1.5-2.2,2-3.4c0.2-0.5,0.4-1,0.5-1.4s0.2-0.5,0.2-0.5c-0.5-0.1-1-0.2-1.6-0.1c-1.2,0-2.3,0.5-3.2,1.3
				c-0.5,0.5-0.9,1.1-1.3,1.8c-0.2,0.3-0.3,0.7-0.4,1c0.3-1.8,0.6-3.6,1.1-5.4c0.4,0.1,0.8,0.1,1.2,0c0.5,0,1-0.1,1.5-0.3
				c0.6-0.2,1.2-0.5,1.7-0.8c0.5-0.4,1-0.9,1.5-1.4c0.4-0.5,0.8-1,1.1-1.5c0.3-0.5,0.6-0.9,0.8-1.2s0.3-0.5,0.3-0.5
				c-0.5-0.2-1-0.4-1.5-0.5c-0.5-0.1-1-0.1-1.6,0c-0.6,0.1-1.3,0.3-1.8,0.7c-0.6,0.4-1.2,0.9-1.6,1.5c-0.2,0.3-0.4,0.6-0.6,0.9
				c0-0.1,0.1-0.2,0.1-0.3c0.1-0.4,0.3-0.9,0.5-1.3c0.1-0.2,0.2-0.5,0.3-0.7c0.2-0.6,0.5-1.3,0.8-1.9l0.4-0.9
				c0.4,0.1,0.8,0.2,1.2,0.3c0.5,0.1,1,0.1,1.6,0c0.6-0.1,1.3-0.2,1.8-0.5c0.6-0.3,1.2-0.7,1.7-1.1c0.5-0.4,1-0.8,1.4-1.3
				c0.4-0.4,0.8-0.8,1-1.1s0.4-0.4,0.4-0.4c-0.4-0.3-0.9-0.6-1.4-0.8c-1.1-0.4-2.3-0.4-3.4,0c-0.7,0.3-1.4,0.7-2,1.2
				c-0.3,0.2-0.5,0.5-0.8,0.8c0.9-1.6,2-3.1,3.1-4.6c0.3,0.2,0.7,0.4,1.1,0.5c0.5,0.2,1,0.2,1.5,0.3c0.6,0.1,1.3,0,1.9-0.1
				c0.7-0.2,1.3-0.4,1.9-0.7c0.6-0.3,1.1-0.6,1.6-1c0.5-0.3,0.9-0.6,1.2-0.8s0.5-0.4,0.5-0.4c-0.3-0.4-0.8-0.7-1.2-1
				c-1-0.7-2.2-0.9-3.4-0.7c-0.7,0.1-1.4,0.4-2.1,0.7c-0.4,0.2-0.7,0.4-1,0.6c0.8-0.9,1.6-1.7,2.3-2.3l0.2-0.2
				c0.3-0.1,0.8-0.2,1.3-0.4C21.8,6.6,22.4,6.3,23,6c0.7-0.3,1.4-0.7,2-1.2c0.7-0.4,1.3-1,1.8-1.5c0.5-0.6,0.9-1.1,1.3-1.6
				C28.6,1.2,29,0.6,29.3,0c-0.7,0-1.4,0-2.1,0.1c-0.7,0.1-1.4,0.3-2.1,0.5c-0.8,0.3-1.6,0.7-2.3,1.2c-0.7,0.5-1.3,1.1-1.9,1.8
				c-0.4,0.6-0.8,1.2-1.1,1.8c-0.2,0.4-0.4,0.8-0.5,1.3l-0.1,0.1c-0.8,0.7-1.5,1.5-2.3,2.3l0.5-1c0.4-0.7,0.7-1.4,0.8-2.1
				c0.3-1.2,0.2-2.4-0.2-3.6c-0.2-0.5-0.4-1-0.8-1.4l-0.5,0.5c-0.5,0.4-0.9,0.9-1.3,1.4c-0.5,0.6-0.9,1.3-1.3,2
				c-0.4,0.7-0.7,1.5-0.8,2.3c-0.1,0.7-0.1,1.3,0,2c0.1,0.5,0.4,1,0.6,1.5c0.2,0.3,0.5,0.6,0.8,0.9c-1.2,1.5-2.2,3.1-3.2,4.7
				c0.1-0.4,0.2-0.8,0.3-1.2c0.2-0.7,0.4-1.4,0.4-2.2c0.1-1.2-0.3-2.4-0.9-3.5c-0.3-0.5-0.6-0.9-1-1.2c0,0-0.2,0.2-0.4,0.6
				c-0.4,0.5-0.7,1-1,1.6c-0.4,0.7-0.7,1.5-0.9,2.2c-0.2,0.8-0.4,1.6-0.3,2.4c0,0.7,0.2,1.4,0.4,2c0.2,0.5,0.6,0.9,0.9,1.3
				c0.3,0.3,0.6,0.5,0.9,0.8l-0.4,0.9c-0.3,0.6-0.6,1.3-0.9,2l-0.3,0.7c-0.2,0.4-0.4,0.9-0.5,1.3c0,0.1-0.1,0.2-0.1,0.3
				c0-0.4,0.1-0.8,0.1-1.2c0.1-0.8,0-1.6-0.1-2.4c-0.1-0.7-0.3-1.3-0.6-1.9c-0.3-0.5-0.6-0.9-0.9-1.3c-0.4-0.4-0.8-0.7-1.3-1
				c0,0-0.1,0.3-0.3,0.7c-0.3,0.6-0.5,1.2-0.6,1.8c-0.2,0.8-0.4,1.6-0.4,2.4c-0.1,0.8,0,1.7,0.2,2.5C4,24.8,4.3,25.4,4.7,26
				c0.3,0.4,0.7,0.8,1.2,1.1c0.3,0.2,0.7,0.4,1.1,0.6c-0.5,1.8-0.8,3.7-1.1,5.5l0,0c0-0.4-0.1-0.8-0.1-1.2c-0.1-0.8-0.3-1.5-0.6-2.2
				C4.8,28.7,4,27.7,3,27c-0.4-0.3-0.9-0.5-1.4-0.7c0,0-0.1,0.3-0.2,0.7c-0.1,0.6-0.2,1.2-0.3,1.9c-0.2,1.6,0.1,3.3,0.7,4.8
				c0.5,1.1,1.4,2,2.6,2.5c0.4,0.2,0.8,0.3,1.2,0.3l-0.1,1.6c0,1.3,0,2.7,0.1,4c-0.1-0.4-0.2-0.7-0.4-1.1c-0.2-0.7-0.6-1.4-1-2.1
				c-0.6-1-1.6-1.9-2.7-2.3c-0.5-0.2-1-0.3-1.6-0.4c0,0.9,0,1.7,0.1,2.6c0.1,0.8,0.3,1.6,0.5,2.4c0.3,0.8,0.6,1.5,1.1,2.2
				c0.7,1,1.8,1.7,3,1.9c0.4,0.1,0.8,0.1,1.2,0.1c0.3,1.9,0.7,3.7,1.3,5.6c-0.2-0.3-0.4-0.7-0.6-1c-0.4-0.7-0.9-1.3-1.4-1.8
				c-0.8-0.9-1.9-1.5-3.2-1.7c-0.5-0.1-1.1-0.1-1.6-0.1c0,0.2,0.1,0.4,0.1,0.7c0.1,0.5,0.3,1.1,0.5,1.8c0.3,0.8,0.6,1.5,1,2.2
				c0.4,0.7,0.9,1.4,1.5,2c0.9,0.8,2.1,1.3,3.3,1.3c0.4,0,0.8-0.1,1.2-0.2c0.7,1.8,1.4,3.5,2.3,5.2c-0.3-0.3-0.5-0.6-0.8-0.9
				c-0.5-0.6-1.1-1.1-1.7-1.5c-1-0.7-2.2-1.1-3.4-1.1c-0.5,0-1.1,0.1-1.6,0.3c0.3,0.8,0.7,1.6,1.2,2.4c0.4,0.7,0.9,1.4,1.4,2
				C6.1,61,6.8,61.6,7.5,62c1.1,0.6,2.3,0.8,3.5,0.6c0.4-0.1,0.8-0.2,1.2-0.4c1,1.6,2.1,3.1,3.3,4.6c-0.9-0.8-1.9-1.4-3-1.8
				c-1.1-0.5-2.4-0.6-3.6-0.3c-0.5,0.1-1,0.3-1.5,0.6c0,0,0.2,0.2,0.4,0.6c0.4,0.5,0.8,1,1.2,1.4c1.1,1.2,2.4,2.2,4,2.8
				c1.6,0.5,3.3,0.2,4.6-0.8c0.3,0.3,0.6,0.6,0.9,1c1.1,1.1,2.2,2,3.2,2.9h-0.1c-0.3-0.2-0.7-0.3-1-0.5c-0.4-0.2-0.7-0.3-1.1-0.4
				c-0.4-0.1-0.7-0.2-1.1-0.3c-1.2-0.2-2.5-0.1-3.6,0.4c-0.5,0.2-0.9,0.5-1.3,0.8c0,0,0.2,0.2,0.5,0.5c0.5,0.4,0.9,0.8,1.4,1.2
				c0.3,0.2,0.6,0.4,1,0.7c0.4,0.2,0.7,0.4,1.1,0.6c0.4,0.2,0.8,0.3,1.2,0.5c0.4,0.1,0.8,0.2,1.2,0.2c1.2,0.2,2.5-0.1,3.5-0.9
				c0.3-0.2,0.6-0.5,0.9-0.8c1.5,1.1,3.2,2.1,4.8,3c-1.1-0.3-2.3-0.5-3.4-0.5c-1.2,0-2.4,0.4-3.4,1.1c-0.4,0.3-0.8,0.7-1.1,1.1
				l0.6,0.4c0.5,0.3,1.1,0.6,1.7,0.9c1.5,0.7,3.1,1.1,4.7,1c0.7,0,1.4-0.2,2-0.6c0.5-0.3,0.9-0.6,1.3-1c0.3-0.3,0.5-0.6,0.7-1l1,0.4
				c1.4,0.6,2.9,1.1,4.4,1.5h-1.2c-0.8,0-1.5,0-2.3,0.2c-1.2,0.2-2.3,0.9-3.1,1.7c-0.4,0.4-0.7,0.8-0.9,1.3c0,0,0.3,0.1,0.7,0.3
				s1.1,0.3,1.8,0.5c1.6,0.4,3.2,0.4,4.8,0.1c1.2-0.3,2.2-1.1,2.9-2.2c0.2-0.3,0.4-0.7,0.5-1.1c1.6,0.4,3.1,0.6,4.5,0.7
				c1.7,0.2,2.8,0.2,3.5,0.2h1.2l0,0h1.2c0.7,0,1.8-0.1,3.5-0.2c1.4-0.2,2.9-0.4,4.5-0.7c0.1,0.4,0.3,0.8,0.5,1.1
				c0.6,1.1,1.7,1.8,2.9,2.2c1.6,0.4,3.3,0.4,4.8-0.1c0.7-0.2,1.4-0.4,1.8-0.5s0.7-0.3,0.7-0.3c-0.2-0.5-0.5-0.9-0.9-1.3
				c-0.8-0.9-1.9-1.5-3.1-1.7c-0.8-0.2-1.5-0.2-2.3-0.2h-1.2c1.5-0.4,2.9-0.9,4.4-1.5l1-0.4c0.2,0.4,0.4,0.7,0.7,1
				c0.4,0.4,0.8,0.7,1.3,1c0.6,0.3,1.3,0.5,2,0.6c1.6,0.1,3.3-0.3,4.7-1c0.6-0.3,1.1-0.6,1.7-0.9l0.6-0.4c-0.3-0.4-0.7-0.8-1.2-1.1
				c-1-0.7-2.2-1.1-3.4-1.1c-1.2,0-2.3,0.2-3.4,0.5c1.7-0.9,3.3-1.9,4.8-3c0.3,0.3,0.6,0.6,0.9,0.8c1,0.7,2.3,1,3.5,0.9
				c0.4,0,0.8-0.1,1.2-0.3c0.4-0.2,0.7-0.4,1-0.6c0.4-0.2,0.8-0.4,1.1-0.6s0.7-0.4,1-0.7c0.5-0.4,1-0.8,1.4-1.2
				c0.3-0.3,0.5-0.5,0.5-0.5c-0.4-0.4-0.9-0.6-1.4-0.8c-1.1-0.5-2.4-0.6-3.6-0.4c-0.4,0.1-0.7,0.2-1.1,0.3c-0.4,0.1-0.7,0.2-1.1,0.4
				c-0.3,0.2-0.7,0.3-1,0.5h-0.1c1.1-0.9,2.2-1.8,3.2-2.9c0.3-0.3,0.6-0.6,0.9-1c0.3,0.2,0.6,0.4,1,0.6c1.1,0.6,2.5,0.7,3.7,0.3
				c1.5-0.6,2.9-1.6,4-2.8c0.4-0.5,0.8-0.9,1.2-1.4c0.3-0.4,0.4-0.6,0.4-0.6c-0.5-0.3-1-0.4-1.5-0.6c-1.2-0.3-2.4-0.1-3.6,0.3
				c-1.1,0.5-2.1,1.1-3,1.8c1.2-1.5,2.3-3,3.3-4.6c0.4,0.2,0.8,0.3,1.2,0.4c1.2,0.3,2.5,0.1,3.5-0.5c0.7-0.4,1.3-1,1.9-1.6
				c0.5-0.6,1-1.3,1.4-2c0.4-0.8,0.8-1.5,1.2-2.3c-0.5-0.2-1-0.3-1.6-0.3c-1.2,0-2.4,0.4-3.4,1.1c-0.6,0.4-1.2,0.9-1.7,1.5
				c-0.3,0.3-0.5,0.6-0.8,0.9c0.9-1.7,1.7-3.4,2.3-5.2c0.4,0.1,0.8,0.1,1.2,0.2c1.2,0,2.4-0.4,3.4-1.3c0.6-0.6,1.1-1.2,1.5-1.9
				c0.4-0.7,0.7-1.4,1-2.2c0.2-0.7,0.4-1.4,0.5-1.8s0.2-0.7,0.2-0.7c-0.5-0.1-1.1,0-1.6,0.1c-1.2,0.2-2.3,0.9-3.2,1.7
				c-0.5,0.5-1,1.2-1.4,1.8c-0.2,0.3-0.4,0.7-0.6,1c0.5-1.8,0.9-3.7,1.2-5.5C94.4,45.4,94.8,45.4,95.2,45.3z"/>
		</g>
	</g>
</g>
</svg>
