<?xml version="1.0" encoding="utf-8"?>
<!-- Generator: Adobe Illustrator 23.0.6, SVG Export Plug-In . SVG Version: 6.00 Build 0)  -->
<svg version="1.1" id="Calque_1" xmlns="http://www.w3.org/2000/svg" xmlns:xlink="http://www.w3.org/1999/xlink" x="0px" y="0px"
	 viewBox="0 0 249 249" style="enable-background:new 0 0 249 249;" xml:space="preserve">
<g id="artefact">
	<title>artefact01</title>
	<g>
		<g id="Calque_1-2_1_">
			<path d="M27.1,153h8v-16h8V89h-8V73h-8v16h-8v48h8C27.1,137,27.1,153,27.1,153z M27.1,97h8v32h-8C27.1,129,27.1,97,27.1,97z"/>
		</g>
	</g>
</g>
<g id="artefact_1_">
	<title>artefact02</title>
	<g>
		<g id="Calque_1-2_2_">
			<path d="M59.3,128h8v-16h8V72h-8V56h-8v16h-8v40h8C59.3,112,59.3,128,59.3,128z M59.3,80h8v24h-8C59.3,104,59.3,80,59.3,80z"/>
		</g>
	</g>
</g>
<g id="artefact_2_">
	<title>artefact03</title>
	<g>
		<g id="Calque_1-2_3_">
			<path d="M90.4,108h8V92h8V60h-8V44h-8v16h-8v32h8V108z M90.4,68h8v16h-8V68z"/>
		</g>
	</g>
</g>
<g id="dollar">
	<title>dollar</title>
	<g>
		<g id="Calque_1-2_4_">
			<g>
				<path d="M192.9,90v-7.9c9,0,15.7-9.9,9.8-19.4c-1.8-2.9-5.1-4.7-8.6-4.7h-1.3h-8.3c-1.2,0-2.4-0.6-3-1.7
					c-1.8-3.1,0.4-6.3,3.3-6.3h12v3h8V41h-12.1v-8h-8v8.9c-10.1,0-17.4,12.4-7.2,22.8c0.8,0.8,1.9,1.3,3,1.3c3.5,0,11.3,0,13.5,0
					c0.4,0,0.7,0.1,1,0.4c3.4,3.5,1,7.6-2.3,7.6h-12.1v-4h-8v12h12.1v8H192.9z"/>
				<path d="M233,61.8c0-25-20.8-45.1-46.1-44.2c-23,0.9-41.7,19.5-42.6,42.4c-1,25.2,19.2,45.9,44.3,45.9l0,0
					C213.1,106,233,86.2,233,61.8z M152.3,61.5c0-20,16.2-36.2,36.3-36.2s36.3,16.2,36.3,36.1c0,20-16.2,36.1-36.3,36.2
					C168.6,97.6,152.3,81.5,152.3,61.5z"/>
			</g>
		</g>
	</g>
</g>
<path className="progress" d="M163,116.9c-2.8,2.8-5.7,5.5-8.5,8.2c-10.9,0-21.8,0-32.7,0c-8.4,10.3-16.9,20.5-25.3,30.8
	c-15.7,0-31.3-0.1-46.9-0.2L1.8,207.9l6.5,5.4l45.7-49c15.9-0.2,31.7-0.3,47.6-0.5c8.2-10.5,16.5-21.1,24.8-31.7
	c10.4,0,20.7,0,31.1,0c4.5-4.1,9-8.1,13.5-12.2C168.3,118.9,165.7,117.9,163,116.9z"/>
<g id="socle">
	<title>socle</title>
	<g>
		<g id="Calque_1-2_5_">
			<path d="M196,114c-9.4,9.3-18.8,18.7-28.2,28h-37.1l-24.1,32H58.5L0,240.6v9.4h234c0.3-55,0.7-110,1-165c-1.9,4.3-7.2,14.7-19,22
				C208.1,111.9,200.5,113.5,196,114z M200.9,120.2V242h-16.1V135.2l14.7-14.7C200,120.4,200.5,120.4,200.9,120.2L200.9,120.2z
				 M170.4,150l6.4-6.4V242h-16.1v-92H170.4z M56.2,242h-16v-35.2l15.1-18.4l1,53.9V242H56.2z M64.2,182h16.2v60H64.3L64.2,182z
				 M88.3,182h16.2v60H88.4L88.3,182z M112.4,179.1l16.2-21.4V242h-16.1L112.4,179.1z M136.5,150h16.2v92h-16.1L136.5,150z
				 M32.1,216v26H9.3L32.1,216z M209.9,241.9V118c5.8-2,11.2-5,16.1-8.7V242L209.9,241.9z"/>
		</g>
	</g>
</g>
<g id="cercle">
	<path d="M247.6,54.3c-2.6-18.4-13.9-36.2-31-44.9c-5-2.6-12.3-4.8-21.1-6c-7.4-1-13.9-0.8-18.7,0c-7.5,1.3-15.2,4.2-22.6,9.1
		c-10.3,6.9-19.6,17.6-24,31.2c-7.4,22.9,1,44.2,11.5,56.9c8.2,9.9,20.1,17.8,34.1,20.6c7,1.4,15,1.6,24-0.2
		c13.5-2.7,24.3-8.8,31.9-16.6C246.1,89.8,249.8,70.1,247.6,54.3z M238.9,74.2c-1.1,5-3,10.1-5.8,14.9c-3.3,5.8-7.3,10.5-11.8,14.2
		c-4.9,4.1-10.9,7.4-18,9.6c-8,2.5-15.7,3-22.8,1.9c-12-1.8-22.6-7.9-30.2-16.1c-7.5-8.1-12.2-18.2-13.7-29c-1.4-10.3,0.3-21,5-30.5
		c5.8-11.7,16.3-21.6,30-26.2c10.8-3.6,22.4-3.3,32.9,0.2c11.7,4,21.2,12,27.4,21.8C239.5,47.1,241.7,61.5,238.9,74.2z"/>
</g>
</svg>
