<svg xmlns="http://www.w3.org/2000/svg" width="249" height="249" viewBox="0 0 249 249">
    <g fill="none" fill-rule="evenodd">
        <g fill="#FFF" fill-rule="nonzero">
            <g>
                <path d="M192.774 88.355v-8.032c6.643 0 12.049-5.406 12.049-12.049 0-6.642-5.406-12.048-12.049-12.048h-8.032c-2.217 0-4.016-1.8-4.016-4.016 0-2.217 1.799-4.016 4.016-4.016h12.048v4.016h8.033V40.16h-12.049V32.13h-8.032v8.032c-6.643 0-12.048 5.406-12.048 12.049 0 6.642 5.405 12.048 12.048 12.048h8.032c2.217 0 4.016 1.8 4.016 4.016 0 2.217-1.799 4.016-4.016 4.016h-12.048v-4.016h-8.032v12.049h12.048v8.032h8.032z" transform="translate(-340 -2878) translate(340 2878)"/>
                <path d="M232.935 60.242c0-24.358-19.82-44.177-44.177-44.177-24.358 0-44.177 19.82-44.177 44.177 0 24.358 19.82 44.177 44.177 44.177 24.358 0 44.177-19.82 44.177-44.177zm-80.322 0c0-19.932 16.213-36.145 36.145-36.145 19.932 0 36.145 16.213 36.145 36.145 0 19.932-16.213 36.145-36.145 36.145-19.932 0-36.145-16.213-36.145-36.145z" transform="translate(-340 -2878) translate(340 2878)"/>
                <path d="M249 60.242C249 27.025 221.975 0 188.758 0s-60.242 27.025-60.242 60.242c0 25.575 16.045 47.422 38.58 56.145l-8.114 8.113h-32.29L98.58 156.629H50.455L1.068 210.128l5.9 5.45 47-50.917h48.263l28.112-32.129h31.969l13.49-13.49c3.679.811 7.482 1.261 11.378 1.362l-20.165 20.16h-36.49l-24.098 32.13H58.42L0 239.458V249h232.935V101.062C242.871 90.315 249 75.997 249 60.242zm-112.452 0c0-28.788 23.422-52.21 52.21-52.21s52.21 23.422 52.21 52.21-23.422 52.21-52.21 52.21-52.21-23.422-52.21-52.21zm64.258 59.029v121.697h-16.064V134.195l14.719-14.72c.446-.08.904-.116 1.345-.204zm-30.466 29.326l6.37-6.37v98.74h-16.065v-92.37h9.695zm-114.114 92.37H40.16v-35.209l16.065-18.357v53.567zm8.032-60.241h16.065v60.242H64.258v-60.242zm24.097 0h16.064v60.242H88.355v-60.242zm24.097-2.679l16.064-21.418v84.339h-16.064v-62.921zm24.096-29.45h16.065v92.37h-16.065v-92.37zM32.13 214.939v26.029H9.354l22.775-26.029zm176.71 26.029V116.97c5.82-2.069 11.22-4.996 16.064-8.647v132.645H208.84zM24.097 148.597h8.032v-16.065h8.032V84.34H32.13V68.274h-8.032V84.34h-8.032v48.193h8.032v16.065zm0-56.226h8.032V124.5h-8.032V92.371z" transform="translate(-340 -2878) translate(340 2878)"/>
                <path d="M56.226 128.516h8.032v-16.064h8.032V72.29h-8.032V56.226h-8.032V72.29h-8.032v40.162h8.032v16.064zm0-48.193h8.032v24.096h-8.032V80.323zM88.355 100.403h8.032V84.34h8.032v-32.13h-8.032V36.146h-8.032V52.21h-8.032v32.129h8.032v16.064zm0-40.161h8.032v16.064h-8.032V60.242z" transform="translate(-340 -2878) translate(340 2878)"/>
            </g>
        </g>
    </g>
</svg>
