<?xml version="1.0" encoding="UTF-8"?>
<svg width="317px" height="238px" viewBox="0 0 317 238" version="1.1" xmlns="http://www.w3.org/2000/svg" xmlns:xlink="http://www.w3.org/1999/xlink">
    <title>undraw_group_video_el8e (1)</title>
    <g id="MAIN" stroke="none" stroke-width="1" fill="none" fill-rule="evenodd">
        <g id="RESSOURCES" transform="translate(-222.000000, -2276.000000)" fill-rule="nonzero">
            <g id="Bloc-Yield-Management" transform="translate(117.000000, 2231.000000)">
                <g id="undraw_group_video_el8e-(1)" transform="translate(105.538813, 45.792593)">
                    <path d="M3.29902311,0.207407407 C1.73249206,0.207407407 0.461187215,1.47889933 0.461187215,3.04565648 L0.461187215,233.369158 C0.461187215,234.935915 1.73249206,236.207407 3.29902311,236.207407 L312.623351,236.207407 C314.189882,236.207407 315.461187,234.935915 315.461187,233.369158 L315.461187,3.04565648 C315.461187,1.47889933 314.189882,0.207407407 312.623351,0.207407407 L3.29902311,0.207407407 Z" id="Path" fill="#E6E6E6"></path>
                    <polygon id="Path" fill="#FFFFFF" points="8.46118721 9.20740741 8.46118721 227.207407 306.461187 227.207407 306.461187 9.20740741"></polygon>
                    <path d="M227.0738,21.2074074 C226.735629,21.2074074 226.461187,21.4821792 226.461187,21.8207578 L226.461187,71.594057 C226.461187,71.9326356 226.735629,72.2074074 227.0738,72.2074074 L293.848574,72.2074074 C294.186747,72.2074074 294.461187,71.9326364 294.461187,71.594057 L294.461187,21.8207578 C294.461187,21.4821792 294.186746,21.2074074 293.848574,21.2074074 L227.0738,21.2074074 Z" id="Path" fill="#E6E6E6"></path>
                    <polygon id="Path" fill="#FFFFFF" points="228.461187 22.2074074 228.461187 70.2074074 293.461187 70.2074074 293.461187 22.2074074"></polygon>
                    <path d="M227.0738,92.2074074 C226.735629,92.2074074 226.461187,92.4821792 226.461187,92.8207578 L226.461187,142.594057 C226.461187,142.932636 226.735629,143.207407 227.0738,143.207407 L293.848574,143.207407 C294.186747,143.207407 294.461187,142.932636 294.461187,142.594057 L294.461187,92.8207578 C294.461187,92.4821784 294.186747,92.2074074 293.848574,92.2074074 L227.0738,92.2074074 Z" id="Path" fill="#E6E6E6"></path>
                    <polygon id="Path" fill="#FFFFFF" points="228.461187 93.2074074 228.461187 141.207407 293.461187 141.207407 293.461187 93.2074074"></polygon>
                    <path d="M227.0738,164.207407 C226.735629,164.207407 226.461187,164.482179 226.461187,164.820758 L226.461187,214.594057 C226.461187,214.932636 226.735629,215.207407 227.0738,215.207407 L293.848574,215.207407 C294.186747,215.207407 294.461187,214.932636 294.461187,214.594057 L294.461187,164.820758 C294.461187,164.482178 294.186747,164.207407 293.848574,164.207407 L227.0738,164.207407 Z" id="Path" fill="#E6E6E6"></path>
                    <polygon id="Path" fill="#FFFFFF" points="228.461187 164.207407 228.461187 212.207407 293.461187 212.207407 293.461187 164.207407"></polygon>
                    <path d="M281.026378,61.1023393 L268.354416,51.9740936 L268.350321,51.9740936 L268.349473,51.9756378 C267.918346,50.5793031 267.621228,49.1428033 267.462384,47.6867574 C268.652138,46.5710358 269.496625,45.1193877 269.890553,43.5128023 C269.941441,43.5439617 269.990478,43.5782178 270.037405,43.6153883 C271.147517,44.529818 273.256683,34.8139499 269.704372,32.9850905 C269.704372,32.9850905 267.040199,27.0412612 261.933779,28.4129094 C256.827359,29.7845576 253.941166,31.8420461 253.719143,33.8995202 C253.49712,35.9569943 253.830153,39.0432072 253.830153,39.0432072 C253.830153,39.0432072 254.137779,36.7095773 255.752535,35.8847055 C254.135382,37.7834949 253.42931,40.3283553 253.828274,42.8202232 C254.227239,45.3120912 255.689281,47.4889052 257.812784,48.7527027 C257.427438,50.1153429 256.912514,51.8815523 256.48005,53.1782727 L256.479835,53.1782727 L252.607468,55.1613774 L244.171756,60.6476003 C244.171756,60.6476003 240.843288,64.9885713 239.731053,70.0200589 C239.645176,70.4158405 239.55522,70.8116234 239.461187,71.2074074 L284.461187,71.2074074 C282.960536,66.538016 281.026378,61.1023393 281.026378,61.1023393 Z" id="Path" fill="#E6E6E6"></path>
                    <path d="M278.684606,206.884475 C279.562399,206.326266 280.492234,205.853681 281.461187,205.47329 L271.904681,194.175487 L265.588951,192.566204 C264.480423,191.94645 263.605777,190.982849 263.098294,189.822234 L266.479948,189.789217 L267.768784,182.522814 C268.552041,180.410142 268.232968,178.557424 266.479948,177.030711 C266.794912,175.074853 265.903904,173.634755 263.541741,172.821886 C261.192019,170.791756 257.719145,170.304828 255.634611,173.556351 C253.886216,173.452811 252.366177,174.738922 252.186672,176.473665 C250.272063,178.689484 252.398031,186.822424 253.027954,189.921278 L256.388879,189.888261 C256.195048,191.0346 255.63043,192.086517 254.780934,192.883957 L254.735354,192.838574 L248.017654,196.110723 L238.461187,207.111416 C239.404303,207.479427 240.310385,207.935344 241.167353,208.473089 L240.181036,212.207407 L247.018935,212.207407 L248.838235,209.57483 L248.929395,209.57483 C248.929395,209.529447 248.933544,209.484039 248.933544,209.438655 L250.209985,207.59008 C250.23892,209.0838 250.19754,210.6229 250.093935,212.207407 L271.361851,212.207407 C271.328716,210.891117 271.32042,209.583065 271.32042,208.283297 L273.699174,211.720509 C273.877348,211.460551 274.067963,211.217087 274.25862,210.96951 L274.726918,212.207407 L280.172377,212.207407 L278.86695,207.264091 C278.83,207.127513 278.768195,206.998844 278.684606,206.884475 L278.684606,206.884475 Z" id="Path" fill="#E6E6E6"></path>
                    <path d="M273.211165,127.740544 L264.244928,124.046074 C264.030954,123.191912 263.849925,122.387506 263.734694,121.678486 C265.594714,120.612929 266.948169,118.834822 267.487368,116.748393 L268.433799,115.724239 C269.450879,114.65445 269.960763,113.19467 269.832855,111.718787 C269.668501,110.316605 268.963504,109.035799 267.870071,108.152892 C268.236298,105.81846 267.186995,104.101836 264.405378,103.131579 C261.640223,100.714209 257.545983,100.129551 255.093572,104.006468 C253.032794,103.882651 251.240739,105.416104 251.028048,107.485317 C249.01182,109.848754 251.089832,114.563226 252.081471,118.174762 C252.236134,118.721448 252.702085,119.12063 253.262425,119.186489 C253.921728,120.168632 254.788798,120.991371 255.801294,121.595555 C255.826987,122.638735 255.70506,123.680284 255.439187,124.688806 L255.447374,124.373673 L248.760771,127.404702 L248.756704,127.321772 L248.110695,127.699102 L247.086106,128.163497 C247.094293,128.204953 247.102533,128.242279 247.11077,128.283735 L247.016086,128.33764 C245.57584,129.178271 244.472541,130.499809 243.897111,132.073566 L240.461187,142.207407 L271.223678,142.207407 C271.536696,141.150854 271.921667,140.117317 272.375851,139.114156 L272.384092,139.002196 L275.116296,142.207407 L283.461187,142.207407 L273.211165,127.740544 Z" id="Path" fill="#E6E6E6"></path>
                    <circle id="Oval" fill="#E6E6E6" cx="119.461187" cy="194.207407" r="18"></circle>
                    <circle id="Oval" fill="#FFFFFF" cx="119.461187" cy="194.207407" r="14"></circle>
                    <path d="M125.794278,202.207407 C125.617294,202.207688 125.447526,202.137288 125.322682,202.011842 L110.644713,187.334139 C110.395467,187.071837 110.40074,186.658671 110.6566,186.402816 C110.912459,186.146962 111.325633,186.141688 111.587939,186.39093 L126.265907,201.068634 C126.456589,201.259434 126.513611,201.546283 126.410402,201.795504 C126.307193,202.044725 126.064062,202.207407 125.794311,202.207407 L125.794278,202.207407 Z" id="Path" fill="#896AF4"></path>
                    <path d="M118.440389,196.08519 L116.583399,194.228205 C116.561583,194.206567 116.528406,194.201233 116.500907,194.214942 C116.473408,194.22865 116.457699,194.258355 116.461846,194.2888 C116.615678,195.277365 117.39123,196.052916 118.379797,196.206749 C118.410241,196.210894 118.439943,196.195184 118.453652,196.167687 C118.46736,196.14019 118.462029,196.107014 118.440395,196.085197 L118.440389,196.08519 Z" id="Path" fill="#896AF4"></path>
                    <path d="M118.48213,191.329634 L120.338771,193.186222 C120.360502,193.20814 120.393827,193.213661 120.42146,193.199921 C120.449094,193.186181 120.464816,193.156273 120.460471,193.125711 C120.307289,192.137115 119.531938,191.361487 118.543695,191.208249 C118.513103,191.203526 118.482941,191.219007 118.468936,191.246621 C118.45493,191.274236 118.460254,191.307727 118.48213,191.329634 L118.48213,191.329634 Z" id="Path" fill="#896AF4"></path>
                    <path d="M128.252997,194.14382 C128.532071,193.728825 128.530459,193.197848 128.248867,192.784382 C127.189585,191.215662 125.793292,189.876011 124.150984,188.852731 C122.486465,187.803936 120.537787,187.232628 118.538939,187.207407 C117.530919,187.208718 116.529753,187.364426 115.574194,187.668505 C115.519817,187.685643 115.478706,187.728266 115.46558,187.781117 C115.452454,187.833967 115.469191,187.889486 115.509797,187.927797 L117.459874,189.775318 C117.501089,189.814439 117.561035,189.83005 117.617565,189.816384 C118.961852,189.506016 120.379668,189.882376 121.35804,190.809297 C122.336413,191.736217 122.733664,193.079468 122.406066,194.353058 C122.391799,194.406492 122.408266,194.463097 122.449412,194.502062 L125.2544,197.16149 C125.314896,197.218905 125.411681,197.22298 125.477315,197.170876 C126.557035,196.298964 127.492663,195.278602 128.252997,194.14382 Z" id="Path" fill="#896AF4"></path>
                    <path d="M119.362711,197.692506 C118.147932,197.692574 117.000307,197.161661 116.249339,196.252199 C115.498371,195.342738 115.22713,194.155331 115.513493,193.030901 C115.527751,192.977213 115.511294,192.920339 115.470172,192.881188 L112.712595,190.253509 C112.651971,190.195701 112.554956,190.191773 112.4894,190.244472 C111.429804,191.119238 110.491633,192.119114 109.697581,193.219913 C109.392287,193.637269 109.38186,194.188916 109.671184,194.616467 C110.712621,196.194046 112.094833,197.542304 113.725859,198.571543 C115.391776,199.629589 117.347217,200.198407 119.349509,200.207407 C120.367108,200.204808 121.378111,200.051697 122.346372,199.753549 C122.401219,199.736863 122.442969,199.694155 122.456537,199.64086 C122.470104,199.587564 122.453527,199.531387 122.412796,199.492627 L120.454356,197.627671 C120.41325,197.588503 120.353537,197.572829 120.297168,197.58641 C119.991217,197.657024 119.677517,197.692641 119.362711,197.692506 Z" id="Path" fill="#896AF4"></path>
                    <circle id="Oval" fill="#E6E6E6" cx="49.4611872" cy="194.207407" r="18"></circle>
                    <circle id="Oval" fill="#FFFFFF" cx="50.4611872" cy="194.207407" r="14"></circle>
                    <path d="M54.8878791,203.207407 C54.1032384,203.207407 53.0010415,202.923522 51.3505644,202.001608 C49.2992227,200.905544 47.4260489,199.50471 45.7949667,197.846911 C44.1067655,196.239322 42.6969584,194.362903 41.6229417,192.294048 C40.1421116,189.601415 40.3945265,188.190004 40.6767101,187.586765 C41.0024899,186.927207 41.514737,186.377758 42.1499332,186.006549 C42.5140962,185.768004 42.8994712,185.563517 43.3011699,185.395683 C43.3413783,185.378404 43.3787468,185.361925 43.4121126,185.347055 C43.6810228,185.194812 44.0024286,185.165534 44.2944308,185.26668 C44.6152474,185.420988 44.9007162,185.639902 45.1329364,185.909695 C45.9689539,186.847708 46.6742348,187.894463 47.2296005,189.021496 C47.4578955,189.411265 47.5982403,189.846204 47.6408134,190.295876 C47.6074824,190.74097 47.4272059,191.162383 47.1283042,191.493915 C47.0756456,191.565852 47.0233891,191.634572 46.9727446,191.701287 C46.6668452,192.103173 46.5997152,192.219319 46.6439336,192.426701 C46.7335731,192.843458 47.402044,194.084077 48.5006221,195.180018 C49.5992003,196.275959 50.8042982,196.902109 51.2227486,196.991317 C51.4390049,197.037533 51.5575872,196.967606 51.9724188,196.650919 C52.0319092,196.605507 52.093008,196.558487 52.1569213,196.511486 C52.4893681,196.19811 52.9180377,196.006338 53.3732776,195.96733 L53.3756864,195.96733 C53.8320003,196.014174 54.2707976,196.168105 54.6563473,196.416588 C55.3798892,196.781501 57.0323768,197.766522 57.7571069,198.49755 C58.0274725,198.728925 58.2471116,199.013651 58.4022533,199.333874 C58.5029186,199.626552 58.4736629,199.948292 58.3218581,200.218022 C58.3069846,200.251381 58.2905064,200.287952 58.2732204,200.328544 C58.1040221,200.729443 57.8982848,201.113926 57.6586107,201.477129 C57.2862204,202.111475 56.7358329,202.622625 56.075662,202.947226 C55.7045444,203.12273 55.2983952,203.211643 54.8878791,203.207407 Z" id="Path" fill="#896AF4"></path>
                    <circle id="Oval" fill="#E6E6E6" cx="189.461187" cy="194.207407" r="18"></circle>
                    <circle id="Oval" fill="#FFFFFF" cx="188.461187" cy="194.207407" r="14"></circle>
                    <path d="M190.861183,202.207407 L186.061191,202.207407 C185.729818,202.207407 185.461187,201.98355 185.461187,201.707407 C185.461187,201.431265 185.729818,201.207407 186.061191,201.207407 L190.861183,201.207407 C191.192556,201.207407 191.461187,201.431265 191.461187,201.707407 C191.461187,201.98355 191.192556,202.207407 190.861183,202.207407 L190.861183,202.207407 Z" id="Path" fill="#896AF4"></path>
                    <path d="M188.961175,199.207407 C185.925041,199.203656 183.464626,196.519567 183.461187,193.207421 L183.461187,191.874078 C183.461187,191.505886 183.734793,191.207407 184.072302,191.207407 C184.409812,191.207407 184.683417,191.505886 184.683417,191.874078 L184.683417,193.207421 C184.685535,195.78311 186.600138,197.869894 188.961187,197.869894 C191.322237,197.869894 193.236839,195.78311 193.238957,193.207421 L193.238957,191.874078 C193.238957,191.505886 193.512563,191.207407 193.850072,191.207407 C194.187582,191.207407 194.461187,191.505886 194.461187,191.874078 L194.461187,193.207421 C194.457741,196.519573 191.997315,199.203662 188.961175,199.207407 L188.961175,199.207407 Z" id="Path" fill="#896AF4"></path>
                    <path d="M188.961187,202.207407 C188.828574,202.207407 188.701397,202.132155 188.60763,201.9982 C188.513862,201.864244 188.461187,201.682561 188.461187,201.493121 L188.461187,197.921698 C188.461187,197.527206 188.685045,197.207407 188.961187,197.207407 C189.23733,197.207407 189.461187,197.527206 189.461187,197.921698 L189.461187,201.493108 C189.461187,201.682555 189.408517,201.864246 189.314746,201.998205 C189.220976,202.132164 189.093793,202.207407 188.961187,202.207407 Z" id="Path" fill="#896AF4"></path>
                    <path d="M188.46111,196.207407 C187.661089,196.205385 186.895991,195.853742 186.340554,195.23279 C185.777763,194.620675 185.461751,193.793736 185.461187,192.931726 L185.461187,188.442835 C185.458118,187.588127 185.769988,186.767101 186.32821,186.160375 C186.886433,185.553649 187.645282,185.210924 188.437817,185.207595 C188.445582,185.207561 188.453347,185.207561 188.46111,185.207595 C189.259348,185.198288 190.027409,185.536154 190.591882,186.144908 C191.156354,186.753662 191.469643,187.581977 191.461014,188.442835 L191.461014,192.931726 C191.469332,194.728772 190.127411,196.194054 188.46111,196.207407 L188.46111,196.207407 Z" id="Path" fill="#896AF4"></path>
                    <path d="M26.1278545,21.2074074 C25.2078275,21.2074074 24.4611872,21.9562934 24.4611872,22.8790877 L24.4611872,158.535727 C24.4611872,159.458521 25.2078275,160.207407 26.1278545,160.207407 L207.79452,160.207407 C208.714547,160.207407 209.461187,159.458521 209.461187,158.535727 L209.461187,22.8790877 C209.461187,21.9562934 208.714547,21.2074074 207.79452,21.2074074 L26.1278545,21.2074074 Z" id="Path" fill="#E6E6E6"></path>
                    <polygon id="Path" fill="#FFFFFF" points="29.4611872 26.2074074 29.4611872 154.207407 204.461187 154.207407 204.461187 26.2074074"></polygon>
                    <polygon id="Path" fill="#FFB9B9" points="150.371878 154.207407 150.689395 152.973311 147.932739 141.642981 147.663904 140.530709 147.461187 139.699568 147.784153 139.591801 164.071598 134.207407 164.280127 137.197496 165.461187 154.207407"></polygon>
                    <polygon id="Path" fill="#FFB9B9" points="84.9892812 141.642981 82.2326815 152.973311 82.5501918 154.207407 67.4611872 154.207407 68.6422238 137.197496 68.8507489 134.207407 85.4611872 139.699568"></polygon>
                    <path d="M130.461187,96.438179 L104.461187,99.2074074 C107.192292,92.0936465 106.687098,83.9297228 104.461187,75.2074074 L123.162942,75.2074074 C124.391698,82.6509927 126.859451,89.8297459 130.461187,96.438179 Z" id="Path" fill="#FFB9B9"></path>
                    <circle id="Oval" fill="#FFB9B9" cx="113.461187" cy="72.2074074" r="14"></circle>
                    <path d="M154.461187,102.480914 C151.453334,115.777204 148.978123,128.418237 147.428623,140.529341 C147.385892,140.845576 147.346027,141.158958 147.308996,141.472358 C147.257728,141.882616 147.206442,142.292874 147.160878,142.703129 C146.653862,146.933891 146.271233,151.101984 146.01299,155.207407 L88.6701195,155.207407 C88.7299241,151.335606 88.6017457,147.375485 88.3140753,143.36125 C87.3256903,129.592013 84.4232277,115.193163 80.4611872,101.560673 L80.4896637,101.549285 L105.557949,92.8883111 L105.74025,92.8256405 C112.966497,96.161828 120.16142,96.3156667 127.299371,91.252986 C127.322148,91.2387427 127.342073,91.2216507 127.364872,91.2074074 L150.732687,100.931056 L150.741242,100.933909 L154.461187,102.480914 Z" id="Path" fill="#896AF4"></path>
                    <path d="M170.461187,135.430813 L142.461187,143.207407 L149.235382,100.207407 L153.556416,101.666361 C156.776058,102.753436 159.2333,105.417902 160.085014,108.745528 L170.461187,135.430813 Z" id="Path" fill="#896AF4"></path>
                    <path d="M62.4611872,135.430813 L90.4611872,143.207407 L83.6869929,100.207407 L79.3659566,101.666361 C76.1463165,102.753438 73.6890757,105.417903 72.8373593,108.745528 L62.4611872,135.430813 Z" id="Path" fill="#896AF4"></path>
                    <path d="M113.224764,49.2243121 L113.224764,49.2243121 C110.742501,49.3340357 108.324506,50.0191846 106.176489,51.2214704 C105.682509,51.4981397 105.91084,52.4958877 105.454282,52.8212879 C104.879323,53.2310842 103.630947,52.9822259 103.121797,53.4622222 C99.7935436,56.5892388 98.1049636,60.9921581 98.5241915,65.4503332 L99.3348525,73.2074074 L101.247223,71.1946119 C104.676038,67.5356088 109.436231,65.2865269 114.541273,64.9134771 C114.758148,64.8992928 114.975412,64.8881593 115.193066,64.8800768 L113.721806,62.4022017 L116.278775,64.863027 C117.445189,64.875345 118.609263,64.966536 119.762392,65.1359262 L117.805843,61.8407127 L121.55995,65.4536575 L121.560243,65.4538109 C124.673812,66.1128217 127.276941,68.1561251 128.573679,70.9589475 L128.990532,71.8483656 L129.45752,64.4480195 C129.550921,60.3134567 127.856567,56.3271389 124.779031,53.4409059 C121.701494,50.5546729 117.51702,49.0275983 113.224764,49.2243121 Z" id="Path" fill="#2F2E41"></path>
                    <ellipse id="Oval" fill="#FFB9B9" cx="99.4611872" cy="72.2074074" rx="1" ry="3"></ellipse>
                    <ellipse id="Oval" fill="#FFB9B9" cx="127.461187" cy="71.2074074" rx="1" ry="3"></ellipse>
                </g>
            </g>
        </g>
    </g>
</svg>