<svg id="Calque_1" data-name="Calque 1" xmlns="http://www.w3.org/2000/svg" viewBox="0 0 101.78 99">
  <defs>
    <style>
      .cls-1 {
        fill: none;
      }
    </style>
  </defs>
  <title>agile</title>
  <path class="cls-1" d="M67.24,41.25,70.55,36a1.08,1.08,0,0,0-.15-1.35l-3.17-3.16a1.1,1.1,0,0,0-1.36-.15l-5.23,3.31a18,18,0,0,0-4.5-1.86l-1.35-6A1.09,1.09,0,0,0,53.72,26H49.24a1.09,1.09,0,0,0-1.07.85l-1.35,6a18,18,0,0,0-4.5,1.86l-5.23-3.31a1.1,1.1,0,0,0-1.36.15l-3.17,3.16A1.08,1.08,0,0,0,32.41,36l3.31,5.22a17.69,17.69,0,0,0-1.86,4.48l-6,1.34A1.09,1.09,0,0,0,27,48.13v4.48a1.08,1.08,0,0,0,.85,1.06l6,1.34a17.82,17.82,0,0,0,1.86,4.49l-3.31,5.21a1.09,1.09,0,0,0,.15,1.36l3.17,3.15a1.09,1.09,0,0,0,1.36.15l5.23-3.3a18.2,18.2,0,0,0,4.5,1.86l1.35,6a1.08,1.08,0,0,0,1.07.85h4.49a1.08,1.08,0,0,0,1.06-.85l1.35-6a17.89,17.89,0,0,0,4.5-1.86l5.23,3.3a1.09,1.09,0,0,0,1.36-.15l3.17-3.16a1.06,1.06,0,0,0,.15-1.35L67.24,59.5A17.84,17.84,0,0,0,69.1,55l6-1.35A1.08,1.08,0,0,0,76,52.61V48.14a1.09,1.09,0,0,0-.85-1.07l-6-1.34a17.69,17.69,0,0,0-1.86-4.48Zm6.57,10.49L68,53a1.11,1.11,0,0,0-.83.83A15.93,15.93,0,0,1,65,58.93a1.06,1.06,0,0,0,0,1.16l3.2,5L66.3,67.07l-5.06-3.2a1.1,1.1,0,0,0-1.18,0A15.84,15.84,0,0,1,55,66a1.09,1.09,0,0,0-.83.82l-1.3,5.82H50.11l-1.3-5.82A1.09,1.09,0,0,0,48,66a16.18,16.18,0,0,1-5.09-2.1,1.08,1.08,0,0,0-1.17,0l-5.06,3.19-1.93-1.92,3.2-5a1.08,1.08,0,0,0,0-1.17,15.73,15.73,0,0,1-2.1-5.06A1.11,1.11,0,0,0,35,53l-5.85-1.3V49L35,47.71a1.09,1.09,0,0,0,.83-.83,15.88,15.88,0,0,1,2.1-5.06,1.08,1.08,0,0,0,0-1.17l-3.2-5,1.93-1.93,5.06,3.21a1.12,1.12,0,0,0,1.18,0A16.11,16.11,0,0,1,48,34.78a1.11,1.11,0,0,0,.83-.83l1.3-5.82h2.74L54.15,34a1.13,1.13,0,0,0,.83.83,15.92,15.92,0,0,1,5.08,2.1,1.1,1.1,0,0,0,1.18,0l5.07-3.2,1.93,1.93-3.21,5a1.08,1.08,0,0,0,0,1.17,15.66,15.66,0,0,1,2.1,5.06,1.11,1.11,0,0,0,.83.83L73.81,49v2.72ZM51.48,44.81a5.57,5.57,0,1,0,5.59,5.57A5.59,5.59,0,0,0,51.48,44.81Zm0,8.95a3.39,3.39,0,1,1,3.4-3.38A3.4,3.4,0,0,1,51.48,53.76Zm0-15.18a11.8,11.8,0,1,0,11.84,11.8A11.83,11.83,0,0,0,51.48,38.58Zm0,21.41a9.62,9.62,0,1,1,9.65-9.61A9.64,9.64,0,0,1,51.48,60ZM27.7,88.29a1.09,1.09,0,0,0,1.5-.35,1.08,1.08,0,0,0-.34-1.5,42.47,42.47,0,0,1,6.9-75.61,1.09,1.09,0,1,0-.81-2A44.65,44.65,0,0,0,27.7,88.29ZM96.35,50.37A44.83,44.83,0,0,0,53.29,5.71l2.22-4.1a1.1,1.1,0,0,0-1.93-1L50.52,6.24a1.11,1.11,0,0,0,0,1.06l3.07,5.24a1.09,1.09,0,1,0,1.89-1.1L53.41,7.9a42.52,42.52,0,0,1-1.93,85H2a1.09,1.09,0,1,0,0,2.17H51.48a44.84,44.84,0,0,0,44.87-44.7Zm5.16,42.74c-.13-.3,0-.1-4.6-4.69a1.09,1.09,0,0,0-1.55,0,1.08,1.08,0,0,0,0,1.54l2.51,2.5H78.62a1.09,1.09,0,0,0,0,2.18H97.87l-2.51,2.5a1.08,1.08,0,0,0,0,1.54,1.09,1.09,0,0,0,1.55,0c1-1,4.3-4.28,4.39-4.39a1,1,0,0,0,.22-.33v0A1.06,1.06,0,0,0,101.51,93.11Zm-50-74.36A31.62,31.62,0,1,0,83.22,50.37,31.72,31.72,0,0,0,51.48,18.75Zm0,61.06A29.44,29.44,0,1,1,81,50.37,29.53,29.53,0,0,1,51.48,79.81ZM25.94,24.93a1.08,1.08,0,0,0,0-1.54,1.09,1.09,0,0,0-1.55,0,38.05,38.05,0,0,0,0,54,1.13,1.13,0,0,0,.78.32,1.1,1.1,0,0,0,.77-1.87,35.87,35.87,0,0,1,0-50.88ZM77,75.81a1.09,1.09,0,1,0,1.54,1.55,38,38,0,0,0,0-54A1.09,1.09,0,1,0,77,24.93a35.88,35.88,0,0,1,0,50.88ZM9.67,14A4.37,4.37,0,1,0,5.3,9.6,4.37,4.37,0,0,0,9.67,14Zm0-6.54A2.18,2.18,0,1,1,7.48,9.6,2.18,2.18,0,0,1,9.67,7.42ZM95,17.23a7.64,7.64,0,1,0-7.66-7.64A7.66,7.66,0,0,0,95,17.23ZM95,4.14a5.46,5.46,0,1,1-5.47,5.45A5.47,5.47,0,0,1,95,4.14ZM3.11,83.74a4.38,4.38,0,1,0,4.37-4.36A4.37,4.37,0,0,0,3.11,83.74Zm6.56,0a2.19,2.19,0,1,1-2.19-2.18A2.19,2.19,0,0,1,9.67,83.74ZM75.89,3.05a1.64,1.64,0,1,1-1.65,1.64A1.65,1.65,0,0,1,75.89,3.05Zm23,22.9a1.64,1.64,0,1,1-1.64,1.63A1.64,1.64,0,0,1,98.87,26ZM95.59,72.83a1.64,1.64,0,1,1-1.65,1.64A1.65,1.65,0,0,1,95.59,72.83ZM3.65,69.56A1.64,1.64,0,1,1,2,71.2,1.64,1.64,0,0,1,3.65,69.56ZM25.54,3.05A1.64,1.64,0,1,1,23.9,4.69,1.64,1.64,0,0,1,25.54,3.05ZM4.75,23.77A1.64,1.64,0,1,1,3.11,25.4,1.64,1.64,0,0,1,4.75,23.77Z" transform="translate(-0.92 0)"/>
</svg>
