<svg xmlns="http://www.w3.org/2000/svg" viewBox="0 0 309.02 309">
  <defs>
    <style>
      .cls-1 {
        fill: white;
      }
    </style>
  </defs>
  <title>automation</title>
  <g id="Calque_2" data-name="Calque 2">
    <g id="Calque_1-2" data-name="Calque 1">
      <path class="cls-1" d="M95.71,309a12.81,12.81,0,0,1-2.62-.28L63.42,302.3A12.35,12.35,0,0,1,54,287.6l2.84-13.1a2,2,0,0,0-.83-2.1,2.2,2.2,0,0,0-2.57-.22l-11.28,7.24A12.38,12.38,0,0,1,25,275.77l0,0L8.61,250.24a12.36,12.36,0,0,1,3.68-17.08h0l11.29-7.25a2,2,0,0,0,.91-2.07,2.19,2.19,0,0,0-1.64-2L9.75,219A12.35,12.35,0,0,1,.28,204.34l6.41-29.5a12.38,12.38,0,0,1,14.74-9.45l.16,0,13,3a2.07,2.07,0,0,0,2.24-.93A2.34,2.34,0,0,0,37,165l-7.39-11.47a12.36,12.36,0,0,1,3.68-17.08h0L58.87,120A12.4,12.4,0,0,1,76,123.7L83.22,135a2.07,2.07,0,0,0,2.1.91,2.21,2.21,0,0,0,2-1.64l2.85-13.09a12.37,12.37,0,0,1,14.71-9.45l29.66,6.42a12.37,12.37,0,0,1,9.47,14.7l-2.78,12.81a2,2,0,0,0,.92,2.17l.52.3a2.07,2.07,0,0,0,2.17,0l11-7.07a12.38,12.38,0,0,1,17.08,3.71l16.43,25.47h0a12.34,12.34,0,0,1-3.68,17.06l0,0-11,7.08a2,2,0,0,0-.88,2.21,2.17,2.17,0,0,0,1.58,1.69l13.12,3.07A12.41,12.41,0,0,1,197.67,216l-6.46,29.73a12.39,12.39,0,0,1-14.71,9.45l-13.11-2.84a2,2,0,0,0-2.14.84,2.17,2.17,0,0,0-.22,2.53L168.29,267a12.34,12.34,0,0,1-3.71,17l-25.53,16.4A12.41,12.41,0,0,1,122,296.7l-7.41-11.5a2,2,0,0,0-2.23-.89,2.12,2.12,0,0,0-1.62,1.59l-2.91,13.35A12.4,12.4,0,0,1,95.71,309ZM54.52,261.54A12.7,12.7,0,0,1,67.1,274.37a12.09,12.09,0,0,1-.23,2.32L64,289.79a2.05,2.05,0,0,0,1.58,2.44l29.67,6.42a2,2,0,0,0,2.43-1.45l0-.12,2.9-13.36a12.3,12.3,0,0,1,9-9.33,4.88,4.88,0,0,1,.55-.12,12.11,12.11,0,0,1,13,5.36l7.41,11.5a2.07,2.07,0,0,0,2.86.61h0L159,275.35a2.07,2.07,0,0,0,.63-2.83l-7.27-11.27a12.29,12.29,0,0,1,.25-13.73,12.47,12.47,0,0,1,12.94-5.28l13.12,2.83a2.07,2.07,0,0,0,2.46-1.57h0l6.46-29.73a2.06,2.06,0,0,0-1.55-2.43l-13.12-3.07A12.49,12.49,0,0,1,169,185.68l11-7.09a2.06,2.06,0,0,0,.62-2.84h0l-16.43-25.47a2.08,2.08,0,0,0-2.85-.62l-11,7.07a12.78,12.78,0,0,1-19.25-13.29l2.78-12.81a2.06,2.06,0,0,0-1.57-2.44h0l-29.67-6.42a2,2,0,0,0-1.56.26,2.06,2.06,0,0,0-.9,1.31l-2.84,13.09a12.61,12.61,0,0,1-22.79,4.12L67.3,129.29a2.06,2.06,0,0,0-2.86-.62l-25.53,16.4a2,2,0,0,0-.9,1.29,2.09,2.09,0,0,0,.28,1.54l7.4,11.48a12.31,12.31,0,0,1,.24,13,12.46,12.46,0,0,1-13.68,6.12l-13-3a2,2,0,0,0-1.58.27,2,2,0,0,0-.91,1.3l-6.41,29.5a2,2,0,0,0,.28,1.55,2.08,2.08,0,0,0,1.29.89l13.13,2.84a12.59,12.59,0,0,1,4.12,22.77l-11.29,7.24a2,2,0,0,0-.89,1.29,2.07,2.07,0,0,0,.27,1.55l16.43,25.48a2.07,2.07,0,0,0,2.86.62l11.29-7.25a12.23,12.23,0,0,1,6.69-2Zm8-50.39,15.67-6.45-3.28-9.78L46.35,207v8.26l28.52,12.1,3.3-9.76Zm40.13-29.74L81.84,240.89H93.2l20.65-59.48Zm18.2,13.51-3.28,9.78,15.67,6.45-15.68,6.47,3.3,9.76,28.52-12.1V207Zm116-55.39a10.94,10.94,0,0,1-2.14-.22l-20.48-4.44a10.12,10.12,0,0,1-7.75-12l2-9L200.77,119a10.15,10.15,0,0,1-14-3L175.4,98.26a10.13,10.13,0,0,1,3-14l7.79-5-9-1.84a10.11,10.11,0,0,1-7.76-12L173.86,45a10.13,10.13,0,0,1,12-7.75l.16,0,9,2.09-5.13-7.92a10.13,10.13,0,0,1,3-14L210.57,6.18a10.15,10.15,0,0,1,14,3l5,7.76,1.86-9A10.17,10.17,0,0,1,243.49.23L264,4.66a10.12,10.12,0,0,1,7.75,12l-1.91,8.84,7.66-4.88a10.15,10.15,0,0,1,14,3l11.34,17.59a10.11,10.11,0,0,1-3,14h0l-7.62,4.89,9,1.91a10.16,10.16,0,0,1,7.58,12l-4.45,20.51a10.17,10.17,0,0,1-12.05,7.75l-9-2,5.06,7.67a10.11,10.11,0,0,1-3,14h0l-17.61,11.32a10.15,10.15,0,0,1-14-3l-5-7.83-.23,0-1.6,9A10.15,10.15,0,0,1,236.85,139.53Zm-28.42-35.94A10.36,10.36,0,0,1,218.71,114a10.77,10.77,0,0,1-.2,2l-2,9,20.34,4.22,1.8-9.08a10.18,10.18,0,0,1,18.48-3.35l5.12,7.93,17.38-11.37-5.06-7.51A10.28,10.28,0,0,1,285.4,90.31l9.05,2,4.25-20.38L289.78,70a10.21,10.21,0,0,1-3.2-18.49l7.42-4.8L282.79,29.28l-7.36,4.93a10.42,10.42,0,0,1-15.7-10.86l1.91-8.83L241.31,10.3l-1.76,8.89a10.3,10.3,0,0,1-18.63,3.38l-5-7.77-17.4,11.36,5.16,7.67a10.07,10.07,0,0,1,.19,10.65,10.21,10.21,0,0,1-11.17,5l-9-2.09L179.48,67.6l8.91,1.75A10.28,10.28,0,0,1,191.77,88L184,93l11.39,17.33L203,105.2a10,10,0,0,1,5.47-1.61Zm4.42-33.82L224.49,65l-2.44-7.26-21.18,9v6.14l21.18,9,2.44-7.25Zm29.8-22.08L227.22,91.85h8.43L251,47.69Zm13.51,10L253.72,65l11.64,4.79-11.64,4.8,2.45,7.25,21.17-9V66.7Z"/>
    </g>
  </g>
</svg>
