<svg xmlns="http://www.w3.org/2000/svg" viewBox="0 0 306.59 316.72">
  <defs>
    <style>
      .cls-1 {
        fill: none;
      }
    </style>
  </defs>
  <title>automo</title>
  <g id="Calque_2" data-name="Calque 2">
    <g id="Calque_1-2" data-name="Calque 1">
      <g id="Calque_1-2-2" data-name="Calque 1-2">
        <path class="cls-1" d="M234.59,139.23a10.23,10.23,0,0,1-2.14-.22L212,134.58a10.1,10.1,0,0,1-7.73-12l2-9-7.67,5.12a10.13,10.13,0,0,1-14-3l-11.34-17.7a10.08,10.08,0,0,1,3-14h0l7.77-5-9-1.83a10.09,10.09,0,0,1-7.74-12l4.41-20.38a10.09,10.09,0,0,1,12-7.73h.18l9,2.09-5.12-7.9a10.1,10.1,0,0,1,3-14h0L208.36,6.17a10.13,10.13,0,0,1,14,3l5,7.74,1.86-9a10.14,10.14,0,0,1,12-7.69l20.47,4.42a10.09,10.09,0,0,1,7.73,12l-1.9,8.83,7.64-4.87a10.13,10.13,0,0,1,14,3l11.32,17.55a10.11,10.11,0,0,1-3,14h0L289.82,60l9,1.9a10.13,10.13,0,0,1,7.56,12l-4.44,20.47a10.14,10.14,0,0,1-12,7.73l-9-2L286,107.7a10.11,10.11,0,0,1-3,14h0L265.42,133a10.13,10.13,0,0,1-14-3l-5-7.81h-.23l-1.59,9A10.12,10.12,0,0,1,234.59,139.23Zm-28.43-35.42a10.38,10.38,0,0,1,10.08,12.41l-2,9,20.34,4.22,1.8-9.08A10.18,10.18,0,0,1,254.86,117l5.12,7.93,17.38-11.37-5.06-7.51a10.28,10.28,0,0,1,10.83-15.53l9,2,4.25-20.38-8.87-1.93a10.21,10.21,0,0,1-3.2-18.49l7.42-4.8L280.52,29.5l-7.36,4.93a10.42,10.42,0,0,1-15.7-10.86l1.91-8.83L239,10.52l-1.76,8.89a10.3,10.3,0,0,1-18.63,3.38l-5-7.77-17.4,11.36,5.16,7.67a10.05,10.05,0,0,1,.19,10.65,10.21,10.21,0,0,1-11.17,5l-9-2.09-4.22,20.21,8.91,1.75a10.28,10.28,0,0,1,3.38,18.65l-7.79,5,11.39,17.33,7.63-5.09a10.1,10.1,0,0,1,5.47-1.61ZM211,70l11.64-4.77L220.18,58,199,67V73.1l21.18,9,2.44-7.25Zm29.39-21.82L225,92.17h8.39l15.32-44Zm13.46,9.74-2.48,7.31L263,70l-11.64,4.8,2.48,7.25,21.17-9V66.92Z"/>
      </g>
      <g id="Calque_1-2-3" data-name="Calque 1-2">
        <path class="cls-1" d="M95.71,316.72a11.55,11.55,0,0,1-2.62-.28L63.42,310A12.35,12.35,0,0,1,54,295.32l2.84-13.1a2,2,0,0,0-.84-2.05,2.2,2.2,0,0,0-2.57-.22l-11.27,7.22A12.38,12.38,0,0,1,25,283.55l0-.05v-.06L8.61,258a12.35,12.35,0,0,1,3.68-17.07h0l11.29-7.25a2,2,0,0,0,.91-2.07,2.21,2.21,0,0,0-1.64-2l-13.1-2.85A12.34,12.34,0,0,1,.28,212.06h0l6.41-29.5a12.38,12.38,0,0,1,14.74-9.39h.16l13,3a2,2,0,0,0,2.24-.93,2.33,2.33,0,0,0,.17-2.5l-7.39-11.49a12.34,12.34,0,0,1,3.67-17.07h0l25.58-16.45A12.42,12.42,0,0,1,76,131.42l7.22,11.3a2.06,2.06,0,0,0,2.1.91,2.18,2.18,0,0,0,2-1.64l2.85-13.09a12.38,12.38,0,0,1,14.71-9.45l29.66,6.42a12.39,12.39,0,0,1,9.46,14.7l-2.78,12.81a2,2,0,0,0,.92,2.17l.52.3a2.07,2.07,0,0,0,2.17,0l11-7.07a12.4,12.4,0,0,1,17.08,3.71L189.34,178h0A12.34,12.34,0,0,1,185.66,195h0l-11,7.08a2,2,0,0,0-.88,2.21,2.15,2.15,0,0,0,1.58,1.69l13.12,3.07a12.42,12.42,0,0,1,9.21,14.63l-6.46,29.73a12.37,12.37,0,0,1-14.71,9.45L163.41,260a2.05,2.05,0,0,0-2.14.84,2.17,2.17,0,0,0-.22,2.53l7.26,11.26a12.34,12.34,0,0,1-3.71,17l-25.55,16.5a12.39,12.39,0,0,1-17.09-3.7L114.55,293a2,2,0,0,0-2.23-.89,2.15,2.15,0,0,0-1.62,1.59L107.79,307A12.38,12.38,0,0,1,95.71,316.72Zm-41.87-47.4a12.71,12.71,0,0,1,12.58,12.83h0a12.06,12.06,0,0,1-.23,2.31l-2.87,13.1A2,2,0,0,0,64.89,300h0l29.67,6.42A2,2,0,0,0,97,305v-.13l2.9-13.36a12.3,12.3,0,0,1,9-9.33,3.37,3.37,0,0,1,.55-.12,12.14,12.14,0,0,1,13,5.36l7.41,11.5a2.08,2.08,0,0,0,2.86.62h0l25.6-16.4a2.07,2.07,0,0,0,.63-2.83L151.68,269a12.29,12.29,0,0,1,.25-13.73A12.47,12.47,0,0,1,164.87,250L178,252.85a2.07,2.07,0,0,0,2.46-1.56h0l6.46-29.73a2.06,2.06,0,0,0-1.59-2.44l-13.12-3.07a12.49,12.49,0,0,1-3.88-22.59l11-7.09a2,2,0,0,0,.67-2.75.56.56,0,0,0-.05-.08h0l-16.43-25.48a2.08,2.08,0,0,0-2.85-.62l-11,7.07a12.77,12.77,0,0,1-19.25-13.28l2.78-12.81a2.05,2.05,0,0,0-1.57-2.43h0L102,129.57a2,2,0,0,0-1.56.26,2.1,2.1,0,0,0-.9,1.31l-2.85,13.09a12.61,12.61,0,0,1-22.79,4.1l-7.23-11.26a2.07,2.07,0,0,0-2.86-.62l-25.53,16.4a2,2,0,0,0-.9,1.29,2.09,2.09,0,0,0,.28,1.54L45,167.16a12.71,12.71,0,0,1-13.44,19.12l-13-3a2.09,2.09,0,0,0-1.58.27,2,2,0,0,0-.91,1.3l-6.41,29.5a2,2,0,0,0,1.57,2.44l13.13,2.84a12.59,12.59,0,0,1,4.12,22.77L17.2,249.64a2.06,2.06,0,0,0-.62,2.84L33,278a2,2,0,0,0,1.3.9,2,2,0,0,0,1.56-.28l11.29-7.25a12.23,12.23,0,0,1,6.69-2Zm8.33-50.39,15.67-6.45-3.28-9.78L46,214.78V223l28.52,12.1,3.3-9.76Zm40.23-29.76-20.65,59H93l20.5-59Zm18.07,13.57-3.28,9.78L132.86,219l-15.68,6.47,3.3,9.76L149,223.1v-8.32Z"/>
      </g>
    </g>
  </g>
</svg>
