<svg xmlns="http://www.w3.org/2000/svg" viewBox="0 0 532.29 743.07"><defs><style
    >.cls-1,.cls-3{stroke:#fff;}.cls-1,.cls-2{fill-rule:evenodd;}.cls-2{fill:#fff;}.cls-3{fill:none;}</style></defs><title
  >chapiteau</title><g id="Calque_2" data-name="Calque 2"><g
      id="Calque_1-2"
      data-name="Calque 1"
    ><path
        class="cls-1"
        d="M255.3,28.14s5,8-.19,13.74-41.05,10.55-51,16.31c0,0,6.19-15.81,13.53-25.37,0,0-9.1-8.27-20.16-11.76,0,0,6.74-9.71,27.85-10.9,24.36-1.34,28-10,28-10l2,28"
      /><path class="cls-2" d="M268.46,141.19h-5v-127h5Z" /><path
        class="cls-3"
        d="M486.41,735.72H349.23c-44.49-66.09-81.45-244.18-81.45-244.18l-5,.8-31.9,131.05-40.3,112.33H45.88L22.48,480.38H509.81Z"
      /><path
        class="cls-1"
        d="M266.15,138.19c88.1,206,264.31,310.23,264.31,310.23H1.83S178.05,344.21,266.14,138.19"
      /><path
        class="cls-3"
        d="M495.2,448.42H37.09S190.46,344.21,266.14,138.19C341.83,344.21,495.2,448.42,495.2,448.42Z"
      /><path
        class="cls-1"
        d="M266.15,138.19C330.41,344.21,460,448.42,460,448.42H72.31S201.89,344.21,266.15,138.19"
      /><path
        class="cls-3"
        d="M266.15,138.19c52.79,206,158.57,310.23,158.57,310.23H107.57S213.35,344.21,266.15,138.19"
      /><path
        class="cls-1"
        d="M265.93,138.19c41,206,124.36,310.23,124.36,310.23H142.78s82.1-104.21,123.15-310.23"
      /><path
        class="cls-3"
        d="M354.24,448.42H178.05s59.12-104.21,88.1-310.23c29,206,88.1,310.23,88.1,310.23Z"
      /><path
        class="cls-1"
        d="M266.15,138.19C284.36,344.21,319,448.42,319,448.42H213.29s34.62-104.21,52.86-310.23"
      /><path
        class="cls-3"
        d="M267,138.19c5.58,206,16.73,310.23,16.73,310.23H248.53S261.45,344.21,267,138.19m-.89,310.23S271,633.25,346.07,742c0,0,25.33-14.6,32.16-55.51,0,0-65.32-33.69-112.08-238m-80,294S160.81,727.8,154,686.9c0,0,65.32-33.69,112.07-238,0,0-4.84,184.81-79.88,293.56Z"
      /><path
        class="cls-1"
        d="M495.2,462.09a17.63,17.63,0,1,0,35.26,0V448.42H495.2v13.67m-35.22,0a17.61,17.61,0,1,0,35.22,0V448.42H460v13.67"
      /><path
        class="cls-1"
        d="M424.72,462.09a17.63,17.63,0,1,0,35.26,0V448.42H424.72v13.67"
      /><path
        class="cls-1"
        d="M389.48,462.09a17.62,17.62,0,1,0,35.24,0V448.42H389.48v13.67m-35.24,0a17.62,17.62,0,1,0,35.24,0V448.42H354.24v13.67m-71.3-.51a17.62,17.62,0,1,0,35.24,0V447.91H282.94v13.67m-141,0a18,18,0,0,0,36.09,0V447.91H142v13.67m177,.51a17.62,17.62,0,1,0,35.24,0V448.42H319v13.67"
      /><path
        class="cls-1"
        d="M248.53,462.09a17.62,17.62,0,1,0,35.24,0V448.42H248.53v13.67m-35.24,0a17.62,17.62,0,1,0,35.24,0V448.42H213.29v13.67m-35.24,0a17.62,17.62,0,1,0,35.24,0V448.42H178.05v13.67m-70.48,0a17.61,17.61,0,1,0,35.22,0V448.42H107.57v13.67m-35.26,0a17.63,17.63,0,1,0,35.26,0V448.42H72.31v13.67"
      /><path
        class="cls-1"
        d="M37.09,462.09a17.61,17.61,0,1,0,35.22,0V448.42H37.09v13.67m-35.26,0a17.63,17.63,0,1,0,35.26,0V448.42H1.83v13.67"
      /><path
        class="cls-2"
        d="M259.46,152.63a1.46,1.46,0,0,0,1.34,1.56h13.33a1.46,1.46,0,0,0,1.33-1.56V139.76a1.47,1.47,0,0,0-1.33-1.57H260.8a1.47,1.47,0,0,0-1.34,1.57v12.87m2-147.94A4.51,4.51,0,1,0,266,.19a4.49,4.49,0,0,0-4.5,4.5"
      /></g></g></svg>
