<svg xmlns="http://www.w3.org/2000/svg" viewBox="0 0 402.7 247.09">
  <title>expertise_</title>
  <g id="Calque_2" data-name="Calque 2">
    <g id="Calque_1-2" data-name="Calque 1">
      <polygon className="cible" points="357.8 8.5 349.2 0 335.2 13.9 321.2 0 312.7 8.5 326.6 22.5 312.7 36.5 321.2 45.1 335.2 31.2 349.2 45.1 357.8 36.5 343.9 22.5 357.8 8.5"/>
      <path className="fleche" d="M319.7,57.2l-29.1,9.6,3.5,10.8,8.6-2.8c-13.5,21.4-43.1,62.4-73.8,62.4-45.7,0-84.3,28.8-102.8,75.4a17.31,17.31,0,1,0,11.4,3.6c16.8-41.7,51.4-67.6,91.4-67.6,36.7,0,69.3-44.9,83.7-68.4l1.4,8.3,11.4-2.2ZM126.6,235.3a5.7,5.7,0,0,1-5.7-5.7,5.7,5.7,0,0,1,11.4,0A5.63,5.63,0,0,1,126.6,235.3Z"/>
      <path className="not" d="M211.3,120.5l7.9-7.8,7.9,7.8,8.5-8.5-7.8-7.9,7.8-7.9-8.5-8.5-7.9,7.8-7.9-7.8-8.5,8.5,7.8,7.9-7.8,7.9Z"/>
      <path className="not" d="M135.3,87.5l7.9-7.8,7.9,7.8,8.5-8.5-7.8-7.9,7.8-7.9-8.5-8.5-7.9,7.8-7.9-7.8-8.5,8.5,7.8,7.9L126.8,79Z"/>
      <path className="other" d="M305.2,170.8a18.3,18.3,0,1,0,18.3,18.3A18.31,18.31,0,0,0,305.2,170.8Zm0,24.4a6.1,6.1,0,1,1,6.1-6.1A6.12,6.12,0,0,1,305.2,195.2Z"/>
      <path className="not" d="M237,231l7.9-7.8,7.9,7.8,8.5-8.5-7.8-7.9,7.8-7.9-8.5-8.5-7.9,7.8-7.9-7.8-8.5,8.5,7.8,7.9-7.8,7.9Z"/>
      <path className="other" d="M18.3,164.7A18.3,18.3,0,1,0,36.6,183,18.31,18.31,0,0,0,18.3,164.7Zm0,24.4a6.1,6.1,0,1,1,6.1-6.1A6.12,6.12,0,0,1,18.3,189.1Z"/>
      <path className="other" d="M384.4,110.8a18.3,18.3,0,1,0,18.3,18.3A18.31,18.31,0,0,0,384.4,110.8Zm0,24.4a6.1,6.1,0,1,1,6.1-6.1A6.12,6.12,0,0,1,384.4,135.2Z"/>
      <path className="not" d="M96.5,176.9l7.9-7.8,7.9,7.8,8.5-8.5-7.8-7.9,7.8-7.9-8.5-8.5-7.9,7.8-7.9-7.8L88,152.6l7.8,7.9L88,168.4Z"/>
    </g>
  </g>
</svg>
