<svg xmlns="http://www.w3.org/2000/svg" viewBox="0 0 368.1 247.09">
  <title>expertise_.svg</title>
  <g id="Calque_2" data-name="Calque 2">
    <g id="Calque_1-2" data-name="Calque 1">
      <polygon points="314.2 8.5 305.6 0 291.6 13.9 277.6 0 269.1 8.5 283 22.5 269.1 36.5 277.6 45.1 291.6 31.2 305.6 45.1 314.2 36.5 300.3 22.5 314.2 8.5"/>
      <path d="M276.1,57.2,247,66.8l3.5,10.8,8.6-2.8c-13.5,21.4-43.1,62.4-73.8,62.4-45.7,0-84.3,28.8-102.8,75.4a17.31,17.31,0,1,0,11.4,3.6c16.8-41.7,51.4-67.6,91.4-67.6,36.7,0,69.3-44.9,83.7-68.4l1.4,8.3,11.4-2.2ZM83,235.3a5.7,5.7,0,0,1-5.7-5.7,5.7,5.7,0,0,1,11.4,0A5.63,5.63,0,0,1,83,235.3Z"/>
      <path d="M167.7,120.5l7.9-7.8,7.9,7.8L192,112l-7.8-7.9,7.8-7.9-8.5-8.5-7.9,7.8-7.9-7.8-8.5,8.5,7.8,7.9-7.8,7.9Z"/>
      <path d="M91.7,87.5l7.9-7.8,7.9,7.8L116,79l-7.8-7.9,7.8-7.9-8.5-8.5-7.9,7.8-7.9-7.8-8.5,8.5L91,71.1,83.2,79Z"/>
      <path d="M261.6,170.8a18.3,18.3,0,1,0,18.3,18.3A18.31,18.31,0,0,0,261.6,170.8Zm0,24.4a6.1,6.1,0,1,1,6.1-6.1A6.12,6.12,0,0,1,261.6,195.2Z"/>
      <path d="M193.4,231l7.9-7.8,7.9,7.8,8.5-8.5-7.8-7.9,7.8-7.9-8.5-8.5-7.9,7.8-7.9-7.8-8.5,8.5,7.8,7.9-7.8,7.9Z"/>
      <path d="M349.8,122.7A18.3,18.3,0,1,0,368.1,141,18.31,18.31,0,0,0,349.8,122.7Zm0,24.4a6.1,6.1,0,1,1,6.1-6.1A6.12,6.12,0,0,1,349.8,147.1Z"/>
      <path d="M18.3,86.4a18.3,18.3,0,1,0,18.3,18.3A18.31,18.31,0,0,0,18.3,86.4Zm0,24.4a6.1,6.1,0,1,1,6.1-6.1A6.12,6.12,0,0,1,18.3,110.8Z"/>
    </g>
  </g>
</svg>
