<svg id="Calque_1" data-name="Calque 1" xmlns="http://www.w3.org/2000/svg" viewBox="0 0 102 85">
  <defs>
    <style>
      .cls-1 {
        fill: none;
      }
    </style>
  </defs>
  <title>handshake</title>
  <path class="cls-1" d="M29,66.25,27,64.73A5.56,5.56,0,0,1,26.28,67a4.86,4.86,0,0,1-.27.41l1.84,1.37.34.25.38-.57a7.45,7.45,0,0,0,.81-1.93L29,66.25ZM42.76,76.49l-1.62-1.24a9.16,9.16,0,0,1-2,1.87l2.18,1.62.08.07a12.57,12.57,0,0,0,1.88-2l-.51-.34ZM81.7,67.7V66.56a5.41,5.41,0,0,0-.27-2l-.37-.77a16.9,16.9,0,0,0-4.56-5.18l-1.39-1,3.84,8c0,.41.09,1.44.1,1.8s0,.37,0,.5a2.39,2.39,0,0,1-.56,1.81,7,7,0,0,1-.65.68l-.14.09a2.59,2.59,0,0,1-3,0L56.86,56.2a1.34,1.34,0,0,0-1.86.24,1.36,1.36,0,0,0,.15,1.87L68.53,69.12a9.22,9.22,0,0,1,2.92,4.14l.16.45a1.12,1.12,0,0,1-.24,1.12l-.1.1a3.35,3.35,0,0,1-2.56.88,4.51,4.51,0,0,1-2.13-.94L51.24,61.12a1.36,1.36,0,1,0-1.81,2L62.08,74.65a1.07,1.07,0,0,1,.34.58v.13l.66,1.86A5.5,5.5,0,0,1,63,78.84l-.19.41a1.13,1.13,0,0,1-.72.6A4.14,4.14,0,0,1,58,78.73l-8.91-9a1.37,1.37,0,0,0-1.9,0,1.35,1.35,0,0,0-.08,1.89l7.35,8.29a1.11,1.11,0,0,1-.18,1.72l-.14.1A14.1,14.1,0,0,1,49,80.6a12.76,12.76,0,0,1-2.41-1.31,2,2,0,0,1-.21.44,4.3,4.3,0,0,1-1.67,1.58,17.09,17.09,0,0,0,9.81,3.14,1.52,1.52,0,0,0,.77-.24l.44-.34a3.92,3.92,0,0,0,1.56-2.18,6.91,6.91,0,0,0,5.52.77,3.91,3.91,0,0,0,2.41-2l.19-.41a6.23,6.23,0,0,0,.43-2.34,7.47,7.47,0,0,0,2.38.86,6,6,0,0,0,5-1.72l.1-.11a3.79,3.79,0,0,0,1-3.29,5.33,5.33,0,0,0,4.93-.66l.1-.14a6.59,6.59,0,0,0,1.12-1.12A5.1,5.1,0,0,0,81.7,67.7Zm-28.76-34v.07h2.84a1.85,1.85,0,0,1,.47,0l-1.48-2.18a1.38,1.38,0,0,0-1-.6l-9-.8a6.41,6.41,0,0,0-1.75,0L25.72,32.74l-1.13.16-4,.15,2.63,1.39c-.06.42-.14.82-.22,1.24h1.92l.87-.12L43.39,33a3.08,3.08,0,0,1,1,0l2.19.19,6.31.56ZM21.26,62.48,19,61.73a11.6,11.6,0,0,0-3-.6,4.45,4.45,0,0,0-.73,0H13.45L14,59.25c-.52.86-1,1.72-1.62,2.57l-1.86-.58-.24.74a1.41,1.41,0,0,0,.2,1.21,1.3,1.3,0,0,0,1.12.56H15.3a9.31,9.31,0,0,1,2.91.5l1.57.53,2.59.86c.15-.28.32-.58.52-.9a5,5,0,0,1,1.41-1.21Zm14.07,8.46-1.19-.89a10.6,10.6,0,0,1-1.82,2l2.24,1.64a16.54,16.54,0,0,0,1.78-2.06ZM89.1,61.76c-.34-.51-.68-1-1-1.54l-1.38.56a1.38,1.38,0,0,0-.83,1V62a1.79,1.79,0,0,1-1.78,1.79H81a16.9,16.9,0,0,0-4.56-5.18l-1.39-1L58.26,45.11a12.37,12.37,0,0,0-6.6-2.45l-3.18-.22a1.29,1.29,0,0,0-1,.36,1.36,1.36,0,0,0-.44,1,7.86,7.86,0,0,1-7.66,7.88H38.9c-1.45-.8-1.59-1.35-1.6-1.42a.48.48,0,0,1,0-.17.92.92,0,0,0,.24-.28l1.12-1.71a18.69,18.69,0,0,0,1.68-5.71,5.67,5.67,0,0,1,2.49-3.55l7.43-4.74a2,2,0,0,1,1.12-.3h4.49a1.85,1.85,0,0,1,.47,0,2.4,2.4,0,0,1,.38.12l7.43,2.67a21,21,0,0,0,6.62,1.13A24.41,24.41,0,0,0,76,37.2a24.07,24.07,0,0,0,2.64-.62c-.15-.7-.27-1.41-.39-2.1l3.17-1.68a1.09,1.09,0,0,0-.59.08l-1.66.64a22.6,22.6,0,0,1-3.65,1.12,21.69,21.69,0,0,1-4.75.47,18.53,18.53,0,0,1-5.76-1l-7.4-2.54a4.64,4.64,0,0,0-1.81-.36H51.33a4.68,4.68,0,0,0-2.52.73L46.66,33.2l-5.28,3.38a8.4,8.4,0,0,0-3.71,5.27V42a16.48,16.48,0,0,1-1.3,4.72l-1,1.6a3,3,0,0,0-.72,2.35c.18,1.37,1.29,2.59,3.29,3.63a1.45,1.45,0,0,0,.5.15h1a10.6,10.6,0,0,0,10.25-9.16l1.83.14a9.76,9.76,0,0,1,5.18,1.91L74.82,60.84a13.91,13.91,0,0,1,4.06,4.82.64.64,0,0,1,.08.14,1.36,1.36,0,0,0,1.21.76h4a4.51,4.51,0,0,0,3.75-2A4.44,4.44,0,0,0,88.53,63l3.13-1.31a1.34,1.34,0,0,0,.79-.88Zm-63.38-29a1.66,1.66,0,0,0-.34-.25L15.32,27.2a1.33,1.33,0,0,0-1.88.7L.83,59.79a1.39,1.39,0,0,0,0,1.13,1.4,1.4,0,0,0,.85.71l10.9,3.05a1.39,1.39,0,0,0,1.48-.54l.21-.31c.59-.86,1.12-1.75,1.71-2.66a73.47,73.47,0,0,0,9.84-25.71c.1-.53.19-1.05.27-1.58a1.44,1.44,0,0,0-.37-1.14ZM14,59.19c-.51.87-1,1.72-1.62,2.57l-1.86-.52L3.91,59.38,15.45,30.31,20.61,33l2.64,1.4c-.07.42-.15.82-.23,1.24A70.71,70.71,0,0,1,14,59.19Zm86.61.6L88,27.9a1.33,1.33,0,0,0-1.88-.7l-10,5.29a1.39,1.39,0,0,0-.71,1.42,2.78,2.78,0,0,0,.12.64c.13.9.3,1.79.48,2.68a73.82,73.82,0,0,0,9.88,24.6c.48.77,1,1.53,1.5,2.25a1.26,1.26,0,0,0,.46.4,1.2,1.2,0,0,0,.66.18,1.09,1.09,0,0,0,.36,0l10.9-3a1.31,1.31,0,0,0,.86-1.82Zm-8.21,1-3.37.95c-.33-.51-.67-1-1-1.54a70.82,70.82,0,0,1-9.46-23.65c-.14-.7-.27-1.41-.39-2.11l3.18-1.67L86,30.31,97.61,59.38Zm-45,12.61a4,4,0,0,0-1.88-.6,5.77,5.77,0,0,0-2.83.56l-.53.27L42,74c-.28.43-.58.86-.9,1.26a9.19,9.19,0,0,1-2,1.87L39,77.2a6.49,6.49,0,0,0-.66,3.3,4.14,4.14,0,0,0,2,3.12,5.36,5.36,0,0,0,2.81.8,6.21,6.21,0,0,0,3.06-.85,6.69,6.69,0,0,0,1.13-.78,7,7,0,0,0,1.39-1.62,5.93,5.93,0,0,0,.29-.56,7,7,0,0,0,.49-2.94A4.88,4.88,0,0,0,47.43,73.42Zm-1,6.32a4.37,4.37,0,0,1-1.67,1.58,2.87,2.87,0,0,1-2.94,0c-.72-.46-.9-1.25-.53-2.37l.07-.19a10.3,10.3,0,0,1,.87-1.64,2.54,2.54,0,0,1,.58-.6,6.18,6.18,0,0,1,1.12-.63l.22-.09a3,3,0,0,1,1.13-.25,1.36,1.36,0,0,1,.78.22,2.24,2.24,0,0,1,.74,2v.15a4.3,4.3,0,0,1-.19,1.43,1.7,1.7,0,0,1-.18.44Zm-3-14.85A6,6,0,0,0,38,64.5,6.76,6.76,0,0,0,35.67,66a4.22,4.22,0,0,1,.22.77c.09.52-.22,1-.81,1.88l-.45.69a8.87,8.87,0,0,1-.51.74,11.29,11.29,0,0,1-1.81,2l-.34.27a9.13,9.13,0,0,0-.2,2.5,4.41,4.41,0,0,0,.08.71,5.84,5.84,0,0,0,2.56,4.35A4.76,4.76,0,0,0,37,80.7a5.73,5.73,0,0,0,1.36-.2,6.94,6.94,0,0,0,1.57-.65,9,9,0,0,0,1.31-.9.57.57,0,0,0,.15-.12,12.57,12.57,0,0,0,1.88-2,9.56,9.56,0,0,0,.81-1.13l.22-.33a16.57,16.57,0,0,0,1.25-2.62A7.78,7.78,0,0,0,46,71.14a6.24,6.24,0,0,0-2.63-6.25ZM39,77.28l-.41.26a2.4,2.4,0,0,1-2.7.12,3.54,3.54,0,0,1-1.44-2.91,6.91,6.91,0,0,1,0-.91v-.09A8.43,8.43,0,0,1,35.28,71c.15-.3.32-.6.5-.89A12,12,0,0,1,38,67.51l.49-.29a3.91,3.91,0,0,1,1.77-.45,2.85,2.85,0,0,1,1.58.45,3.54,3.54,0,0,1,1.53,3.58,7.75,7.75,0,0,1-.53,1.56,11,11,0,0,1-.63,1.29c-.07.12-.12.24-.19.34-.28.43-.58.86-.9,1.26a9.16,9.16,0,0,1-2,1.87ZM29.43,62.76a3.41,3.41,0,0,0-.56-1A3.93,3.93,0,0,0,25,60.29a8.51,8.51,0,0,0-3.72,2.26,4.91,4.91,0,0,0-.72.85,13.5,13.5,0,0,0-.81,1.5A7.34,7.34,0,0,0,19,67.53a4.13,4.13,0,0,0,1.94,3.84,4.34,4.34,0,0,0,3.91.43l.48-.21a7.32,7.32,0,0,0,2.25-1.85q.3-.34.57-.72c.14-.19.26-.38.38-.57a8.9,8.9,0,0,0,1.13-3.23,5.26,5.26,0,0,0-.22-2.46ZM27,64.37v.36A5.57,5.57,0,0,1,26.3,67a4.86,4.86,0,0,1-.27.41,6.72,6.72,0,0,1-.89,1,4,4,0,0,1-1,.72,1.65,1.65,0,0,1-1.74-.07,1.4,1.4,0,0,1-.71-1.42,5.32,5.32,0,0,1,.62-1.94c.15-.28.31-.58.52-.9a5,5,0,0,1,1.43-1.28A4.41,4.41,0,0,1,25.43,63h.24a1.25,1.25,0,0,1,1.12.79,1.64,1.64,0,0,1,.09.62Zm11.59,2A6.11,6.11,0,0,0,38,64.5a6.66,6.66,0,0,0-2.4-2.7A6.58,6.58,0,0,0,30.24,61a3.8,3.8,0,0,0-1.37.74,7.5,7.5,0,0,0-1.55,2l-.34.55v.36A5.56,5.56,0,0,1,26.3,67a4.86,4.86,0,0,1-.27.41,6.72,6.72,0,0,1-.89,1,9.15,9.15,0,0,0-.32,1.87,5.79,5.79,0,0,0,.08,1.5A4.92,4.92,0,0,0,29.7,76a5.67,5.67,0,0,0,2.15-.45,8,8,0,0,0,1.59-.9,12.56,12.56,0,0,0,1.06-.87,15.14,15.14,0,0,0,1.77-2.06c.2-.29.41-.59.62-.92l.4-.62a6.08,6.08,0,0,0,1.26-3,3.25,3.25,0,0,0,0-.88Zm-6.6,6c-1.12.9-2.4,1.25-3.42.6a2.44,2.44,0,0,1-1-2.5,6.09,6.09,0,0,1,.1-.73,8.08,8.08,0,0,1,.24-1A12.91,12.91,0,0,1,29,66.25l.22-.36c.15-.22.28-.46.41-.67.54-.92.84-1.4,1.35-1.55A4.18,4.18,0,0,1,32,63.51a4,4,0,0,1,2.08.61A3.81,3.81,0,0,1,35.63,66a3.52,3.52,0,0,1,.21.77c.09.52-.21,1-.81,1.88l-.45.69a8.73,8.73,0,0,1-.5.74,11,11,0,0,1-1.82,2l-.28.25Zm.28-47.26a1.36,1.36,0,0,1-1.12-.6l-7-10.2a1.38,1.38,0,0,1,.38-1.86,1.35,1.35,0,0,1,1.86.33l7,10.2a1.34,1.34,0,0,1,.08,1.4,1.35,1.35,0,0,1-1.2.73ZM44,22.83a1.34,1.34,0,0,1-1.33-1.12L39.54,2.12a1.38,1.38,0,1,1,2.72-.45l3.12,19.57a1.36,1.36,0,0,1-.23,1,1.38,1.38,0,0,1-.89.55l-.27,0Zm23.9,2.28a1.36,1.36,0,0,1-1.2-.73,1.38,1.38,0,0,1,.08-1.4L73.7,12.77a1.35,1.35,0,0,1,2.37.14,1.39,1.39,0,0,1-.13,1.39L69,24.5a1.37,1.37,0,0,1-1.09.61ZM56.15,22.83h-.21a1.34,1.34,0,0,1-.89-.55,1.4,1.4,0,0,1-.24-1L58,1.67a1.36,1.36,0,1,1,2.68.43L57.5,21.7A1.36,1.36,0,0,1,56.15,22.83Z"/>
</svg>
