<svg id="Calque_1" data-name="Calque 1" xmlns="http://www.w3.org/2000/svg" viewBox="0 0 131 79.65">
  <defs>
    <style>
      .cls-1 {
        fill: none;
      }
    </style>
  </defs>
  <title>laureat</title>
  <path class="cls-1" d="M33.29,45.12a2.71,2.71,0,0,1-4,0,1,1,0,0,0-1.48,0,1.21,1.21,0,0,0,0,1.61,4.63,4.63,0,0,0,7,0,1.21,1.21,0,0,0,0-1.61,1,1,0,0,0-1.49,0Zm-4.56-9.66a1.11,1.11,0,0,0,0-1.53,3.77,3.77,0,0,0-5.44,0,1.11,1.11,0,0,0,0,1.53,1.05,1.05,0,0,0,1.49,0,1.74,1.74,0,0,1,2.46,0A1,1,0,0,0,28.73,35.46Zm7.87-2.69a3.74,3.74,0,0,0-2.72,1.16,1.11,1.11,0,0,0,0,1.53,1,1,0,0,0,1.48,0,1.71,1.71,0,0,1,1.23-.53,1.68,1.68,0,0,1,1.23.53,1.05,1.05,0,0,0,.75.31,1,1,0,0,0,.74-.31,1.11,1.11,0,0,0,0-1.53,3.74,3.74,0,0,0-2.71-1.16Zm22.11,27.3c-2.9-2.16-15.77-6.52-16.32-6.71a1,1,0,0,0-.69,0h0l-8,2.86A1.07,1.07,0,0,0,33,57L31.3,65.43,29.59,57a1.11,1.11,0,0,0-.68-.79l-8-2.86h0a1,1,0,0,0-.7,0c-.54.18-13.42,4.55-16.31,6.71S.39,75.33.3,79.28A1.07,1.07,0,0,0,.6,80a1.09,1.09,0,0,0,.76.32H61.24A1.07,1.07,0,0,0,62,80a1,1,0,0,0,.3-.76C62.21,75.33,61.69,62.28,58.71,60.07ZM35,58l4.46-1.59-6,9.13Zm-5.8,7.54-6-9.13L27.63,58l1.54,7.54Zm1.25,5.76a1.11,1.11,0,0,0,1.77,0L42.48,55.62l3,1.05L31.3,77.42,17.14,56.68c1.12-.4,2.15-.77,3-1l10.3,15.68ZM5.16,61.76c1.39-1,5.9-2.84,9.93-4.34L29.3,78.24H2.45C2.7,70.91,3.76,62.8,5.16,61.76ZM33.3,78.25,47.51,57.43c4,1.5,8.55,3.3,9.94,4.33s2.46,9.15,2.71,16.49ZM4.93,14.94l4.9,2.38v7.34c-1.07.52-2.38,2.08-2.56,6.65a1,1,0,0,0,.35.82,5.18,5.18,0,0,0,3.27,1.13,5.11,5.11,0,0,0,3.28-1.14,1,1,0,0,0,.35-.82c-.18-4.5-1.46-6.09-2.56-6.62V18.36l3.86,1.87V28A21.87,21.87,0,0,0,16,30.76a2.33,2.33,0,0,0-.68.43c-.78.71-1.08,1.9-.87,3.54.35,2.72,1.08,4.47,2.24,5.35a3,3,0,0,0,1.32.58c1,2.76,4.85,12.15,13.28,12.15s12.32-9.39,13.28-12.15a3,3,0,0,0,1.33-.58c1.16-.88,1.89-2.63,2.23-5.35.21-1.64-.08-2.83-.87-3.54a2.21,2.21,0,0,0-.68-.43,20.79,20.79,0,0,0,.2-2.77V20.23l10.89-5.3a1,1,0,0,0,0-1.87L31.76.81a1.06,1.06,0,0,0-.92,0L4.94,13.06a1,1,0,0,0-.61.93A1.06,1.06,0,0,0,4.93,14.94Zm6,16.23a3.12,3.12,0,0,1-1.47-.36c.22-3.35,1.13-4.25,1.5-4.3s1.23.95,1.45,4.3A3.17,3.17,0,0,1,10.89,31.17ZM46,34.47c-.36,2.77-1,3.67-1.43,4a.88.88,0,0,1-.67.17,1.08,1.08,0,0,0-1.16.75c0,.11-3.38,11.37-11.48,11.37S19.86,39.46,19.82,39.35a1.06,1.06,0,0,0-1.15-.75.9.9,0,0,1-.68-.17c-.38-.29-1.07-1.19-1.42-4-.13-1,0-1.56.19-1.73a.37.37,0,0,1,.27-.09h0a1.1,1.1,0,0,0,1-.31,1,1,0,0,0,.25-1A11.69,11.69,0,0,1,18,29H44.63a11.81,11.81,0,0,1-.32,2.31,1.06,1.06,0,0,0,.25,1,1.1,1.1,0,0,0,1,.34s.2,0,.31.09S46.17,33.46,46,34.47Zm-28.1-7.53v-7C18.64,18.93,22,15,31.3,15S44,18.94,44.67,19.9v7Zm13.36-24L54.79,14l-8.74,4.25C44.65,16.6,40.53,13,31.3,13S18,16.6,16.55,18.26L7.82,14Zm71,42.21a2.71,2.71,0,0,1-4,0,1,1,0,0,0-1.48,0,1.21,1.21,0,0,0,0,1.61,4.63,4.63,0,0,0,7,0,1.21,1.21,0,0,0,0-1.61,1,1,0,0,0-1.49,0Zm-4.56-9.66a1.11,1.11,0,0,0,0-1.53,3.77,3.77,0,0,0-5.44,0,1.11,1.11,0,0,0,0,1.53,1.05,1.05,0,0,0,1.49,0,1.74,1.74,0,0,1,2.46,0A1,1,0,0,0,97.73,35.46Zm7.87-2.69a3.74,3.74,0,0,0-2.72,1.16,1.11,1.11,0,0,0,0,1.53,1,1,0,0,0,1.48,0,1.7,1.7,0,0,1,2.47,0,1,1,0,0,0,1.48,0,1.11,1.11,0,0,0,0-1.53,3.74,3.74,0,0,0-2.71-1.16Zm22.11,27.3c-2.9-2.16-15.77-6.52-16.32-6.71a1,1,0,0,0-.69,0h0l-8,2.86A1.07,1.07,0,0,0,102,57l-1.72,8.42L98.59,57a1.11,1.11,0,0,0-.68-.79l-8-2.86h0a1,1,0,0,0-.7,0c-.54.18-13.42,4.55-16.31,6.71s-3.51,15.26-3.6,19.21a1.08,1.08,0,0,0,1.06,1.08h59.88A1.07,1.07,0,0,0,131,80a1,1,0,0,0,.3-.76C131.21,75.33,130.69,62.28,127.71,60.07ZM104,58l4.47-1.59-6,9.13Zm-5.8,7.54-6-9.13L96.63,58l1.54,7.54Zm1.25,5.76a1.11,1.11,0,0,0,1.77,0l10.3-15.69,3,1.05L100.3,77.42,86.14,56.68c1.12-.4,2.15-.77,3-1l10.3,15.68ZM74.16,61.76c1.39-1,5.9-2.84,9.93-4.34L98.3,78.24H71.45C71.7,70.91,72.76,62.8,74.16,61.76ZM102.3,78.25l14.21-20.82c4,1.5,8.55,3.3,9.94,4.33s2.46,9.15,2.71,16.49ZM73.93,14.94l4.9,2.38v7.34c-1.07.52-2.38,2.08-2.56,6.65a1,1,0,0,0,.35.82,5.18,5.18,0,0,0,3.27,1.13,5.11,5.11,0,0,0,3.28-1.14,1,1,0,0,0,.35-.82c-.18-4.5-1.46-6.09-2.56-6.62V18.36l3.86,1.87V28A21.87,21.87,0,0,0,85,30.76a2.33,2.33,0,0,0-.68.43c-.78.71-1.08,1.9-.87,3.54.35,2.72,1.08,4.47,2.24,5.35a3,3,0,0,0,1.32.58c1,2.76,4.85,12.15,13.28,12.15s12.32-9.39,13.28-12.15a3,3,0,0,0,1.33-.58c1.16-.88,1.89-2.63,2.23-5.35.21-1.64-.08-2.83-.87-3.54a2.21,2.21,0,0,0-.68-.43,20.79,20.79,0,0,0,.2-2.77V20.23l10.89-5.3a1,1,0,0,0,0-1.87L100.76.81a1.06,1.06,0,0,0-.92,0L73.94,13.06a1,1,0,0,0-.6.93A1,1,0,0,0,73.93,14.94Zm6,16.23a3.12,3.12,0,0,1-1.47-.36c.22-3.35,1.13-4.25,1.5-4.3s1.23.95,1.45,4.3A3.17,3.17,0,0,1,79.89,31.17ZM115,34.47c-.35,2.77-1.05,3.67-1.43,4a.88.88,0,0,1-.67.17,1.08,1.08,0,0,0-1.16.75c0,.11-3.38,11.37-11.48,11.37S88.86,39.46,88.82,39.35a1.06,1.06,0,0,0-1.15-.75.9.9,0,0,1-.68-.17c-.38-.29-1.07-1.19-1.42-4-.13-1,0-1.56.19-1.73a.37.37,0,0,1,.27-.09h0a1.1,1.1,0,0,0,1-.31,1,1,0,0,0,.25-1A11.69,11.69,0,0,1,87,29h26.66a11.81,11.81,0,0,1-.32,2.31,1.06,1.06,0,0,0,.25,1,1.1,1.1,0,0,0,1,.34s.2,0,.31.09S115.17,33.46,115,34.47Zm-28.1-7.53v-7c.7-1,4.09-4.86,13.36-4.86s12.68,3.9,13.37,4.86v7Zm13.36-24L123.79,14l-8.74,4.25C113.65,16.6,109.53,13,100.3,13S87,16.6,85.55,18.26L76.82,14Z" transform="translate(-0.3 -0.71)"/>
</svg>
