<svg xmlns="http://www.w3.org/2000/svg" viewBox="0 0 263 263">
  <defs>
    <style>
      .cls-1 {
        /* fill: #93f1e3; */
      }

      .cls-2 {
        /* fill: #a56941; */
      }

      .cls-3 {
        /* fill: #965028; */
      }

      .cls-4 {
        /* fill: #97d729; */
      }

      .cls-5 {
        /* fill: #8bc727; */
      }

      .cls-6 {
        /* fill: #78a91f; */
      }

      .cls-7 {
        /* fill: #5b40b8; */
      }

      .cls-8 {
        /* fill: #310a70; */
      }

      .cls-9 {
        /* fill: #fffad7; */
      }

      .cls-10 {
        /* fill: #ffebb4; */
      }

      .cls-11 {
        /* fill: #fad2b4; */
      }

      .cls-12 {
        /* fill: #faa073; */
      }

      .cls-13 {
        /* fill: #fabe9b; */
      }

      .cls-14 {
        /* fill: #fd4755; */
      }

      .cls-15 {
        /* fill: #d13824; */
      }

      .cls-16 {
        /* fill: #f4c833; */
      }
    </style>
  </defs>
  <title>marmite</title>
  <g id="Calque_2" data-name="Calque 2">
    <g id="Calque_1-2" data-name="Calque 1">
      <g>
        <circle className="bg-marmite" cx="131.5" cy="131.5" r="131.5"/>
        <g>
          <path className="lo2" d="M115.5,152.38l-9.4,9.36L5.26,61.33A6.63,6.63,0,0,1,14.66,52L115.5,152.38Z"/>
          <path className="lo1" d="M7.72,50.43a6.59,6.59,0,0,0-2.46,10.9L106.1,161.74l4-4L9.27,57.34a6.58,6.58,0,0,1-1.55-6.91Z"/>
        </g>
        <g>
          <path className="s3" d="M162.14,137.81a5.78,5.78,0,0,0,2.16-.05,4.81,4.81,0,0,1,4.69,1.89c.13.19.27.37.41.55,4.58,5.77,12,8.19,16.67,5.4a6.86,6.86,0,0,0,1.48-1.18,3.85,3.85,0,0,1,3.2-1.18c5,.47,9.47-1.11,11.41-4.57s.93-7.86-2.15-11.71a3.73,3.73,0,0,1-.72-3.39,6.74,6.74,0,0,0,.25-1.92c-.09-5.28-6.22-10.07-13.7-10.69l-.69,0a4.72,4.72,0,0,1-4.18-2.8,5.36,5.36,0,0,0-1.12-1.8c-2.53-2.73-7.43-2.86-11-.28a8,8,0,0,0-2.91,3.8,3.67,3.67,0,0,1-3.65,2.39,13.53,13.53,0,0,0-6.59,1.75,13.34,13.34,0,0,0,2.2,6.28,3.42,3.42,0,0,1-.15,4.21A7.84,7.84,0,0,0,156,129c-.32,4.27,2.44,8.21,6.17,8.81Z"/>
          <path className="s2" d="M159.11,117.94a3.7,3.7,0,0,0,3.66-2.4,8,8,0,0,1,2.91-3.8c3.53-2.58,8.43-2.45,11,.28a5.36,5.36,0,0,1,1.12,1.8,4.72,4.72,0,0,0,4.18,2.8l.69,0c7.48.62,13.61,5.41,13.7,10.7a6.84,6.84,0,0,1-.25,1.92,3.73,3.73,0,0,0,.72,3.39,12.39,12.39,0,0,1,3.1,8.5,7.87,7.87,0,0,0,2.26-2.51c1.93-3.43.93-7.86-2.15-11.71a3.73,3.73,0,0,1-.72-3.39,6.74,6.74,0,0,0,.25-1.92c-.09-5.28-6.22-10.07-13.7-10.69l-.69,0A4.7,4.7,0,0,1,181,108.1a5.66,5.66,0,0,0-1.12-1.79c-2.53-2.73-7.44-2.86-11-.28a8,8,0,0,0-2.92,3.8,3.67,3.67,0,0,1-3.65,2.39,13.58,13.58,0,0,0-6.59,1.75,13.1,13.1,0,0,0,1.06,4.17A11.42,11.42,0,0,1,159.11,117.94Z"/>
          <path className="s1" d="M146.53,111a2.27,2.27,0,0,1,.19-1.76,2.43,2.43,0,0,1,3.24-.93l31,16.46a2.28,2.28,0,0,1,1,3.14,2.42,2.42,0,0,1-3.24.93l-31-16.46a2.3,2.3,0,0,1-1.15-1.38Z"/>
        </g>
        <g>
          <path className="m5" d="M41.8,197.82a16.7,16.7,0,1,1,16.67-16.69A16.7,16.7,0,0,1,41.8,197.82Zm0-24.13a7.44,7.44,0,1,0,7.43,7.44,7.44,7.44,0,0,0-7.43-7.44Zm177.29,24.13a16.7,16.7,0,1,1,16.66-16.69,16.7,16.7,0,0,1-16.66,16.69Zm0-24.13a7.44,7.44,0,1,0,7.42,7.44,7.44,7.44,0,0,0-7.42-7.44Z"/>
          <path className="m4" d="M194.62,244.71H65.53a24.49,24.49,0,0,1-24.47-24.5V141.67h178v78.54a24.49,24.49,0,0,1-24.47,24.5Z"/>
          <path className="m3" d="M59,220.21V160.69H219.08v-19h-178v78.54a24.48,24.48,0,0,0,24.46,24.5h18A24.48,24.48,0,0,1,59,220.21Z"/>
          <path className="m2" d="M212.54,135.15H47.6a11.44,11.44,0,0,0-11.43,11.44v5.51H224v-5.51a11.44,11.44,0,0,0-11.44-11.44Z"/>
          <path className="m1" d="M87.13,135.15H47.6a11.44,11.44,0,0,0-11.43,11.44v5.51H75.7v-5.51a11.44,11.44,0,0,1,11.44-11.44Z"/>
        </g>
        <g>
          <path className="champiooooo" d="M187.66,74.5c-6,7.11-15.84.59-26.9-8.72s-19.17-17.88-13.17-25,23.81-10,34.88-.74S193.65,67.4,187.66,74.5Z"/>
          <path className="champioooo" d="M153.27,45.57c5.47-6.48,20.8-9.5,31.84-2.9a22.54,22.54,0,0,0-2.64-2.62c-11.06-9.31-28.89-6.37-34.88.74s2.1,15.68,13.17,25c1,.81,1.92,1.6,2.86,2.37C154.07,59.77,147.8,52.06,153.27,45.57Z"/>
          <path className="champiooo" d="M177.83,76.92c2.62-6.78,1.37-18-6.06-24.2s-18.66-5.58-24.9-1.85c1.62,3.2,4.64,6.58,8.39,10.08-6.36,4.4-12.77,10-14.72,12.34A10.61,10.61,0,0,0,156.77,87c1.95-2.31,6.42-9.57,9.68-16.58,4.1,3.1,7.94,5.49,11.37,6.55Z"/>
          <g>
            <path className="champio" d="M145.28,77.28c1.95-2.31,8.36-7.94,14.72-12.34-3.76-3.51-6.77-6.88-8.4-10.08a23.32,23.32,0,0,1,22.37.06,18.28,18.28,0,0,0-2.2-2.2c-7.42-6.24-18.66-5.58-24.9-1.85,1.62,3.2,4.64,6.58,8.39,10.08-6.36,4.4-12.77,10-14.72,12.34a10.63,10.63,0,0,0,3.94,16.58A10.6,10.6,0,0,1,145.28,77.28Z"/>
            <path className="champioo" d="M166.45,70.37,160,64.94l-3.42,2.47Z"/>
          </g>
        </g>
        <g>
          <path className="brocof" d="M119.62,61.69a2.88,2.88,0,0,0,2.55-2.84,17.62,17.62,0,0,1,7.48-14.37l9.7-6.85a2.68,2.68,0,0,0,.64-3.77,2.75,2.75,0,0,0-3.81-.63,1.11,1.11,0,0,1-1.57-1.54v0a2.72,2.72,0,1,0-4.41-3.19,1.06,1.06,0,0,1-1.88-.89l.3-1a2.73,2.73,0,1,0-5.21-1.6.65.65,0,0,1-.7.45.63.63,0,0,1-.55-.62V24a2.78,2.78,0,0,0-2.46-2.8,2.72,2.72,0,0,0-3,2.69v1a.69.69,0,0,1-.59.67.69.69,0,0,1-.76-.48,2.81,2.81,0,0,0-3.16-2,2.7,2.7,0,0,0-2.11,3.42l.33,1.09a1,1,0,0,1-.56,1.24,1.06,1.06,0,0,1-1.33-.33,2.72,2.72,0,1,0-4.39,3.21l.07.1a1.08,1.08,0,0,1-.12,1.4,1.11,1.11,0,0,1-1.42.12,2.83,2.83,0,0,0-3.71.32,2.68,2.68,0,0,0,.09,3.72l.35.29,9.78,6.86a17.6,17.6,0,0,1,7.53,14.4V59a2.71,2.71,0,0,0,2.91,2.69Z"/>
          <path className="brocob" d="M122.43,55.91a17.65,17.65,0,0,0-6.85-9.61l-9.78-6.86a2.6,2.6,0,0,1-.36-.3,2.69,2.69,0,0,1-.09-3.72,2.84,2.84,0,0,1,3.71-.31,1.13,1.13,0,0,0,1.42-.12,1.09,1.09,0,0,0,.12-1.41l-.07-.09a2.72,2.72,0,1,1,4.39-3.22,1.07,1.07,0,0,0,1.33.34,1.05,1.05,0,0,0,.56-1.24l-.33-1.1a2.7,2.7,0,0,1,2.11-3.41,2.82,2.82,0,0,1,3.17,2,.68.68,0,0,0,1.34-.19v-1a2.45,2.45,0,0,1,0-.38.62.62,0,0,1-.42.1.63.63,0,0,1-.55-.62V24a2.78,2.78,0,0,0-2.46-2.8,2.72,2.72,0,0,0-3,2.68v1a.69.69,0,0,1-.59.67.69.69,0,0,1-.76-.48,2.81,2.81,0,0,0-3.16-2,2.7,2.7,0,0,0-2.11,3.42l.32,1.09a1,1,0,0,1-.55,1.24,1.07,1.07,0,0,1-1.33-.33,2.72,2.72,0,1,0-4.39,3.21l.06.1a1.07,1.07,0,0,1-.12,1.4,1.09,1.09,0,0,1-1.41.12,2.83,2.83,0,0,0-3.71.32,2.67,2.67,0,0,0,.09,3.72,3.37,3.37,0,0,0,.35.29l9.78,6.86a17.6,17.6,0,0,1,7.53,14.4V59a2.65,2.65,0,0,0,.8,1.91,2.7,2.7,0,0,0,2.11.78,2.88,2.88,0,0,0,2.55-2.84A16.92,16.92,0,0,1,122.43,55.91Z"/>
        </g>
        <g>
          <path className="tomatoes" d="M126.78,91.53,97.44,65.94A15.62,15.62,0,0,0,82.1,63.08l-.08,0C75.67,65.19,70.83,69.3,68.93,75c-3.87,11.62,6.12,25.42,22.32,30.81s32.46.33,36.34-11.3A2.78,2.78,0,0,0,126.78,91.53Z"/>
          <path className="inside" d="M103.78,88.11c-9.1-3-15.57-9.62-17-16.4a3.1,3.1,0,0,0-5.28-1.52,12.28,12.28,0,0,0-2.8,4.61c-2.89,8.66,4.55,18.94,16.62,23,8.94,3,17.91,1.67,23.13-2.72a3.11,3.11,0,0,0-2.32-5.46A29.8,29.8,0,0,1,103.78,88.11Z"/>
          <path className="graine" d="M82.83,76.26a8.72,8.72,0,0,1,2.52.7.51.51,0,0,1,.3.43.5.5,0,0,1-.27.46,8.54,8.54,0,0,1-2.44.91c-1,0-1.74-.49-1.77-1.18S81.89,76.3,82.83,76.26Zm3.23,6.95a10.07,10.07,0,0,1,3-1,.57.57,0,0,1,.59.22.59.59,0,0,1,0,.64,10.25,10.25,0,0,1-1.82,2.56,1.58,1.58,0,1,1-1.79-2.41Zm5.26,5.18a9.89,9.89,0,0,1,2.56-1.82.58.58,0,0,1,.85.64,10.08,10.08,0,0,1-1,3,1.58,1.58,0,1,1-2.41-1.79Zm5.94,4a10.15,10.15,0,0,1,1.92-2.48.59.59,0,0,1,.62-.15.6.6,0,0,1,.38.51,10.13,10.13,0,0,1-.09,3.13c-.39,1.08-1.33,1.72-2.11,1.44A1.85,1.85,0,0,1,97.26,92.4Zm7.58,1.94A8.37,8.37,0,0,1,105.91,92a.49.49,0,0,1,.47-.23.49.49,0,0,1,.4.33,8.34,8.34,0,0,1,.5,2.51c-.11.93-.74,1.62-1.42,1.54S104.73,95.26,104.84,94.34Zm7.13.22a5.79,5.79,0,0,1,.4-1.7.31.31,0,0,1,.28-.22.32.32,0,0,1,.31.16,5.88,5.88,0,0,1,.69,1.62c0,.64-.28,1.18-.74,1.22s-.88-.44-.94-1.08Z"/>
        </g>
      </g>
    </g>
  </g>
</svg>
