<svg id="Calque_1" data-name="Calque 1" xmlns="http://www.w3.org/2000/svg" viewBox="0 0 110 111">
  <defs>
    <style>
      .cls-1 {
        fill: none;
      }
    </style>
  </defs>
  <title>rocket</title>
  <path class="cls-1" d="M12.15,107.46a1,1,0,0,0,.3.87,1.07,1.07,0,0,0,.88.31,1.18,1.18,0,0,0,1.18-1.18,7.91,7.91,0,0,1,8-8,8.08,8.08,0,0,1,2.95.59l.94.35.59-.94a7.22,7.22,0,0,1,6.61-4.14,7.44,7.44,0,0,1,7.44,7.09v1.53l1.53-.47a5.57,5.57,0,0,1,2-.35,6.14,6.14,0,0,1,6.14,6.14v.23a1.18,1.18,0,0,0,1.18,1.18,1.05,1.05,0,0,0,1.18-1.06v-.35a8.49,8.49,0,0,0-8.5-8.5h-1.3a10,10,0,0,0-9.68-7.92,9.57,9.57,0,0,0-8.26,4.49A11.73,11.73,0,0,0,22.54,97a10.21,10.21,0,0,0-3.9.71A9.91,9.91,0,0,0,.23,95.29,1.3,1.3,0,0,0,.82,97a1.17,1.17,0,0,0,1.53-.59,7.57,7.57,0,0,1,6.73-4A7.33,7.33,0,0,1,16.4,99,10.36,10.36,0,0,0,12.15,107.46ZM100.09,99a7.44,7.44,0,0,1,7.44,7,1.18,1.18,0,0,0,1.18,1.18,1.3,1.3,0,0,0,1.18-1.3,9.84,9.84,0,0,0-17.47-5.55,11.71,11.71,0,0,0-21.84,1.42,11.45,11.45,0,0,0-10.15,7.2,1.07,1.07,0,0,0,.59,1.54h.47a1.18,1.18,0,0,0,1.07-.71,9.31,9.31,0,0,1,8.73-5.9h1.18l.24-1a9.32,9.32,0,0,1,18.41,2.25,9.93,9.93,0,0,1-.35,2.71,1.13,1.13,0,0,0,0,.92,1.19,1.19,0,0,0,.68.62,1.3,1.3,0,0,0,1.53-.83,10.71,10.71,0,0,0,.47-3.42,11.19,11.19,0,0,0-.12-2A7.59,7.59,0,0,1,100.09,99ZM55.24,44.52a8.15,8.15,0,1,0-8.15-8.15A8.15,8.15,0,0,0,55.24,44.52Zm0-13.94a5.8,5.8,0,1,1-4.09,1.7A5.78,5.78,0,0,1,55.24,30.58ZM78,64.83a3.26,3.26,0,0,0,2.36.94h.47a3.53,3.53,0,0,0,2.48-1.65A16.3,16.3,0,0,0,80.5,43.46c-2.72-2.48-5.08-3.9-7.56-4.37C72.71,25,67,12.16,56.06,1.18L55.24.35l-.83.83c-11,11-16.64,23.85-16.88,37.91-2.48.47-4.84,1.89-7.56,4.37a16.3,16.3,0,0,0-2.83,20.66,3.55,3.55,0,0,0,2.48,1.53h.47a3.7,3.7,0,0,0,2.48-.94l7.79-7.2a63.72,63.72,0,0,0,6.73,13.93c1.54,2.25,5.55,3.07,8.62,3.07h.12c1.65,0,5.66-.23,7.08-2.48a53.8,53.8,0,0,0,7.2-14.52L78,64.83Zm3.3-2a1,1,0,0,1-.82.47,1,1,0,0,1-1-.23l-8.73-7.91a.33.33,0,0,1,.12-.24l.23-.24h-.12c.24-1.3.59-2.59.83-3.89a60.7,60.7,0,0,0,1.06-9.21,15.25,15.25,0,0,1,5.9,3.78A13.8,13.8,0,0,1,81.32,62.82ZM55.24,3.66a54.58,54.58,0,0,1,8,10.39,16.86,16.86,0,0,1-16,0A59.43,59.43,0,0,1,55.24,3.66ZM46,16.06a19.11,19.11,0,0,0,18.41,0,50,50,0,0,1,5.08,34.13,15.08,15.08,0,0,1-.71,3.18,24.66,24.66,0,0,1-27.15,0L41,50.42A50,50,0,0,1,46,16.06Zm-15.11,47a.92.92,0,0,1-.94.23,1.07,1.07,0,0,1-.83-.47,13.81,13.81,0,0,1,2.48-17.59,15.25,15.25,0,0,1,5.9-3.78,66.52,66.52,0,0,0,1.06,9.44c.24,1.18.59,2.48.95,3.66H39.3l.24.24c.11,0,.11.12.11.24l-8.73,8ZM61,70.85c-.47.71-2.36,1.42-5.31,1.42s-5.9-1-6.61-2a54.89,54.89,0,0,1-6.49-13.58,26.67,26.67,0,0,0,25.26,0A56.22,56.22,0,0,1,61,70.85Zm-7,13.7v7.67a1.18,1.18,0,0,0,1.18,1.19,1.08,1.08,0,0,0,1.18-1.19V84.55a1.11,1.11,0,0,0-.31-.88,1,1,0,0,0-.87-.3,1.15,1.15,0,0,0-.84.35,1.17,1.17,0,0,0-.34.83Zm11.09-3.31v5.43a1,1,0,0,0,.31.88,1,1,0,0,0,.87.3,1.18,1.18,0,0,0,1.18-1.18V81.24a1.18,1.18,0,0,0-1.18-1.18,1.08,1.08,0,0,0-1.18,1.18Zm-22.07,0v5.43a1.06,1.06,0,0,0,.3.88,1.07,1.07,0,0,0,.88.3,1.18,1.18,0,0,0,1.18-1.18V81.24a1.18,1.18,0,0,0-1.18-1.18,1,1,0,0,0-.88.31A1,1,0,0,0,43.08,81.24Z"/>
</svg>
