<svg xmlns="http://www.w3.org/2000/svg" viewBox="0 0 251.88 252.76">
  <defs>
    <style>
      .cls-1 {
        fill: #fff;
      }

      .cls-2 {
        fill: #333;
      }

      .cls-3 {
        fill: #27d6bc;
      }
    </style>
  </defs>
  <title>stranim</title>
  <g id="Calque_2" data-name="Calque 2">
    <g id="Calque_1-2" data-name="Calque 1">
      <g id="fleche">
        <path className="fleche" d="M223.87,49.93,192.81,60.16l3.78,11.56,9.13-3C191.35,91.57,159.8,135.41,127,135.41c-48.73,0-89.9,30.8-109.63,80.6a18.4,18.4,0,1,0,12.18,3.78C47.5,175.22,84.4,147.58,127,147.58c39.1,0,73.93-48,89.28-73.06l1.46,8.89L230,81.1ZM18,240.24a6.09,6.09,0,1,1,6.09-6.08A6.09,6.09,0,0,1,18,240.24Z"/>
        <circle className="base" cx="18.02" cy="234.16" r="6.09" transform="translate(-216.2 251.27) rotate(-89.78)"/>
      </g>
      <polygon className="not" class="cls-2" points="40.49 100.35 48.4 92.56 56.2 100.35 64.85 91.83 56.93 83.91 64.85 76 56.2 67.47 48.4 75.27 40.49 67.47 31.84 76 39.76 83.91 31.84 91.83 40.49 100.35"/>
      <polygon className="not" data-name="not" class="cls-2" points="119.49 118.35 127.4 110.56 135.2 118.35 143.85 109.83 135.93 101.91 143.85 94 135.2 85.47 127.4 93.27 119.49 85.47 110.84 94 118.76 101.91 110.84 109.83 119.49 118.35"/>
      <polygon className="not" data-name="not" class="cls-2" points="143.49 202.35 151.4 194.56 159.2 202.35 167.85 193.83 159.93 185.91 167.85 178 159.2 169.47 151.4 177.27 143.49 169.47 134.84 178 142.76 185.91 134.84 193.83 143.49 202.35"/>
      <path className="other" class="cls-2" d="M213.34,134.54a18.27,18.27,0,1,0,18.27,18.26A18.27,18.27,0,0,0,213.34,134.54Zm0,24.35a6.09,6.09,0,1,1,6.09-6.09A6.09,6.09,0,0,1,213.34,158.89Z"/>
      <path className="objectif" class="cls-3" d="M251.88,8.52,243.35,0l-14,13.88L215.34,0l-8.53,8.52,13.89,14-13.89,14,8.53,8.52,14-13.88,14,13.88,8.53-8.52L238,22.53Z"/>
    </g>
  </g>
</svg>
