<svg id="Calque_1" data-name="Calque 1" xmlns="http://www.w3.org/2000/svg" viewBox="0 0 96 96">
  <defs>
    <style>
      .cls-1 {
        fill: none;
      }
    </style>
  </defs>
  <title>team</title>
  <path class="cls-1" d="M63.14,8.15l.54.25a1.19,1.19,0,0,0,1.55-.63s0-.08,0-.12a1.43,1.43,0,0,0-.66-1.79L64,5.59a1.18,1.18,0,0,0-1.53.66.56.56,0,0,0,0,.12A1.42,1.42,0,0,0,63.14,8.15Zm23.22,58c.25.69.48,1.41.68,2.17l.29.22h.06a1.7,1.7,0,0,0,1.44-.68c.13-.18.25-.37.37-.56a1.09,1.09,0,0,0-.39-1.49.86.86,0,0,0-.3-.12,1.9,1.9,0,0,0-2.15.45Zm-30-60.8.56.16a1.2,1.2,0,0,0,1.44-.92.19.19,0,0,0,0-.08,1.45,1.45,0,0,0-.89-1.71l-.6-.16A1.08,1.08,0,0,0,55.68,3a1.62,1.62,0,0,0-.26,1.38,1.29,1.29,0,0,0,.89.92Zm-5.83.14h.68a1.35,1.35,0,0,0,1.2-1.41,1.41,1.41,0,0,0-1.09-1.53l-.62-.06a1.15,1.15,0,0,0-1.08.65,1.8,1.8,0,0,0-.09,1.47,1.24,1.24,0,0,0,.95.83ZM5.4,36.49a1.41,1.41,0,0,0,.41,0,1.38,1.38,0,0,0,1.33-.86c.07-.18.13-.37.2-.55A1.08,1.08,0,0,0,7,33.9a1.54,1.54,0,0,0-1.33-.37,1.37,1.37,0,0,0-1,.81l-.22.6a1.1,1.1,0,0,0,.11.92,1.41,1.41,0,0,0,.82.59Zm-2.91,4a4.34,4.34,0,0,1-.11.61,1.27,1.27,0,0,0,1.14,1.37h.29a1.4,1.4,0,0,0,1.43-1,3.78,3.78,0,0,1,.1-.57,1.24,1.24,0,0,0-1.09-1.37h-.1a1.44,1.44,0,0,0-1.66,1Zm-.12,7.17v.57h0a1.38,1.38,0,0,0,1.5,1.2,1.38,1.38,0,0,0,1.5-1.2v-.58A1.36,1.36,0,0,0,3.89,46.5,1.38,1.38,0,0,0,2.37,47.68ZM91.1,34.35a1.44,1.44,0,0,0-1.75-.79,1.17,1.17,0,0,0-.95,1.37.7.7,0,0,0,0,.14c.06.19.13.37.19.56A1.38,1.38,0,0,0,90,36.5a1.34,1.34,0,0,0,.4,0,1.2,1.2,0,0,0,1-1.35l0-.15Zm-3.2-6.17a1.47,1.47,0,0,0-1.1-.68l-.43,2.89h0a1.65,1.65,0,0,0,1.61-.3,1.08,1.08,0,0,0,.25-1.36C88.12,28.56,88,28.37,87.9,28.18Zm2.48,13.7a3.7,3.7,0,0,0,.1.58,1.38,1.38,0,0,0,1.43,1h.2a1.52,1.52,0,0,0,1-.47,1.05,1.05,0,0,0,.28-.89,3.26,3.26,0,0,0-.11-.61,1.43,1.43,0,0,0-1.65-1,1.25,1.25,0,0,0-1.21,1.3v.07Zm3,6.49v-.72a1.55,1.55,0,0,0-3,0v.68a1.35,1.35,0,0,0,1.47,1.17h0a1.37,1.37,0,0,0,1.51-1.13Zm-.13,7.12.12-.61a1.28,1.28,0,0,0-1.17-1.37h0a1.45,1.45,0,0,0-1.64,1,2.87,2.87,0,0,1-.11.57,1.24,1.24,0,0,0,1.09,1.37h.1a1.44,1.44,0,0,0,1.64-1Zm-3.47,7a1.39,1.39,0,0,0,1.32-.83l.22-.6A1.1,1.1,0,0,0,91,59.89a1.52,1.52,0,0,0-1.34-.36,1.31,1.31,0,0,0-1,.83l-.21.56a1.07,1.07,0,0,0,.2,1.08,1.48,1.48,0,0,0,1.11.5ZM45.25,90.56h-.58a1.3,1.3,0,0,0-1.3,1.3v0a1.42,1.42,0,0,0,1.09,1.59l.61.06h.09a1.33,1.33,0,0,0,1.2-1.42A1.39,1.39,0,0,0,45.25,90.56ZM32.59,87.85,32,87.6a1.19,1.19,0,0,0-1.55.63s0,.08,0,.12a1.44,1.44,0,0,0,.66,1.79l.59.26a1.18,1.18,0,0,0,1.54-.65s0-.08,0-.12A1.44,1.44,0,0,0,32.59,87.85Zm5.83,2.85-.57-.16a1.22,1.22,0,0,0-1.44.93s0,0,0,.07a1.45,1.45,0,0,0,.88,1.72l.61.16A1.07,1.07,0,0,0,39,93a1.58,1.58,0,0,0,.27-1.38,1.3,1.3,0,0,0-.89-1ZM2.48,54.48a1.3,1.3,0,0,0,.9.94,1.7,1.7,0,0,0,1.44-.18,1.14,1.14,0,0,0,.53-1.13,3.78,3.78,0,0,0-.1-.57,1.26,1.26,0,0,0-.89-.95,1.71,1.71,0,0,0-1.43.16,1.11,1.11,0,0,0-.55,1.11A3.34,3.34,0,0,0,2.48,54.48Zm48.59,36h-.58A1.39,1.39,0,0,0,49.36,92a1.35,1.35,0,0,0,1.2,1.43h.69a1.21,1.21,0,0,0,1-.83,1.75,1.75,0,0,0-.09-1.48,1.14,1.14,0,0,0-1.08-.64Zm5.82,0-.57.14a1.33,1.33,0,0,0-.9.95,1.66,1.66,0,0,0,.25,1.4,1.1,1.1,0,0,0,1.15.44l.6-.16a1.31,1.31,0,0,0,.89-1A1.65,1.65,0,0,0,58,91a1.08,1.08,0,0,0-1.11-.46ZM63.7,87.6l-.54.23a1.35,1.35,0,0,0-.78,1.06,1.47,1.47,0,0,0,.43,1.3,1.09,1.09,0,0,0,1.2.22l.58-.25a1.45,1.45,0,0,0,.69-1.79,1.17,1.17,0,0,0-1.44-.82ZM7.82,67.82a1.41,1.41,0,0,0,1.12.68l.41-2.83V65.6a1.65,1.65,0,0,0-1.16,0,1.35,1.35,0,0,0-.75.7,1,1,0,0,0,0,.94A5.19,5.19,0,0,1,7.82,67.82ZM4.63,61.65a1.33,1.33,0,0,0,1,.82A1.52,1.52,0,0,0,7,62.11a1.09,1.09,0,0,0,.31-1.18l-.2-.56a1.43,1.43,0,0,0-1.73-.82,1.18,1.18,0,0,0-1,1.33.51.51,0,0,0,0,.17A5.09,5.09,0,0,1,4.63,61.65Zm27-53.15A1,1,0,0,0,32,8.4l.55-.23a1.43,1.43,0,0,0,.7-1.77,1.17,1.17,0,0,0-1.42-.86l-.14,0-.59.25a1.44,1.44,0,0,0-.75,1.54A1.28,1.28,0,0,0,31.58,8.5ZM9.36,29.85c-.25-.7-.47-1.42-.66-2.18l-.21-.16a1.74,1.74,0,0,0-1.6.66c-.13.19-.25.38-.37.57a1.1,1.1,0,0,0,.42,1.51.79.79,0,0,0,.3.12A1.84,1.84,0,0,0,9.36,29.85ZM44.56,5.5h.68a1.26,1.26,0,0,0,1-.82,1.76,1.76,0,0,0-.08-1.47,1.15,1.15,0,0,0-1.07-.66h-.62a1.41,1.41,0,0,0-1.11,1.53A1.35,1.35,0,0,0,44.56,5.5Zm-6,0h.27l.57-.14a1.43,1.43,0,0,0,.93-1.69A1.22,1.22,0,0,0,39,2.56h-.1l-.6.16a1.43,1.43,0,0,0-.93,1.55A1.29,1.29,0,0,0,38.57,5.5Zm7.21,55.22a4.92,4.92,0,0,0-2.59-1.17A5.7,5.7,0,0,0,41,55.87a6,6,0,0,0-4.11-1,5.67,5.67,0,0,0-3-2.58,6.14,6.14,0,0,0-3.6,0A4.5,4.5,0,0,0,28.37,50,5.21,5.21,0,0,0,24,49.94a1.6,1.6,0,0,0-.45.32L19.87,54a5.77,5.77,0,0,0-1.82,3.61L11.81,64a3.41,3.41,0,0,0-.9,1.9l-.58,4.68a.44.44,0,0,1-.06.16L.8,80.34A1.55,1.55,0,0,0,.41,81.8a1.53,1.53,0,0,0,1.05,1.07,1.46,1.46,0,0,0,1.43-.39l9.47-9.64a3.49,3.49,0,0,0,.91-1.9l.57-4.68a.44.44,0,0,1,.06-.16l5.45-5.54a5.45,5.45,0,0,0,3.51,2,4.42,4.42,0,0,0,1.71,2.84h.06a4.92,4.92,0,0,0,2.73.83,5.31,5.31,0,0,0,4.36-2.48,1.52,1.52,0,0,0-.33-2.1,1.45,1.45,0,0,0-2,.3l0,0c-1.26,1.76-2.51,1.27-3,1a1.59,1.59,0,0,1-.46-1.86L27,59.86a1.52,1.52,0,0,0-.07-2.13,1.45,1.45,0,0,0-2.06,0l0,0-1.18,1.28v.07c-.31.37-.51.38-.57.37a2.71,2.71,0,0,1-1.52-1,1.12,1.12,0,0,0-.18-.2C21,58,21,57.83,21,57.75a2.65,2.65,0,0,1,.85-1.49l3.56-3.63a2.18,2.18,0,0,1,1.55,0,2.5,2.5,0,0,1,.88,1.8,1.5,1.5,0,0,0,.82,1.13,1.47,1.47,0,0,0,1.34,0,4.2,4.2,0,0,1,2.91-.4,3.18,3.18,0,0,1,1.79,2,1.46,1.46,0,0,0,1.76.85,3.82,3.82,0,0,1,2.81.35,3.48,3.48,0,0,1,1.12,2.76,1.5,1.5,0,0,0,.52,1.06A1.45,1.45,0,0,0,42,62.5a2.58,2.58,0,0,1,1.8.49,2.15,2.15,0,0,1,.56,1.6h0l-3.67,3.73a38.67,38.67,0,0,0-2-4.32,3.85,3.85,0,0,0-4.91-1.6c-1.15.52-2.52,1.79-2.57,4.85v2.66A11.58,11.58,0,0,0,22,72.22a1.53,1.53,0,0,0-.18,2.12,1.47,1.47,0,0,0,2.07.21l0,0a8.48,8.48,0,0,1,9.51-.62,1.45,1.45,0,0,0,1.48,0,1.52,1.52,0,0,0,.53-2.08,1.5,1.5,0,0,0-.53-.53l-.68-.3a32.24,32.24,0,0,1-.09-3.68c0-1.78.63-2.06.82-2.15a1,1,0,0,1,1.12.33c1.61,2.93,3.19,6.72,3,8.87-.89,1.15-5.17,6.09-14.28,7.66A3.67,3.67,0,0,0,23,83L13.17,93a1.54,1.54,0,0,0-.38,1.46,1.48,1.48,0,0,0,1,1.07,1.46,1.46,0,0,0,1.43-.39l9.82-10,.2-.12c11.63-2,16.23-8.91,16.43-9.2a1.48,1.48,0,0,0,.21-.54,9,9,0,0,0-.17-3.62l4.74-4.83a3.21,3.21,0,0,0,.88-2.13,5.05,5.05,0,0,0-1.58-3.91Zm4.16-25.45a5,5,0,0,0,2.59,1.17,5.74,5.74,0,0,0,2.18,3.68,6.07,6.07,0,0,0,4.12,1,5.58,5.58,0,0,0,3,2.57,6.13,6.13,0,0,0,3.6,0,4.22,4.22,0,0,0,4,2.75,5.85,5.85,0,0,0,2.3-.44,1.39,1.39,0,0,0,.45-.31L75.85,42a5.73,5.73,0,0,0,1.83-3.62L83.91,32a3.49,3.49,0,0,0,.91-1.9l.57-4.68a.77.77,0,0,1,.07-.16l9.47-9.63a1.52,1.52,0,0,0,.38-1.45,1.48,1.48,0,0,0-1-1.07,1.46,1.46,0,0,0-1.43.39L83.4,23.13a3.58,3.58,0,0,0-.9,1.9l-.57,4.68a.77.77,0,0,1-.07.16l-5.44,5.54a5.45,5.45,0,0,0-3.52-2,4.44,4.44,0,0,0-1.7-2.84h-.07C69.51,29.48,66.32,29,64,32.23a1.53,1.53,0,0,0,.33,2.1,1.46,1.46,0,0,0,2-.31l0,0c1.26-1.76,2.51-1.27,3-1a1.59,1.59,0,0,1,.46,1.86l-1.12,1.22a1.54,1.54,0,0,0,.07,2.13,1.45,1.45,0,0,0,2.06,0l0,0,1.18-1.28.06-.07c.31-.38.51-.37.57-.37a2.78,2.78,0,0,1,1.51,1,1.8,1.8,0,0,0,.19.2c.33.29.33.48.33.56a2.73,2.73,0,0,1-.84,1.49c-.07,0-3.57,3.63-3.57,3.63a2.18,2.18,0,0,1-1.55,0,2.56,2.56,0,0,1-.87-1.8,1.53,1.53,0,0,0-.82-1.12,1.45,1.45,0,0,0-1.37,0,4.2,4.2,0,0,1-2.91.4,3.18,3.18,0,0,1-1.79-2A1.47,1.47,0,0,0,59.25,38a3.9,3.9,0,0,1-2.82-.35,3.5,3.5,0,0,1-1.11-2.76,1.59,1.59,0,0,0-.52-1.07,1.51,1.51,0,0,0-1.12-.35A2.55,2.55,0,0,1,51.89,33a2.13,2.13,0,0,1-.56-1.6h0L55,27.63A37.18,37.18,0,0,0,57.08,32a3.85,3.85,0,0,0,3.36,2A3.53,3.53,0,0,0,62,33.61c1.15-.52,2.53-1.79,2.58-4.85V26.11a11.08,11.08,0,0,0,2.07.2,11.76,11.76,0,0,0,7.15-2.54A1.51,1.51,0,0,0,74,21.65a1.45,1.45,0,0,0-2-.21l0,0a8.48,8.48,0,0,1-9.52.61,1.5,1.5,0,0,0-1.48,0,1.57,1.57,0,0,0-.73,1.32,1.52,1.52,0,0,0,.76,1.3c.2.12.41.22.61.33a34.71,34.71,0,0,1,.1,3.68c0,1.78-.63,2.06-.83,2.15a.94.94,0,0,1-1.11-.33c-1.61-2.93-3.2-6.72-3-8.87.86-1.14,5.14-6.07,14.3-7.66a3.51,3.51,0,0,0,1.78-.94l9.83-10A1.53,1.53,0,0,0,83,1.62,1.5,1.5,0,0,0,82,.55a1.44,1.44,0,0,0-1.43.4L70.76,11l-.21.11C58.83,13.05,54.22,20,54,20.25a1.5,1.5,0,0,0-.22.54A9.21,9.21,0,0,0,54,24.41l-4.74,4.82a3.17,3.17,0,0,0-.88,2.13A5.08,5.08,0,0,0,50,35.27ZM10.79,25.21a.82.82,0,0,1,.12.2c2,11.62,8.91,16.23,9.21,16.42a1.46,1.46,0,0,0,.53.22,5.81,5.81,0,0,0,1.25.11,11.23,11.23,0,0,0,2.38-.29l4.82,4.74a3.19,3.19,0,0,0,2.11.88h0a4.73,4.73,0,0,0,5.09-4.16A5.72,5.72,0,0,0,40,41.15,6.1,6.1,0,0,0,41,37a5.61,5.61,0,0,0,2.57-3,6.18,6.18,0,0,0,0-3.59,4.39,4.39,0,0,0,2.22-1.9,5.25,5.25,0,0,0,.07-4.37,1.42,1.42,0,0,0-.32-.45L41.85,20a5.67,5.67,0,0,0-3.62-1.82L31.89,12a3.41,3.41,0,0,0-1.9-.9l-4.68-.58a.44.44,0,0,1-.16-.06L15.51.94a1.52,1.52,0,0,0-2.14,0A1.58,1.58,0,0,0,13,1.6,1.45,1.45,0,0,0,13.39,3L23,12.5a3.49,3.49,0,0,0,1.9.91l4.69.57.15.07,5.54,5.44a5.45,5.45,0,0,0-2,3.51,4.42,4.42,0,0,0-2.83,1.7l-.05.07c-1.11,1.58-1.58,4.78,1.65,7.09a1.52,1.52,0,0,0,2.1-.32,1.48,1.48,0,0,0-.31-2.06h0c-1.76-1.26-1.27-2.51-1-3a1.6,1.6,0,0,1,2-.47L36,27.13a1.53,1.53,0,0,0,1.46.34,1.49,1.49,0,0,0,1-1.08,1.46,1.46,0,0,0-.4-1.39l-1.28-1.18-.07-.06c-.37-.31-.37-.5-.37-.56a2.69,2.69,0,0,1,1-1.51,1.8,1.8,0,0,0,.2-.19c.29-.33.48-.33.57-.33h0A2.73,2.73,0,0,1,39.6,22c0,.06,3.63,3.57,3.63,3.57a2.23,2.23,0,0,1,0,1.53A2.54,2.54,0,0,1,41.4,28a1.53,1.53,0,0,0-1.12.82,1.45,1.45,0,0,0,0,1.37,4.12,4.12,0,0,1,.4,2.92,3.16,3.16,0,0,1-2,1.78,1.48,1.48,0,0,0-.86,1.76,3.82,3.82,0,0,1-.34,2.81,3.49,3.49,0,0,1-2.77,1.12,1.5,1.5,0,0,0-1.06.52,1.47,1.47,0,0,0-.35,1.12A2.61,2.61,0,0,1,32.88,44a2.13,2.13,0,0,1-1.6.56h-.05L27.51,40.9a38.77,38.77,0,0,0,4.37-2.07,3.86,3.86,0,0,0,1.61-4.91c-.53-1.15-1.8-2.53-4.86-2.57H26a11.53,11.53,0,0,0-2.33-9.23,1.53,1.53,0,0,0-2.12-.18A1.46,1.46,0,0,0,21.34,24h0A8.46,8.46,0,0,1,22,33.5,1.47,1.47,0,0,0,22,35a1.52,1.52,0,0,0,2.08.53,1.5,1.5,0,0,0,.53-.53l.34-.62a32.24,32.24,0,0,1,3.68-.09c1.78,0,2.06.63,2.15.82a.94.94,0,0,1-.33,1.11c-2.93,1.61-6.72,3.2-8.87,3-1.15-.89-6.09-5.17-7.67-14.27A3.5,3.5,0,0,0,13,23.16L3,13.33a1.52,1.52,0,0,0-2.15,0,1.47,1.47,0,0,0-.41.7,1.44,1.44,0,0,0,.4,1.43l10,9.81ZM84.93,70.8a2.12,2.12,0,0,1-.11-.21c-2-11.62-8.92-16.23-9.21-16.42a1.5,1.5,0,0,0-.54-.22,9.07,9.07,0,0,0-3.63.17l-4.81-4.73a3.25,3.25,0,0,0-2.11-.89h0a5.14,5.14,0,0,0-3.91,1.58,5,5,0,0,0-1.17,2.59,5.71,5.71,0,0,0-3.68,2.19,6,6,0,0,0-1,4.1,5.63,5.63,0,0,0-2.58,3,6.27,6.27,0,0,0,0,3.59A4.35,4.35,0,0,0,50,67.46a5.21,5.21,0,0,0-.07,4.37,1.39,1.39,0,0,0,.31.45L53.88,76a5.65,5.65,0,0,0,3.61,1.82l6.34,6.24a3.41,3.41,0,0,0,1.9.9l4.69.58.16.06,9.63,9.47a1.53,1.53,0,0,0,2.12,0,1.45,1.45,0,0,0,0-2.06l0,0L72.7,83.51a3.49,3.49,0,0,0-1.9-.91L66.12,82H66l-5.54-5.44a5.45,5.45,0,0,0,2-3.51,4.42,4.42,0,0,0,2.84-1.71v-.06c1.11-1.59,1.59-4.78-1.64-7.1a1.52,1.52,0,0,0-2.1.33,1.48,1.48,0,0,0,.31,2.06h0c1.76,1.26,1.26,2.5,1,3A1.59,1.59,0,0,1,61,70l-1.22-1.12a1.52,1.52,0,0,0-2.15.1,1.47,1.47,0,0,0-.35.65,1.52,1.52,0,0,0,.4,1.33L59,72.27c.38.31.38.51.38.57a2.83,2.83,0,0,1-1,1.51l-.19.18c-.3.34-.49.34-.57.34a2.65,2.65,0,0,1-1.5-.87l-3.63-3.57a2.15,2.15,0,0,1,0-1.54,2.5,2.5,0,0,1,1.8-.88,1.49,1.49,0,0,0,1.12-.82,1.45,1.45,0,0,0,0-1.37A4.12,4.12,0,0,1,55,62.9a3.21,3.21,0,0,1,2-1.78,1.45,1.45,0,0,0,.86-1.76,3.87,3.87,0,0,1,.35-2.81A3.51,3.51,0,0,1,61,55.46a1.49,1.49,0,0,0,1-.52,1.51,1.51,0,0,0,.35-1.12,2.57,2.57,0,0,1,.5-1.82,2.13,2.13,0,0,1,1.6-.56h0l3.72,3.66a39.76,39.76,0,0,0-4.38,2.07,3.87,3.87,0,0,0-1.6,4.92c.53,1.14,1.79,2.52,4.85,2.57H69.7A11.57,11.57,0,0,0,72,73.89a1.52,1.52,0,0,0,2.12.17A1.47,1.47,0,0,0,74.39,72a8.48,8.48,0,0,1-.62-9.51,1.45,1.45,0,0,0,0-1.48,1.48,1.48,0,0,0-1.31-.73,1.51,1.51,0,0,0-1.3.75c-.12.2-.23.41-.33.61a34.71,34.71,0,0,1-3.68.1c-1.79,0-2.07-.63-2.16-.83a.94.94,0,0,1,.33-1.11c2.93-1.61,6.73-3.19,8.88-3,1.15.89,6.08,5.17,7.66,14.28a3.59,3.59,0,0,0,1,1.79l10,9.83a1.54,1.54,0,0,0,1.46.38,1.52,1.52,0,0,0,1.06-1A1.46,1.46,0,0,0,95,80.65L85,70.84Z"/>
</svg>
