<svg xmlns="http://www.w3.org/2000/svg" viewBox="0 0 88.35 88.35">
  <defs>
    <style>
      .cls-1 {
        fill: #fff;
      }
    </style>
  </defs>
  <title>dollar</title>
  <g id="Calque_2" data-name="Calque 2">
    <g id="Calque_1-2" data-name="Calque 1">
      <g>
        <path class="cls-1" d="M48.19,72.29v-8a12.05,12.05,0,1,0,0-24.1h-8a4,4,0,0,1,0-8H52.21v4h8V24.09H48.19v-8h-8v8a12,12,0,1,0,0,24.09h8a4,4,0,1,1,0,8h-12v-4h-8V64.26h12v8Z"/>
        <path class="cls-1" d="M88.35,44.18A44.18,44.18,0,1,0,44.18,88.35,44.23,44.23,0,0,0,88.35,44.18ZM8,44.18A36.15,36.15,0,1,1,44.18,80.32,36.19,36.19,0,0,1,8,44.18Z"/>
      </g>
    </g>
  </g>
</svg>
