<?xml version="1.0" encoding="utf-8"?>
<!-- Generator: Adobe Illustrator 23.0.6, SVG Export Plug-In . SVG Version: 6.00 Build 0)  -->
<svg version="1.1" id="Calque_1" xmlns="http://www.w3.org/2000/svg" xmlns:xlink="http://www.w3.org/1999/xlink" x="0px" y="0px"
	 viewBox="0 0 249 249" style="enable-background:new 0 0 249 249;" xml:space="preserve">
<style type="text/css">
	.st0{fill:#FFFFFF;}
</style>
<title>progression</title>
<g>
	<g id="Calque_1-2">
		<path class="st0" d="M136.6,60.2c0-28.8,23.4-52.2,52.2-52.2S241,31.4,241,60.2s-23.4,52.2-52.2,52.2
			C159.9,112.4,136.6,89.1,136.6,60.2z"/>
		<path class="st0" d="M249,60.2c0,22.6-13.7,38.3-16.1,40.8c-6.8,7.2-14.2,11-17.1,12.5c-13.1,6.6-24.7,6.8-27.2,6.8
			c-5.4,0-9.8-0.7-12.8-1.4c-4.5,4.5-9,9-13.4,13.5h-32l-28.1,32.1H54L7,215.6l-5.9-5.5l49.4-53.5h48.1l28.1-32.1H159l8.1-8.1
			c-23.3-9-38.6-31.3-38.6-56.3c0-33.3,27-60.2,60.3-60.2C222.1,0,249,27,249,60.2z"/>
	</g>
</g>
</svg>
