<?xml version="1.0" encoding="utf-8"?>
<!-- Generator: Adobe Illustrator 23.0.6, SVG Export Plug-In . SVG Version: 6.00 Build 0)  -->
<svg version="1.1" id="Calque_1" xmlns="http://www.w3.org/2000/svg" xmlns:xlink="http://www.w3.org/1999/xlink" x="0px" y="0px"
	 viewBox="0 0 249 249" style="enable-background:new 0 0 249 249;" xml:space="preserve">
<style type="text/css">
	.st0{fill:#FFFFFF;}
</style>
<title>socle</title>
<g>
	<g id="Calque_1-2">
		<path class="st0" d="M187.2,120.4L167,140.6h-36.5l-24.1,32.1h-48L0,239.5v9.5h232.9V101.1c-4.2,4.4-12.9,12.5-26.5,16.6
			C198.8,120.1,192.1,120.5,187.2,120.4z M200.8,119.2V241h-16.1V134.2l14.7-14.7C199.9,119.4,200.4,119.4,200.8,119.2L200.8,119.2z
			 M170.3,148.6l6.4-6.4V241h-16.1v-92.4H170.3z M56.2,241h-16v-35.2l16.1-18.4L56.2,241L56.2,241z M64.2,180.8h16.1V241h-16
			L64.2,180.8z M88.3,180.8h16.1V241h-16L88.3,180.8z M112.4,178.1l16.1-21.4V241h-16L112.4,178.1z M136.5,148.6h16.1V241h-16
			L136.5,148.6z M32.1,214.9v26H9.4L32.1,214.9z M208.8,240.9V117c5.8-2,11.2-5,16.1-8.7V241L208.8,240.9z"/>
	</g>
</g>
</svg>
