<?xml version="1.0" encoding="utf-8"?>
<!-- Generator: Adobe Illustrator 23.0.6, SVG Export Plug-In . SVG Version: 6.00 Build 0)  -->
<svg version="1.1" id="Calque_1" xmlns="http://www.w3.org/2000/svg" xmlns:xlink="http://www.w3.org/1999/xlink" x="0px" y="0px"
	 viewBox="0 0 251.2 251.2" style="enable-background:new 0 0 251.2 251.2;" xml:space="preserve">
<style type="text/css">
	.st0{fill:#FFFFFF;}
</style>
<title>ccs</title>
<g>
	<g id="Calque_1-2">
		<path class="st0" d="M40.2,41.9c-4.4,4.5-4.3,11.6,0.2,16s11.6,4.3,16-0.2c4.3-4.4,4.3-11.5-0.1-15.9
			C51.7,37.3,44.6,37.4,40.2,41.9C40.2,41.9,40.2,41.9,40.2,41.9z M22.4,110c9.2,2.9,14.3,12.6,11.4,21.8c0,0.1-0.1,0.3-0.1,0.4
			 M60.2,62.4c-5.4,5.1-13.4,6.2-20,2.8 M87.7,95.3c0.2-2.8,1.1-5.5,2.6-7.8v0 M53.3,107.7c-6.2,0.3-11.4-4.5-11.7-10.7
			c-0.3-6.2,4.5-11.4,10.7-11.7C58,85,63.1,89.2,63.9,95 M51.2,141.2c1.6-2.9,4.2-5.2,7.3-6.5 M217,129.2c-0.8-2.8-0.8-5.8-0.1-8.6
			 M162.1,153.6c0.8-2.3,2.2-4.5,3.9-6.3c6.8-6.8,17.8-6.9,24.7-0.1c0.5,0.5,1,1.1,1.5,1.7 M120,129.7c9.3-2.2,18.7,3.5,21,12.8
			c0.5,2,0.6,4,0.4,6 M102.8,79.6c9.5-1.2,18.2,5.5,19.5,15c0.9,7-2.5,13.9-8.7,17.3 M94.2,66.8c-7.1,1.8-14.2-2.5-16-9.6
			c-1.8-7.1,2.5-14.2,9.6-16c7.1-1.8,14.2,2.5,16,9.6c1.1,4.5-0.2,9.2-3.4,12.4c-0.8,0.9-1.8,1.6-2.8,2.2 M92.6,84.6L92.6,84.6
			c1.9-1.9,4.1-3.3,6.6-4.2 M63.6,41.7c3,5.7,2.6,12.7-1,18v0 M128.9,34.2c-8.8,2.3-17.9-2.6-20.8-11.2 M158.9,83.1
			c-8.1,5.2-18.8,2.9-24-5.2c-5.2-8.1-2.9-18.8,5.2-24c0.3-0.2,0.7-0.4,1-0.6 M194.3,114.2c-3,6.6-10.8,9.6-17.4,6.7
			c-6.6-3-9.6-10.8-6.7-17.4c0.5-1.2,1.2-2.3,2.1-3.3 M32.1,135.5c-2.2,3.6-5.6,6.3-9.6,7.6 M58.2,161.7
			c-6.6-2.8-10.2-10.1-8.4-17.1v0 M41.4,187.6c3.7-2,7.9-2.6,11.9-1.7 M229,141.3c-4.5-1.3-8.3-4.4-10.5-8.6 M189.6,212.8
			c-6.3-7.3-5.4-18.2,1.8-24.5c5.9-5.1,14.5-5.6,21-1.3 M110.9,226.1c0.8-1.6,1.9-3.1,3.2-4.4c6.7-6.8,17.7-6.9,24.6-0.2
			c2.8,2.7,4.6,6.3,5.1,10.2 M56.8,187.1c1.9,0.8,3.5,2,5,3.4c5.3,5.2,6.7,13.2,3.5,19.9 M73.6,137.3l0.6,0.5
			c10.1,9.9,1.5,26.9-12.4,24.8 M110.2,113.4c-5.4,1.7-11.2,0.6-15.7-2.8 M114.2,160.8c-7.9-5.5-9.8-16.4-4.3-24.2
			c0.5-0.8,1.1-1.5,1.8-2.2c1.4-1.4,3.1-2.6,4.9-3.5 M108.3,179.4c0.8,0.6,1.5,1.2,2.2,1.8c6.8,6.7,6.9,17.7,0.2,24.5
			c-6.7,6.8-17.7,6.9-24.5,0.2c-6.8-6.7-6.9-17.7-0.2-24.5c5-5.1,12.6-6.6,19.1-3.8 M130.1,162.8c-4.1,1.5-8.7,1.4-12.8-0.3
			 M146.2,186.9c6.4-2.4,13.5,0.8,15.9,7.2c2.4,6.4-0.8,13.5-7.2,15.9c-6.4,2.4-13.5-0.8-15.9-7.2c-1.9-5.1-0.3-10.8,4-14.1
			 M140.6,152.1c-1.3,3.8-3.8,7-7.2,9.1 M194.2,152c4.1,8.7,0.5,19-8.2,23.2c-8.7,4.1-19,0.5-23.2-8.2c-1.5-3.1-2-6.5-1.5-9.9
			 M62,133.8c2.9-0.4,5.9,0.1,8.6,1.5 M63.8,98.6c-0.7,3.8-3.3,6.9-6.9,8.3 M91.8,108.1c-2.2-2.6-3.6-5.8-4-9.2h0 M144.4,51.8
			c8.5-2.6,17.6,1.6,21.1,9.8 M141,23.1c-1.5,4.3-4.5,7.8-8.6,9.8h0 M185,54.1c-1.5-4.5-1.2-9.5,1-13.7 M166.6,65
			c1.1,5.6-0.6,11.5-4.6,15.6l-0.2,0.2h0 M192.7,63.3c-2.5-1.5-4.6-3.5-6.1-6 M175.1,97.8c2.7-1.7,5.9-2.4,9-2 M209.7,63.7
			c-4.2,2.2-9.1,2.7-13.6,1.2h0 M218.1,117.2c2.1-4.3,5.9-7.6,10.4-9.1 M187.6,96.9c1.4,0.6,2.7,1.5,3.9,2.6c3,2.9,4.4,7.1,3.8,11.2
			 M146,194.1c-2.4,2.5-2.4,6.5,0.1,8.9c2.5,2.4,6.5,2.4,8.9-0.1c2.4-2.5,2.4-6.5-0.1-8.9c0,0,0,0,0,0
			C152.4,191.6,148.4,191.6,146,194.1z M177.1,103.9c-2.8,2.8-2.7,7.3,0.1,10c2.8,2.8,7.3,2.7,10-0.1s2.7-7.3-0.1-10c0,0,0,0,0,0
			C184.3,101.1,179.9,101.2,177.1,103.9z M49.1,92.9c-2,2-2,5.3,0.1,7.2c2,2,5.3,2,7.2-0.1s2-5.3-0.1-7.2c0,0,0,0,0,0
			C54.3,90.9,51.1,90.9,49.1,92.9z M86,49.1c-2.8,2.8-2.7,7.3,0,10c2.8,2.8,7.3,2.7,10,0c2.8-2.8,2.7-7.3,0-10c0,0,0,0,0,0
			C93.2,46.3,88.8,46.3,86,49.1z M170.5,151.6c-4.4,4.5-4.3,11.6,0.2,16c4.5,4.4,11.6,4.3,16-0.2c4.3-4.4,4.3-11.5-0.1-15.9
			C182,147.1,174.9,147.2,170.5,151.6C170.5,151.6,170.5,151.6,170.5,151.6z M90.3,185.8c-4.4,4.5-4.3,11.6,0.2,16
			c4.5,4.4,11.6,4.3,16-0.2c4.3-4.4,4.3-11.5-0.1-15.9C101.8,181.3,94.6,181.3,90.3,185.8z M58,154.3c7.9,7.8,20-4.2,11.9-12.1
			S50,146.5,58,154.3z M116.1,138.6c-4.4,4.5-4.3,11.6,0.2,16c4.5,4.4,11.6,4.3,16-0.2c4.3-4.4,4.3-11.5-0.1-15.9
			C127.6,134.1,120.5,134.2,116.1,138.6z M141.5,60.5c-4.4,4.5-4.3,11.6,0.2,16c4.5,4.4,11.6,4.3,16-0.2c4.3-4.4,4.3-11.5-0.1-15.9
			C153.1,56,145.9,56,141.5,60.5z M97,88.9c-4.4,4.5-4.3,11.6,0.2,16c4.5,4.4,11.6,4.3,16-0.2c4.3-4.4,4.3-11.5-0.1-15.9
			C108.5,84.4,101.4,84.4,97,88.9C97,88.9,97,88.9,97,88.9z M194.8,193.6c-4.4,4.5-4.3,11.6,0.2,16c4.5,4.4,11.6,4.3,16-0.2
			c4.3-4.4,4.3-11.6-0.1-15.9C206.3,189,199.2,189.1,194.8,193.6C194.8,193.5,194.7,193.6,194.8,193.6L194.8,193.6z M189.8,35.4
			c7.1-6.4,18.1-5.9,24.5,1.3c5.9,6.5,6,16.4,0.2,23 M107.1,16.8c0.4-9.6,8.4-17.1,18-16.7c9.1,0.3,16.4,7.7,16.7,16.9 M35.1,61.2
			C28.8,54,29.6,43,36.9,36.7c6.5-5.7,16.3-5.7,22.8,0 M16.2,143.9c-21.7-1.2-21.5-33.4-0.1-34.7 M61.5,215.5
			c-7,6.6-18,6.3-24.6-0.7c-6.1-6.5-6.4-16.6-0.5-23.3 M143.3,238.5c-2.7,9.2-12.3,14.5-21.5,11.9c-8-2.3-13.3-10-12.5-18.4
			 M217.2,191.7L217.2,191.7c5.4,8,3.3,18.8-4.6,24.1c-5.2,3.5-11.8,3.9-17.4,1.2 M234.9,107.3c9.6,0.6,16.8,8.9,16.2,18.4
			c-0.5,8.6-7.3,15.5-15.9,16.2 M193.5,56.4c4.5,4.4,11.6,4.3,16-0.2c4.4-4.5,4.3-11.6-0.2-16c-4.4-4.3-11.5-4.3-15.9,0.1
			C189,44.9,189,52,193.5,56.4z M41.7,210.9c4.4,4.4,11.6,4.3,16-0.1s4.3-11.6-0.1-16s-11.6-4.3-16,0.1c0,0,0,0-0.1,0.1
			C37.2,199.4,37.3,206.5,41.7,210.9z M135.8,17.3c-0.2-6.2-5.5-11.1-11.7-10.9c-6,0.2-10.8,5.1-10.9,11.1
			C113.4,32.5,135.9,32,135.8,17.3z M118.6,241.9c4.4,4.4,11.6,4.3,16-0.1c4.4-4.4,4.3-11.6-0.1-16c-4.4-4.4-11.6-4.3-16,0.1
			c0,0,0,0,0,0C114.1,230.4,114.2,237.5,118.6,241.9z M233.9,135.9c6.2-0.1,11.2-5.2,11.2-11.4c-0.1-6.2-5.2-11.2-11.4-11.2l0,0
			C219,113.5,219,136.1,233.9,135.9z M17.3,137.9c14.7-0.1,14.8-22.7-0.2-22.6C2.3,115.4,2.3,138,17.3,137.9L17.3,137.9z"/>
	</g>
</g>
</svg>
