<?xml version="1.0" encoding="utf-8"?>
<!-- Generator: Adobe Illustrator 23.0.6, SVG Export Plug-In . SVG Version: 6.00 Build 0)  -->
<svg version="1.1" id="Calque_1" xmlns="http://www.w3.org/2000/svg" xmlns:xlink="http://www.w3.org/1999/xlink" x="0px" y="0px"
	 viewBox="0 0 321 266" style="enable-background:new 0 0 321 266;" xml:space="preserve">
<style type="text/css">
	.st0{fill:#FFFFFF;}
</style>
<title>maillage</title>
<g>
	<g id="Calque_1-2">
		<path class="st0" d="M96.9,104.7l23.8,0.3 M91.5,144.4l-5.2-27.1 M66.8,141.5c0,0.1-0.1,0.3-0.1,0.4l17.5,9 M73.2,74.8l-17.8,44.9
			 M123.4,97.2L123.4,97.2L93.2,72 M146.6,121.6l6.5,17.7 M130.6,75.1l5.2,14.1 M132.2,90.1l-5-13.6 M95.6,69.3l30,25 M141.1,32.6
			L96.6,51.3 M174.1,62.9l-12.1-19 M205.3,109.8l-13.4-17.1 M250,130.2l-22.6-6.4 M225.3,158.5l24.8-19.7 M174.4,158.1l20.8,5.1
			 M55.5,152.8l18.9,44.4 M82.8,154.3L82.8,154.3l-17.7-9.1 M86.3,195.5l4.9-24.2 M127.5,120.2L106.6,147c0.2,0.2,0.8,0.4,0.6,0.5
			 M149.6,140.5l-6.4-17.5 M138.1,187.3l9.1-16.9 M150.4,172.2l-9.1,16.9 M176,198.3l-12.8-25.8 M166.4,170.9l12.8,25.7
			 M194.3,166.8l-20.7-5.1 M251.5,142.4l-24.3,19.3 M245.5,196.7L262,151 M176.8,241.3l45.8-18.9 M98.4,219.8c0,0.1-0.1,0.2-0.1,0.2
			l45.7,15.8 M94.8,172.3l-5,24.3 M103.6,144.9l21.2-27.2 M89.9,116.5l5.1,26.9 M120.8,108.6L120.8,108.6l-24-0.3 M165.4,42.5
			L165.4,42.5l12.1,18.9 M219,50.1l-45-17.4 M198.6,71.2l19.4-7.4 M195,90.2l-0.2,0.2l0,0l13.3,17 M219.6,67l-19.9,7.6 M217.2,105.4
			l8.6-32.4 M228.4,120.4l22.9,6.4 M229.1,74.6L229.1,74.6l-8.4,32 M261.7,117.8l-19-44.5 M247.6,69.4l20.3,47.6 M174.9,26.6
			l47.9,18.5 M92.7,46.4l47.5-20 M49.2,118.9l19-48 M69.5,201.1l-20.2-47.6 M142.2,241.6l-47.7-16.5 M228.2,226.7l-51.9,21.4
			 M268.2,151.7l-18,49.8l0-0.1"/>
	</g>
</g>
</svg>
