<svg id="Calque_1" data-name="Calque 1" xmlns="http://www.w3.org/2000/svg" viewBox="0 0 87 110">
  <defs>
    <style>
      .cls-1 {
        fill: #fff;
      }
    </style>
  </defs>
  <title>center</title>
  <path class="cls-1" d="M122.5,114A28.5,28.5,0,1,0,94,85.5,28.5,28.5,0,0,0,122.5,114Zm0-46.14A17.64,17.64,0,1,1,104.86,85.5h0A17.64,17.64,0,0,1,122.5,67.86ZM84.44,167a5.45,5.45,0,0,0,5.43-5.49h0V156a21.89,21.89,0,0,1,21.76-22h21.78a21.87,21.87,0,0,1,21.75,22h0v5.5a5.44,5.44,0,0,0,10.88,0V156a32.81,32.81,0,0,0-32.62-33H111.66A32.81,32.81,0,0,0,79,156h0v5.5a5.47,5.47,0,0,0,5.44,5.5h0Z" transform="translate(-79.04 -57)"/>
</svg>
