<svg id="Calque_1" data-name="Calque 1" xmlns="http://www.w3.org/2000/svg" viewBox="0 0 426.93 422.53">
  <defs>
    <style>
      .cls-1 {
        fill: #fff;
      }
    </style>
  </defs>
  <title>cercle</title>
  <path class="cls-1" d="M9.09,219.87H68.41C72.68,293,131.05,351.42,204.42,356v58a9.09,9.09,0,0,0,18.17,0V356c73.36-4.6,131.73-63,136-136.15h59.33a9.05,9.05,0,1,0,0-18.1H358.5C353.58,129.22,295.43,71.55,222.59,67V9.05a9.09,9.09,0,0,0-18.17,0V67c-72.84,4.56-131,62.23-135.92,134.78H9.09a9.05,9.05,0,0,0,0,18.1ZM212,86c70.14,0,127,56.64,127,126.5S282.14,339,212,339,85,282.36,85,212.5,141.86,86,212,86Z" transform="translate(-0.04 -0.26)"/>
</svg>
