<svg id="Calque_1" data-name="Calque 1" xmlns="http://www.w3.org/2000/svg" viewBox="0 0 242.95 58">
  <defs>
    <style>
      .cls-1 {
        fill: #fff;
      }
    </style>
  </defs>
  <title>rond-enbas</title>
  <path class="cls-1" d="M116,322a24.5,24.5,0,1,0-17.42-7.16A24.5,24.5,0,0,0,116,322Zm-9.61-34.11a13.61,13.61,0,1,1,.34,19.24l-.17-.16A13.6,13.6,0,0,1,106.39,287.89ZM309.82,313a24.5,24.5,0,1,0-17.32-7.19A24.5,24.5,0,0,0,309.82,313Zm-9.64-34.11a13.61,13.61,0,1,1,0,19.25,13.62,13.62,0,0,1,0-19.25Z" transform="translate(-91.39 -264)"/>
</svg>
